<?xml version="1.0" encoding="utf-8"?>
<!-- Generator: Adobe Illustrator 17.0.0, SVG Export Plug-In . SVG Version: 6.00 Build 0)  -->
<!DOCTYPE svg PUBLIC "-//W3C//DTD SVG 1.1//EN" "http://www.w3.org/Graphics/SVG/1.1/DTD/svg11.dtd">
<svg version="1.1" xmlns="http://www.w3.org/2000/svg" xmlns:xlink="http://www.w3.org/1999/xlink" x="0px" y="0px" width="1200px"
	 height="1920px" viewBox="0 0 1200 1920" enable-background="new 0 0 1200 1920" xml:space="preserve">
<g id="Layer_3">
	<rect fill="#020202" stroke="#000000" stroke-miterlimit="10" width="1200" height="1920"/>
</g>
<path id="Violin" fill="none" stroke="#FFFFFF" stroke-miterlimit="10" d="M615,1695c0,0,51,3,63,0s46-23,60-18s17,19,17,34
	s4,60-11,68s-107.8-22.3-124-11c-24.3,17-51.2,7.4-79,20.3c0,0-0.7,4-14,5.3c-13.3,1.3-44-3.3-49.3-24.7c-5.3-21.3-10-38.7,0-61.3
	c10-22.7,2-46.7,1.3-56c-0.7-9.3-14.7-52-13.3-72c1.3-20,18-50.7,18-77.3c0-26.7-4.7-32.7-10.7-51.3s-4.7-43.3,13.3-48.7
	c18-5.3,42.7,2.7,60,9.3c17.3,6.7,24,31.3,53.7,26c29.7-5.3,50.3-24.7,81.7-26.7c31.3-2,33.3,36.7,54,40.7c20.7,4,45.3-6.7,73.3-14
	c28-7.3,50-26,83.3-27.3c33.3-1.3,80.7,29.3,159.3,16c78.7-13.3,86-42.7,96.7-64c10.7-21.3,35.3-65.3,26-100
	c-9.3-34.7-13.3,15.3-13.3-82.7s-52.7-105.3-69.3-90.7c-16.7,14.7-44.7,68.7-32,82.7c12.7,14,56,17.3,59.3,56
	c3.3,38.7,36,90,16,117.3s-34,77.3-53.3,36c-19.3-41.3-4-53.3,12.7-68.7c16.7-15.3,38.7-32.7,20-62.7c-18.7-30-41.3-42.7-26.7-97.3
	c14.7-54.7,2.7-86-18.7-86s-54.7-10.7-82.7,13.3s-118.7,44-129.3,77.3s-14,11.3-17.3,42.7c-3.3,31.3,9.3,58.7-6,54.7
	c-15.3-4-23.3-5.3-26.7-23.3s18.7-24,16.7-62.7c-2-38.7-20.7-57.3-20.7-87.3s21.3-73.3,3.3-137.3S759,895.7,759,911s-20.7,48,7.3,49
	s29.3-101,60-125.7c30.7-24.7,74-54.7,90.7-44c16.7,10.7,65.3,14.2,76.7-2.2c11.3-16.5,29.3-107.8,16-128.5
	c-13.3-20.7-54.7-13.3-51.3-58c3.3-44.7-6-47.3,18.7-46.7s93.3,6.5,103.3-0.1s51.3-9.9,64-7.9c12.7,2,26.7,44.7,26.7,66.7
	s-4,63.3,0,90.7c4,27.3,12.7,30.7,13.3,67.3c0.7,36.7-52.7,20-62.7,40s-45.3,35.3-61.3,3.3s10.7-20.7-27.3-72s-60.7-37.3-67.3-62
	c-6.7-24.7,70.7-124.7,80.7-180.7s72.7-68,77.3-100c4.7-32,15.3-81.3-10.7-100.7c-26-19.3-20-100.7-2-104
	c18-3.3,42.7,16.7,17.3,46.7c-25.3,30-27.3,132-54,106.7c-26.7-25.3-1.3-40-27.3-90.7s-94.7-22.7-115.3-12
	C911,257,849,271,842.3,326.3c-6.7,55.3-2.7,133.3,9.3,154.7s-2,30,66,30s96.7-1.3,116-41.3c19.3-40,25.3-76,16-123.3
	c-9.3-47.3-2-70-41.3-87.3s-82.7-33.3-125.3-34s-132.7,24.7-146,0.7s22-46.7,53.3-47.3c31.3-0.7,25.3-12.7,108,0
	c82.7,12.7,78,24.7,152-2.7s91.3-107.3,106.7-77.3s-78.7,171.3-76.7,228.7s-24,184.7-56.7,200.7c-32.7,16-133.3,26-172,24
	c-38.7-2-124.7-22.7-143.3-21.3c-18.7,1.3-20.7,28-24,49.3c-3.3,21.3-46,37.3-55.3,10c-9.3-27.3,12.7-54.7-16-71.3
	c-28.7-16.7-70.7-10-71.3,10c-0.7,20-10,0.7-16.7,46c-6.7,45.3-13.3,48-33.3,36.7s-9.3-51.3-32-58.7c-22.7-7.3-32,25.3-32,40
	c0,14.7-7.3,60-7.3,78.7s3.3,78.7-3.3,103.3c-6.7,24.7,16.7,41.3-32,49.3s-61.3,28-61.3,28S307,825,310.3,894.3
	c3.3,69.3-6,134-15.3,148s-38,56-64,62.7s-80,0.7-124.7-0.7c-44.7-1.3-34.7-152-32.7-155.3s54.7-111.3,71.3-114.7
	c16.7-3.3,127.3-35.3,128,10c0.7,45.3,11.3,108.7,12.7,144.7c1.3,36,6,89.3,28.7,130.7C337,1161,333.7,1227,333.7,1227
	s-7.3,161.3-18,174.7c-10.7,13.3-94,26-126,18s-69.3-35.3-68-64c1.3-28.7-32-56-12.7-102s58.7-98,72.7-102s73.3-38,96.7-28
	c23.3,10,145.3-16,182.7-15.3c37.3,0.7,157.3,2.7,181.3,7.3c24,4.7,132.7,20,146.7,10s19.3-300.7-6-316
	c-25.3-15.3-152.7-7.3-192,0.7s-64.7,22-108.7,9.3c-44-12.7-300-1.3-299.3-18.7s-14-96.7,1.3-114.7s6-111.3,18-134
	c12-22.7-53.3-42-54.7-53.3c-1.3-11.3-18.7-42.7-18-73.3C130.3,395,110.3,325,127,311s28-51.3,72-48s164.7,13.3,171.3,7.3
	c6.7-6,49.3,32,58.7,32s93.3,9.3,122,3.3s102.7,7.3,126.7-17.3c24-24.7,44-78,42.7-88c-1.3-10-54-63.3-73.3-65.3s-88.7-18-112.7-7.3
	c-24,10.7-146.7,46-156.7,64.7s-92,40-84.7,55.3s44.7,57.3,63.3,57.3c18.7,0,55.3,8.7,78.7,12.7s38-1.3,56.7-1.3
	c18.7,0,104.7-38,132-35.3c27.3,2.7,86,17.3,106.7,17.3c20.7,0,67.3,2.7,86-8c18.7-10.7,39.3-84.7,28-95.3
	c-11.3-10.7-12-28.7-50.7-30.7c-38.7-2-66.7,28.7-92,29.3c-25.3,0.7-54-23.3-60-30c-4.5-5-12.4-18.2-26-24.6
	c-4.5-2.1-9.7-3.4-15.7-3.4c-5.4,0-13.8-0.1-23.7-0.1c-33.9,0-85.1,1.4-91.3,14.8c-8,17.3-58,16.7-58,32s-90,30.7-50.7,56
	s47.3,46,70,46c22.7,0,72.7-10,98-6.7c25.3,3.3,58.3,16,83.5,9.3s32.5-10.7,42.5-41.3s30.7-55.3,15.3-66c-15.3-10.7,14,2-34.7-30
	s-50-41.3-68-38.7s-45.3-6-50.7,4.7c-5.3,10.7-20.7,34-33.3,46S436.3,195,436.3,205s-78.7,7.3-44,30s3.3,48,56.7,36s100,12,151-1.3
	c51-13.3,64.3-27.3,64.3-53.3s18.7-35.3-10.7-56.7c-29.3-21.3-48-48-70.7-44s-59.3,6-79.3,14.7c-20,8.7-96,42.7-96,74.7
	s38.7,50,44.7,50s72.7,7.3,86.7,7.3s65.3-6,75.3-9.3c10-3.3,80.7-2,84-18.7c3.3-16.7,22-30.7-1.3-54.7s-104.7-52-123.3-50.7
	C555,130.3,469,146.3,453,161.7S414.3,205,425,219s62.7,72,74.7,72S639,281,647,268.3c8-12.7,50.6-35.5,48.7-55.3
	c-1.9-19.9-73.8-92-95.7-90s-102.3,14-107.7,27.3c-5.3,13.3-44.7,16-46.7,37.3s-3.3,36,10.7,42.7c14,6.7,114.3,45.6,130,48
	c15.7,2.4,71.3-51.3,64.7-74.7s-41.3-62.7-51-59.3c-9.7,3.3-78.3-4-83,20.7s26,56,44.7,56c18.7,0,52,1.3,46-20s12-49.3-12.7-46.7
	c-24.7,2.7-65.3-4-66.7,14.7c-1.3,18.7,25.3,38.7,35.3,37.3c10-1.3,37.3-18,36.3-26.7c-1-8.7-12.3-18-21.7-18
	c-9.3,0-29.3,4-29.3,12.7c0,8.7-3,17.8,20,17.3c23-0.4,48.3,11.3,58.8,4.7c10.5-6.7,10.2-33.3,0-42c-10.2-8.7-101.5-15.3-107.5-7.3
	s-51.3,37.3-40.7,55.3c10.7,18,50,39.3,64.7,39.3c14.7,0,30,2,55.7-5.3c25.7-7.3,57.7,5.2,71.7-18.7c14-23.8-82.7-83.1-105.3-78.7
	c-22.7,4.4-62.7,22.7-63.3,41.3s16,48,32,48s50.7,12.7,79.3-4.7c28.7-17.3,15.3-29,13.5-44.7s-34.8-28.7-54.2-28.7
	c-19.3,0-107.3,24.7-108,49.3c-0.7,24.7,53.3,53.3,68,53.3c14.7,0,74-16.7,82-43.3s0-45.3-18.7-46.7s-103.5,10.5-104.7,31.3
	s91.3,54,101.3,54s44-10.7,45.3-32s-65.3-56.1-85.3-56c-20.1,0.1-103.3,32-97.3,49.3s200.7,56,216,49.3c15.3-6.7-4.7-63.3-18.7-66
	S567,128.3,545,139.7c-22,11.3-56.7,34-35.3,56c21.3,22,62,26,75.3,18.7c13.3-7.3,18.7-12,18.7-26s-4.7-30.7-18.7-30
	c-14,0.7-56,2.7-46,18.7s36.7,16.7,42.7,8.7s2.7-10-4-12.7c-6.7-2.7-13.3-8.7-19.3-2s4,10,4,10"/>
<path id="Cello" fill="none" stroke="#FFFFFF" stroke-miterlimit="10" d="M92.3,1678.3c0,0-24-28-24-46.7c0-18.7,17.3-29.3,17.3-40
	c0-10.7,4-35.3-5.3-44.7s-21.3-27.3-22.7-40c-1.3-12.7-20-38.7-26.7-9.3c-6.7,29.3,8.7,70.7,0,92c-8.7,21.3-13.3,34.7-6,36
	c7.3,1.3,31,0,31.8-24s-11.1-39.5-3.2-60.7s14-52.9,26-56.8c12-3.9,31.3-29.2,32.7-36.6c1.3-7.3,35.3-20.7,50.7-20.7
	s13.3,10,35.3,11.3c22,1.3,58-13.3,68-11.3s14-10.4,36-0.2s24.7,24.2,50,17.5c25.3-6.7,40-24,51.3-13.3c11.3,10.7,18,10,17.3,27.3
	c-0.7,17.3,1.3,30-3.3,40c-4.7,10-8,24-6.7,34.7s-6,49.3-4.7,62c1.3,12.7-6,42,3.3,48.7c9.3,6.7,24.7-2,23.3-19.3
	c-1.3-17.3-2.7-26-8.7-36.7c-6-10.7-21.3-35.3-20.7-42.7c0.7-7.3,26.8-26.7,29.4-42.7s4.6-26,4.6-34.7c0-8.7-4-19.3-4-36.7
	s-2-22,18.7-22c20.7,0,70.7-18.7,84.7-20.7s38.7-7.3,36.7,16c-2,23.3,18.7,38-33.3,28s-118.7-36.7-134-30
	c-15.3,6.7-43.3,15.3-68.7,6.7c-25.3-8.7-57.3-1.3-72.7-11.3s-44.7-32.7-72-22c-27.3,10.7-58,23.3-41.3,33.3s72.1,17.5,86-1.3
	c13.9-18.9,33.3-16,54-22c20.7-6,30.7-12,31.3-30.7s-2-80,2.7-82c4.7-2,6.7-23.3,33.3-23.3s69.3,7.3,69.3-13.3
	c0-20.7,10-50.7,13.3-54.7c3.3-4,29.3-23.3,0-18.7c-29.3,4.7-26.7,46-72.7,32s-43.3-16.1-48-32.7c-4.7-16.6-23.3-19.3-42-18.6
	c-18.7,0.7-111.3,16.7-111.3,16.7s-37.3-4.7-45.3,12c-8,16.7-40.7,18.7-38.7,35.3c2,16.7,67.3,20.7,64.7,47.3
	c-2.7,26.7,13.3,36-2.7,58s-49.3,10.7-56,30.7c-6.7,20-36,28-1.3,48s86.7,43.3,96,35.3c9.3-8,18.4-23.1,4-33.3
	c-14.4-10.2-54.7-11.3-59.3-30c-4.7-18.7-31.3-27.3-31.3-48.7s11.3-52,17.3-60s21.3-30,10-43.3c-11.3-13.3-30.7-37.3-39.3-41.3
	s-20-24.7-20-36c0-11.3,8.7-24.7,22.7-24.7s42.7,12.7,64,16c21.3,3.3,36.7-23.3,60.7-28.7s7.3-18.7,48.7,0s68.7,43.3,80,38
	c11.3-5.3,45.3,2,45.3,2l44-21.3c0,0-7.3-1.3,10.7-1.3s56.7,0,67.3,2c10.7,2,47.3,16,61.3,12s79.3,22,88.7-6s4-35.9-34.7-34.9
	c-38.7,0.9-66.7,8.3-88.7,7.6s-34-10-58-7.7c-24,2.4-58.7,9-84.7,23s-56,35.3-90.7,17.3s-144-14-180.7-37.3
	C85,1067,57,1037,68.3,1024.3c11.3-12.7,32.7-25.3,29.3-44c-3.3-18.7-26-24-29.3-48.7c-3.3-24.7-29.3-27.3-10-46
	c19.3-18.7,27.3-1.3,50-14.7s30.7-15.3,43.3-11.3c12.7,4,22-21.3,32.7-38.7c10.7-17.3-5.3-62.7-5.3-62.7s-4.7,24.7,0-28.7
	c4.7-53.3,25.3-95.3,18.7-121.3c-6.7-26,5.3-22.7-23.3-32c-28.7-9.3-58,42-68-27.3s34.7-52-10-69.3c-44.7-17.3-38.7-9.3-45.3,12.7
	c-6.7,22,10.7,40.7,10.7,61.3c0,20.7-3.3,26-9.3,54.7c-6,28.7-29.3,66-15.3,79.3c14,13.3,27.3,0.7,23.3,34.7s-18.7,58-7.3,72
	s9.3,36,24.7,30s23.3-24.7,51.3-12.7s98,36,109.3,31.3c11.3-4.7,62.7-23.3,92-15.3c29.3,8,29.3,18.7,50.7,4.7s38.7-3.3,38.7-33.3
	s0.7-26.7,5.3-54s-14.7-36.7-4-53.3c10.7-16.7,36-18.7,42-39.3c6-20.7,4-61.3-23.3-64.7c-27.3-3.3,4-34-28-38S343,569,316.3,568.3
	c-26.7-0.7-74,15.3-82.7-2.7C225,547.7,167,559,165,539s-38.7-71.3-52.7-98S71,336.3,89.7,319.7c18.7-16.7,62.7-41.3,63.3-58.7
	s-16.7-22-20.7-51.3S119.7,129,101,149s-58.7-2-41.3,36.7s13.3,88.7,48.7,86c35.3-2.7,62.7-66,94-66.7s37.3-3.3,79.3,24
	s98,12.7,110.7,5.3c12.7-7.3,32.7-2,24,28c-8.7,30-64.7,14.7-64.7,38c0,23.3-4.7,46.7-2.7,61.3c2,14.7,10.7,45.3,10,60.7
	c-0.7,15.3-14,24-14,46.7s11,28.7-2.8,38.7c-13.8,10-30.5,6.7-55.8,14.7c-25.3,8-74.7-6.7-76,18.7c-1.3,25.3-32,72-30,88
	s25.3,57.3,21.3,88.7c-4,31.3-19.3,78.7,12,86c31.3,7.3,50,34.7,63.3,46.7s34,16,30.7,44.7c-3.3,28.7-23.3,22.7-21.3,58
	s-10.7,93.3,3.3,120.7c14,27.3,18.7,14,18-12c-0.7-26-26-57.3-13.3-84c12.7-26.7,54,2.7,53.3-52C347,871,295,847,245,857.7
	c-50,10.7-134.7,21.3-146.7,42.7c-12,21.3-34.7,40-24.7,71.3c10,31.3-6.1,103.4,18.7,124s30,48.7,72.7,41.3s14.7-38.7,70.7-35.3
	c56,3.3,60.7-10,111.3,4.7c50.7,14.7,104.7,24.7,129.3,20c24.7-4.7,74-20,101.3-19.3c27.3,0.7,101.3,21.3,134,10.7
	c32.7-10.7,31.3-12,77.3-2.7s189.3,4,202-8.7c12.7-12.7,39.3-38,69.3-35.3s18.7,52,19.3,85.3c0.7,33.3,34.7,72,29.3,115.3
	c-5.3,43.3-28,38-34.7,81.3c-6.7,43.3-35.3,44-75.3,41.3c-40-2.7-92.7,26-136,20.7s-56-28-97.3-12.7c-41.3,15.3-97.3,22-112,12.7
	c-14.7-9.3-228,15.3-252,8s-84,27.3-80.7-8s9.3-174,27.3-186.7c18-12.7,16.7-48,10.7-48.7c-6-0.7-76-77.3-76-94.7
	s21.3-223.3,42-224.7c20.7-1.3,134.7-25.3,157.3-26.7c22.7-1.3,76.9,4.7,83.1-7.3s12.9-12.7,53.5-12.7s66,13.3,94,16.7
	c28,3.3,60.7,21.3,82.7,8c22-13.3,8-54.7,55.3-39.3s70,37.3,102,32.7c32-4.7,82-30,102.7-30c20.7,0,26.7,12,34,33.3
	c7.3,21.3,10,66.7,22.7,70c12.7,3.3,26.7,31.3,10.7,55s-44.7-40.3-45.3,7c-0.7,47.3,58.7,64,46.7,92.7c-12,28.7-40.7,30-68.7,32
	s-96.7-14-110,2.7c-13.3,16.7-77.3,56.7-94,44c-16.7-12.7-45.3-28-45.3-52s5.3-72-1.3-90.7c-6.7-18.7-28.7-2.7-31.3-46
	c-2.7-43.3,1.3-57.3,24-68.7c22.7-11.3,34-15.3,36-42s50-18,82.7-32c32.7-14,57.3-41.3,57.3-54s-14.7-52.7,1.3-75.3
	c16-22.7,26-20,18-59.3c-8-39.3,20.7-28.7,30.7-38.7c10-10,62.7-12.7,75.3-18c12.7-5.3,40.7-23.3,44-4c3.3,19.3,13.3,33.3,17.3,54
	c4,20.7-6.7,45.3-6,64.7c0.7,19.3,9.3,32.7,0.7,64.7s-37.3,21.3-43.3,43.3s-29.3,49.3-58,43.3c-28.7-6-62.7,2-50.7-64s30-71.3,4-96
	c-26-24.7-23.3-26-32-54s-18-46.7-18-66c0-19.3,6-40.7-16.7-40.7c-22.7,0-90.7,22-126,22c-35.3,0-115.3-4-138.7-7.3
	c-23.3-3.3-90,11.3-142-5.3c-52-16.7-61.3-12-71.3,4.7c-10,16.7,18,15.3,48,9.3c30-6,116-41.3,125.3-40c9.3,1.3,201.3,46,220.7,50.7
	c19.3,4.7,64.7,12,58.7,0.7c-6-11.3-20.7-23.3-40.7-38s-28.7-30.7-28-72c0.7-41.3-8-100.7-18.7-116.7c-10.7-16-6-36.7,20-54.7
	s96.7-22.7,116-33.3c19.3-10.7,46.7-58.7,67.3-67.3c20.7-8.7,49.3,2,53.3,26.7s-7.3,67.3-9.3,92s42.7,35.3,34,78s-18,50-12.7,80.7
	c5.3,30.7,26.7,71.3,2.7,86c-24,14.7-57.3,48.7-72.7,12.7c-15.3-36-20-54.7-40.7-35.3C965,519.7,945,527,933,527s-82.7,1.3-82.7-20
	c0-21.3,11.3-79.3,8-110.7c-3.3-31.3,6-64.7-12-96s-64-71.3-76-73.3s-34.7-1.3-48-22.7C709,183,671.7,163,651,181s-9.3,78.7-26,94.7
	S453,332.3,438.3,323c-14.7-9.3-119.3-26.7-122.7-50c-3.3-23.3-29.3-40-8-52.7c21.3-12.7,70.7-42.7,95.3-44
	c24.7-1.3,73.3-15.3,88.7-21.3c15.3-6,59.3-41.3,69.3-38s80.7,20,100.7,29.3c20,9.3,138.7,21.3,146.7,40s23.3,31.3,10,43.3
	c-13.3,12-22,34-54.7,34c-32.7,0-71.3,28.7-90,26c-18.7-2.7-98-2-111.3-0.7c-13.3,1.3-26.7,8.7-54.7,8.7c-28,0-61.3,10-72,12
	c-10.7,2-24.7,24.7-38.7,17.3s-48-40-48-56.7s-16.7-40.7,0-52c16.7-11.3,46.7-25.3,68-30.7c21.3-5.3,43.3-34,49.3-34.7
	c5.5-0.6,54.5-16.9,88.9-18.6c3.2-0.2,6.2-0.2,9.1-0.1c9.4,0.4,22.1,1.1,35.7,2.1c35.5,2.5,77,6.1,82.3,6.6
	c7.3,0.7,92.2-2.3,102.7,16s53.3,26.7,64,30s10.7,37.3,2,45.3s-14.7,46.7-33.3,47.3c-18.7,0.7-36.7,26.7-58,10.7
	c-21.3-16-25.3-45.3-47.3-47.3s-55.8,13.8-68.7,17.3c-12.9,3.5-37.3-6-61.3,0s-56,20.7-70,20.7c-14,0-90.7,30-112,20.7
	c-21.3-9.3-78-22-75.3-43.3c2.7-21.3,46-86,68.7-92c22.7-6,137.3-26.7,144.7-26.7c4.4,0,47.1,3.4,83.6,6.8c23.9,2.2,45,4.5,51.1,5.8
	c15.3,3.3,109.3,22,116.7,27.3C797,187,803,207,803,219s6,54-14.7,56c-20.7,2-93.3,10.6-116-2s-62,2-92.7,4
	c-30.7,2-131.3,18.7-148.7,12s-65.3-16-67.3-23.3c-2-7.3-56-71.3-28.7-78.7s103.3-8.7,122.7-12.7c19.3-4,48.7-18,60.7-22.7
	c12-4.7,61.4-42.6,81.7-30.7s65,52,99,52s64-10.7,73.3-10.7c9.3,0,44.7-5.3,58.7,3.3c14,8.7,62.7,32,46,49.3s-26.7,22-44,23.3
	c-17.3,1.3-70,6-81.3,14c-11.3,8-41.2,2.2-57.3,12.7s-73.3,33.3-88,35.3c-14.7,2-110.7,10.1-133.3,8s-104-20-106.7-31.3
	c-2.7-11.3-26.6-22.7-32-26c-5.4-3.3-22-10.7-19.3-26s16.8-31.1,32.7-33.3c14.2-2,86.2-2.6,115.1-6c3.4-0.4,6.2-0.8,8.2-1.3
	c19.3-4.7,105.5-48.9,124.7-42.7c19.2,6.2,88.7,8,94.7,21.3s35.3,26,52.7,26.7c17.3,0.7,34,16,24.7,24c-9.3,8-74.7,45.3-84.7,45.3
	s-223.3,38-236.7,24c-13.3-14-36.7-75.3-30-76c6.7-0.7,43.3-30,46-30c2.7,0,106.7-30,116.7-28c6.2,1.2,20.6,8.5,29.9,17
	c5.6,5.1,9.5,10.7,8.7,15.7c-2,13.3,0.6,42-26.4,42.7c-27,0.7-96.3,13.3-97,2c-0.7-11.3,4.7-38.7,17.3-39.3s29.3-21.3,48.7-21.3
	c19.3,0,40.7,5.3,39.7,10c-1,4.7,7.7,31.3-3.7,31.3c-11.3,0-75.3,8.7-92,14.7c-16.7,6-41.8,23.9-60,24c-18.2,0.1-48.7,6.7-56-4.7
	c-7.3-11.3-8-33.3-2-35.3s119.6-81.3,132-78s120.7,12,117.3,39.3c-3.3,27.3-2.7,54.7-10,64c-7.3,9.3-90.7,38-112,38
	c-21.3,0-74.7-18.7-72-40c2.7-21.3,13.3-32.7,24-32.7c10.7,0,75.3-34.7,84.7-34.7c9.3,0,85.3-2,98,8.7C661,181,683,197,681.7,213.7
	c-1.3,16.7-12.7,28.7-20,32.7c-7.3,4-130.7,20-146,10.7c-15.3-9.3-55.3-30-55.3-38.7c0-8.7,30.8-59,46-66.7c15.2-7.6,98.7-2,114,6.7
	c15.3,8.7,40,18,40,37.3s2,34.7-8.7,38.7c-10.7,4-78.7,12.7-99.3,9.3c-20.7-3.3-70-20.7-74.7-30c-4.7-9.3-32-9.3-30-21.3
	s111.3-65.3,132-62.7c20.7,2.7,90,22.7,102,53.3s18,52.7,7.3,53.3C678.3,237,509.7,273,494.3,259c-15.3-14-44.7-9.9-44-34.7
	c0.7-24.8,75.3-105.8,84.7-107.6s29.3-15.8,40-9.8s64,69.3,64,77.3S598.3,233,581,233s-85.5,8.4-88.7,2c-3.2-6.4-12.7-31.3-9.3-36.7
	c3.3-5.3,55.6-73.7,68.7-73.1c13,0.6,88.5,18.3,89.2,31.5c0.7,13.3,13.3,51.6,8,58.9c-5.3,7.2-44.5,14.8-57.6,19.4
	c-13.1,4.6-75-14.4-75-28.5c0-14.1-3.8-36.5,6.8-39.9c10.6-3.4,111.7-20.1,103.7,8.7c-8,28.9-25.4,42.9-41,43.7
	c-15.6,0.8-60-4.2-60.4-16s13.7-46.3,24.3-46.3s58.5,6.8,57.7,17.1s-49.7,44.1-58.5,35.7c-8.7-8.4-19.7-16.3-16-22
	c3.8-5.7,14.1-13.3,24.3-13.3s27.3-1.1,25.8,6.8c-1.5,8-12.5,22.4-20.1,16.7c-7.6-5.7,1.1-13.7,1.1-13.7"/>
</svg>
