<?xml version="1.0" encoding="utf-8"?>
<!-- Generator: Adobe Illustrator 17.0.0, SVG Export Plug-In . SVG Version: 6.00 Build 0)  -->
<!DOCTYPE svg PUBLIC "-//W3C//DTD SVG 1.1//EN" "http://www.w3.org/Graphics/SVG/1.1/DTD/svg11.dtd">
<svg version="1.1" xmlns="http://www.w3.org/2000/svg" xmlns:xlink="http://www.w3.org/1999/xlink" x="0px" y="0px" width="1200px"
	 height="1920px" viewBox="0 0 1200 1920" enable-background="new 0 0 1200 1920" xml:space="preserve">
<g id="fondo">
	<rect fill="#060606" width="1200" height="1920"/>
</g>
<g id="Esc2Cello">
	<path id="CelloP1" fill="#FFFFFF" d="M113.25,1690.75l2-1.75l9-5.25l-1.5-157.25v-1.833c0,0,47.083-12.333,62.25-14.667
		s33-6.667,52.5-7.833c19.5-1.167,35-3.5,70.667,2.5s52.167,7.5,65.667,11.333s15.167,3.833,15.333,5.5
		c0.167,1.667,3.505,4.5,3.505,13.333c0,8.833,0,98.833,0,98.833s-0.005,6.333-0.005,7c0,0.667,0.333,18.833-4.667,36.167l-2.333,5
		l0.583,7.667c0,0,11.875-3.625,13-4.125s3.375-1.75,3.375-1.75s2.625-5.5,3.75-6.75s11.5-12.25,13.375-13.25s10.25-3.25,14.5-3.375
		s8.25,0.75,10.375,1.75s8.875,6.5,9.625,8.375s3.875,10.75,3.5,12.875s-4.75,15.375-5.125,16.25s0.125,23.375-0.25,24.875
		s-1.75,12.75-14.5,15.5s-16.5-4.75-20.875-4.625s-12.75,1.125-16.875,6.625c0,0,1.125,4.25,0,5s-2.375,1.745-2.375,1.745
		s2.625,27.005-1.125,35.38c0,0,0.625,2.375,0.75,3s5,9.875,5,9.875s-0.5,1.75-1.5,0.625s-7.75-6.25-7.75-6.25L387,1793.5l-4.125,9
		l-3.5,4.875l-2.5-2.75l4.5-10.125c0,0,1.5-1-4-0.375s-10.75,4.5-12.25,5.75s-7.625,5.125-14.75,4.625s-9.125-1.125-11-2.875
		s-2.25-4.625-8.25-5.875s-11.5,1.375-12.75,1.875s-4.125-2.25-5.75-3s-3.125-3.375-4.125-1.25s-1.125,3.25-3.25,4.375
		s-19.5,8.75-27.75,8.25s-23.5-11.75-24.375-11.875s-13.375-4.25-22.5,3.625S214.5,1809,213,1809s-10.875-0.375-13.625-1.75
		s-8.375-7-11.25-8.375S187,1794,181.375,1794s-13.75,1.625-15.875,2s-9.75,0.875-11.75,3.125s-5,5-8.625,5.25
		s-10.25,0.25-11.375-0.125s-9.125-2.375-9.125-2.375l-4.75-2.625c0,0,0.75-0.375-1.75-0.75s-5.5-0.125-6.75,0.125s-3.75,0.75-5,0.5
		s-4.125-2-5.5-2.625s-2-0.375-4-0.25s-5.5,0.25-6.625-0.25s-5.25,5.625-7,6.25s-5.125,4-5.75,4.25s-4.5,2-7.875,1.875
		s-10.25-2.625-10.75-3.875s-3.125-4.375-3.875-5.5s-7.625-5.75-10.375-3.875s-5.625,5-5.625,5.375s-2.25,11.125-2.25,11.125
		l-28.625-2.25c0,0,16.125-10.625,16.625-12.25s0.875-3.125,1.875-5.375s7.75-8,10.625-8.5s7-1,8.625-0.875s5-2.75,5-2.75
		s-7.875-22.125-12.25-26.25s-8.125-8.375-9.75-13S26.125,1710,26.125,1710s-3.75-2.375-1.625-4.125s9.125-7.375,9.125-7.375
		s6.125-5.875,7.375-7.5s4.625-3.25,2.75-4.5s-4.875-7.5-6.25-8.625s-5.5-4.75-3.5-7.625s1.75-7.75,2.25-9.375s-0.5-4-1-6.25
		s-2.75-3.375,1.5-4.125s3.75-2.75,5.625-3.375s4,0.25,4.625,2.5s2.375,4.604,2.125,6.552s-1.625,1.823-0.375,3.448
		s2.25,2.5,3.5,4.75s5.25,7.125,4,11.75s-3.625,9.375-3.625,9.375s6.75,10.625,7.5,10.875s6.375,3.75,14.375,3.5
		s13.25-0.125,15.5,0.625s16,9.875,16,9.875s3.75-1.25,6.875-1.625s8.5-1.375,8.5-1.375S121.625,1697.125,113.25,1690.75z"/>
	<path id="CelloP2" fill="#FFFFFF" d="M304,1356.25l-133.125,3L170,1275v-61.5c0,0-3.667-15.167,33.333-25.833
		C226.5,1183,236,1182,236,1182s19.167-2.167,36.667,2.833s31.625,11.667,32.458,17.167c3.47,30.5,3.192,57.23,3.375,77.375
		c0.589,64.746-1.75,76.75-1.75,76.75L304,1356.25z"/>
	<path id="CelloP3" fill="#FFFFFF" d="M132.667,983.833c0,0-1.75-68.917,0-72.667C147.5,902.5,174.75,897.75,192.25,897.75
		s50.083,1.583,54.75,4.25c4,3.5,5.333,56.333,5.333,73.833s-4.083,81.667-4.083,81.667s0.875,2.75-6.75,3
		c-12,0.5-80.75,2.625-80.75,2.625h-21.417l-3.667-1.292L132.667,983.833z"/>
	<path id="CelloP4" fill="#FFFFFF" d="M156.5,772.125l-61.667,2.542c0,0-6.613-39.998-6.667-50.333
		c-0.054-10.335-0.333-55.667,0-65.333c0.333-9.667,6.333-42.167,6.333-42.167s16.625-5.958,24-7.083s31.375-0.75,34.375,0.75
		c1.375,2.875,3.25,13.625,3,16.75s5.616,59.887,4.792,73.917C161.667,715.167,156.5,772.125,156.5,772.125z"/>
	<path id="CelloP4_1_" fill="#FFFFFF" d="M395.5,775.75c0,0-156.25,4-167,0c-4.5-8.75-8.258-69.498-8-80.25s-0.753-42.947,2.5-49.75
		c1.642-3.432,5.5-11.5,5.5-11.5s37.875-14.375,76-14.875s51.75-0.125,85.875,8.625c0,0,8.875,6.75,11.375,63.881
		C403.794,738.586,395.417,774.5,395.5,775.75z"/>
	<path id="CelloP4_2_" fill="#FFFFFF" d="M180.25,495.667c0,0-4.25-52.319-5.25-78.326s4.5-59.091,4.5-59.091
		s12-15.75,66.167-16.417c54.167-0.667,68,3,81.667,10.167c4.833,14.333,4.833,18.833,5.167,22.167c0.333,3.333,2,53.167,2,53.167
		v60.333c0,0-1,4.833-7.167,5.5C317.833,493.833,180.25,495.667,180.25,495.667z"/>
</g>
</svg>
