<?xml version="1.0" encoding="utf-8"?>
<!-- Generator: Adobe Illustrator 17.0.0, SVG Export Plug-In . SVG Version: 6.00 Build 0)  -->
<!DOCTYPE svg PUBLIC "-//W3C//DTD SVG 1.1//EN" "http://www.w3.org/Graphics/SVG/1.1/DTD/svg11.dtd">
<svg version="1.1" id="Esc2Violin" xmlns="http://www.w3.org/2000/svg" xmlns:xlink="http://www.w3.org/1999/xlink" x="0px" y="0px"
	 width="1200px" height="1920px" viewBox="0 0 1200 1920" enable-background="new 0 0 1200 1920" xml:space="preserve">
<g id="fondo_1_">
	<g id="fondo">
		<rect width="1200" height="1919.838"/>
	</g>
</g>
<path id="Violin1" fill="#FFFFFF" d="M512.5,1483.5c0,0-14.5,11-16,18.5c0,0-37.167-1-40.5,1.333c0,0-8.667-30.333-12.333-33.667
	c0,0-50.667-30-78.333-29.333c-11.667-12-25.333-44-27-50c-0.743-2.675-8.139-16.511-8-19.095c0.173-3.212,12,2.761,12,2.761
	s4.333,15.667,49.667,10.667s119.667-9,144-5.333c36,0.333,154.333,0.333,154.333,0.333s163.333,4.333,164.667,4
	c1.333-0.333,1.667-11.667,5.667-12c4-0.333,8-2,10.333,4.667c2.333,6.667,7.667,24.333,7.667,24.333s21.667,31,13,32
	c-8.667,1-99,24.333-105.333,33.333c0,0-12.667,18-15,33c0,0-34.333-4-44,2c0,0-3.333-21.333-33.667-26.333
	c0,0-28.333-13.667-87.667-11.333C546.667,1465.667,521.326,1475.681,512.5,1483.5z"/>
<path id="Violin2" fill="#FFFFFF" d="M330.667,1079.333c0,0-6.018,17.167-1.852,28.667c1.777,4.905,4.519,36,6.185,36
	s43.667,41.333,51,46s94.333,39.667,94.333,39.667s0.333-20.333,3.333-22c3-1.667,15.333-14,61.667-9.667
	c46.333,4.333,71.667,24.333,71.667,24.333s-0.667-16,37.667-13.667c0,0,28.667-1.333,29,6.333v4c0,0,8.667-9,22-12
	c13.333-3,41.667-6.667,53-5.667c0,0,16.333,4.333,17.667,7l1.333,6.667c0,0,11.667-7.333,16.667-16.667c5-9.333,11-32,11-43.833
	s0-57.5,0-57.5s-36.333-8-42.667-10c-6.333-2-11.667-8-21-7.667c-9.333,0.333-42.333-6-49-6c-6.667,0-46.333-5-113.667-3.667
	c-67.333,1.333-115.667,2.333-158.333,6c-45.333,6-72,14.333-76,12.667C340.667,1086.667,330.667,1079.333,330.667,1079.333z"/>
<path id="Violin3" fill="#FFFFFF" d="M440.333,783.667l-32.667,66.667c0,0,2.333,45.667,3.333,48.333c1,2.667,5.333,9.667,10,7.667
	s42-1,47-1s80,13.333,83.667,15.667c3.667,2.333,5.667,14.333,5.667,14.333s4.333-8.667,10.667-8.667s34.667,2,36.333,4
	C606,932.667,608,926,611,925s30-4.667,36.667-4c6.667,0.667,38.667,4,43.333,4s13.333-31,13.333-31s7.667-30.333,7-40.667
	C710.667,843,704,793,696.667,790.333C689.333,787.667,619,776,583,776.333c-36,0.333-72.333-0.667-124.667,14.667
	C449.667,791,440.333,783.667,440.333,783.667z"/>
<path id="Violin4" fill="#FFFFFF" d="M374,509.667l37,41l5.667,67.667c0,0,80.667,45,115.667,43.667L544,668.333
	c0,0,1.333-26.667,5.667-29.667c4.333-3,27.667-10.667,42-10c14.333,0.667,45-1,50.333,12.667c2,6.333,1.333,27.667,3.667,27
	c2.333-0.667,21.667-9.667,36.667-9.667S716,659,721.333,659c5.333,0,9,5,9,5s-1-33.667,7-40.333c8-6.667,10-9,26-24.667
	s35.333-19.667,39.333-37.667s7.667-43,7-51.667c-0.667-8.667-90-31.333-139-32c-49-0.667-111-5-197,10.667
	C473.667,488.333,410.667,494,374,509.667z"/>
<path id="Violin5" fill="#FFFFFF" d="M362.667,166.333c7.667,0,111-12.333,136.333-36.333c31.667-19.667,43-24,50.667-25.333
	c7.667-1.333,24.333-3,50.333,8.667s72,27.333,93,31.333S751.333,151,751.333,151s5.333,79,3.333,99.333s-25,82.667-27.333,88
	C725,343.667,718,347.667,718,347.667s-18.333-14.333-33.667-14.333c-15.333,0-41.667,0.667-57.333,3
	c-15.667,2.333-35.127,11.333-35.127,11.333s-25.873-18.667-56.206,9L533,362.333c0,0-14.667-16-75.333,0
	c-60.333-37.667-74-30-79.333-47.333c-5.333-17.333-13-44.667-13.667-58.667c-0.195-4.103-1.247-13.936-2.593-20.667
	c-3.246-16.236,0.415-35.636,0.467-41.955C362.613,185,362.667,166.333,362.667,166.333z"/>
</svg>
