<?xml version="1.0" encoding="utf-8"?>
<!-- Generator: Adobe Illustrator 17.0.0, SVG Export Plug-In . SVG Version: 6.00 Build 0)  -->
<!DOCTYPE svg PUBLIC "-//W3C//DTD SVG 1.1//EN" "http://www.w3.org/Graphics/SVG/1.1/DTD/svg11.dtd">
<svg version="1.1" xmlns="http://www.w3.org/2000/svg" xmlns:xlink="http://www.w3.org/1999/xlink" x="0px" y="0px" width="1200px"
	 height="1920px" viewBox="0 0 1200 1920" enable-background="new 0 0 1200 1920" xml:space="preserve">
<g id="fondo">
	<rect fill="#060606" width="1200" height="1920"/>
</g>
<g id="Esc2Piano">
	<path id="PianoP1" fill="#FFFFFF" d="M882.375,1674.375l-0.125-7.875l-1.083-60.667l-1.833-48V1519.5c0,0-0.917-8,1.458-9.167
		c2.375-1.167,5.208-1.667,5.208-1.667s3.167-3.167,2.667-5.5c-0.5-2.333-2.292-17.042,9.333-24.917
		c22.375-3.5,25.125-4.75,59.625-5.25s105.875,0.75,105.875,0.75s27.75,1.375,30.125,2.625s6.125,2,6.5,8.125s0,16,0,16
		s2.25,3.25,4.125,2.875v62.375l0.625,99.5l1.125,7.25c0,0-12.167,10.833-13,17.167c0,0,3,5,8.333,7.333
		c5.333,2.333,16.5,10.167,47,3.167v-1.833c0,0,12-1,20.833-17.833c0,0,1.5-7.667,1.5-9.167s-2.667-4-3.667-7.5
		s-3.167-5.333-6-4.167c-2.833,1.167-6,2.667-6.833,1.5c-0.833-1.167-4.5-4.167-3-8.5c1.5-4.333-0.833-12.5,4-12.667
		c4.833-0.167,10.5,1.667,11.167,1.667c0.667,0,3.5-0.5,3.5-0.5s-3-10.167,0.833-12.167c3.833-2,11.667-3,12.333-2
		s4.833,0.5,1.5,6.167c-3.333,5.667-6,5.333-6,9.167c0,3.833,2,11.667,2.5,13.167s3.333,7,3.333,9.167
		c0,2.167,8.167,30.333-18.167,46.667c0,0-3.5,5.667-4.667,8.167s-2.167,3.833-1.5,6.833s3.667,9.167,3,11.833
		c-0.667,2.667-0.5,5.667-2,10.167s-6.333,10.667-6.833,14.167s-0.833,7.167,0.167,7.167s4.833-2.167,4.833-2.167
		s2.833-0.833,2.833,1.167s-0.333,6.667-0.833,8.333s-1,6-5.667,8.667c-4.667,2.667-7.333,6.167-11.667,7.333
		c-4.333,1.167-20.667,3.333-22.833,3.333s-20.667-0.167-31.667-1.833s-13.667-2.667-23.833-3.333
		c-10.167-0.667-23.667-1.333-29.667-1.333s-14.667,0.5-23.167,0.5s-17.667,6.833-27.667,6c-10-0.833-25.833-4.333-29.5-4.667
		c-3.667-0.333-13,1.667-13.5,1.833s-2.5,0.167-4.333-1.333c-1.833-1.5-3.5-3.167-8.167-1.833c-4.667,1.333-6.833,1.833-12.833,2.5
		c-6,0.667-7.5,7.167-18.5,6c-11-1.167-26.167-2.333-28.167-2.833s-10.833-4.667-16.333-5.667s-4.833-1.5-14.333-3.833
		s-18.167-4.333-19.333-4.333s-6.167,4.667-7.167,4.667s-4.167-0.333-4.5,0.167c-0.333,0.5-9.667,10.78-11.5,11.973
		c-1.833,1.193,4.667-11.807,7.167-14.473s1.167-3,1.167-3s-5.667,0.667-7.167,0s-5.5-7.667-5.5-7.667s6.667,9.833,14.333,4.667
		c0,0,6.333-0.833,7.5-1c1.167-0.167,5.5-0.667,4.333-1.833c-1.167-1.167-3-3-2.667-4s-0.667-9.833-3.167-13.167
		s-8.167-8.427-12.167-9.88s-6-9.453-8.167-12.286c-2.167-2.833-19.833-17.167-17.167-27.667c2.667-10.5,3.833-18.833,11.833-23.833
		s8.667-7.833,10.833-8.667c2.167-0.833,7.333-0.5,10-1s18.333-1,19.5,0.167c1.167,1.167,7.333,7.167,9.833,7.833
		c2.5,0.667,19.167,5.5,20.5,6.667c1.333,1.167,14.167,9.5,21,10.167l10.5,0.5C889.333,1700.5,888.417,1675.083,882.375,1674.375z"
		/>
	<path id="PianoP2" fill="#FFFFFF" d="M862.835,1356.5l-1.085-46.25c0,0-2-42.25-2.5-51.25s5-44.625,5-44.625
		s-7.25-29.75,70.125-34.125c34.5-1.125,46-0.75,68.125,5.75c0,0,2.264,1.041,3.375,4.625c6.625,21.375,6.625,73.625,6.625,73.625
		l-3.25,88.5C1009.25,1352.75,864.585,1356.875,862.835,1356.5z"/>
	<path id="PianoP3" fill="#FFFFFF" d="M832,1054.75v-105V912c0,0,20.5-12.5,90.375-18.75c0,0,58.75-4.625,88.625,1.75
		c0,0,0.297,1.317,1.375,4.25c3.125,8.5,5.875,31.553,5.875,64.75c0,41.054,0,85.5,0,85.5l-64.75,4.875l-91.125,5.125l-26.125,1.5
		L832,1054.75z"/>
	<path id="PianoP4" fill="#FFFFFF" d="M737.667,769c0,0-3.957-53.731-4-80.532c-0.043-26.801,3.667-59.135,6.583-60.718
		c0.886-0.481,37.5-12.625,77.75-17.375c0,0,56.125-3.625,85.125,3.375c0,0,7.125,0,6.75,12.375
		c2.262,6.801,7.458,26.593,7.458,62.375s-3.667,70.167-3.667,70.167l-119.917,6.458L737.667,769z"/>
	<path id="PianoP4_1_" fill="#FFFFFF" d="M1063.75,744.333c0,0-1.75-46.583-2-61.083s3.75-47,3.75-47s-2-15.5,25.583-20.083
		c0,0,16.75-1.75,27.667,10.333c0,0,4.747,23.232,5,50.5c0.231,24.968,1.25,39.5-2.5,65L1063.75,744.333z"/>
	<path id="PianoP5" fill="#FFFFFF" d="M882,480c0,0-7.403-49.94-7.5-68.75C874.28,368.5,876,334,876,334s37.875-16.75,67.625-21.625
		c0,0,53-1.625,55.5,2C1002.75,315.75,1012,313.25,1012,386.5c0,36.452-4.25,83-4.25,83l-58.125,4.5l-62.875,6H882z"/>
</g>
</svg>
