<?xml version="1.0" encoding="utf-8"?>
<!-- Generator: Adobe Illustrator 17.0.0, SVG Export Plug-In . SVG Version: 6.00 Build 0)  -->
<!DOCTYPE svg PUBLIC "-//W3C//DTD SVG 1.1//EN" "http://www.w3.org/Graphics/SVG/1.1/DTD/svg11.dtd">
<svg version="1.1" xmlns="http://www.w3.org/2000/svg" xmlns:xlink="http://www.w3.org/1999/xlink" x="0px" y="0px" width="1200px"
	 height="1920px" viewBox="0 0 1200 1920" enable-background="new 0 0 1200 1920" xml:space="preserve">
<g id="Capa_1">
</g>
<g id="Capa_3">
	<rect fill="#060707" width="1200" height="1920"/>
</g>
<g id="Esc3y4Piano">
	<path id="F01C10" fill="none" stroke="#FFFFFF" stroke-miterlimit="10" d="M382.667,1804.833c0,0,1.667-4,2.167-4.833
		s0.5-1.5,1.833-2.333c1.333-0.833,2.833-2.333,4-3.333c1.167-1,1.833-1.333,3.167-1.833c1.333-0.5,3,0,3,0l2.833,3.333l2.667,2
		c0,0,1.333,0,1-1.667c-0.333-1.667-2.333-3.889-2.333-3.889l-2.167-4.444l-1.667-2.5c0,0,2.833-13.167,2.833-14
		c0-0.833,6.167-1.5,6.167-1.5h5.667h1.583l1.167,41l-34.333-1.917L382.667,1804.833z"/>
	<path id="F01C11" fill="none" stroke="#FFFFFF" stroke-miterlimit="10" d="M413.417,1769.833c0,0,41.833-9.167,47.833-9.75h1v9.333
		c0,0,0.167,43.083-0.917,44.333l-46.75-2.917L413.417,1769.833z"/>
	<path id="F01C12" fill="none" stroke="#FFFFFF" stroke-miterlimit="10" d="M462.25,1760.083c0,0,27.25-2.417,46.5-0.5
		l-0.583,24.833l-0.083,29l-46.75,0.333c0,0,1.251-13.246,0.834-19.498C462.224,1787.583,462.25,1760.083,462.25,1760.083z"/>
	<path id="F01C13" fill="none" stroke="#FFFFFF" stroke-miterlimit="10" d="M508.75,1759.583c0,0,41,4,51.083,3.667l0.75,0.02
		c0,0-4.917,46.897-5,47.397c-0.083,0.5-2.333,0.667-2.333,0.667l-45.167,2.083l0.148-31.748L508.75,1759.583z"/>
	<polygon id="F01C14" fill="none" stroke="#FFFFFF" stroke-miterlimit="10" points="560.583,1763.27 610,1763.917 610,1766.083 
		610,1768.25 605.417,1810.167 604.083,1810.833 556.5,1810.833 555.583,1810.667 	"/>
	<path id="F01C15" fill="none" stroke="#FFFFFF" stroke-miterlimit="10" d="M609.67,1763.912h3.413h3l47.5-3.162
		c0,0,2.417-0.759,1.833,3.162c-0.583,3.921-5.75,30.421-5.75,30.421s-2.75,13.583-2.75,15.75l-0.083,1.25h-51.667l3.347-29.49
		C608.514,1781.844,610.757,1766.991,609.67,1763.912z"/>
	<path id="F01C18_1_" fill="none" stroke="#FFFFFF" stroke-miterlimit="10" d="M665.038,1761.131l20.378-1.297h28.333l-2.833,16.583
		c0,0-4.833,30-4.75,34.917h-49.333l4.529-25.75C661.363,1785.583,666.493,1761.511,665.038,1761.131z"/>
	<path id="F01C19_1_" fill="none" stroke="#FFFFFF" stroke-miterlimit="10" d="M713.75,1759.833l50.5-0.333l-5,51.5h-53.082
		C706.168,1811,712.667,1766.333,713.75,1759.833z"/>
	<path id="F01C20" fill="none" stroke="#FFFFFF" stroke-miterlimit="10" d="M764.25,1759.5l22.75,1.833c0,0,3.417-0.75,3.083,2.167
		c0,0,0.167,6.25,6.333,7c0,0,5-0.667,4.25,4.667l1.5,17.833l0.5,18.333L759.25,1811L764.25,1759.5z"/>
	<path id="F02C10" fill="none" stroke="#FFFFFF" stroke-miterlimit="10" d="M400,1771.333c0,0-3.5-19.958,18.875-25.083
		c15.375-4.125,27.625-8.625,28.125-9.625s4.375,2.75,4.5,6.375s2.03,18.406,2.03,18.406l-40.114,8.427
		C413.417,1769.833,402.375,1769.292,400,1771.333z"/>
	<path id="F02C11_1_" fill="none" stroke="#FFFFFF" stroke-miterlimit="10" d="M447,1736.625c0,0,5.375-8.5,5.75-9.125s3.5,0,3.5,0
		l7.375-0.278l29.75-0.597h2.125c0,0,1.5,1.375,0.625,2s-2,0.5-2,0.5s-1.75,0.375-0.938,1.062s2.938,0.5,2.938,0.5
		s1.75-1.188,2-2.188l2.438-0.312c0,0-0.25,1.938-0.688,2.062s-3,0.875-3.375,2.062s-1,1.625-0.188,2.625s2.312,0.75,2.312,0.75
		s0.25-1.688,0.312-1.875s1.312-1.5,1.312-1.5s5,4.688,5.25,8.312c0,0-2.75,3.376-2.688,18.219c0,0-27.315-1.156-49.282,2.562
		l-1.972-17.391C451.558,1744.016,451.438,1737.875,447,1736.625z"/>
	<path id="F02C12" fill="none" stroke="#FFFFFF" stroke-linejoin="round" stroke-miterlimit="10" d="M505.5,1740.625
		c0.375-0.062-1.688,4,38.688,5.125h1.125c0,0-1.75,1-2.25,9.25c0,0-0.419,7.486-0.316,7.493c0.102,0.007-39.934-3.649-39.934-3.649
		s0.392-11.369,1.169-14.042C504.76,1742.129,505.5,1740.625,505.5,1740.625z"/>
	<path id="F02C13" fill="none" stroke="#FFFFFF" stroke-linejoin="round" stroke-miterlimit="10" d="M545.312,1745.75
		c0,0,26.25,2.75,35,2.75l-0.688,14.77c0,0-30.07,0.404-36.879-0.777C542.746,1762.493,542.938,1747,545.312,1745.75z"/>
	<path id="F02C14" fill="none" stroke="#FFFFFF" stroke-linejoin="round" stroke-miterlimit="10" d="M580.312,1748.5
		c0,0,37.25,0.438,41,0.312v14.752c0,0-24.562,0.725-41.688-0.294L580.312,1748.5z"/>
	<path id="F02C15" fill="none" stroke="#FFFFFF" stroke-linejoin="round" stroke-miterlimit="10" d="M621.312,1748.812l57-4.125
		c0,0,2.5,2,2.438,3.812s0.001,11.63,0.001,11.63l-15.713,1c0,0-1.527-0.9-5.533-0.109c-4.517,0.301-38.193,2.543-38.193,2.543
		V1748.812z"/>
	<path id="F02C16_1_" fill="none" stroke="#FFFFFF" stroke-linejoin="round" stroke-miterlimit="10" d="M678.312,1744.688
		l1.375-0.438c0,0,5.188,0.188,10.75,0s11.875-1.312,12.125-1.438s3.25-1,4.625-1.062s3.812,0,3.812,0s6.312,0.507,8.062-0.028
		c1.75-0.535,5.312-2.347,5.938-2.722s5.125-1.562,5.125-14.562c0,0,0.875-0.438,3.5-0.562s5.125-0.75,5,3.188l-1.125,32.614
		l-23.75,0.157l-32.999,0.297l-0.001-11.63C680.75,1748.5,681.25,1747.625,678.312,1744.688z"/>
	<path id="F02C17" fill="none" stroke="#FFFFFF" stroke-linejoin="round" stroke-miterlimit="10" d="M737.506,1759.5l1.113-33.087
		c0,0-0.203-2.386,0.964-2.65c1.167-0.263,5.667,0,5.667,0l7.917,0.987c0,0,9.75,0,14.583-0.5s10.5,0,10.5,0s1.75,1.333,2.167,4.083
		c0.417,2.75,4.333,12.144,4.833,13.614s2.167,3.136,2.667,7.636s2,10.177,1.583,10.547c-0.417,0.37-0.652,1.352-5.246,0.982
		s-20.004-1.612-20.004-1.612H737.506z"/>
	<path id="F03C01" fill="none" stroke="#FFFFFF" stroke-linejoin="round" stroke-miterlimit="10" d="M61.5,1670.25l3.25,49.5h58.75
		c0,0-0.25-18.75-6.5-24.75s-10.25-8.25-11.25-24.75c0,0,3.25-1.25-8.75-1.25S61.404,1668.789,61.5,1670.25z"/>
	<path id="F03C10" fill="none" stroke="#FFFFFF" stroke-linejoin="round" stroke-miterlimit="10" d="M393.5,1646
		c0,0,42.5-1.75,49.75,0c0,0,2.25,0.375,2.125,10.125s1.625,60,1.625,60v20.5c0,0-18.75,8.505-26.75,9.253
		s-19.375,6.247-21.875,21.122l-31.125,0.75v-53C367.25,1714.75,395,1685.125,393.5,1646z"/>
	<path id="F03C14" fill="none" stroke="#FFFFFF" stroke-linejoin="round" stroke-miterlimit="10" d="M505.5,1670.25
		c0,0,8.186,8.389,82.562,8.5c13.438,0.02,25.354-0.435,36.562-0.688c53.828-1.214,88.283-4.829,99.25-13.312
		c0,0-0.125-1.5,5.625,1.75c6.417,3.083,14.75,6.25,14.75,6.25s0.667-1.25,1.083,5c0.083,7.417,0,31.167,0,31.167
		s0.25,12.86-1.083,14.847c0,0-5.543-1.215-5.62,1.721c0,0-0.546-3.276-8.505-1.047c0,0-1.375-6.604-2.625-9.271
		c-1.25-2.667-3.167-10.5-11.417-10.333c-8.25,0.167-27.75,2.25-27.75,2.25l-28.667,2.667c0,0-15.5,2.833-36.583,2.5
		c-21.083-0.333-56,0.167-64.25-0.75s-10.333-2.083-32-1.917c0,0-16.521-0.917-22.677,12c0,0-1.761,3.333,0,10.583
		s1.344,8.458,1.344,8.458l-5.25-8.312l-1.312,1.5l-0.312,1.875c0,0-2.33,0.192-2.686-1.456c-0.356-1.648,0.22-1.378,0.561-1.919
		s2.443-1.776,2.909-1.919s1.154-2.206,1.154-2.206l-2.438,0.312c0,0-0.449,1.407-1.495,1.808c-1.046,0.402-2.588,0.483-3.443-0.121
		s0.878-0.844,1.73-1.098s1.74-0.256,1.286-1.589c-0.454-1.333-2.829-0.875-2.829-0.875h-5l-0.625-40.75c0,0,0.788-4.122,5.1-6.997
		c4.312-2.875,10.817-6.461,11.275-10.003L505.5,1670.25z"/>
	<path id="F04C01" fill="none" stroke="#FFFFFF" stroke-linejoin="round" stroke-miterlimit="10" d="M70.25,1668.989V1632v-9
		c0,0-0.125-4.375,2.75-4.375s10.125,0,10.125,0l20.25,1l1.25,49.364H70.25z"/>
	<path id="F04C10" fill="none" stroke="#FFFFFF" stroke-linejoin="round" stroke-miterlimit="10" d="M394.375,1537.75L393.5,1646
		c0,0,46.662-1.769,48.759-0.186c0,0,2.866,0.561,2.866-3.689s-0.625-50.25-0.625-50.25l0.625-54.125c0,0,0.75-3.25-22.875-2.625
		S394.387,1536.246,394.375,1537.75z"/>
	<path id="F04C19" fill="none" stroke="#FFFFFF" stroke-linejoin="round" stroke-miterlimit="10" d="M661,1531.333
		c0,0-2.333,73.333,1,113.167c0,0-1.5,1.833,5.167,1.5c6.667-0.333,41.167,0.041,41.167,0.041l-1-114.707c0,0-7.333-5.5-24.5-3.5
		C665.833,1528,661.055,1529.497,661,1531.333z"/>
	<path id="F04C24" fill="none" stroke="#FFFFFF" stroke-linejoin="round" stroke-miterlimit="10" d="M833,1518.167l1.333,94.667
		v53.333c0,0,7.667,0.5,17.167,0c12.333,0,30.833,0.222,30.833,0.222s-1.833-79.389-2.167-81.556
		c-0.333-2.167-1.5-65.833-1.5-65.833s2.167-3.5-9.833-2.667c-12.667-0.167-20.5-0.128-20.5-0.128S832.958,1515.17,833,1518.167z"/>
	<path id="F04C31" fill="none" stroke="#FFFFFF" stroke-linejoin="round" stroke-miterlimit="10" d="M1114.5,1609.667
		c0,0,15-1.333,18.167-1.5c3.167-0.167,7.833-0.833,8.5-0.833c0.667,0,4.167,1.167,4.167,1.167s7.333-1.667,9.333-1.167
		s2.5,2.667,2.5,4.167s-0.833,43.333-0.833,43.333h-43C1113.333,1654.833,1113.5,1611.167,1114.5,1609.667z"/>
	<path id="F05C01" fill="none" stroke="#FFFFFF" stroke-linejoin="round" stroke-miterlimit="10" d="M73.5,1618.625L77,1535.5
		c0,0-0.5-2.5,5.833-1.667c6.333,0.833,21.792,2.167,21.792,2.167s2.375-0.167,2.042,5c-0.333,5.167-1,17.167-1,23.667
		s-2.292,54.958-2.292,54.958l-30.375-1"/>
	<path id="F05C10" fill="none" stroke="#FFFFFF" stroke-linejoin="round" stroke-miterlimit="10" d="M380.5,1517.25
		c0,0,13-5,13.875,20.5c0,0,40.875-5,50.75,0c0,0-1.125-19.043,7.625-20.897c0,0-2.5-3.603-10.75-4.603s-9.125-0.877-11.125-0.127
		s-7.104,3.085-12.479-0.415s-7.402-4.615-10.777-3.615S402,1511.45,400,1511.45s-4.083,1.795-9.333-0.205S383,1513,383,1513
		L380.5,1517.25z"/>
	<path id="F05C12" fill="none" stroke="#FFFFFF" stroke-linejoin="round" stroke-miterlimit="10" d="M452.75,1727.5
		c0,0,12.667-37.5,8.583-95.75c-1.708-59-3.083-92.125-3.083-92.125l-1.875-31c0,0-0.106-4.125,1.072-4.75
		c1.178-0.625,10.053-1.625,11.678-1.75s15.625-0.375,19.625,0s8.25,0.25,9.125,1s-1.75,10.875-1.75,10.875
		s-3.375,19.75-3.25,26.875c-0.375,9.75-1,47.625-1,47.625l1.375,39.5c0,0,1.125,28.5,10.875,40.875c0,0,1,2.375-8.375,8
		c0,0-7.875,4.625-8,9s0.625,40.75,0.625,40.75L452.75,1727.5z"/>
	<path id="F05C18" fill="none" stroke="#FFFFFF" stroke-linejoin="round" stroke-miterlimit="10" d="M724.25,1664.404l20,8.346
		c0,0,1.243,0.728,1.116,22.5c-0.127,21.772,0.759,22.902-1.116,28.513l8.917,0.987l10.373-0.216l13.956-0.341
		c0,0,1.63,0.807,1.005-2.318s-3.75-19.36-3.75-19.36s-4.875-41.39-4.875-42.515s-1.625-57.875-1-61
		c-0.25-5.125,0.25-48.375,0.25-48.375s1-37,2.375-43l1.25-5.875c0,0,2.75-3.125-3-3.75c0,0-19.25,0-25.375,0.625
		s-11.375,0.625-16.625,3.25c0,0,7,14.625,7,46c0.75,31.25,1,47.125,1,47.125l-0.375,27.625
		C735.375,1622.625,735.625,1650.309,724.25,1664.404z"/>
	<path id="F05C24" fill="none" stroke="#FFFFFF" stroke-linejoin="round" stroke-miterlimit="10" d="M826.75,1505.5
		c0,0,6.132,0.062,6.25,10.532v1.718c0,0,0.667-2.094,19.333-1.547c19.248,0.008,25.655-0.356,25.994,1.22
		c0,0,1.589-1.257,1.589-2.007s-0.75-1.083,0-2.917s1.667-3.417,2.417-3.417s1.417-0.25,2.417-0.583s2.833-1.667,2.917-2
		c0.083-0.333,0.083-2.167,0-2.417c-0.083-0.25-1.833,0.5-2.167,0.5s-2.083-2.25-3.167-2.667c-1.083-0.417-2.167-0.75-4,0
		c-1.833,0.75-3.167,1.5-4.167,1.5s-5.25,0.583-6.583-0.167c-1.333-0.75-5.25-3.583-7.667-3.667c-2.417-0.083-4,0-5.75,1.25
		s-4.417,3.167-6.917,3.5c-2.5,0.333-9.333-0.417-10.25-1.917c-0.833-0.75-3.667-2.417-3.667-2.417S828.667,1503.75,826.75,1505.5z"
		/>
	<path id="F05C31" fill="none" stroke="#FFFFFF" stroke-linejoin="round" stroke-miterlimit="10" d="M1114.5,1609.667l26.667-2.333
		l4.167,1.167c0,0,6.167-1.417,9.333-1.167c1.373,0.792,1.914,1.545,1.914,1.545l0.586-7.795l-0.917-32.167l-0.333-33.417l-0.5-18.5
		v-1.417c0,0-37.75,1.417-40.917,2.917v30.167l-0.583,39.167v18.417C1113.917,1606.25,1113.928,1609.717,1114.5,1609.667z"/>
	<polygon id="F05C32" fill="none" stroke="#FFFFFF" stroke-linejoin="round" stroke-miterlimit="10" points="1182.833,1514.333 
		1155.417,1515.583 1156.176,1561.502 1167.5,1561.502 1182.833,1560.5 	"/>
	<path id="F06C01" fill="none" stroke="#FFFFFF" stroke-linejoin="round" stroke-miterlimit="10" d="M65.5,1504.5l-3.333,27.333
		l14,1.83c0,0,4.687-0.045,5.677,0.063c0.99,0.108,23.473,2.47,23.473,2.47s1.747-5.196,1.382-6.363
		c-0.365-1.167,0.635-4.667,1.635-5.333s4.5-2,4.5-2s3.667,0.333,3.667-1.167s-0.667-6.167-0.5-7.917s1.167-14.5,7.75-16.333
		c0,0,1.25-5.583-5.5-6c-6.75-0.417-15.667-2.083-15.667-2.083l-17.75-1.25c0,0-5.167-1.167-8.167,1.667c-3,2.833-12,11.25-12,11.25
		S65.703,1502.838,65.5,1504.5z"/>
	<path id="F06C02" fill="none" stroke="#FFFFFF" stroke-linejoin="round" stroke-miterlimit="10" d="M376.333,1491.5
		c0,0,5,5,4.167,25.75c0,0,3.333-6.884,6-6.901c2.667-0.016,7.167,2.484,11,1.817c3.833-0.667,6.167-3,7.5-3.333
		c1.333-0.333,3.833-1.667,7.667-0.333c3.833,1.333,6.5,5.833,14.833,4.167c8.333-1.667,15.112-0.619,17.628,0.14
		c2.516,0.758,7.622,4.047,7.622,4.047l3.625-8.228l-0.875-8.792l-4.5-14.5c0,0-21.667,2.833-28.333,2.833
		c-6.667,0-36.667-4.333-37.667-5.167S376.333,1491.5,376.333,1491.5z"/>
	<path id="F06C03" fill="none" stroke="#FFFFFF" stroke-linejoin="round" stroke-miterlimit="10" d="M822.833,1477.5
		c0,0,7,15.667,3.917,28l6.583-5.5c0,0,4.777,4.098,9.347,4.215c4.57,0.118,9.156-1.743,10.322-2.562
		c1.165-0.82,5.763-4.028,10.964-0.59c5.201,3.437,7.642,3.611,11.418,2.095c3.777-1.516,5.569-2.259,6.949-1.241
		c1.38,1.018,3.28,2.503,4.307,2.335c1.026-0.168,1.089-0.918,1.089-0.918L888.5,1503c0,0-0.333-22.667,9.833-24.833
		c0,0,0.833-10.667-2.667-12.667l-29-1h-24L822.833,1477.5z"/>
	<path id="F06C04" fill="none" stroke="#FFFFFF" stroke-linejoin="round" stroke-miterlimit="10" d="M1097.667,1473.939
		c0,0,63.5-5.772,65.667-5.606c2.167,0.167,6.25,45.25,5.792,46.625 M1097.667,1473.939c4.176,5.272,5,11.394,5.5,14.394
		s-1.167,6.333-1,8.667c0.167,2.333,2.167,5.167,3.167,5.5s3.167,0.833,4.5,1.333c1.333,0.5,2,2.333,3,4.333
		s1.667,10.333,1.667,10.333l40.917-2.917"/>
	<path id="F07C01_1_" fill="none" stroke="#FFFFFF" stroke-linejoin="round" stroke-miterlimit="10" d="M47.833,1450.167
		c0,0-12.833,39.667-12.833,44.833l31.667,2.333h1.562c0,0,8.801-8.42,9.692-8.823c0.891-0.403,2.539-1.756,8.412-0.999l1.333-9.512
		v-19.667v-9.167C87.667,1449.167,69.333,1452.833,47.833,1450.167z"/>
	<path id="F07C02_1_" fill="none" stroke="#FFFFFF" stroke-linejoin="round" stroke-miterlimit="10" d="M87.667,1449.167l42.5-2.333
		c0,0,1.167,24,1.667,28.167s3.167,19.833,3.333,25.167C135.333,1505.5,136.5,1521,136.5,1521l-13.667,2.667l-3.211-23.254
		c0,0,1.94-2.684,4.127-3.33c0,0,0.395-2.675-0.701-3.782s-2.771-2.473-6.629-2.356c-4.362-0.475-13.505-1.885-13.505-1.885
		l-16.853-1.549l1.604-9.512V1449.167z"/>
	<path id="F07C03_1_" fill="none" stroke="#FFFFFF" stroke-linejoin="round" stroke-miterlimit="10" d="M129.825,1446.852
		l33.341-0.935c0,0-0.083,14.083,2,19.917c2.083,5.833,5.5,22.25,5.5,23.833c0,1.583,1.833,22.583,1.833,22.583l-36.026,8.4
		l-1.87-26.413c0,0-2.924-20.774-3-21.828S129.825,1446.852,129.825,1446.852z"/>
	<path id="F07C04_1_" fill="none" stroke="#FFFFFF" stroke-linejoin="round" stroke-miterlimit="10" d="M172.5,1512.25
		c0,0-1.852-23.021-1.976-23.766s-3.946-20.121-5.152-22.052c-0.86-2.988-2.956-17.015-2.206-20.515l30.917-2.167
		c0,0-0.417,7.167,1.25,11.5c1.667,5.417,4.083,12.333,4.083,12.333s5.333,11.083,5.833,15.083s3.833,22.583,3.833,22.583
		L172.5,1512.25z"/>
	<path id="F07C05_1_" fill="none" stroke="#FFFFFF" stroke-linejoin="round" stroke-miterlimit="10" d="M209.023,1504.913
		c0,0-3.815-22.75-4.026-23.515c-0.211-0.766-5.131-12.869-5.356-13.341s-5.917-16.716-5.529-19.636
		c-0.074-3.004-0.029-4.67-0.029-4.67l31.667-1.333c0,0,0.583,3.667,0.583,5.667s0.083,12.417,5.75,19.5
		c4.417,5.333,7.417,10.833,8.667,18.417c1.25,4.25,3.833,15,3.833,15L209.023,1504.913z"/>
	<path id="F07C06_1_" fill="none" stroke="#FFFFFF" stroke-linejoin="round" stroke-miterlimit="10" d="M244.583,1501
		c0,0-5.705-22.72-7.045-25.186c-1.341-2.465-8.344-12.605-9.057-14.808c-0.712-2.203-2.481-9.257-2.148-12.923
		c-0.251-3.24-0.583-5.667-0.583-5.667h41c0,0,0.833,8.5,1.75,11s3.583,14.333,9.833,17.583c4.417,3.583,6.5,8.917,7.417,17.333
		c0.917,4.917,2.417,10.667,2.417,10.667S249.667,1500.833,244.583,1501z"/>
	<path id="F07C07_1_" fill="none" stroke="#FFFFFF" stroke-linejoin="round" stroke-miterlimit="10" d="M288.167,1499
		c0,0-2.962-14.538-3.004-14.765c-0.042-0.227-1.777-8.906-4.22-10.571c-3.143-2.969-6.142-5.519-7.048-7.011
		c-0.905-1.492-5.483-11.515-6.211-16.92s-0.934-7.317-0.934-7.317l32.75,0.333c0,0,4.5,14.833,8.417,20.833
		c3.917,6,7.583,11.333,9.917,12.833c2.333,1.5,4.833,11.667,5,14c0.167,2.333-0.75,13.5-0.75,13.5S311.083,1500.583,288.167,1499z"
		/>
	<path id="F07C08_1_" fill="none" stroke="#FFFFFF" stroke-linejoin="round" stroke-miterlimit="10" d="M322.083,1503.917
		c0,0,2.634-13.155-1.35-22.078c-0.808-2.14-2.2-5.638-4.008-6.322c-1.936-2.133-7.654-10.176-7.654-10.176
		s-3.334-5.729-3.933-7.116c-0.599-1.387-5.638-15.476-5.638-15.476l33.417-0.917c0,0,8,21.833,10.5,25
		c2.5,3.167,5.417,10.5,13.667,16.583c0,0,2.667,3,2.5,13c-0.167,10-0.371,13.419-0.371,13.419S351.25,1506.917,322.083,1503.917z"
		/>
	<path id="F07C09_1_" fill="none" stroke="#FFFFFF" stroke-linejoin="round" stroke-miterlimit="10" d="M359.212,1509.835
		l0.217-18.162c0,0-0.652-6.404-1.964-7.685c-1.312-1.281-5.565-5.165-6.16-5.851c-0.595-0.686-8.262-11.828-8.444-12.152
		c-0.182-0.324-10.284-24.142-10.284-24.142l32.84-0.509c0,0,4.167,3.083,10.083,15.25c3,7.75,5.667,14.333,6.5,16.917
		s2.518,9.536,2.518,9.536l-8.185,8.464c0,0,5.5,8.25,4.167,25.75L359.212,1509.835z"/>
	<path id="F07C10_1_" fill="none" stroke="#FFFFFF" stroke-linejoin="round" stroke-miterlimit="10" d="M365.417,1441.333
		c0,0,20.043-2.271,24.46-2.438c0,0,4.04-0.104,4.873,0.854s13.75,15.083,15.083,18.167c1.333,3.083,7.583,17.25,5.75,29.333
		l-0.17,0.368c0,0-28.71-3.463-30.895-4.582c0,0-3.001-10.938-3.229-11.551c-0.228-0.612-4.956-12.757-4.956-12.757
		S371.25,1446.417,365.417,1441.333z"/>
	<path id="F07C11_1_" fill="none" stroke="#FFFFFF" stroke-linejoin="round" stroke-miterlimit="10" d="M415.583,1487.25
		c0,0,2.676-11.166-6.37-30.417c0,0-12.213-15.083-13.63-16.125l-1.466-2.19c0,0,34.299-1.519,40.049-1.685c0,0,1.417-0.25,1.25,5
		c-0.167,5.25,1.417,13.333,2.417,15c1,1.667,3.917,7.5,4.75,8.833c0.833,1.333,8.25,15.667,8.417,19.25
		c0,0-30.333,5.25-35.75,2.333"/>
	<path id="F07C12_1_" fill="none" stroke="#FFFFFF" stroke-linejoin="round" stroke-miterlimit="10" d="M456.015,1505.007
		l-3.475-14.712c0,0-2.036-7.674-2.441-8.74s-9.021-18.64-9.021-18.64s-4.94-8.13-5.479-16.6c-0.539-8.47-0.849-9.069,2.151-9.484
		S446,1436,446,1436l14.917-1.25c0,0,7.417-1.667,7.75,1.417c0.333,3.083,2,13.25,2,13.25l1.167,16.917l0.75,23.167l0.5,12.427
		C473.083,1501.927,456.53,1502.597,456.015,1505.007z"/>
	<path id="F07C13_1_" fill="none" stroke="#FFFFFF" stroke-linejoin="round" stroke-miterlimit="10" d="M473.083,1501.927
		l-2.343-51.438c0,0-1.917-12.993-1.996-13.658c-0.078-0.665-0.328-2.665,0.672-2.998c1-0.333,14-1.667,14.75-1.833
		s7.083-0.667,11-1c4.583-0.833,10.667-2.5,10.667-2.5s1.833,0.083,0.917,14.167c0.417,13.833,0.333,18.083,1.333,24.75
		c1,6.667,1.75,12.811,5.417,15.531c0,0-12.333,10.136-15.625,20.178s-0.306-0.173-0.306-0.173S492,1501.771,473.083,1501.927z"/>
	<path id="F07C14_1_" fill="none" stroke="#FFFFFF" stroke-linejoin="round" stroke-miterlimit="10" d="M513.5,1482.947
		c0,0-4.53-3.202-5.478-15.951c-0.948-12.749-1.15-20.083-1.15-20.083l0.134-11.497c0,0-0.255-5.5-1.172-6.917
		c0,0,15.083-1.75,17.167-2.083c2.083-0.333,22.5-2.167,22.5-2.167s1.5-1.167,1.333,4.583C546.667,1434.583,548,1460,548,1460
		s0.333,9.057,0,9.654c-0.333,0.596-6.583,1.263-13.25,3.846s-18.583,8.25-18.583,8.25L513.5,1482.947z"/>
	<path id="F07C15_1_" fill="none" stroke="#FFFFFF" stroke-linejoin="round" stroke-miterlimit="10" d="M548,1469.654
		c0,0-1.317-43.362-1.533-44.841c0.367-0.229,1.7-0.507,3.867-0.66c2.167-0.153,16.583-1.319,16.583-1.319s10.25-1.583,10.25,0.5
		c0,2.083,0.75,20.25,0.75,20.25l1.583,14.833v5.667c0,0,0.167,1.417-1.75,1.667s-7.917,1-7.917,1l-12.75,1.667L548,1469.654z"/>
	<path id="F07C16_1_" fill="none" stroke="#FFFFFF" stroke-linejoin="round" stroke-miterlimit="10" d="M589.667,1459.917"/>
	<path id="F07C17_1_" fill="none" stroke="#FFFFFF" stroke-linejoin="round" stroke-miterlimit="10" d="M579.504,1464.667
		c0,0-0.043-6.615-0.46-10.522s-0.998-9.045-1.073-10.049c-0.075-1.004-0.805-20.762-0.805-20.762s1.083-0.667,3.5-0.667
		c2.417,0,13.417-0.409,13.417-0.409l16-0.591c0,0,1-0.333,0.917,5.25c-0.083,5.583-1.417,16.833-1.667,17.333
		s-2.75,16.667-4.333,19l-14.25,0.917L579.504,1464.667z"/>
	<path id="F07C18_1_" fill="none" stroke="#FFFFFF" stroke-linejoin="round" stroke-miterlimit="10" d="M605.145,1463.002
		c0,0,6.461-23.833,5.7-32.584c0.026-0.42-0.222-8.079-0.252-8.16c-0.03-0.081,3.574-0.515,4.907-0.594
		c1.333-0.079,21.75,0.171,22.5,1.087s0.5,5.75,0.5,5.75s-0.17,17.917,0.04,20.333c0.21,2.417,1.71,13.75,2.377,14.833
		C640.917,1463.667,609.804,1462.463,605.145,1463.002z"/>
	<path id="F07C19_1_" fill="none" stroke="#FFFFFF" stroke-linejoin="round" stroke-miterlimit="10" d="M702.583,1458.417"/>
	<path id="F07C21_1_" fill="none" stroke="#FFFFFF" stroke-linejoin="round" stroke-miterlimit="10" d="M640.784,1463.352
		c0,0-2.292-11.936-2.32-16.936s0-21.416,0-21.416s0.703-1.75,1.62-1.75c0.917,0,9.917,0,9.917,0l17.25,1.917l9.333,0.75
		c0,0,1.083,1.75,0.833,6.917c-0.25,5.167,0.037,21.667,0.037,21.667s-0.537,7.583-0.704,8.5s-0.25,5.083-1.5,5.5
		s-10.083-1.167-11.667-1.333C662,1467,651.068,1464.537,640.784,1463.352z"/>
	<path id="F07C22_1_" fill="none" stroke="#FFFFFF" stroke-linejoin="round" stroke-miterlimit="10" d="M675.7,1468.13
		c0,0,1.525-7.549,1.621-11.798c0.096-4.249,0-18.752,0-18.752l0.133-8.914l-0.527-1.872H679l9.5,0.539l25.75,3.083
		c0,0,1.833-1,0.583,6.417c-1.25,7.417-1.167,15.75-1.167,16s0.25,16.833,0.5,18.833s-0.083,7-1,8.333
		c-0.917,1.333-6-0.333-6.667-0.75s-9.167-3.833-10.333-4.25c-1.167-0.417-12.583-4.583-12.583-4.583S676.15,1467.76,675.7,1468.13z
		"/>
	<path id="F07C23_1_" fill="none" stroke="#FFFFFF" stroke-linejoin="round" stroke-miterlimit="10" d="M727.75,1501.875
		c0,0-2-8.292-6.667-12.958c-4.667-4.667-8-8.409-8-8.409s1.236-4.431,1.045-9.261c-0.19-4.831-0.451-17.596-0.451-17.596
		l1.274-17.562l0.208-4.754c0,0,0.256-1.084,3.006-0.918c2.75,0.167,11.167,0.667,11.167,0.667l22.113,1.583l3.72,0.333
		c0,0,1.417,0.25,0.75,5c-0.667,4.75-2.5,20.417-2.5,20.417s-3.583,32.667-2.833,39.583c0,0-8.697,0.742-11.968,1.152
		S733.25,1499.667,727.75,1501.875z"/>
	<path id="F07C24_1_" fill="none" stroke="#FFFFFF" stroke-linejoin="round" stroke-miterlimit="10" d="M750.583,1498
		c0,0-0.115-12.56,0.568-15.572c0.276-3.427,3.075-30.848,3.075-30.848l1.773-14.247l0.096-2.5c0,0-0.012-1.167,1.738-1.083
		s5.5,0.5,5.5,0.5l16.5,1l13.833,1.667c0,0,2.667-0.083,2.167,1.917S793,1454.667,793.417,1457c0,2.5,0.167,4.5,0.167,5
		c-1.833,0.667-6.667,3.833-7.583,5s-6.25,9.083-9.583,16.583c-0.667,3.583-1.25,5.167-2.583,7.583
		c-0.5,2.083-0.235,6.801-0.597,7.333c-1.736-0.168-3.903-0.509-6.653-0.49S750.583,1498,750.583,1498z"/>
	<path id="F06C25" fill="none" stroke="#FFFFFF" stroke-linejoin="round" stroke-miterlimit="10" d="M780.502,1475.644L786,1467
		c0,0,1.609-1.426,2.272-1.886c0.664-0.46,5.311-3.114,5.311-3.114v-9.833l2.07-12.503v-2.038c0,0,0.263-0.626,2.263-0.542
		c2,0.083,9.25,0.417,9.25,0.417l7.333,0.25l4.417,0.083c0,0,1.917-0.25,1.167,2.417s-4.333,10.25-4.333,10.25l-2.667,4.917
		c0,0-3.667,4.667-6.833,5.917c-4,2.5-6.917,5-7.667,5.5s-5.333,3.25-5.75,3.583c-0.417,0.333-4.417,1.333-5.417,1.917
		c-1,0.583-3.75,3.311-3.75,3.311H780.502z"/>
	<path id="F07C26_1_" fill="none" stroke="#FFFFFF" stroke-linejoin="round" stroke-miterlimit="10" d="M822.833,1477.5
		c0,0,3.083-3.311-19-2.583c-7.667,0.167-20.167,0.728-20.167,0.728s3.551-3.249,7.484-4.613c4.442-2.349,9.829-6.032,9.829-6.032
		l6.859-4.532c0,0,5.85-6.167,6.452-7.278c0.603-1.111,5-10.701,5.184-11.186c0.183-0.485,0.763-3.095,0.763-3.095
		s0.429-1.408,1.179-1.408s11.583-1,11.583-1l13.583-0.583c0,0,5.333-0.849,4.917,1.159s-2.5,4.591-2.5,4.591
		s-2.583,2.25-3.083,4.833s-3.417,10-3.25,18L822.833,1477.5z"/>
	<path id="F07C27_1_" fill="none" stroke="#FFFFFF" stroke-linejoin="round" stroke-miterlimit="10" d="M842.667,1464.5
		c0,0,0.757-10.934,2.72-15.961c0.955-3.343,1.583-4.667,2.324-5.503c0.74-0.836,3.531-4.442,3.648-5.444
		c0.118-1.002,0.808-1.531,1.308-1.853s3.417-0.655,4.167-0.655s13.083,0,13.083,0l12.833-0.417l14.083-0.333c0,0,1-1,0,9.417
		s-2.186,21.715-2.257,21.712c-0.072-0.002-28.326-0.962-28.326-0.962H842.667z"/>
	<path id="F07C28_1_" fill="none" stroke="#FFFFFF" stroke-linejoin="round" stroke-miterlimit="10" d="M898.333,1478.167
		c0,0-0.189-12.216-2.667-12.667l-1.091-0.038l2.578-25.614l0.08-4.443c0,0-0.401-0.707,1.682-1.098
		c2.083-0.391,6.75-0.557,6.75-0.557l26.833,0.557c0,0,0.583,15.109,0,24.443s-2.333,14.75-2.333,14.75s-26.695,2.295-30.5,4
		C899.75,1477.5,898.333,1478.167,898.333,1478.167z"/>
	<path id="F07C29_1_" fill="none" stroke="#FFFFFF" stroke-linejoin="round" stroke-miterlimit="10" d="M930.167,1473.5
		c-1.157,0.184,2.27-12.246,2.402-15.997c0.132-3.751-0.069-23.196-0.069-23.196l36.917,1.526c0,0,0.667,0.25,0.5,8.917
		c-0.167,8.667-0.333,25.917-0.333,25.917l-1,1.583C968.583,1472.25,935.917,1472.583,930.167,1473.5z"/>
	<path id="F07C30_1_" fill="none" stroke="#FFFFFF" stroke-linejoin="round" stroke-miterlimit="10" d="M997.735,1470.643
		l-29.152,1.607l1-1.583l0.18-15.915l0.031-17.089c0,0-0.295-2.663,2.122-2.746c2.417-0.083,19.75,0,19.75,0l8-0.037
		c0,0,2.417-1.13,2.417,5.454c0,6.583,0.333,14,0.917,15.625s1.667,3.792,1.667,5.542s-0.583,9.583-0.583,9.583
		S998.735,1470.648,997.735,1470.643z"/>
	<path id="F07C31_1_" fill="none" stroke="#FFFFFF" stroke-linejoin="round" stroke-miterlimit="10" d="M1004.083,1471.083
		l0.583-9.583c0,0-0.059-2.693-1.154-4.222c-0.832-2.947-1.043-4.972-1.092-5.707s-0.327-9.239-0.327-9.239l-0.264-5.099
		c0,0-0.579-2.289,1.004-2.428c1.583-0.139,33.667-0.499,33.667-0.499s1.667-1.307,1.833,3.109
		c0.167,4.417,1.083,13.543,1.417,15.188s4.5,15.312,5.417,16.978c0.917,1.667,1.083,2.667,1.083,2.667
		S1026.833,1469,1004.083,1471.083z"/>
	<path id="F07C32_1_" fill="none" stroke="#FFFFFF" stroke-linejoin="round" stroke-miterlimit="10" d="M1046.157,1471.874
		c0,0-5.882-16.465-6.264-18.685c-0.383-2.22-1.4-12.949-1.4-12.949l-0.47-5.02c0,0,0.645-1.719,2.478-1.635
		c1.833,0.083,11.167-0.003,11.167-0.003l12.833,0.546c0,0,11.417-0.46,11.417,1.373s0,11.583,0,11.583s0.5,7.5,1.833,13.25
		s3.667,10.25,4.417,11.167l0.583,1.25c0,0-14.75-0.917-21.667-0.5C1053.083,1472,1047.31,1471.687,1046.157,1471.874z"/>
	<path id="F07C33" fill="none" stroke="#FFFFFF" stroke-linejoin="round" stroke-miterlimit="10" d="M1082.75,1472.75
		c0,0-6.332-11.283-6.583-22.767s-0.251-14.483-0.251-14.483s1.75-0.417,3.833-0.417s21.75,0.583,21.75,0.583l10.417,0.833
		c0,0,0,2.75,0,5.417c0,2.667,1,11.5,1,12.833s0.416,17.745,0.416,17.745l-15.666,1.444c0,0-6.85-1.573-15.342-1.215"/>
	<path id="F07C34" fill="none" stroke="#FFFFFF" stroke-linejoin="round" stroke-miterlimit="10" d="M1113.322,1472.082
		l-0.432-17.919c0,0-0.955-10.839-0.964-11.751c-0.009-0.912-0.009-5.412-0.009-5.412l24.833,0.667c0,0,24.333-0.083,32.917-0.667
		c8.583-0.583,13.083-1.167,13.083-1.167s2,9.417,2.5,14c0.5,4.583,1.25,13.167,1.25,14c0,0.833,0.583,3.333,0.583,3.333
		s-17.75,1.833-23.75,1.167c-6.844,0.454-37.799,3.47-40.65,3.36s-9.351,0.802-9.351,0.802L1113.322,1472.082z"/>
	<path id="F08C01_1_" fill="none" stroke="#FFFFFF" stroke-linejoin="round" stroke-miterlimit="10" d="M47.833,1450.167
		l-5.458-43.042c0,0,39,2.375,41.625,1.25l3.667,40.792C87.667,1449.167,72.167,1452.583,47.833,1450.167z"/>
	<path id="F08C02_1_" fill="none" stroke="#FFFFFF" stroke-linejoin="round" stroke-miterlimit="10" d="M87.667,1449.167
		L84,1408.375c0,0,32.625,1.125,35.25,0l0.794,2.798l11.081,1.077v9.37v24.297C131.125,1445.917,111.859,1447.839,87.667,1449.167z"
		/>
	<path id="F08C03_1_" fill="none" stroke="#FFFFFF" stroke-linejoin="round" stroke-miterlimit="10" d="M131.125,1445.917v-33.667
		l26.625-0.5l8.5,0.125l-0.729,7.411l-2.513,26.151C163.007,1445.438,150.5,1445.438,131.125,1445.917z"/>
	<path id="F08C04_1_" fill="none" stroke="#FFFFFF" stroke-linejoin="round" stroke-miterlimit="10" d="M163.007,1445.438
		l3.243-33.562c0,0,27.109,0.29,30.625-0.125l-2.25,31.823C194.625,1443.573,187.222,1444.231,163.007,1445.438z"/>
	<path id="F08C05_1_" fill="none" stroke="#FFFFFF" stroke-linejoin="round" stroke-miterlimit="10" d="M194.625,1443.573
		l2.25-31.823c0,0,28,0,31.875-0.75l-1.75,31.417C227,1442.417,218.508,1443.142,194.625,1443.573z"/>
	<path id="F08C06_1_" fill="none" stroke="#FFFFFF" stroke-linejoin="round" stroke-miterlimit="10" d="M227,1442.417l1.75-31.417
		c0,0,39,0.75,41.75,0.75l-2.875,30.083C267.625,1441.833,251.125,1442.417,227,1442.417z"/>
	<path id="F08C07_1_" fill="none" stroke="#FFFFFF" stroke-linejoin="round" stroke-miterlimit="10" d="M267.938,1441.833
		l2.438-29.792l35.5,0.583c-0.422,8.938-4.254,29.38-6.375,29.45S292,1442.08,267.938,1441.833z"/>
	<path id="F08C08_1_" fill="none" stroke="#FFFFFF" stroke-linejoin="round" stroke-miterlimit="10" d="M299.5,1442.75
		c0,0,4.375-7.75,6.375-30.125c0,0,25.312-0.583,32.312-1.625c-1.688,5.438-4.436,30.824-4.436,30.824
		S323.625,1442.75,299.5,1442.75z"/>
	<path id="F08C09_1_" fill="none" stroke="#FFFFFF" stroke-linejoin="round" stroke-miterlimit="10" d="M333.751,1441.824
		l4.239-30.765c0,0,29.51-5.81,32.26-5.81l-4.833,35.5C365.417,1440.75,350.562,1442.101,333.751,1441.824z"/>
	<path id="F08C10_1_" fill="none" stroke="#FFFFFF" stroke-linejoin="round" stroke-miterlimit="10" d="M365.417,1441.062
		l4.782-35.934c0,0,27.051-3.254,29.801-3.254l-5.883,36.644C385.557,1439.323,374.625,1440.027,365.417,1441.062z"/>
	<path id="F08C11_1_" fill="none" stroke="#FFFFFF" stroke-linejoin="round" stroke-miterlimit="10" d="M394.117,1438.519
		l5.332-36.545c0,0,35.176-3.849,37.926-3.849l-2.126,37.625C435.249,1435.75,412.888,1438.394,394.117,1438.519z"/>
	<path id="F08C12_1_" fill="none" stroke="#FFFFFF" stroke-linejoin="round" stroke-miterlimit="10" d="M435.249,1435.75
		l1.957-36.887c0,0,29.168-0.738,31.918-0.738l-1.375,36.175C467.75,1434.3,454.02,1435.625,435.249,1435.75z"/>
	<path id="F08C13_1_" fill="none" stroke="#FFFFFF" stroke-linejoin="round" stroke-miterlimit="10" d="M468,1433.625l1.125-35.5
		c0,0,33.25,1.125,36,1.125l0.708,29.25C505.833,1428.5,483.24,1432.492,468,1433.625z"/>
	<path id="F08C14_1_" fill="none" stroke="#FFFFFF" stroke-linejoin="round" stroke-miterlimit="10" d="M505.833,1428.5
		l-0.851-29.312c0,0,36.768,1.17,39.518,1.17l1.966,23.796C546.467,1424.153,521.301,1426.649,505.833,1428.5z"/>
	<path id="F08C15_1_" fill="none" stroke="#FFFFFF" stroke-linejoin="round" stroke-miterlimit="10" d="M546.337,1424.153
		L544,1400.351c0,0,29.25-0.476,32-0.476l1.167,22.382C577.167,1422.257,559.75,1422.257,546.337,1424.153z"/>
	<path id="F08C16_1_" fill="none" stroke="#FFFFFF" stroke-linejoin="round" stroke-miterlimit="10" d="M577.167,1422.257
		L576,1399.875c0,0,31.75,0,34.5,0v21.25C610.5,1421.125,590.5,1422.257,577.167,1422.257z"/>
	<path id="F08C17_1_" fill="none" stroke="#FFFFFF" stroke-linejoin="round" stroke-miterlimit="10" d="M611.042,1422.257
		l-0.542-22.382c0,0,26.25,0,29,0l0.583,23.375C640.083,1423.25,624.375,1422.257,611.042,1422.257z"/>
	<path id="F08C18_1_" fill="none" stroke="#FFFFFF" stroke-linejoin="round" stroke-miterlimit="10" d="M640.083,1423.25v-23.375
		c0,0,35.042-1.401,38.167,0.625l-0.796,25.5C677.454,1426,655.625,1423.25,640.083,1423.25z"/>
	<path id="F08C19" fill="none" stroke="#FFFFFF" stroke-linejoin="round" stroke-miterlimit="10" d="M677.454,1426l0.23-24.99
		c0,0,36.316-0.385,39.066-0.385l-1.48,29.774C715.27,1430.399,690.04,1426.794,677.454,1426z"/>
	<path id="F08C20_1_" fill="none" stroke="#FFFFFF" stroke-linejoin="round" stroke-miterlimit="10" d="M715.27,1430.399
		l1.48-29.774c34.493-0.435,38.5-1.097,38.5,2l0.845,30.5C756.095,1433.125,728.603,1430.399,715.27,1430.399z"/>
	<path id="F08C21_1_" fill="none" stroke="#FFFFFF" stroke-linejoin="round" stroke-miterlimit="10" d="M756.095,1433.125
		l-0.97-32.5c34.493-0.435,40-0.222,40,2.875l0.771,32.75C795.896,1436.25,769.428,1433.125,756.095,1433.125z"/>
	<path id="F08C22_1_" fill="none" stroke="#FFFFFF" stroke-linejoin="round" stroke-miterlimit="10" d="M795.791,1436.007
		L795,1401.844c29.625-0.75,27.833,1.435,27.833,4.531l-1.417,31.125C821.417,1437.5,806.375,1437.076,795.791,1436.007z"/>
	<path id="F08C23_1_" fill="none" stroke="#FFFFFF" stroke-linejoin="round" stroke-miterlimit="10" d="M821.555,1437.127
		l1.279-34.2c31.611-0.589,29.542,0.823,29.542,4.448v27.431C852.375,1434.806,832.375,1437.128,821.555,1437.127z"/>
	<path id="F08C24_1_" fill="none" stroke="#FFFFFF" stroke-linejoin="round" stroke-miterlimit="10" d="M852.403,1435.517V1404
		c22.972-1.202,21.347-0.214,24.472,3.5l17.701,26.887C894.576,1434.387,863.223,1435.518,852.403,1435.517z"/>
	<path id="F08C25_1_" fill="none" stroke="#FFFFFF" stroke-linejoin="round" stroke-miterlimit="10" d="M893.638,1434.127
		l-20.149-30.611c24.515,1.468,56.439,0.484,59.27,1.359v28.875C932.759,1433.75,904.459,1434.128,893.638,1434.127z"/>
	<path id="F08C26" fill="none" stroke="#FFFFFF" stroke-linejoin="round" stroke-miterlimit="10" d="M932.5,1434.307l-0.395-29.65
		c15.395-0.282,35.689-2.016,38.52-1.141l-0.682,31.375C969.943,1434.891,943.32,1434.308,932.5,1434.307z"/>
	<path id="F08C27" fill="none" stroke="#FFFFFF" stroke-linejoin="round" stroke-miterlimit="10" d="M969.943,1434.891l0.682-31.545
		c15.395-0.282,29.541-2.223,32.372-1.348l-1.271,33.085C1001.726,1435.083,980.764,1434.892,969.943,1434.891z"/>
	<path id="F08C28" fill="none" stroke="#FFFFFF" stroke-linejoin="round" stroke-miterlimit="10" d="M1002.283,1434.806
		l0.682-32.963c15.395-0.282,36.58-3.468,39.411-2.593l-3.54,34.877C1038.835,1434.127,1013.103,1434.807,1002.283,1434.806z"/>
	<path id="F08C29" fill="none" stroke="#FFFFFF" stroke-linejoin="round" stroke-miterlimit="10" d="M1038.891,1433.58l3.279-34.729
		c15.395-0.282,35.624-2.976,38.455-2.101l-4.708,37.557C1075.917,1434.307,1049.711,1433.582,1038.891,1433.58z"/>
	<path id="F08C30" fill="none" stroke="#FFFFFF" stroke-linejoin="round" stroke-miterlimit="10" d="M1075.917,1434.891
		l4.991-38.401c15.395-0.282,31.386-2.241,34.217-1.366l-3.208,41.375C1111.917,1436.5,1086.737,1434.892,1075.917,1434.891z"/>
	<path id="F08C31" fill="none" stroke="#FFFFFF" stroke-linejoin="round" stroke-miterlimit="10" d="M1111.917,1436.5l3.366-41.426
		c15.395-0.282,32.386-1.824,35.217-0.949l-1,43.433C1149.5,1437.558,1122.737,1436.501,1111.917,1436.5z"/>
	<path id="F08C32" fill="none" stroke="#FFFFFF" stroke-linejoin="round" stroke-miterlimit="10" d="M1150.5,1437.545v-43.42
		c15.395-0.282,22.919-1.141,25.75-0.266l6.5,41.974C1182.75,1435.833,1161.32,1437.546,1150.5,1437.545z"/>
	<path id="F09C01" fill="none" stroke="#FFFFFF" stroke-linejoin="round" stroke-miterlimit="10" d="M42.965,1407.2l-3.632-42.7
		c0,0,69.327,2.074,73,1.833c0,0,4.714,0.993,4.667,3c-0.048,2.007,0.667,6.667,0.667,6.667l0.917,32.375L42.965,1407.2z"/>
	<path id="F09C02" fill="none" stroke="#FFFFFF" stroke-linejoin="round" stroke-miterlimit="10" d="M118.583,1407.125L117,1367.167
		h34.163l1.171,15.312l-1.171,9.021l0.838,20.358c0,0-9.921,0.826-24.91,0c-1.56-0.086-5.389-0.67-7.047-0.685
		C118.926,1411.164,119.741,1407.096,118.583,1407.125z"/>
	<path id="F09C03" fill="none" stroke="#FFFFFF" stroke-linejoin="round" stroke-miterlimit="10" d="M201,1411l1.75-29.562
		l2.616-6.739l8.384-12.448c0,0,50.25-1.25,53-1.25l-4.159,20.447l0.159,13.143l-1.5,16.91C261.25,1411.5,225.125,1411,201,1411z"/>
	<path id="F09C04" fill="none" stroke="#FFFFFF" stroke-linejoin="round" stroke-miterlimit="10" d="M261.25,1411.5l1.5-16.91
		l-0.159-13.143L266.75,1361h20.156c1.26,1.25,1.759,0.15,0,7.562c-0.971,4.093,2.344,3.75,5.001,3.75c4.12,0,19.843-2,23.876-2
		c4.288,0,4.331,2.801,4.467,7.688c0.096,3.438-0.174,5.467-0.25,8.25c-0.317,11.671-0.625,25.483-1.156,25.5
		C316.723,1411.819,285.312,1411.747,261.25,1411.5z"/>
	<path id="F09C05" fill="none" stroke="#FFFFFF" stroke-linejoin="round" stroke-miterlimit="10" d="M319.5,1412.625
		c0,0,0.316-19.498,0.25-41.75c0,0,14.001-1.25,21.875-1.25C339.938,1375.062,351,1381,351,1381s0,5.25,0,10.906
		c0,4.755,0.972,15.578,0.972,15.578C344.75,1411,328.148,1412.225,319.5,1412.625z"/>
	<path id="F09C06" fill="none" stroke="#FFFFFF" stroke-linejoin="round" stroke-miterlimit="10" d="M352.001,1408.36L351,1381
		c0,0,10.061,1.268,12.25,3.625c-3.659,2.75-6.483,22.844-6.483,22.844S354.843,1407.826,352.001,1408.36z"/>
	<path id="F09C07" fill="none" stroke="#FFFFFF" stroke-linejoin="round" stroke-miterlimit="10" d="M356.767,1407.469
		c0,0,2.481-18.203,6.483-22.844c6.5-0.344,23-0.344,23-0.344c-2.375,3.094-6.118,20.02-6.118,20.02
		S365.976,1406.433,356.767,1407.469z"/>
	<path id="F09C08" fill="none" stroke="#FFFFFF" stroke-linejoin="round" stroke-miterlimit="10" d="M380.389,1403.167l5.861-18.885
		c0,0,26.244-3.085,29.667-2.531c-1.667,2.531-1.542,18-1.542,18L380.389,1403.167z"/>
	<path id="F09C09" fill="none" stroke="#FFFFFF" stroke-linejoin="round" stroke-miterlimit="10" d="M414.264,1400.379
		c0,0,0.99-16.571,1.654-18.629c-1.924-0.057,32.583-4.625,30.833-2s-2.125,18.375-2.125,18.375L414.264,1400.379z"/>
	<path id="F09C10" fill="none" stroke="#FFFFFF" stroke-linejoin="round" stroke-miterlimit="10" d="M444.625,1398.125l2.125-18.375
		c0,0,38.75-1.5,41.5-1.5l-0.25,19.875C488,1398.125,459.865,1396.992,444.625,1398.125z"/>
	<path id="F09C11" fill="none" stroke="#FFFFFF" stroke-linejoin="round" stroke-miterlimit="10" d="M488,1398.125l0.25-19.875
		c0,0,44.5,0.687,47.25,0.687v20.25C535.5,1399.188,503.5,1398.125,488,1398.125z"/>
	<path id="F09C12" fill="none" stroke="#FFFFFF" stroke-linejoin="round" stroke-miterlimit="10" d="M536.125,1399.403
		l-0.625-20.466c0,0,45.375,0,48.125,0v20.466C583.625,1399.403,551.625,1399.875,536.125,1399.403z"/>
	<path id="F09C13" fill="none" stroke="#FFFFFF" stroke-linejoin="round" stroke-miterlimit="10" d="M583.75,1399.403l-0.625-20.466
		c0,0,55.125-0.312,54.625,0.563c-2,1.625,0,19.688,0,19.688S599.25,1399.875,583.75,1399.403z"/>
	<path id="F09C14" fill="none" stroke="#FFFFFF" stroke-linejoin="round" stroke-miterlimit="10" d="M637.382,1399.453
		c0,0-1.125-18.466,0.368-19.953c0,0,48.5-1.492,48-0.617c-2,1.625-1.375,21.366-1.375,21.366S652.882,1399.924,637.382,1399.453z"
		/>
	<path id="F09C15" fill="none" stroke="#FFFFFF" stroke-linejoin="round" stroke-miterlimit="10" d="M684.375,1400.249
		c0,0-0.118-19.88,1.375-21.366c0,0,52.75,0.742,52.25,1.617c0.625,2.75,0.003,19.11,0.003,19.11S699.875,1400.721,684.375,1400.249
		z"/>
	<path id="F09C16" fill="none" stroke="#FFFFFF" stroke-linejoin="round" stroke-miterlimit="10" d="M738.281,1400.053
		c0,0-0.612-18.5,0.881-19.986c0,0,46.922-0.608,46.422,0.267c1.5,2.667,1.5,19.916,1.5,19.916S753.781,1400.525,738.281,1400.053z"
		/>
	<path id="F09C17" fill="none" stroke="#FFFFFF" stroke-linejoin="round" stroke-miterlimit="10" d="M787.083,1400.679
		c0,0-0.997-18.68-1.5-20.346c0,0,41.25,0.708,40.75,1.583c1.5,2.667,1.415,20.412,1.415,20.412S797.459,1402.039,787.083,1400.679z
		"/>
	<path id="F09C18" fill="none" stroke="#FFFFFF" stroke-linejoin="round" stroke-miterlimit="10" d="M828.032,1402.259
		c0,0-0.997-18.68-1.5-20.346c0,0,28.056-0.195,27.556,0.68c1.5,2.667,1.913,21.096,1.913,21.096S838.408,1403.619,828.032,1402.259
		z"/>
	<path id="F09C19" fill="none" stroke="#FFFFFF" stroke-linejoin="round" stroke-miterlimit="10" d="M856.088,1403.116
		c0,0-0.997-18.679-1.5-20.345c0,0,0.537-3.395,4.162-5.145c-0.583,0.608-4.933,0.023-3.5-1.25c2.252-2,6.509-1.363,5.377-3.628
		c-0.391-0.783-1.942,0.656-4.189-1.872c-1-1.125,12.796-1.404,13.5-0.027c2.742,5.362,5.225,14.962,6.25,15.839
		c1.335,1.142-0.184,1.345-0.023,2.49c0.186,1.327,0.873,2.998,1.773,4.385c0.336,0.517,0.261,3.261,0.375,3.562
		c1.438,3.812,1.312,6.704,1.312,6.704S866.464,1404.476,856.088,1403.116z"/>
	<path id="F09C20" fill="none" stroke="#FFFFFF" stroke-linejoin="round" stroke-miterlimit="10" d="M305.875,1412.625
		c0,0,25.312-0.583,32.312-1.625"/>
	<path id="F09C21" fill="none" stroke="#FFFFFF" stroke-linejoin="round" stroke-miterlimit="10" d="M166.25,1367.167
		c0,0,3.25-0.417,6.25-0.917s4.75,0,5.25-1.75l31.333-2.25c0,0,2.917,1.333,0.917,4.917c-2,3.583-5,7.333-6,10.583
		s-2,34.475-2,34.475l-50-0.367l-0.838-20.358l1.171-9.021l-1.171-15.312H166.25z"/>
	<path id="F09C22" fill="none" stroke="#FFFFFF" stroke-linejoin="round" stroke-miterlimit="10" d="M879.624,1403.829
		c0,0-0.199-2.797-0.443-3.786c-0.244-0.989-0.395-1.594-0.632-2.256s-0.432-3.518-0.432-3.518s-1.106-1.784-1.53-3.438
		s-0.363-2.289-0.212-2.524c0.151-0.235,0.79-0.655,0.457-1.357c-0.333-0.701-1.167-2.535-1.167-2.535l-5.443-12.99
		c0,0-1.276-1.786-1.723-1.507c-0.447,0.279,0.25-1.003,0.833-1.336c0.583-0.333,1.667-1.333,1.667-1.75c0-0.417,0-0.667-1-1.167
		s-3.333-1.667-3.917-2.333c-0.583-0.667-1.75-1.917-1.75-3c0-1.083,0-1.5,0-1.5l20.417,0.583l28.25-0.583l12.5,0.417
		c0,0,0.75,0.25,0.917,3.583c0.167,3.333,0.75,4.917,1.917,7.833c1.167,2.917,1.333,4.917,1.5,6.917c0.167,2,3.5,24.19,3.5,24.19
		s0.243,2.886-4.255,2.799C922.664,1404.468,879.624,1403.829,879.624,1403.829z"/>
	<path id="F09C23" fill="none" stroke="#FFFFFF" stroke-linejoin="round" stroke-miterlimit="10" d="M933.336,1404.25
		c0,0-0.709-7.195-1.062-9.575c-0.353-2.38-2.168-14.929-2.168-14.929l-0.569-4.809c0,0-1.12-4.009-1.552-5.149
		s-1.308-3.549-1.5-5.947s0.015-4.091,0.431-4.425c0.417-0.333,3-0.417,4.417-0.583c1.417-0.167,13.667-0.75,14.333-0.75
		c0.667,0,22.25-0.917,22.917-0.917c0.667,0,9.167,0,9.167,0s3-0.583,2.5,1.667s-0.583,1.75-0.75,3.75s0.417,4.083,0.417,5.25
		c0,1.167,0.5,0.333,0,2.417s-0.5,9.574-0.417,11.454s0.583,18.427,1.5,20.07c0,0,0.418,1.162-2.164,1.281
		C976.254,1403.174,933.336,1404.25,933.336,1404.25z"/>
	<path id="F09C24" fill="none" stroke="#FFFFFF" stroke-linejoin="round" stroke-miterlimit="10" d="M981.025,1402.583
		c0,0-0.654-4.496-0.729-5.414s-0.722-13.503-0.722-13.503s0.33-12.478,0.42-13.752c0.09-1.274-0.604-5.722-0.512-6.907
		s0.35-4.342,0.768-4.675c0.418-0.333,0.918-0.583,2.501-0.667c1.583-0.083,11.167-0.553,12.75-0.568
		c1.583-0.015,8.417-0.765,9.833-0.765c1.417,0,5.417-0.167,4.417,2.5c-1,2.667-3.667,3.75-1.917,5s7,0.25,8.75-0.333
		s5.833-0.833,8.583-1c2.75-0.167,6.417-0.833,6.417,2.583c0,3.417,2.1,34.443,2.1,34.443L981.025,1402.583z"/>
	<path id="F09C25" fill="none" stroke="#FFFFFF" stroke-linejoin="round" stroke-miterlimit="10" d="M1033.655,1399.098
		l-2.192-34.969c0,0,0.204-1.546,1.621-1.796c1.417-0.25,16.833-0.417,16.833-0.417l16.333-0.75l18.583-1l8.083-0.417
		c0,0,3.417-0.667,3.75,3.667c0.333,4.333,0,16.833,0,16.833l-0.5,14.652C1096.167,1394.902,1034.809,1399.614,1033.655,1399.098z"
		/>
	<path id="F09C26" fill="none" stroke="#FFFFFF" stroke-linejoin="round" stroke-miterlimit="10" d="M1096.167,1394.902l0.5-31.485
		c0,0-0.5-4.167,1.833-4.167s21.167,0,21.167,0l31.583-1.75l8.417-0.667c0,0,2.001-0.052,2,4.167c-0.002,5.001,0,9.667,0,9.667
		l-0.833,22.809l-42.583,1.426H1096.167z"/>
</g>
</svg>
