<?xml version="1.0" encoding="utf-8"?>
<!-- Generator: Adobe Illustrator 17.0.0, SVG Export Plug-In . SVG Version: 6.00 Build 0)  -->
<!DOCTYPE svg PUBLIC "-//W3C//DTD SVG 1.1//EN" "http://www.w3.org/Graphics/SVG/1.1/DTD/svg11.dtd">
<svg version="1.1" xmlns="http://www.w3.org/2000/svg" xmlns:xlink="http://www.w3.org/1999/xlink" x="0px" y="0px" width="1200px"
	 height="1920px" viewBox="0 0 1200 1920" enable-background="new 0 0 1200 1920" xml:space="preserve">
<g id="fondo_1_">
	<g id="fondo">
		<g id="Capa_5">
			<rect width="1200" height="1920"/>
		</g>
	</g>
</g>
<g id="horizontales_1_">
	<path id="LH1_2_" fill="none" stroke="#FFFFFF" stroke-miterlimit="10" d="M1,1808.5c0,0,59.2,10,103.2,0s145.7-23.5,247.3-6
		c42.7,7.3,105.3,18,262.7,7.3c156.7,2,174,0.7,186.7,0.7s54.7,4,80-2c34-6,155.3-8,207.3-10s77.7,5.1,112.8-4.4"/>
	<path id="LH2" fill="none" stroke="#FFFFFF" stroke-miterlimit="10" d="M0,1773.5c0,0,37.2,3,43.2,3s45.3,2,45.3,2l77.2-2h33.1
		l92.9-2h95.4c0,0,25-4,45.3-10.1c21.4-3.2,32.3-5.3,44.4-5.3s28.7,1,28.7,1s10.1,1,15.8,1.4c5.7,0.4,19.8,2,19.8,2l33.5,0.4h42
		l40-2l21.4-0.8l7.3-0.5c0,0,4.3-0.5,5.4-0.5c1.1,0,4,0,5.7,0s5.8,0.4,7.1,0.1c1.3-0.3,4.8-0.3,7-0.3s6.3,0,6.3,0h13.9h15.6
		l12.1,0.1l8.3,0.3l20.3,1.2c0,0,1.8-0.2,1.8,0.9s0.5,3.6,0.5,3.6s0.3,3.4,4.2,4.4c0,0,5.8,1.9,11.2,2.3c5.4,0.4,10.8-0.5,10.8-0.5
		l56.8,1.9l97-3h84.3l82.4-2.3c0,0,26.4-1.2,34.5-2.6c8.1-1.3,24.8-7.3,25.9-7.1s3.7,0,3.7,0"/>
	<path id="LH3" fill="none" stroke="#FFFFFF" stroke-miterlimit="10" d="M0,1723.2h18.4h9.3c0,0,12,0.2,12.4,0s1.5-0.7,1.9-0.7
		s2.1,0.4,2.1,0.4s2.8,0.4,3.2,0c0.4-0.4,3.6-0.5,3.9-0.4s3.1,0.3,4.1,0s6.6-1.2,6.6-1.2h14.6h13.6h5.8l45.2-3.3l11-0.7h16.1
		l18.4-0.7l10.7-0.9h6l35.5-1.3c0,0,11.7,0.4,12.9,0.5c1.4-0.1,5.3,0,5.3,0l4.1,0.1l6.7,0.4l8-0.2h27.8c0,0,5.4-0.5,6.7,0
		c2.1-0.2,4-0.2,4-0.2l4.9-0.6h4.9l24.8,1.6l5.5-0.1l4.3-0.2l88.9,11.2c0,0,18,2,22.4,2s23-0.8,30.9-2c7.9-1.2,73.1-0.8,73.1-0.8
		l111.3-1.8c0,0,57.8-0.4,64.8,1c9.3,0.6,27.9-1.2,27.9-1.2l62.6-4.6l7.9,0.2l6.3-0.4l50.7-1.6l30.5-1.6l9.3-0.6l15.6,0.4h25.7
		l25.9-0.2l19.8-0.2l34.9,0.2h20.4l7.1,0.4l1.6,1.2l5.1-0.2l12.1-0.6l33.9,0.6c0,0,10.7-1,12.7-1s7.1,1.8,8.3,2.2s5.7,1.4,5.7,1.4
		l7.9,2l10.9,2l7.1,0.9"/>
	<path id="LH4" fill="none" stroke="#FFFFFF" stroke-miterlimit="10" d="M0,1670.2h17.8h9.5h20.6c0,0,20.4-1.4,21-1.4s13.3,0,13.3,0
		l21.2,0.2l11.7,1.4l0.3,18.6l268.2-1.6c0,0,8.5-10,9.1-41.8c12.4-0.9,36.4-1.5,50,0.3c0.1,8.1,0.5,18,0.5,18l60.2,5.6
		c0,0,0.9,10.9,119.1,8.9c65.1-3,69.4-1.1,101.1-14.1c4.6-1.8,91.9-1.9,91.9-1.9l17.3,2.9c0,0,32.1,1.3,40.4,1.1s15.7-0.2,15.7-0.2
		l216.2-1.7l0.3-10.1c0,0,79.6,3,94.4,2"/>
	<path id="LH5" fill="none" stroke="#FFFFFF" stroke-miterlimit="10" d="M0,1619.7h62.1H102l12.8,1.2l15.8,2.4l315.9-5.3h327
		l126.6,1.6l207.9-11c0,0,29.9,1.9,48.5,0c12.1,0.3,43.5,0,43.5,0"/>
	<path id="LH6" fill="none" stroke="#FFFFFF" stroke-miterlimit="10" d="M1200,1560.7l-45.7,2.4l-101.4,3.2H755.5l-320,7.7
		l-268.3,4.4h-43.2l-11.3-2H74H45.7L0,1574"/>
	<path id="LH7" fill="none" stroke="#FFFFFF" stroke-miterlimit="10" d="M0,1530.3c0,0,18.8-0.6,32.7,0s28.5,2.4,28.5,2.4l17.4,1.4
		c0,0,25.5,1.8,26.5,2.8l7.9-2.2l10.3,3.8l32.7,2.8l110.1,3.7h106.7l12.1-5.5c0,0,22-7.7,62.6-2.1c40.6,5.7,80.6,3.9,80.6,3.9
		l98.2-1.6l201.2-20.4c0,0,30.3-6.1,61.4,0s81.2,6.5,81.2,6.5l127.7-2l13.1-3.4c0,0,0.4-4,29.3-3.7c3.8,0.1,5.9-1.1,5.9-1.1l3,1.2
		l6.5-1.2h6.9h4h14.9l18.6-1.8"/>
	<path id="LH8" fill="none" stroke="#FFFFFF" stroke-miterlimit="10" d="M0,1494.2c0,0,16.2,0.8,21.2,1.2s21.6,1.4,21.6,1.4
		l22.7,3.2l11-9.5c0,0,31.9-1.6,45.2,3.1c-2.7,6.3-15,19,0.5,29.2c25.8-2.4,79.5-24,132.2-22.8c47,1.1,103,13.8,103,13.8l20.1,4.4
		c4.4-12.4,4-20-1.1-27.7c3.4-2.8,2.7-4.6,8.1-7.7c11.6,2.8,36.5,7.4,65.2,2.9c4.1,7,5.2,17.6,5.2,17.6l0,0c0,0,24.2-3.6,42.2,0.1
		c7.5-31.3,62.1-39.6,108.8-40c116.5-4,121.4,38.2,121.4,38.2s8.5-4.5,44-2.6c0,0,0.7-24,21.9-37.1c15-1.4,18.4-1.5,26.6-2.3
		c3.5-0.2,15.6-2.2,20.2-0.8c1.8,2,1.1,5.8,1.1,5.8l43.1,0.6l9.8,0.1c0,0,3.8,5.2,2,13.1c7.9-6.6,105.2-7.1,105.2-7.1l64.1,0.8
		l20.8,0.1l3.8,0.4c0,0,7.1,0.6,20.9,0c5.6-0.3,12.2-0.7,12.2-0.7l8.6-1.2l5.5-0.3h6.2l5-0.8h3.8h9.2h9.4c0,0,16.3-0.9,17.4-1.1
		c1.1-0.1,12-1.3,12-1.3"/>
	<path id="LH9" fill="none" stroke="#FFFFFF" stroke-miterlimit="10" d="M0,1447.3c0,0,16.3,2.2,35.8,3.4
		c12.7,0.8,26.9,0.7,38.7,0.5c15.1-1.3,45.5-3.8,45.5-3.8l66.5-2.2l58.7-2.9h62.2l70.7-2c0,0,47.1-3.8,50.1-4.4
		c5.7,0,49.9-3.6,49.9-3.6s88.9-12.9,130.7-11.3c41.8,1.6,146.1,12.7,146.1,12.7l38.4,2.4c0,0,16,2.3,31.1,0.9
		c15.2-1.4,37.2-2.4,41-2.4s39.2-1.2,44.2-1.2c7.5,0.4,50.8,1.9,50.8,1.9s24,0.8,50.9-0.3s57.8-1.3,83.5,0.1s59.4,2.4,85.2-0.3
		l19.8-1.9"/>
	<path id="LH10" fill="none" stroke="#FFFFFF" stroke-linejoin="round" stroke-miterlimit="10" d="M0,1408.7c0,0,40.6,1.8,42,2.8
		c-0.4-1.4-0.1-3.3-0.1-3.3l5.8-0.1c0,0,14.9,1,17,1c2,0,12.3,0,12.3,0h7.5l12.5,0.5l21.6,0.3v2.3h12.5l19.6,0.4h12.8h2.5h2.1h6.3
		c0,0,4,0,4.5,0c4.7,0.2,16.9,0.2,16.9,0.2l4.4-1.3l1.4,0.1l9.2,0.6l7.1-0.2l10.1-0.3l15.9-0.5l20.4,0.4l19.5,1.2h19.2l22.1-1.1
		c0,0,11.4,0.5,27.5-3.7c18.6-3.4,30.2-4.2,30.2-4.2l26.8-2.9c0,0,35.3-3.3,39.7-2.6c5.2,0.1,18.7-0.1,18.7-0.1l35.4,1.5l40.2,0.9
		l31.5-0.3l34.3,0.1l29,0.1c0,0,38-0.2,38.4-0.2s1,0.9,1,0.9l7,0.1l13.7,0.2l1.2,0.4h1.5c0,0,1.2-0.3,1.5-0.4
		c0.3-0.1,11.9-0.1,11.9-0.1l13.1-0.6l4.6,0.1l2.7-0.2c0,0,2.9,0.2,3.6,0.2s5.2-0.2,5.2-0.2h2.7l1.4-0.4c0,0-0.8,0.5,1.4,0.4
		s6.2-0.1,6.2-0.1l7.4,0.2l6.6,0.2l3.6,0.2l1.5-0.8l1.5,0.5l1.8,0.1c0,0,1.7,0.1,2.2,0.1s4.6,0,4.6,0l2,0.2l3.1,0.1l3.5,0.4h5.5
		l8.1,0.6l3.9,0.1h4.3l4.2,0.1l1.1,0.6c0,0,5.2-0.2,5.5-0.2s11.1,0.4,11.1,0.4h5.8l11.3,0.7l5.4-0.1l5.5-0.1l7.1,0.1l6.2-0.3
		c0,0,0.9,0.5,2,0.7s5,0,5,0l7.5,0.5l11,0.6h11.7l8.2-0.6l7.1-0.2l20.5-0.2l8.9-0.3l9.9-0.2l24.3-1.4l7.9-0.5l19.2-1.6l18.1-1.5
		c0,0,21.7-1.4,28.4-1.7c6.7-0.3,16.2-0.6,16.2-0.6l29.2-1.3l35.3-1.5l24.2-0.7l27.1-0.4"/>
	<path id="LH11" fill="none" stroke="#FFFFFF" stroke-linejoin="round" stroke-miterlimit="10" d="M0,1361.9l1.3,1h2.2H6l2.7,0.5
		l2.4-0.8h2.6c0,0,2.2,0.6,2.6,0.8s4.1,0,4.1,0l5.7,0.1l4.8,0.4H36l3.1,1.1h5l12.3,0.7h5.3h14.4l17.3,0.8l13.5,0.5h5.8l10.5,0.2
		l12.9-0.2l13.5,0.2l12-0.2l1.5,0.5l1.3,0.2l2.5,0.1l2.7-0.7l0.8-0.1h3.2c0,0,3.2-2.2,5.2-3.5c1.7-1.1,8-1,8-1l59-1l25.7-0.5
		c0,0,15.1,1.3,15,2.1s0.1,3.4-1.3,6.1s0.4,3.8,1.4,3.9s6.6,0,6.6,0l10-1.2l9.8-0.3l5.4-0.4c0,0,4.7-0.8,5.1-0.8s1.5,0.5,1.5,0.5
		l1.3-0.5l4.3-0.3l11.3,0.1l62.7,13l48-3.3l136.8-0.9l157,0.8l108,3.5l14-13.2l13.2-11.2l108-2.5l11-0.2c0,0,7.4-0.7,7.6-0.1
		s-0.9,4.6-1.5,5.9c-0.6,1.2-1,3.6-1,3.6l2.5-0.4l6.4-0.6l3.2-1l0.5,0.5l1.9-0.5l5.4-0.1l9-0.7l5.2-0.1l17.6-0.8l28.7-1l19.7-0.5
		l24.5-1.1l30.4-1.8l39.2-2.2"/>
	<path id="LH12" fill="none" stroke="#FFFFFF" stroke-linejoin="round" stroke-miterlimit="10" d="M0,1307.9l10.4,0.7h5.1l7,0.9h5.1
		l4.6,0.8l4.4,0.8h3.8H43l3.4,1.3h5.5l10,0.5l5.3,0.5h7.6h35.3l0.9,0.5h22.8h21.9c0,0,10.8-0.5,14.3,4.8l3.8,3l104.5-4l25.7,9.8
		c0,0,3.1,1.6,3.5,1.6s1.5-1.1,3.9-1.8s3.8-1.2,5.4-1.2s8.4-0.4,8.4-0.4l10.1-0.1l8.5-0.3h5l56.2-3.6l97.8-0.4l77.2-5.3l149.9-6.1
		l266.8,16.3c0,0,13.6-5.3,18.3-6.7s21.7-3.1,25.2-2.7c3-0.1,3.8-0.3,3.8-0.3l1.8,0.1l1.8-0.2h2.8h5.4l6.9-0.1l4.8-0.2l11.6-0.1
		l11.5-0.8l13.5-0.9l25.6-1.8l25.5-1.3l28.3-1.6l16.7-0.8"/>
	<path id="LH13" fill="none" stroke="#FFFFFF" stroke-linejoin="round" stroke-miterlimit="10" d="M0,1257.7c0,0,19.2,3,24.2,3.2
		c7.5,1,15.8,2.1,17.1,2.8c2.2,0.4,6.5,0,6.5,0l3.6,0.2h4.8l6.2,0.8h8.2h11.9h26.1c0,0,7.3-0.7,9.2-0.7c1.9,0,7,0,7,0l11.9-0.3
		l7.9-0.1l10.4-0.1c0,0,7.4-0.7,12.5,1.9c5.1,2.6,8.2,3.8,8.2,3.8l99,3.5l13.5,7.8c0,0,11.2,8.4,11.6,8.1s9.2-5.3,12.9-6.1
		s10.8-1.2,10.8-1.2l9.6,0.1l16.4-0.5l9.4-0.1l6.7,0.3c0,0,4.8,0,7,0s7.5,0.1,7.5,0.1l11.6,0.1l37.7,0.7l29.1-0.1l16.2,0.8
		c0,0,10.5,1.8,11.4,3l144.9-0.3l89.8-3.1h64.6c0,0,45.3-4.7,72.2-1.6l29.9,3.6l109.8-0.8c0,0,10.9-6.9,13.9-7.4s5.5-2.6,8.3-3.6
		c5.8-0.7,32.9-1.9,32.9-1.9l15.5-0.3l16.3-0.5l19.9-0.9l11.2-0.3l9.8-0.8h7l2.8-0.7l1.8,0.1c0,0,0.5,0.3,1.1,0.1
		c0.5-0.1,2.2-1.1,2.2-1.1l5,0.4l3.1-0.4l4.7-0.1l5.7-0.3l6.3-0.5l5.9-0.5l10.8-0.8h3.5l2-1.1l3.1,0.1l0.5-0.5l9.3,0.1"/>
	<path id="LH15" fill="none" stroke="#FFFFFF" stroke-linejoin="round" stroke-miterlimit="10" d="M0,1200.6c0,0,1.6-0.6,3.1-0.1
		s5.3,1.9,5.3,1.9l9.2,1.8l5.1,0.7h4.7l4.7,0.9h2.8l2.8,1.1l9.3,0.8h10.6l9.8,0.8h10.2l17.2,1.1h17.9c0,0,21.1-0.1,21.5,0
		s4.4,0,4.4,0l2.4,0.7h2.3l1.8-1.3h3.8l2.5,0.1c0,0,5.1,0.3,10,1.2s5,0.9,6.3,1.5c1.8,1.5,4.1-6.9,4.1-6.9s15-19.8,65.8-22.6
		c17.6-1,31.8,0.2,42.3,3.2c19.4,5.6,25.9,12.9,25.9,12.9s1.4-3.5,4.7-4.5c5-1.5,7.7-2.9,9.3-2.9c1.6,0,7.4,0,7.4,0h4.4l2.6,0h3.1
		l3.5-0.7h11.2h7.5h5.7h3.9h2h5.3h8.8h6.7h4.7l1.3-0.5h1.1l2.4,0.7l0.9-0.7h1.5l1.7,0.9l0.9-0.3l2.3-0.6h1.9l2.1,0.5l7.5-0.5
		l7.6,0.5l4.8,0.1l5.8,0.3l5.8-0.2l6.6,0.1l7.3,0.3l4.6,0.1l4,0.1c0,0,0.5,0.6,1.7,1.7s4.3,4.1,4.3,4.1l4.7,4c0,0,3.4,2.4,6,5.8
		c0,0,4.6-7.1,30.5-8.5c11.3-0.6,27.4-0.9,47,2.8c33.1,6.6,48.2,16.8,48.2,16.8l7.6,4.9c0,0,1.2-3.7,3.6-6.4s6.5-4.8,7.5-5.4
		s1.6-0.6,3.5-0.9c1.9-0.3,6.5-0.5,6.5-0.5l15.4-0.5c0,0,14.4-0.5,19,1c3.1,0.6,5.8,0.6,6.2,0.6s4.1,0.7,4.6,2c1.1,2.5,0.9,2,1.3,5
		c2,0.1,14.7-9.1,51.7-13.8s44.5,8.3,44.5,8.3l2.5-3c0,0,1.9-1.1,5.1-4.9c6.7-5.3,8.4-7.2,8.4-7.2l0.3-4.2l0-1.9l0.3-2.1l2.7-0.7
		l7.3-0.8h6.1l5.9-0.5h4.8l8.1-0.7h6.1c0,0,3.9-0.5,5.1,0.6s4.1,5.8,4.1,5.8l6,13.6l3.7,9l2.3,4.1c0,0-2.4-38,73.8-38.7
		c11-1.3,17.9-0.4,25.1-0.4c51.7-0.3,48.8,10.7,48.8,10.7l0.6,10.4c0,0,4.2-8.3,6.5-11.2c2.5-3,7-5.3,7-5.3l4.6-3.6l1.7-1.6l2.2-1.1
		l2.6,0l9-0.1c0,0,1.8-0.9,2.2-0.9s4.6,0,4.6,0l2.8-0.7c0,0,2.7,0.1,3.8,0c1.1-0.1,9.3,0,9.3,0l4.6-0.1l14.1-1.2c0,0,2.6-0.3,3,0
		s3-0.5,3.5-0.1s5-0.1,5-0.1h9.4h3.9l3.6-1l9.3-1.1l3.2-0.1h2l11.3-0.9l11.7-1.5l15.4-1.3l17.9-1.2l18.3-1.2"/>
	<path id="LH16" fill="none" stroke="#FFFFFF" stroke-linejoin="round" stroke-miterlimit="10" d="M0,1152.8
		c0,0,47.8,13.9,76.9,15.5c29.9,0.8,35.3,0,89.4-9.2s74.9-12.7,81.1-12.7s60.3,1.6,60.3,1.6s43.4-0.3,60.1-3.8
		c21.8-2.7,77.8-7.3,77.8-7.3l93.7-3.2c0,0,71.4-1.6,103.7,1.9l83,7.8c0,0,33.7,3,40.7,3.2s48.2-2.4,48.2-2.4s46.3-3,63.8-5.1
		s60.9-4.6,80.8-3.5s62.2,1.6,63.8,1.6s60.1-2.4,60.1-2.4s47.9-4.3,59.3-5.9s56.8-11,56.8-11"/>
	<path id="LH17" fill="none" stroke="#FFFFFF" stroke-linejoin="round" stroke-miterlimit="10" d="M0,1104.3l28.7,6.9l2.3,0.5
		c0,0,1.1,0,1.4,0s0.9,0,0.9,0l6.1,2c0,0,4.5,0.2,9,1c4.4,0.8,12,2.3,12,2.3l4,0.9l6.3,0.7h3.5l5.9,0.9l2.1,0.6h3.8h8h9.5h9.7
		l15.9-0.9l12.7-1.6l16.3-1.9c0,0,1.9-0.5,3.4-0.7s3.8,0,3.8,0h12.3l10.3-1l8.5-0.8h4.8l3.7-0.3l4-0.7h5.5l11-0.6h9.3l10.2-0.1h10.4
		l9.4-0.4l8.1,0.2l12.4-0.2l9.7-0.3h8.2l17.6-1.7l10-0.7l8.5-1l5-0.5l9.4-1.3l15.8-2.6l9.3-1.7c0,0,2.2,0.2,2.5,0s2.9-1,2.9-1
		l2.4-0.8c0,0,1.3-0.7,2-0.8s2.8-0.6,2.8-0.6l12.5-2.8l5.2-0.9l1.8-0.7l1.4-0.5l1.4-0.8h1.3h2.4h3.5l4.1-1.4c0,0,3.5,0.1,3.8,0
		s4.4-1.3,4.4-1.3h4.9l5.8-0.9c0,0,13.3-0.5,16-0.6s4.3-0.5,4.6-0.5s1.3,0,1.3,0h1.1h1.2h2.4l1.6-0.5h2.3c0,0,1.8-0.4,2.1,0
		s5.8,0.3,5.8,0.3h4.8l10-0.5h12.2h14.4l10.4-0.9h6.3h10.5l7.7-0.6h5.4c0,0,15.5-0.4,15.9,0s6.4,1.2,6.4,1.2l9.6,0.2l14.8,0.1
		l4.4,0.4l4.3,0.3l12.2,0.1l20,0.3h6.5l10.6,0.4l11.3,0.1l6.5,0.3l11.6,0.6c0,0,14.1,1.4,16.3,1.5c4,0.8,11.3,2,11.3,2l9.2,2.6
		c0,0,3,0.6,3.8,0.6s1.9,0,1.9,0l3.5,1.1l2.9,0.4l2.7,0.5l1.9,0.8l5.3,0.9l5.3,0.4l1.7,0.4l2.2-0.8h2.4l3.4,0.9c0,0,1.2,1.8,2.7,1.9
		s2.3,0.1,3.9,0.5s3.7,1.1,3.7,1.1l2.6,0.6c0,0,2.2,0.2,2.7,0.4s2.9,0.6,2.9,0.6l3.2,0.3c0,0,1.8,0.4,2.1,0.4s2.1-0.3,2.1-0.3
		s1.2-0.2,2-0.2s4,0.3,4,0.3s2.2-0.2,3-0.2c0.8,0,7.6,0,7.6,0l9.4,0.3l9.9,0.2l13.1-0.4l17-0.1l5.7-1.1l4.5,0.2l4.7-0.2l16.8-0.6
		l26-0.9l24.5-0.9l19.4-0.6l29.4-2l20.1-0.3l29.8-1.5l11.1-0.4c0,0,9.9-0.5,10.7-0.5s11.9-0.3,11.9-0.3l6.6-0.9l4.4,0.2
		c0,0,5.4-1.2,6.2-1.2s7.9-0.5,7.9-0.5l6-0.7l8.1,0.3c0,0,8.9-0.3,9.4-0.3c0.5,0,6.1,0,6.1,0s3.5-0.3,4.2-0.3s10.9-0.4,10.9-0.4
		l7.3-0.2l2.1-1.4l5.5-1.2l7.3-1.1l7.4-1.4l3.2-1l5.4-1c0,0,3.4-0.3,3.7-0.7c0.3-0.4,4.1-1.3,4.1-1.3l3.1-0.5h1.4"/>
	<path id="LH18" fill="none" stroke="#FFFFFF" stroke-linejoin="round" stroke-miterlimit="10" d="M0,1064.9l7.3,1h3.4
		c0,0,3,0.2,3.8,0s5.6,1.2,5.6,1.2s5.5,0.9,6.1,0.9s3.1,0.1,3.1,0.1H34l6.1,1c0,0,0.2-0.8,2.6,0s7.9,1.2,7.9,1.2l5.9,1.4l9.3,1
		l9.7,1.8l14.3,1.2h12.7l16.2,2.4h12.1c0,0,9.9-0.9,10.5,1.2c0.2,0.1,5.8-10.6,8.4-11.5c2.6-0.9,10.6-0.8,10.6-0.8l9-0.3l35.9-1.1
		l42.8-2.6l1.3-5.4l14.4-1.4l8.2-0.7h5.2c0,0,6.1,0.3,7.2-0.8c1.3-0.3,3.4,0,3.4,0l4.8-0.1h4.9h4.9c0,0,20.5-1,25-1.8l1.5,8
		c0,0-0.8,10.7,5,20c0.8,1.3,6.7,4.8,20,4.5c5.7-0.1,4.3,9.1,11.8,8.8c7.6-0.4,17.8,6.8,20-16.8c64.8-10.2,147.3-10,218.3-8.8
		c77,2.8,96,3,96,3s44.9,0.9,58,9.2c7.8,6.2,8.2,9,8.2,9l21.7-40l17.8-0.8c0,0,20.1-2.3,28,10l1,3.2l20-1.1l48.5-3.8l95.5-5.8
		l20.2-1.5c0,0-3.2-21.8,24.9-22.5l22.5-1.2l21.7-1.8l14.1-1.3l16.7-1.5c0,0,10.8-1.2,11.2-1.2s1.3,0.7,2.4,0.7s2.2-0.5,2.8-0.7
		s2.3-0.5,3.1-0.5s3,0,3,0s2.6-0.4,3.2-0.7c0.7-0.3,2.7-0.7,3.6-0.7s3.5,0.4,4.4,0c0.9-0.4,5.9-0.7,5.9-0.7s6.7-0.7,8.3-0.7
		s2.3-0.8,5.5-0.8s4.6,0.7,6.6,0s3.9,0.4,5,0s2.8-0.9,4.2-1.1s2.7,0.3,4.4,0s7.1-0.8,7.1-0.8"/>
	<path id="LH19" fill="none" stroke="#FFFFFF" stroke-linejoin="round" stroke-miterlimit="10" d="M0,1022.1c0,0,5.3,2.3,6.2,2.3
		s4.7,0,4.7,0h3c0,0,1.9-0.5,2.4,0c0.5,0.5,2.8,0,2.8,0s3,1.2,3.6,1.2s4,0,4,0s5,1.6,5.5,1.6c0.5,0,5.8,0,5.8,0l3.6,0.7
		c0,0,3,0.5,3.6,0.7c0.7,0.1,2,0.5,2,0.5h3c0,0,0.9-0.5,1.6,0c0.7,0.5,5,1.8,5.7,1.9c0.7,0.1,4.7,0.8,4.7,0.8l1.6,0.5h3.4l5.9,0.9
		H76l4.3,0.7l1.8,0.9h2.7h5c0,0,1.8,0.9,2.2,0.8s3.8,0,3.8,0h4.2l5.9,1.2h3.9c0,0,5.5-0.4,7,0c1.5,0.4,4.8,1.3,4.8,1.3h2.6l4.8,1.1
		c0,0,5.1,1.8,8.4,2.8c3.2,1.1,105.7-4.2,105.7-3.8s0.7-22.9,0.7-22.9s11.4-4.2,20.6-4.4l20.6-1.1l6.1-0.5h3.5c0,0,2.3,0.5,2.8,0.5
		c0.5,0,3.1-0.5,3.8-0.5s3.1-0.8,3.1-0.8h3h6.5h7.9h28.7c0,0,16.3-2.2,23.8,3.9l239.3-0.4l75.6-3.9c0,0,43.6-3.6,49.3-3
		c1.8-0.2,3.3-0.7,3.3-0.7s1.3-0.4,1.6,0s1.6-0.1,2.5-0.2c0.9-0.1,0.9-0.1,2.7,0c1.8,0.1,1.8,0.4,4.4-0.1s4.5-0.6,5.6-0.7
		s5.8,0.4,6.3,0s5.7-0.8,7.1-1s1.3-0.5,3.1-0.7s2.7,0.2,4.8,0c2.1-0.2,3.5,0.2,4.4-0.1c0.9-0.2,4.4,0.2,5.4,0s5.3-0.5,5.3-0.5
		s6.6,0.3,7.5,0s5.4,0,5.4,0l3.9-0.1c0,0,14.6-0.9,19.5,9c0,0,4.1,1.9,6.3,6l39.5,0.7l55.5-3.9l67.2-7.2l12.4-1.6c0,0,4-2.8,5.6-3
		c0,0,5.7-4.8,11.7-6.8c6.1-2,6.5-3,11.7-3.4s13-1.2,13-1.2l6-0.8c0,0,5.3-0.4,6.4-0.7s7-0.6,7-0.6l7.1-0.7l12.6-1.2l27.5-2.8
		l17.1-1.8l19.3-1.7l4.1-0.8c0,0,3.5,0.4,4.6,0s6.3-1,6.3-1l6.1-0.9l12-0.9l9.8-0.7"/>
	<path id="LH20" fill="none" stroke="#FFFFFF" stroke-linejoin="round" stroke-miterlimit="10" d="M0,972.7l3.6,0.6h2l2.2,0.5h2.6
		c0,0,1.2-0.3,1.6,0s2.9,1.1,2.9,1.1H19l3,1.2h1.6c0,0,1.7,1.1,2.6,1.1s4,0.6,4,0.6l24.1,3.1l2.8,0.5h3.5c0,0,1.8,0.9,2.8,0.9
		s4.9,0.4,5.6,0.5s3.8,0.5,3.8,0.5l4.1,1.1H79h3.1l3.1,0.8c0,0,7.1,0.8,7.6,0.9s2.3-0.2,2.6,0s2.9,0,2.9,0l12.5,1.9l7.9,1.3
		c0,0,12.1,0.9,13.7,7.4c0,0,4.9,0.7,6.5,3.6l88-4.8l14.3-21.5c0,0,11.2-9.5,20.6-9.7c9.4-0.2,18.5-1,18.5-1h4.1c0,0,7-0.6,7.4-0.6
		s5.7,0,5.7,0l24.3-1.1h15.4l16.9-0.6l8.5,0.6c0,0,1.1,0.5,1.4,0.5s3.9,0.6,3.9,0.6s3.4,0.3,5.6,7.1c0,0,1.5-0.2,3.9,5l77.7-3.2
		l45.1-0.1l20.3-0.3l28.9,1.8c0,0,10-4.9,13.2-4.7c0,0,7.7-4.7,13.6-5.1c5.9-0.4,21,0.1,24.8,4.6c0,0,12-0.1,14.1,4l48.6-1.5l25,0.1
		c0,0,5.4-2.7,6.5-3c1.1-0.3,4-1.5,4.3-2s-1.1-6.6,10-8.4c11-1.8,17.4-1.2,17.4-1.2l11.7-1.2h9.4l10.4-1.1h6.5l7.7-0.7l26-0.7h17
		c0,0,13.9,0.7,15.1,8.6c0,0,4.7,1.3,7.3,11l40.8-2.3l78.4,1.2l46.1-2l7.7-0.3c0,0,5.7-5.8,6.9-6.6s9.8-6.9,13.5-8.1
		s12.7-2.4,12.7-2.4l18-1.5l10.7-1l3.7-0.5c0,0,2.8,0,4.2-0.5s6.5-1.2,6.5-1.2l7-0.9l6.7-0.6l6.9-0.7l5.2-0.6l3-0.6h2.6l3.2-0.8h3
		c0,0,3.8-1.5,4.8-1.5s9.7,0,9.7,0l3.8-1.1h7l5.1-1.3l5.8-0.9h2.7l4-0.9c0,0,0.8,0.8,1.6,0.8s10-1.8,10-1.8s10.1,0.4,10.5,0
		s10-1.2,10-1.2"/>
	<path id="LH22" fill="none" stroke="#FFFFFF" stroke-linejoin="round" stroke-miterlimit="10" d="M0.7,869.1
		c11.2,7.6,120.8,18.4,120.8,18.4l9.6,19.4l16-3.7c0,0,8.9-3.5,24.6-5.2s22.2-1.3,50.7-0.2c30.8,1.6,28.6,8.5,28.6,8.5
		s2.1,6.8,1.6,14.9l3.6-4.5l5.8-1.1h1.9h3.6l4.6-0.5h5h5c0,0,1.3,0.3,2.8,0c1.5-0.3,2.4,0.1,3.5,0s4-0.1,4-0.1l3.4,0l5.7-0.7
		c0,0,1.9,0,2.7,0s1.9,0,2.8,0s2.7,0,2.7,0s2.2-0.3,3.1,0s4.3-0.1,4.3-0.1h3.5h1.6h1.8h4.8c0,0,3.4,0.3,4.4,0c1.1-0.3,2.4,0,2.4,0
		l5.9-0.1c0,0,3.6,0.2,4,0s5,0,5,0l6.2-0.1h3.5l3.3,0.5l4.5,0.4c0,0,2.5,0.6,4.5,1.6c0.6,0.3,1.7,0.8,1.7,0.8s6.6-13.2,90.2-10.9
		c71.8,0.6,89.9,13.3,89.9,13.3l0.6,4.4l1.8,13.8c2.3-4.7,3.5-7.2,5.5-9.3c3.2-0.7,14.5-1.3,17.1-1.4c2.6-0.1,14.7,0.8,19,2
		s7,1.9,8.2,3.6s5.8,4.7,5.8,4.7l4.3,1.8l36.2,0.3l32.1,0.4c0,0,5.8-0.3,6.3-5.1c0.5-4.9,2.5-10.6,2.5-10.6s3.3-12.9,5.6-15.5
		c3.5-1.9,5.5-2.6,5.9-2.6c0.4,0,5-1.1,5-1.1l4.2-0.7l7-0.7h5.8l4.7-0.7c0,0,5.8-0.3,6.2,0s6.9-0.1,6.9-0.1h10.1h6.5l12-1.1h6.2
		l5.3-1.1c0,0,1,0.1,4,0c3-0.1,5.6-0.5,5.6-0.5l8.2-0.1h7.7l7.4,0.6l4.6,0.4l4.8,1.8c0,0,2.8,0.5,3.5,11c0,0,39.4-19.7,96.2-20
		c74.2-8,86.2,2.5,86.2,2.5l4.5,17.2c0,0,0,0,1.6,8.4c2.3-2.4,5.8-5.3,7.8-6.2s7.3-2.6,8.5-2.6s9.6-1.5,9.6-1.5l16.3-1.6l15.4-1.6
		l7.1-0.5l2.4-0.8l2.6-0.1l6.7-1.2l18.3-1.9l10.9-1.5c0,0,6.9-1.3,7.4-1.3c0.5,0,5,0.1,5,0.1l15.6-2c0,0,16.7-2.6,18.2-2.6
		s5.1,0,5.1,0l8.5-1.5l14.8-1.3"/>
	<path id="LH23" fill="none" stroke="#FFFFFF" stroke-linejoin="round" stroke-miterlimit="10" d="M0,834.9
		c0,0,71.3,22.6,116.8,24.5c50.1,3.4,105,6.1,105,6.1l63.8,2.8c0,0,57,4.2,89.3,0c37.6-5.1,105.5-16.6,105.5-16.6s32.1-6.7,99.6-6.1
		c0,0,95.1,1.6,109.1,8.5c0,0,10.3,2.4,22.6,3.6c12.3,1.2,21.2,0.8,21.2,0.8s5,0.4,11.5,1.8c6.5,1.4,14.1,0.6,14.1,0.6l18.6,1.6
		c0,0,20.2,1.4,30.7,1.6s35.6-1.4,45.9-3.4c20.2-2.2,62.8-7.1,69.9-7.3s43.6-2.6,57-2.4s62.6-3.6,62.6-3.6l61.2-7.3l50.5-6.7
		l44.6-6.9"/>
	<path id="LH24" fill="none" stroke="#FFFFFF" stroke-linejoin="round" stroke-miterlimit="10" d="M1199.6,792.1
		c0,0-16.6,1.3-20.5,1.9s-7.8,1.6-7.8,1.6h-8.1l-6.6,0.1c0,0-5.1,0.3-6.5,0.7c-1.3,0.4-8.6,1.1-8.6,1.1l-13.3,2.3L1117,801l-5.5,1.1
		l-1.6-0.5l-26.4,2.7l-20.5,0.9l-18.2,0.7l-15.8-0.1c0,0-10.2,0.4-12.5,0.5c-2.3,0.1-15.2,1.3-15.2,1.3l-15.2,1.6l-5.5,0.1l-3.6,0.4
		l-15.1,1.1l-11.7,0.7l-6.9,1.2h-4.6l-5,1.1l-6.9,0.1l-6.5,1.2l-7.7,0.4l-6.9,0.9l-3.6,0.5l-3,0.1l-2.3,0.7l-1.9,0.5l-8.2,0.3
		l-5.7,0.4l-2.4,0.1l-4.2,0.4c0,0-2,0-2.4,0s-1.9,1.1-1.9,1.1s-3.1,0-3.6,0s-4,0.3-4,0.3l-3.4-0.8h-3.1l-36.6,1.2l-34.9-0.7l-34.5-2
		l-12-0.3l-12.5-1.5l-7.8-1.2c0,0-6.3-0.9-6.7-1.1s-4-1.9-4-1.9h-1.8v1.7v3.5l-1.5-0.1H697l-9.7-1.5l-3-0.4l-3.1,0.1l-4.2-1.1
		l-3.8,0.1l-8.3-3.2l-1.8-0.9c0,0-3.9-0.9-5.7-1.9c-1.2-0.9-7.7-1.9-7.7-1.9l-10.8-3.2c0,0-17.8-6.3-33.1-7.8s-22.1-0.9-25.2-0.9
		c-3.1,0-18.9,0.9-18.9,0.9l-8.5,1c0,0-3.6,0.5-4,0.1c-0.4-0.4-5.1,0.8-5.1,0.8l-3.9,1.2l-1.8,0.5c0,0-1.2,0.5-1.6,0.7
		c-0.4,0.1-1.9-0.1-1.9-0.1l-3.8,0.7l-3.8,0.4l-3.6,1.2l-3.1,0.7l-4.7,1.6l-2.6,0.7c0,0-2.2,0.1-2.7,0.4c-0.5,0.3-2.2,0.7-2.2,0.7
		l-1.8,0.3l-5.1,1.6l-3.8,0.1c0,0-2.2,0.4-2.6,0.4s-1.5,0.4-1.5,0.4l-9.3,3.1l-13.3,3.8l-13.7,3.9l-9.2,1.9c0,0-1.5,0-2,0
		c-0.5,0-1.1,1.1-1.1,1.1s-2,0.1-2.4,0.1s-0.9,0.8-0.9,0.8l-2.2,0.3l-4.4,1.3l-7.7,1.7l-6.7,1.9c0,0-4.8,1.2-8.5,1.2
		c-3.6,0-5.1,0-5.1,0s0-4.6,0-7.5s-1.6-2.2-1.6-2.2l-8.2,1.3l-5.7,0.3l-4.7,0.8l-4.3,0.1l-10,0.4l-22.6,1.2l-1.1,0.7
		c0,0-23.7,0.1-24.4,0s-2.4,0.7-2.4,0.7l-5.7-0.1l-21,0.8l-1.6-0.5l-4.4,0.5l-12.7,0.3l-5.1-0.3l-4.6,0.9h-2.7h-19.8h-18h-12h-10
		l-9.6-0.7l-5.1-0.9h-6.7h-2.8l-8.9-0.7h-10.5h-11.3H141h-16.2h-12.1h-10.9l-18.6-1.8c0,0-15.8-4-27.9-7.7C27.1,802,0,797.1,0,797.1
		"/>
	<path id="LH25" fill="none" stroke="#FFFFFF" stroke-linejoin="round" stroke-miterlimit="10" d="M0,748.7c0,0,40.9,13.2,41.3,13.2
		s9.4,4.4,10.1,4.3s2.3,0,2.3,0s2.4,1.6,3,1.7s5.3,0.9,5.3,0.9l4.6,1.8l7,2l7.5,3.4l6.1,3c0,0,5.4,3.1,6.2,3.1s3.2,2.5,3.2,2.5
		l-1.2,0.9l-1.8,1.4l-3.9,3.9l-3.5,3c0,0-1.8,0.9,0.1,1.8s8.9,1.8,9.8,1.8c0.9,0,7.4,0,7.4,0h15.6c0,0,4.3-0.9,5.3-0.9
		s2.2-0.4,2.8-0.3c0.7,0.1,3.5-0.3,3.5-0.3s0-0.8,2.6-0.8s5.3,0,5.3,0l6-0.7c0,0,3.1-0.3,3.5-0.3s5-0.3,5-0.3l7.9-0.5
		c0,0,2.2-1.1,3.9-1.1s7.8,0,7.8,0l5.8-0.7l3.6-0.3l7.5,0.4l2.7-0.7c0,0,2.3,0.3,2.8,0.3c0.5,0,3.6,0,4.2,0s8.5,0.1,8.5,0.1l4.4,0.8
		l4-0.8l7.5,0.3l7.7,0.5l9.3,0.9l1.9-6.3l0.8-4.4l0.7-3.2c0,0,9.3-2.5,10.6-3.2c1.3-0.7,23.7-0.3,23.7-0.3s71.5,1.5,73,1.3
		c1.5-0.1,29-1,29-1l12,0.8c0,0,3.2,0.2,4.7,0.2s5.8-0.8,5.8-0.8s3.6-0.8,7.8-1.2c4.2-0.4,11.4-0.9,15.1-0.7c3.6,0.3,5.4,0,6.7-0.1
		c1.3-0.1,10-0.6,10.8-0.9s1.7,18.9,8.3,17.8c6.6-1.1,57.9-12.2,69.1-13.9c11.5-1.8,69.2-3.7,69.2-3.7s36.3,4.5,52.6,6.9
		c13.6,2,40.8,7.1,51.1,7.1c2.1,0,0.8-1.9,1.2-3.3c0.6-2,0.5-3.1,0.4-5c-0.1-2.9,0.6-5.9,0.8-8.2c0.1-0.7,16,1.3,17.4,1.1
		c1.3-0.3,4.3-0.1,5.1-0.1s4.8-0.1,4.8-0.1s5,0.4,7.5,1.5c1.8,0.8,5.8,2,5.8,2s1.7-1.7,2.6-2c1.9-0.6,13-2.8,13-2.8l30-1.2l37.8-3
		l41-2.6l38.2-1.1l2.3,2v4.6l1.1,0.3l1.3,1.3v1.3l1.8,0.7l1.9,1.3c0,0,0.5,2.2,1.5,2.2s1.9,0,1.9,0h3l1.3-0.7c0,0,3.8,0,4.3-0.1
		s6.1-0.8,6.1-0.8l4.2,0.3c0,0,5-0.9,5.4-0.9c0.4,0,7.5-0.6,7.5-0.6h5.8h2.8c0,0-0.1,0.2,1.5,0c1.6-0.2,4.2-0.6,5-0.6
		s7.3-0.8,7.3-0.8l3.8-0.1c0,0,3.5-0.4,4-0.4s3.1,0,3.1,0l7.1-0.4l5.7,0.1l2.4-0.7c0,0,3,0,4.8-0.1c1.9-0.1,12-0.8,12-0.8h10.9
		c0,0,4.2-0.8,4.7-1.1c0.5-0.3,4.6-0.1,5.7-0.4c1.1-0.3,9.8-0.1,9.8-0.1l18.3,0.5l11.6,0.4l18.6,0.4l0.9,2.3l-1.3,6.3l0.4,4l0.3,7.1
		l3.9,0.5l2.2-1.2l3.9-0.3l5.3-0.7l3.6-2c0,0,3.1,0.1,2.7,0s2.2-0.9,2.2-0.9s2.6,0,3.2-0.1s5-0.1,5-0.1l2.2-1.5l1.6-0.1l3.9-0.7
		l5-0.5l3.4-0.8l2-0.9l1.8,0.1l1.6-0.4l2,0.1l3.4-0.7l3.9-0.8l4.2-0.7l2.6-0.1l6.5-0.4l3.9-0.7l8.5-0.9v9.6v5.5v2.2l-0.2,1.8"/>
	<path id="LH26" fill="none" stroke="#FFFFFF" stroke-linejoin="round" stroke-miterlimit="10" d="M0,705.9l11.7,2.9l6.5,2l3.4,2.4
		c0,0,2.2-0.4,3.2,0s4,1.8,4,1.8h3.8l8.3,3.2l6.5,2.6l3.6,2h2.4l5.5,2.2l5.5,1.8c0,0,15.3,4.5,24.5,14.7c1.7,9.5,1.3,30.5,4.8,36
		l42.7-4.6l20.7-1.6l-0.2-9.3c0,0,11.1-7.5,27.3-7.3c16.2,0.2,33.5-0.6,39.6,8.5h4.6l13.7-1.2l98.4-4.6l43.6-10.9l15.2-0.6l1.6-4.9
		c0,0-2.4-6.1,42.6-3.4l50.3,0.2l34.1-0.4l132.1,1.6h24.6l17.6-2.4c0,0,14.5-2,19.8-1.4s4.2,1.4,4.2,1.4l3.2,0.8l2.4,2.6
		c0,0-0.2,2.2,2.8,1.8c3-0.4,12.7-2.4,12.7-2.4l44.2-3.8L838,732l61.4-3.4l3.6,5.5c0,0,10.7,0.8,14.9,0s9.7-1.2,10.9-1.2
		s9.3-0.2,9.3-0.2h9.1l15.4-1.2l7.7-0.4l16.2-1.2l8.3-0.2l15.6-0.2l30.3-1.2l21.9,0.9c0.6,5.4,2.3,15.1,2.3,15.1l38.5-0.3l17.2-1.1
		l-3.2,11.1c0,0,9.9-8.9,16.2-12.1c12.7-3.4,22.8-5.9,22.8-5.9l11.1-1.8l8.6-0.6l2.4,0.9c0,0,0.6-1.9,3.2-2.5s13.1-1,13.1-1l4.8-0.2
		"/>
	<path id="LH27" fill="none" stroke="#FFFFFF" stroke-linejoin="round" stroke-miterlimit="10" d="M0,658.9l17.8,6.3l7.3,1.4
		l7.9,2.8l7.9,2.4l5.7,3.2l5,1.4l8.9,3.6l1.8,0.4l4.5,1.6c0,0,17,9.5,19.4,17l19.6,8l47.5,5.1l4.4,3.2c0,0,5.9-4.9,8.9-6.1
		s11.7-2.6,11.7-2.6l21.4-0.9c0,0,17.2,0.1,20.4,8.2c0,0,6.9-0.8,7.9,1.4l20,2.2l75.1-1.6l59.6,1.6l4.4-1.6c0,0,8.1-15.2,25.7-16
		s25.9-1,25.9-1l3.4-0.4l2,1h7.5l8.5-0.2c0,0,5.5-0.4,7.3-0.2s6.3,0.6,6.3,0.6l12.7,0.2l22.2-0.2c0,0,4.2-0.4,4.2,0.8
		s4.6-0.4,7.9-0.4s7.1,0.6,10.3,0.6c3.2,0,7.9,2.2,9.1,3.6c1.2,1.4,10.7,3.6,10.7,3.6l45.7,3.4l44-3.4c0,0,16.4-4,18.4-4.4
		s6.7-1.4,12.1-2.4c5.5-1,11.7-1.2,17-1.8s19.4-2.6,26.3-2.4s16,2.2,17.2,7.3c0,0,2.2-0.2,4.2,0.6c2,0.8,8.3,3,8.3,3l8.3-0.2
		l79.8,2.8l46.1-8.5l23-5.3l16.9-1l-0.1-4.4c0,0,18.8-3.1,27.1-3.2c8.3-0.1,18.8-1.3,18.8-1.3l16-0.4l21.6-0.8l17.2-0.8l12.5-0.8
		l3.2-0.6h5.3h7.9c0,0,12.9,0.6,13.7,8.7l15.4,3.8h26.5l11.7,5.7l8.7,6.9c0,0,5.7-5.1,9.7-8.1c4-3,13.9-8.3,23.2-10.3
		c9.3-2,14.3-1.9,14.3-1.9l9.1-1.5c0,0,6.7-0.4,7.5-0.4c0.8,0,10.7,0,10.7,0l1.8,1"/>
	<path id="LH28" fill="none" stroke="#FFFFFF" stroke-linejoin="round" stroke-miterlimit="10" d="M0,610.2l5.3,2.8l5.3,2.7l7.2,3.3
		l12.2,3.6l5,0.9l12.1,4.2l11.5,3.4l7.1,3.2c0,0,18.6,8.3,22.6,19.6l27.5,4.9l38.2,6.9c0,0,8.5-6.9,14.7-7.9c6.3-1,17-1.2,17-1.2
		L200,657c0,0,16,0.8,20.8,8.7h6.9l6.1,2.4h104h39.4l10.1,3.2l1.8-1.4l10.3,0.2c0,0,0.8-2.4,3.2-4.4s9.1-4,11.3-4.6
		s11.1-0.4,12.5-0.4s9.5,0,9.5,0l8.5,0.2l16-0.8l16.2,0.8h15.2l14.7,0.2l15.8-0.2c0,0,19.2,0.6,23.8,10.5l0,0l3.5,0.3l0.6-19
		c0,0-0.2-11.6,5.3-14.7c8.9-2.4,21.8-5.9,39.4-6.7c41.4-1.5,43.3,7.1,43.3,7.1l3.2,11.1l5,24.9c0,0-0.4-6.9,2.4-8.4
		c2.8-1.4,8.1-3.2,8.1-3.2l9.5-1.4l9.3-0.6l9.9-0.8l12.9-1.2l9.3-1h8.5c0,0,9.5,0.2,18,7.3l55.8,0.2l44-2.2l72.9-4.2
		c0,0,5.3-7.1,8.9-8.9c3.6-1.8,3.8-3.6,8.9-4.2s10.7-0.4,10.7-0.4l6.5-0.8l6.9-1.4l4.8,1.4h4.2l3-1.4l5.7-1l8.1-0.2l7.3-0.4l9.5-1
		l9.7-0.2l10.5-1l14.5-1.2l11.3-0.2c0,0,18.8-3,26.5,7.7l47.9,4.4l1.2,21.4c0,0,8.9-4.4,11.5-7.3s10.1-10.3,12.9-12.1
		s10.7-5.7,13.5-5.9s6.5-0.8,6.5-0.8s5.5-1.6,6.9-2.2s10.1-1.4,10.1-1.4s8.7-2.2,14.9-2.4c6.3-0.2,10.1-1.2,10.1-1.2"/>
	<path id="LH29" fill="none" stroke="#FFFFFF" stroke-linejoin="round" stroke-miterlimit="10" d="M0,557.6l5.5,3.2l8.5,4.2
		l11.3,3.4l15.8,5.3l22,9.5l21,8.1c0,0,12.3,6.6,10.9,22.8l0.4,9.9c0,0-3.2-15.5,30-15.5c29.8-4.2,28.4,0.8,28.4,0.8l2.2,11.2
		c0,0,2.5-6.1,5-10.5c10.1-3.6,25.9-5.1,25.9-5.1s17.6-0.2,28.9,3c0,0,5.3,0.6,13.5,11.1c7.9,11.7,7.9,11.7,7.9,11.7
		s42-10.5,76-11.1s81.3,9,81.3,9l3.3,16.7c0,0,5-18,10.9-22.6c0,0,2.3-1,2.9-1.8c0.6-0.8,0.8-2.3,0.8-2.3l1.9-0.3l2.1-0.5l2.4,0.1
		l4.8,0.4l4.6-0.2l3.8,0.9c0,0,1.6-0.3,1.9,0s1.7,1.7,1.7,1.7l1.3-1.8l2.9-0.2h4h7l8.2-0.2l6.8-0.2l8.3-0.2l6.2-0.2l5.5,0.1l5.6-0.5
		l6.8-0.3h9.6h10.3l6.7-0.2h12.2l1.1-1.6l0.4-4l-0.8-4.2l-0.9-3.8l-1.3-2.8l0.6-0.8c0,0,1,0.1,3.6-0.6c2.5-0.7,5.2-1.7,5.2-1.7
		l3.3-1.5c0,0,1.2-1.2,1.9-1.2s5-0.6,5-0.6l8.2-0.8l5-0.9l5.5-1.8l-0.8-10.1l13.9,0.1l6.3,0.1l8.3-0.5l11.3,0.3l-0.8,7.8l9.2,0.7
		l5.5,0.1l5.9,1.1h3.6l7.4,0.4l5.5,0.1l-1.8,12.1l-0.6,4.4l-1.2,8.1l-0.4,4.4l1.4-0.1l2.5-0.2l4-0.4l3.8-0.3l4.8-0.4l8.4-0.6
		l5.9,0.1l3.6-0.5l4.8-0.4c0,0,5.7,0,5.3,0s3-0.4,3-0.4l4,0.1l5,0.4l4-0.7l7-0.4h3l6.9,0.8c0,0,7.4,0.1,12.5,3.6
		c2.4,3.6,2,4.4,4.8,7.4c13.7-4.3,50-14.7,81.7-18.8c24.9-1.5,31.4-0.6,60.6,0.9c25.3,3.6,27,6,27,6l3.2,5.8c0,0,4.7-8.1,6.5-9.4
		c1.8-1.3,14.4-12.5,14.4-12.5l6.5-5l4.2-0.1l7,0.7l7.1-0.1l8.2-0.3h7.5l11.6-1.1l15.1-1.1l16.7-0.9l9.2-0.5l6.9-0.5
		c0,0,7-1.5,7.4-1.5c0.4,0,7.4-0.9,7.4-0.9l10.2-1.8c0,0,10.9-0.4,12-0.5s6.9-0.5,6.9-0.5s3.9-0.7,4.3-0.8c0.4-0.1,3.9,0.2,3.9,0.2
		s-2.4,31.8-1.8,33c9.1-4,28,1.7,21.6,0.2c7.5,1.8,8.4,4.2,8.4,4.2l3.8,3.1c0,0,10.5-17.7,14.5-20.6c3.9-3,7-5.5,7-5.5l9.7-2.8
		l7.1-1.3l3-0.7l2.7-1.6l4.4-0.4l5.9-0.7l3.8-0.8l2.7-0.7l2.8-0.5l3.9,0.3l4.3-0.6c0,0,4.6-0.5,10.2-0.7"/>
	<path id="LH30" fill="none" stroke="#FFFFFF" stroke-linejoin="round" stroke-miterlimit="10" d="M0,531.5l41.2,10.6
		c0,0,21.5,5.4,26.9,6.2c9.7,1.5,15.9,2.8,31,3.5c12,1.1,26.7,1.9,39.3,4.7c8.8,1.2,21,3.1,21,3.1l21.7,2.7c0,0,25.2,2.8,40.5,2.8
		s37.2,0.8,37.2,0.8l23.4,1.1h26.9c0,0,20.2-1.1,32.3-2.7s65.3-12.1,65.3-12.1s22.2-4,31-5.3s37.7-3.6,37.7-3.6l46.3-4.2
		c0,0,9.7-2.7,44-0.8c0,0,46.5-0.8,50.6-0.7c4.2,0.1,32.7,1.9,44,2.8s38.2,2.4,38.2,2.4l37.8,5.4l43.6,6.1c0,0,29,4.6,34.3,4.4
		c5.4-0.1,25.5-0.9,25.5-0.9s22.9,0.6,26.8,0.6c3.9,0,28,0.1,29.1,0.1s33.7-0.4,37.3-0.7c3.6-0.3,53.3-2.4,53.3-2.4l46.9-2.8
		l47.3-2.8l56.3-2.6c0,0,54.7-2.8,62.5-13.3"/>
	<path id="LH31" fill="none" stroke="#FFFFFF" stroke-linejoin="round" stroke-miterlimit="10" d="M0,497c0,0,24.1,6.7,73.1,13.7
		c54.9,8.4,82.4,11.9,82.4,11.9l46.6,2.7h4.8h36.6c0,0,7.5,1.3,9.7,1.3s17.8,0,17.8,0l26.4-1.1l24.8-1.1l19.9-1.9l0.3,4.4l4,1
		c0,0,5.9,0.3,13.2-1.6c7.3-1.9,12.4-4.3,12.4-4.3v5.9c0,0,5.7-2.2,12.4-4.3s17.2-4.9,17.2-4.9l8.9-2.2l29.1-4.2l14.8-2.8
		c0,0,6.2,0.3,7.5,0.3s6.5-1.3,7.5-1.3s9.2-0.8,9.2-0.8s5.4-2.2,6.2-2.2s4.6,0,4.6,0s4-0.5,5.9-0.8c1.9-0.3,6.2-0.8,7.3-0.8
		c1.1,0,8.9-1.3,8.9-1.3l17.5-0.3l13.2-1.1l8.1,1.1l13.5-0.8l11.6-0.8l19.1-1.1l17.8-0.3l9.4,0.3l19.4-0.8l23.2-0.3
		c0,0,26.9,1.1,36.1,1.6s38,4,38,4l40.1,10c0,0,26.1,7.5,34.5,7s15.1-1.6,19.7-1.6s25.3,2.2,25.3,2.2s26.1-0.5,30.2-0.5
		s15.6-1.6,15.6-1.6l7.3-0.3v2.4l7.8,0.3c0,0,11.6-1.3,13.5-1.3c1.9,0,10-1.1,10-1.1l3.8,0.3l1.1,2.2l33.4-3l46.6-3.5l2.9-0.6
		l13.5-1.2c0,0,4.4,0,6-0.6s5.1-0.6,5.9-0.7s3-1,4.3-1.2c1.3-0.3,8.3-0.8,8.3-0.8l12.1-2.4l1.3,3.2l48-9.9l0.3,4l1.6,4.4l-0.8,5.5
		l8-2.7c0,0,6.7-1.5,8.3-2s6.2-2.2,7-2.2c0.8,0,10-1.1,10-1.1l13.8-4c0,0,20.2-8.1,21.8-7.5"/>
	<path id="LH32" fill="none" stroke="#FFFFFF" stroke-linejoin="round" stroke-miterlimit="10" d="M0,446.4c0,0,33,8.4,36,9.7
		s17,5.7,17,5.7l9.2,2.2h5.7l23.2,4.9h9.4l7.3,2.2l18.3,1.9l19.9,1.3c0,0,29,0.1,30.2,3.4c1.6,4.5,3.7,20.1,3.7,20.1l121.8-2h27
		c0,0,6.2-6.7,13.7-8.1c7.5-1.3,11-2.1,14.5-2.2c16.7-0.5,19.7,23,19.7,23s32.3-10.5,48-14.7c18.5-5,76.4-10.9,91.5-11.8
		c15.1-0.9,98.8-7,118.8-5.5s62.2,1.2,92.5,6.8c31.2,5.7,80.2,17.8,80.2,17.8s14.7-26.3,19-26.9s18.9-1.1,18.9-1.1l17.5-1.1
		c0,0,11.6-2.2,13.7-2.4c2.2-0.3,4.5,13.2,4.5,13.2l48.3-4.7l42.5-3l57.9-7l24-2.6l21-0.8c0,0,6.5-1.9,7.3-1.9s16.4-0.5,16.4-0.5
		l17.8-2.2l10.2-1.3l22.4-3.8l11-0.5c0,0,3-1.6,4.6-2.7s7-5.1,7.8-5.4c0.8-0.3,15.1-4.3,15.1-4.3h5.9h6.2"/>
	<path id="LH33" fill="none" stroke="#FFFFFF" stroke-linejoin="round" stroke-miterlimit="10" d="M0,399.5c0,0,20.6,5.7,26,7.3
		s18.9,4.3,18.9,4.3l11.9,2.7c0,0,7.5,1.9,9.2,1.9s22.4,4.3,22.4,4.3l12.1,1.9l15.9,2.7l15.1,1.6h16.2c0,0,28.1,0.4,27.4,13.2
		l144.2,2.7l5.7,11.6c0,0,8.4-2.2,15.9-4.3c7.5-2.2,18.3-3,23.4-3.2c5.1-0.3,84-11.3,84-11.3s120.4-7.8,122.3-8.2s55.8,0,55.8,0
		h103.4l61.1,1.8l47.7-1.8l4.3,1.2l6.2-1.2c0,0,15.4-3.1,25.9,0l0.3,8.2l6.4,0.8c0,0,11.6-0.8,18,3l78.9-2.7h19.4l11.6-0.5
		c0,0,7-7.8,17-8.8c10-0.9,26.1-3.1,26.1-3.1l29.4-4l36.9-3c0,0,41.7-5.7,46.3-5.7s34.5-1.1,34.5-1.1"/>
	<path id="LH34" fill="none" stroke="#FFFFFF" stroke-linejoin="round" stroke-miterlimit="10" d="M0,351.8c0,0,13.3,3.5,19.5,5.7
		s12.9,3.5,12.9,3.5s7.8,1.9,9.2,2.7s5.4,2.2,5.4,2.2l13.7,1.3c0,0,14.5,3.5,16.2,3.5s23.4,4.3,23.4,4.3l14.3,1.3l14.3,1.1
		c0,0,8.9,2.7,10,2.7s7,0,7,0l3.8,2.4h7.3h6.5l6.2,1.1c0,0,6.6,3,5.5,15.9l57.8,3l68.1-5.4l20.2,11l5.9,5.9c0,0,17-5.4,34.2-6.2
		l50.4-0.5c0,0,32.1-2.2,39.9,9.4H531v-13.2c0,0,11.3-20.2,29.4-22.4c0,0,20.7-4.9,35.3,22.1l74.6-0.3h30.4v-3.5
		c0,0,14.5-1.3,15.9-1.3s4.8-0.8,5.7-3.2s0-7,0-7s8.1-6.2,25.6-5.4c5.7,0.3,13.7-0.8,13.7-0.8s14.8-1.9,18.6-2.2
		c3.8-0.3,21,0.8,21,0.8l35.6-1.6c0,0,34.2-10.8,40.9,11.3l24.2-1.3l86.7-1.3l8.1,0.8v7l13.7-1.3c0,0,3-7.5,6.7-9.6
		s10.5-3.1,10.5-3.1l19.9-2.7l17-1.6l31.2-3.5l21-2.2l19.9-2.2l62.8-8.4"/>
	<path id="LH35" fill="none" stroke="#FFFFFF" stroke-linejoin="round" stroke-miterlimit="10" d="M0,302.5l41.6,11.3
		c0,0,40.4,8.9,53.3,10.5c12.9,1.6,40.9,4,40.9,4h24.5c0,0,18.1,10.8,17.1,31.5c0,0-4-15.8,79-18.3s77.9,19.8,77.9,19.8l0.3,13.8
		c0,0,3.5-9.4,21.2-8.8s29.6-0.5,29.6-0.5s33.7-1.6,34.5-1.6s21.3-0.3,21.3-0.3s9.5,4,13.8,11.8c0,0-0.8-1.7,0.7-7.1
		c0.7-2.6,5.8-2.9,9-4.2c6.3-3.3,6-2.9,18.5-6c20.8-1.1,35.5,0.9,35.5,0.9s6.4-23.8,7.2-27.3c0,0,32.2-6,48.4-3.3
		c0,0,14.8,0.7,18.3,26.9c0,0-1-20.7,62-21.7c31.1-0.5,46.7,2.9,53.3,9.8c6.7,7,6,18.4,6,18.4s0.7-3,3.6-4.6c0,0,1.2-12.7,12.2-21.9
		l2-3.3l9.1,0.9l9.7-0.3l20.2-0.8l13.7-1.1l12.7-1.1c0,0,6.7-0.8,11.6-0.5c4.8,0.3,13.7,0.3,13.7,0.3l10.5-1.3l8.6-1.6l9.2-0.8
		l9.2-1.9l8.1,1.3l2,2.4c0,0,2.9,4.4,6.3,13.8l5.3,0.3c0,0,0.2-8.6,0.3-11.9c0,0,26.6-14.4,59.4-18.5s62.6,2,62.6,2s6-0.1,6.1,9.7
		c0.1,8.5,0.4,20.2,0.4,20.2s7-10.5,23.4-12.4c16.4-1.9,42.3-4,42.3-4l25.1-3.8l28.3-1.9l31-3.5l39.1-4.1"/>
	<path id="LH36" fill="none" stroke="#FFFFFF" stroke-linejoin="round" stroke-miterlimit="10" d="M0,235.4h12.3l10,4.9l10.5,2.4
		l8.3,2.7c0,0,8.1-1.9,11,0c3,1.9,12.1,4,13.2,4s14,2.4,14,2.4l21,2.2l24.2,2.4h11.3c0,0,0.7-4.9,0.5-7.2c-0.1-2,0.2-6.7,2.6-7.2
		s9.5-0.4,9.5-0.4l10.8,0.8c0,0,16.4,1.9,17.2,1.9s18.3,1.6,18.3,1.6h9.7l14.3,2.4l8.9,0.3l13.2,1.3l17.2,3l17.8,3.5l25,3.5
		l28.8,5.1l14.3,1.1l-6.2,33.1l-4,21h21.8l21.5-1.6l38.8-1.9c0,0,37.7-1.1,41.7-0.6L444,251.3l44-1.8l0.8-14.1c0,0-0.5-2.7,4.8-2.7
		s26.1,3,26.1,3s17.8,1.1,17.2,2.4c-0.1,1.7-0.2,7.1-0.2,7.1l-1.4,16.7l19.4-1.9l14.3-2.2l11.9-2.2c0,0,15.6-5.1,16.7-5.1
		s10.2-1.9,10.2-1.9l10-2.7l11.9-2.7l8.9-3.2H649c0,0,5.4,1.1,7.5,1.1c2.2,0,10.8-0.8,10.8-0.8s8.9,0.8,10,0.8s19.1,1.6,20.5,1.6
		s12.9,0.8,12.9,0.8l10,1.1l17.8-0.5l15.4,0.5l-1.2,14.5c0,0,21.1,0.3,29.7-0.2c8.6-0.5,68-5,68-5l-0.1-11.2l62.2-17l42.8-12.9
		l1.1-6.7c0,0,1.1-2.4,10-1.3s31.2,5.4,31.2,5.4l39.9,5.6c0,0,0,0-2.5,8.2c-2.9,9.5-17.8,60.3-17.8,60.3l58.7-7l36.9-2.7l27.5-3.8
		c0,0,28.8,0,37.2,0.5s22.1,5.9,22.1,7.3"/>
	<path id="LH38" fill="none" stroke="#FFFFFF" stroke-linejoin="round" stroke-miterlimit="10" d="M0,156.2l12.5,2.8l5,0.7l8.9,1.2
		l8.8,1.3l12.9,1.4l9.3,1l11.9,2.6h8.9c0,0,17.2,2.8,18,3c0.8,0.2,12.4,1.5,12.4,1.5l10.3,2l14.5,1.7l14.9,1.6l15.6,2.2l23,2.2
		l20.4,1.2l25,1l36.9,1.1l26.3,0.7h22.2h44l65.2-2l21,0.2c0,0,19.2,0.2,24.2,0.6s19.8,1.2,19.8,1.2h27.7h17.8l1.2,35.4h55.4v-36.4
		l22.8-1.2l50.1-4l50.1-5.3l19.8-2.9l0.4-10l44-2.4l53.7-0.8l50.9-1.8l49.3-2.6l47.7-2l44.8-6.4l2.9,2.7l59-2.5l41.4-4.3h10.9
		l2-10.8c0,0,23.2-3.5,55.6-1.9"/>
	<path id="LH40" fill="none" stroke="#FFFFFF" stroke-linejoin="round" stroke-miterlimit="10" d="M0,84.5c0,0,51,23.4,60.7,27.2
		c9.7,3.8,60.1,20.3,60.1,20.3c42.4,11.9,42.4,11.8,54.4,14.3c14,3,46.6,9,68.4,11.3c17.2,1.8,76.8,6.1,103.4,4.2
		c26.7-1.9,72.9-4.6,110.4-20.1c33.4-13.8,35.3-15.4,47.9-22.9c12.7-7.5,25-16.2,34.1-20c10.1-4.2,22.6-6.3,28.3-6.3
		c6.5,0,17.6,0.1,40.7,10.5c30.7,13.8,37.3,20.1,58.7,26.1c17.5,5,33.8,11.9,63,11.6c30.2,0.8,65.7,0.3,65.7,0.3l43.6-1.6
		c0,0,31.8-2.2,43.9-3.8c12.1-1.6,31.8-4,42.3-5.7c16.8-2.6,16.7-2.8,53.5-10.1c0,0,42.6-10.2,45.5-11.3c3-1.1,56.8-16.5,57.9-17
		c1.1-0.5,45.2-16.2,50.6-18.4s41.4-15.6,41.4-15.6s18.3-7.3,24.8-7.5"/>
</g>
</svg>
