<?xml version="1.0" encoding="utf-8"?>
<!-- Generator: Adobe Illustrator 17.0.0, SVG Export Plug-In . SVG Version: 6.00 Build 0)  -->
<!DOCTYPE svg PUBLIC "-//W3C//DTD SVG 1.1//EN" "http://www.w3.org/Graphics/SVG/1.1/DTD/svg11.dtd">
<svg version="1.1" id="Capa_1" xmlns="http://www.w3.org/2000/svg" xmlns:xlink="http://www.w3.org/1999/xlink" x="0px" y="0px"
	 width="1200px" height="1920px" viewBox="0 0 1200 1920" enable-background="new 0 0 1200 1920" xml:space="preserve">
<g id="fondo">
	<rect x="0.021" width="1199.546" height="1920"/>
</g>
<g id="horizontales_1_">
	<path id="LH1" fill="none" stroke="#FFFFFF" stroke-miterlimit="10" d="M0.021,1773.475c0,0,37.17,3.032,43.231,3.032
		s45.251,2.021,45.251,2.021l77.169-2.021h33.13l92.926-2.021h95.35c0,0,25.049-4.042,45.251-10.105
		c21.413-3.234,32.322-5.255,44.443-5.255s28.686,1.011,28.686,1.011s10.101,1.01,15.757,1.415
		c5.656,0.404,19.797,2.021,19.797,2.021l33.534,0.404h42.018l39.998-2.021l21.413-0.808l7.272-0.539c0,0,4.31-0.539,5.387-0.539
		c1.078,0,4.04,0,5.656,0s5.791,0.404,7.138,0.135c1.347-0.27,4.848-0.27,7.003-0.27s6.33,0,6.33,0h13.871h15.622l12.121,0.135
		l8.35,0.27l20.201,1.617c0,0,1.886-0.674,1.886,0.404s0,4.042,0,4.042s0.404,3.099,4.714,4.042c0,0,5.791,1.886,11.178,2.291
		c5.387,0.404,10.774-0.539,10.774-0.539l56.832,1.886l96.966-2.964h84.307l82.421-2.291c0,0,26.396-1.213,34.477-2.56
		c8.08-1.347,24.78-7.276,25.858-7.141s3.232-0.002,3.232-0.002"/>
	<path id="LH2" fill="none" stroke="#FFFFFF" stroke-miterlimit="10" d="M0.021,1723.151h18.383h9.293c0,0,12.02,0.202,12.424,0
		s1.515-0.707,1.919-0.707s2.121,0.399,2.121,0.399s2.828,0.398,3.232,0c0.404-0.399,3.636-0.5,3.939-0.399s3.131,0.331,4.141-0.036
		s6.565-1.176,6.565-1.176h14.646H90.32h5.757l45.15-3.335l11.01-0.707h16.06l18.383-0.707l10.707-0.91h5.959l35.453-1.314
		c0,0,11.717,0.404,12.929,0.505c1.414-0.101,5.252,0,5.252,0l4.141,0.101l6.666,0.404l7.979-0.202h27.777c0,0,5.353-0.505,6.666,0
		c2.121-0.202,4.04-0.202,4.04-0.202l4.949-0.606h4.949l24.847,1.617l5.454-0.101l4.343-0.202l88.885,11.217
		c0,0,17.979,2.021,22.423,2.021s23.029-0.808,30.908-2.021c7.878-1.213,73.128-0.808,73.128-0.808l111.309-1.819
		c0,0,57.775-0.404,64.846,1.011c9.293,0.606,27.878-1.213,27.878-1.213l62.624-4.648l7.878,0.202l6.262-0.404l50.705-1.617
		l30.504-1.617l9.293-0.606l15.555,0.404h25.656l25.858-0.202l19.797-0.202l34.948,0.202h20.403l7.07,0.404l1.616,1.213l5.05-0.202
		l12.121-0.606l33.938,0.606c0,0,10.707-1.01,12.727-1.01s7.07,1.819,8.282,2.223s5.656,1.415,5.656,1.415l7.878,2.021l10.909,2.021
		l6.666,0.808"/>
	<path id="LH3" fill="none" stroke="#FFFFFF" stroke-miterlimit="10" d="M0.021,1670.2h17.777h9.495h20.605
		c0,0,20.403-1.415,21.009-1.415s13.333,0,13.333,0l21.212,0.225l11.724,1.37L115.5,1689l268.25-1.625c0,0,8.5-10,9.125-41.756
		c12.375-0.869,36.375-1.494,50,0.256c0.125,8.125,0.5,18,0.5,18l60.25,5.625c0,0,0.875,10.875,119.125,8.875
		c65.125-3,69.375-1.125,101.125-14.125c4.646-1.819,91.872-1.932,91.872-1.932L833,1665.25c0,0,32.093,1.327,40.375,1.125
		s15.702-0.217,15.702-0.217l216.173-1.658l0.317-10.064c0,0,81.074,2.964,95.888,1.886"/>
	<path id="LH4" fill="none" stroke="#FFFFFF" stroke-miterlimit="10" d="M0.021,1619.673h62.085h39.864l12.794,1.213l15.757,2.425
		l315.947-5.255h326.99l126.594,1.617l207.938-11.048c0,0,29.898,1.886,48.483,0c12.121,0.27,43.096,0,43.096,0"/>
	<path id="LH5" fill="none" stroke="#FFFFFF" stroke-miterlimit="10" d="M1199.568,1560.658l-45.251,2.425l-101.41,3.234H755.546
		l-319.987,7.68l-268.272,4.446h-43.231l-11.313-2.021H73.958H45.676l-45.655-2.425"/>
	<path id="LH6" fill="none" stroke="#FFFFFF" stroke-miterlimit="10" d="M0.021,1530.343c0,0,18.787-0.606,32.726,0
		s28.484,2.425,28.484,2.425l17.373,1.415c0,0,25.454,1.819,26.464,2.829l7.878-2.223l10.303,3.84l32.706,2.817l110.116,3.651
		h106.662l12.121-5.457c0,0,22.019-7.748,62.624-2.055c40.604,5.693,80.603,3.874,80.603,3.874l98.178-1.617l201.204-20.413
		c0,0,30.302-6.063,61.412,0s81.209,6.467,81.209,6.467l127.672-2.021l13.131-3.436c0,0,0.404-3.975,29.292-3.705
		c3.838,0.067,5.858-1.145,5.858-1.145l3.03,1.213l6.464-1.213h6.868h4.04h14.949l18.181-1.819"/>
	<path id="LH7" fill="none" stroke="#FFFFFF" stroke-miterlimit="10" d="M0.021,1494.166c0,0,16.161,0.808,21.211,1.213
		s21.615,1.415,21.615,1.415l21.817,1.819l12.929-9.701c0,0,31.514,0.202,44.847,4.851c3.907,0.334-15.69,18.737-0.19,28.987
		c25.75-2.375,79.5-24,132.25-22.75c46.993,1.114,104.875,10.5,104.875,10.5l19.25,5.25c0,0,1.75-17.125-3.5-25.125
		c3.383-2.819,4.125-4.75,9.5-7.875c11.65,2.791,36.5,7.375,65.25,2.875c4.125,7,5.25,17.625,5.25,17.625l0,0
		c0,0,24.208-3.583,42.201,0.08c7.508-31.33,62.096-39.577,108.841-39.997c116.5-4,120.674,37.207,120.674,37.207
		s5.77-6.43,44.631-1.635c0,0,0.695-23.988,21.945-37.071c15-1.417,18.44-1.451,26.583-2.333c3.456-0.161,15.592-2.243,20.25-0.75
		c1.833,2,1.082,5.767,1.082,5.767l43.085,0.566l9.75,0.083c0,0,3.833,5.25,1.958,13.083c7.875-6.625,105.25-7.125,105.25-7.125
		l64.125,0.75l20.75,0.125l3.75,0.375c0,0,7.148,0.571,20.884-0.035c5.589-0.337,12.188-0.741,12.188-0.741l8.553-1.224l5.453-0.258
		h6.195l4.983-0.808h3.771h9.158h9.427c0,0,16.296-0.943,17.373-1.078c1.078-0.135,11.582-1.213,11.582-1.213"/>
	<path id="LH8" fill="none" stroke="#FFFFFF" stroke-miterlimit="10" d="M0.021,1449.905c0,0,44.577,1.886,74.475,1.347
		c15.084-1.347,45.52-3.773,45.52-3.773l66.529-2.156l58.718-2.897h62.22l70.704-2.021c0,0,47.069-3.84,50.099-4.446
		c5.656,0,49.897-3.638,49.897-3.638s88.885-12.935,130.702-11.318c41.817,1.617,146.055,12.733,146.055,12.733l38.382,2.37
		c0,0,15.959,2.278,31.11,0.863c15.151-1.415,37.17-2.425,41.008-2.425s39.19-1.213,44.241-1.213
		c7.474,0.404,50.84,1.886,50.84,1.886s23.972,0.808,50.907-0.27s57.775-1.347,83.498,0.135s59.391,2.425,85.249-0.27l19.393-1.751"
		/>
	<path id="LH9" fill="none" stroke="#FFFFFF" stroke-linejoin="round" stroke-miterlimit="10" d="M0.021,1408.675
		c0,0,40.604,1.819,42.018,2.829c-0.404-1.415,0-4.851,0-4.851l5.656,1.415c0,0,14.949,1.01,16.969,1.01c2.02,0,12.255,0,12.255,0
		h7.542h12.121l20.74,0.808h1.212v1.617v0.674h12.525l19.562,0.438h12.828h2.525h2.121c0,0,3.939-0.505,4.242-0.505
		c0.303,0,2.02,0.505,2.02,0.505s4.242,0.404,4.545,0s3.535-0.404,3.535-0.404l4.141-0.101l8.485-0.303l5.151-0.303l1.414,0.101
		l9.192,0.606l7.07-0.202l10.101-0.303l15.858-0.505l20.403,0.404l19.494,1.19h19.191l22.12-1.089c0,0,11.414,0.505,27.474-3.739
		c18.585-3.436,30.201-4.244,30.201-4.244l26.767-2.93c0,0,35.251-3.335,39.695-2.627c5.151,0.101,18.686-0.099,18.686-0.099
		l35.352,1.513l40.2,0.909l31.514-0.303l34.342,0.101l28.989,0.101c0,0,37.978-0.202,38.382-0.202s1.01,0.909,1.01,0.909
		l6.969,0.101l13.737,0.202l1.212,0.404h1.515c0,0,1.212-0.303,1.515-0.404c0.303-0.101,11.919-0.101,11.919-0.101l13.131-0.606
		l4.646,0.101l2.727-0.202c0,0,2.929,0.202,3.636,0.202s5.151-0.202,5.151-0.202h2.727l1.414-0.404c0,0-0.808,0.505,1.414,0.404
		s6.161-0.101,6.161-0.101l7.373,0.202l6.565,0.202l3.636,0.202l1.515-0.808l1.515,0.505l1.818,0.101c0,0,1.717,0.101,2.222,0.101
		s4.646,0,4.646,0l2.02,0.202l3.131,0.101l3.535,0.404h5.454l8.08,0.606l3.939,0.101h4.343l4.242,0.101l1.111,0.606
		c0,0,5.151-0.202,5.454-0.202s11.111,0.404,11.111,0.404h5.757l11.313,0.707l5.353-0.101l5.454-0.101l7.07,0.101l6.161-0.303
		c0,0,0.909,0.505,2.02,0.707s5.05,0,5.05,0l7.474,0.505l11.01,0.596h11.717l8.181-0.596l7.07-0.202l20.504-0.202l8.889-0.303
		l9.899-0.202l24.342-1.415l7.878-0.505l19.191-1.617l18.08-1.516c0,0,21.716-1.415,28.383-1.718
		c6.667-0.303,16.161-0.606,16.161-0.606l29.191-1.314l35.251-1.516l24.241-0.707l26.666-0.404"/>
	<path id="LH10" fill="none" stroke="#FFFFFF" stroke-linejoin="round" stroke-miterlimit="10" d="M0.021,1361.888l1.313,1.011
		h2.222H5.98l2.727,0.505l2.424-0.758h2.626c0,0,2.222,0.556,2.626,0.758s4.141,0,4.141,0l5.656,0.09l4.848,0.416h4.949l3.131,1.112
		h5.05l12.323,0.707h5.252H76.18l17.272,0.808l13.535,0.505h5.757l8.586,0.707l16.161-0.505h12.121l12.02-0.202l1.616-0.707
		l1.212,1.415l2.694-0.707l2.155,0.707l1.212-0.707h3.232c0,0,3.502-1.213,4.31-3.503s8.937-1.04,8.937-1.04l59-1l25.75-0.5
		c0,0,15.131,1.327,14.996,2.135s0.135,3.368-1.347,6.063s0.427,3.772,1.358,3.907s6.588,0,6.588,0l9.966-1.213l9.831-0.27
		l5.387-0.404c0,0,4.714-0.808,5.118-0.808s1.482,0.539,1.482,0.539l1.347-0.539l4.31-0.27l11.313,0.135l62.651,12.975l47.996-3.305
		L589.5,1379l157,0.75l108,3.5l14-13.25l13.25-11.25l108-2.5l11-0.25c0,0,7.449-0.681,7.584-0.075s-0.875,4.648-1.482,5.861
		c-0.606,1.213-1.01,3.638-1.01,3.638l2.504-0.404l6.385-0.606l3.232-1.01l0.505,0.505l1.919-0.505l5.353-0.101l8.99-0.707
		l5.151-0.101l17.575-0.808l28.686-1.011l19.696-0.475l24.545-1.141l30.403-1.819l38.786-2.223"/>
	<path id="LH11" fill="none" stroke="#FFFFFF" stroke-linejoin="round" stroke-miterlimit="10" d="M0.021,1307.892l10.37,0.674
		h5.118l7.003,0.943h5.118l4.579,0.808l4.444,0.808h3.771h2.559l3.367,1.347h5.522l9.966,0.539l5.32,0.472h7.609h35.285l0.943,0.539
		h22.827h21.885c0,0,10.841-0.472,14.275,4.783l3.771,2.964l104.508-4.042l25.723,9.836c0,0,3.098,1.617,3.502,1.617
		s1.482-1.078,3.906-1.751s3.771-1.213,5.387-1.213s8.35-0.404,8.35-0.404l10.101-0.135l8.484-0.27h4.982l56.159-3.638l97.774-0.404
		l77.169-5.255l149.893-6.063l266.79,16.303c0,0,13.602-5.255,18.316-6.737s21.683-3.099,25.184-2.694
		c2.963-0.135,3.838-0.27,3.838-0.27l1.751,0.068l1.818-0.202h2.761h5.387l6.936-0.068l4.848-0.202l11.649-0.068l11.515-0.808
		l13.467-0.876l25.588-1.751l25.453-1.347l28.282-1.617l16.295-0.674"/>
	<path id="LH12" fill="none" stroke="#FFFFFF" stroke-linejoin="round" stroke-miterlimit="10" d="M0.021,1257.702
		c0,0,19.191,3.032,24.241,3.234c7.474,1.01,15.757,2.089,17.104,2.762c2.155,0.404,6.464,0,6.464,0l3.636,0.18h4.848l6.195,0.764
		h8.215h11.851h26.127c0,0,7.272-0.674,9.158-0.674c1.886,0,7.003,0,7.003,0l11.851-0.27l7.946-0.135l10.37-0.135
		c0,0,7.407-0.674,12.525,1.886c5.118,2.56,8.215,3.772,8.215,3.772l98.986,3.503l13.467,7.815c0,0,11.178,8.354,11.582,8.084
		s9.158-5.255,12.929-6.063s10.774-1.213,10.774-1.213l9.562,0.135l16.43-0.539l9.427-0.135l6.733,0.269c0,0,4.848,0,7.003,0
		s7.542,0.135,7.542,0.135l11.582,0.135l37.709,0.674l29.09-0.135l16.161,0.808c0,0,10.505,1.751,11.447,2.964l144.91-0.27
		l89.828-3.099h64.644c0,0,45.251-4.716,72.186-1.617l29.898,3.638l109.76-0.808c0,0,10.909-6.872,13.871-7.41
		s5.522-2.56,8.35-3.638c5.791-0.673,32.861-1.886,32.861-1.886l15.487-0.27l16.296-0.539l19.932-0.943l11.178-0.27l9.831-0.808
		h7.003l2.828-0.674l1.751,0.135c0,0,0.539,0.27,1.078,0.135c0.539-0.135,2.155-1.078,2.155-1.078l4.983,0.404l3.098-0.404
		l4.714-0.135l5.656-0.27l6.33-0.538l5.926-0.539l10.774-0.808h3.501l2.02-1.078l3.098,0.135l0.539-0.539h8.889"/>
	<path id="LH13" fill="none" stroke="#FFFFFF" stroke-linejoin="round" stroke-miterlimit="10" d="M-3.885,1201.315
		c0,0,5.522-1.347,7.003-0.808s5.252,1.886,5.252,1.886l9.158,1.751l5.118,0.674h4.714l4.713,0.943h2.828l2.828,1.078l9.293,0.808
		h10.639l9.831,0.808h10.235l17.238,1.078h17.912c0,0,21.144-0.135,21.548,0s4.444,0,4.444,0l2.424,0.674h2.29l1.751-1.347h3.772
		l1.886,1.347c0,0,5.656-0.943,10.639,0s7.003,1.482,8.754,2.964c1.751,1.482,16.7,3.234,16.7,3.234l114.743,25.533
		c0,0,7.272-5.053,11.717-5.861c4.444-0.808,24.847-1.213,24.847-1.213l25.453,0.404l2.525-0.303l1.313,0.404l2.929-0.303
		l0.909,0.505l6.06-0.101l2.626,0.101l1.313,0.101l1.111-0.505l1.515,0.101l1.818,0.202l2.929,0.101l2.929-0.101l4.04-0.101
		l2.323-0.202h2.626l4.141,0.202l4.04,0.101l7.07,0.505l7.07-0.202l4.545,0.101l1.515-0.303l0.808,0.404l3.636,0.202l1.212-0.505
		l1.818,0.101l2.02,0.101l7.575,0.303l2.222-0.404l1.111,0.808l1.919,0.101l1.212-0.606l3.232,0.202l5.151,0.101l4.949,0.101
		c0,0,12.525-0.202,15.656,3.638l136.19,13.474c0,0,21.548-7.545,27.743-7.68s24.511-0.404,28.416,3.638
		c3.906,4.042,17.643,3.503,17.643,3.503l76.495-3.638l-2.02-6.198c0,0,13.198-2.695,13.871-3.503
		c0.674-0.808,2.29-1.886,4.175-2.695c1.885-0.808,3.367-1.347,4.31-1.617c0.943-0.27,1.078-0.27,3.367-0.674
		c2.289-0.404,9.427-0.943,9.427-0.943s49.157-3.503,61.951,5.524l87.404-0.27l41.345-5.524h6.599c0,0,14.141-4.716,15.487-5.389
		c1.347-0.674,2.694-0.666,3.771-1.141c1.078-0.475,1.347-0.61,2.559-0.88c1.212-0.27-0.808,0,2.424-0.539
		s25.858-1.347,25.858-1.347l13.467-0.808l19.797-0.674l22.221-1.213l44.443-2.425l28.147-3.368l22.761-1.482"/>
	<path id="LH14" fill="none" stroke="#FFFFFF" stroke-linejoin="round" stroke-miterlimit="10" d="M-3.885,1201.315
		c0,0,5.522-1.347,7.003-0.808s5.252,1.886,5.252,1.886l9.158,1.751l5.118,0.674h4.714l4.713,0.943h2.828l2.828,1.078l9.293,0.808
		h10.639l9.831,0.808h10.235l17.238,1.078h17.912c0,0,21.144-0.135,21.548,0s4.444,0,4.444,0l2.424,0.674h2.29l1.751-1.347h3.772
		l1.886,1.347c0,0,5.656-0.943,10.639,0s7.003,1.482,8.754,2.964c1.751,1.482,2.365-6.671,2.365-6.671s14.25-21.5,65-24.25
		s68.75,19.25,68.75,19.25s-0.632-5.844,4.216-7.663s7.676-2.931,9.293-2.931c1.616,0,7.373,0,7.373,0h4.444l1.919-0.707h2.727
		h4.545h11.212h7.474h5.656h3.939h2.02h5.252h8.788h6.666h4.747l1.313-0.505h1.111l2.424,0.707l0.909-0.707h1.515l1.717,0.91
		l0.909-0.303l2.323-0.606h1.919l2.121,0.505l7.474-0.505l7.575,0.505l4.848,0.101l5.757,0.303l5.757-0.202l6.565,0.101l7.272,0.303
		l3.232-0.505h3.333c0,0,1.01,0.404,2.222,1.516c1.212,1.112,3.939,3.133,3.939,3.133l5.656,5.431c0,0,8.283,7.201,10.202,11.041
		c0,0,11.136-15.663,73.636-11.042c40.72,8.242,51.5,18.87,51.5,18.87l6.75,4.75c0,0-0.78-5.201,1.644-7.828s6.464-4.75,7.474-5.356
		s1.616-0.606,3.535-0.91c1.919-0.303,6.464-0.505,6.464-0.505l15.353-0.505c0,0,14.444-0.505,18.989,1.01
		c3.131,0.606,5.757,0.606,6.161,0.606s3.737-0.202,4.545,2.223s0.606,5.457,1.01,8.488c2.02,0.101,15.075-12.723,52.075-17.473
		s40.25,8.5,40.25,8.5l3.5,9.5c0,0,0.283-9.871,3.397-13.664c6.734-5.288,8.754-8.253,8.754-8.253l3.232-2.695l1.212-3.772
		l0.674-4.716l2.694-0.674l7.272-0.808h6.06l5.926-0.539h4.848l8.081-0.674h6.06c0,0,3.771-0.404,4.983,0.674
		s2.694,3.503,2.694,3.503l5.791,12.665l3.906,9.567l2.694,6.333c0,0,3.098,3.772,3.906,5.389S856.75,1181.75,933,1181
		s73.75,9.5,73.75,9.5l3,9.88c0,0-0.213-5.667,2.211-8.766s7.407-6.737,7.407-6.737l1.751-0.943l3.232-3.368
		c0,0,2.29-2.291,4.04-2.425c1.751-0.135,3.636,0,3.636,0l9.023-0.06c0,0,1.751-0.883,2.155-0.883s4.579,0,4.579,0l2.828-0.674
		c0,0,2.694,0.135,3.771,0c1.078-0.135,9.292,0,9.292,0l4.579-0.06l14.141-1.153c0,0,2.559-0.27,2.963,0s2.963-0.509,3.502-0.12
		s4.983-0.111,4.983-0.111h9.427h3.906l3.636-0.981h8.484l4.04-1.213h2.02l11.313-0.943l11.717-1.482l15.353-1.347l17.912-1.213
		l17.912-1.213"/>
	<path id="LH15" fill="none" stroke="#FFFFFF" stroke-linejoin="round" stroke-miterlimit="10" d="M0.021,1152.81
		c0,0,47.809,13.878,76.899,15.495c29.898,0.808,35.285,0,89.424-9.162s74.879-12.665,81.074-12.665
		c6.195,0,60.334,1.617,60.334,1.617s43.366-0.269,60.065-3.773c21.817-2.695,77.842-7.276,77.842-7.276l93.734-3.234
		c0,0,71.378-1.617,103.7,1.886l82.959,7.815c0,0,33.669,2.964,40.672,3.234s48.213-2.425,48.213-2.425s46.328-2.964,63.836-5.12
		s60.873-4.581,80.805-3.503s62.22,1.617,63.836,1.617s60.065-2.425,60.065-2.425s47.944-4.311,59.257-5.928
		s56.833-11.048,56.833-11.048"/>
	<path id="LH16" fill="none" stroke="#FFFFFF" stroke-linejoin="round" stroke-miterlimit="10" d="M0.021,1104.304l28.686,6.872
		l2.323,0.505c0,0,1.111,0,1.414,0s0.909,0,0.909,0l6.06,2.021c0,0,4.545,0.202,8.99,1.01c4.444,0.808,12.02,2.324,12.02,2.324
		l4.04,0.909l6.262,0.707h3.535l5.858,0.909l2.121,0.606h3.838h7.979h9.495h9.697l15.858-0.909l12.727-1.617l16.262-1.92
		c0,0,1.919-0.505,3.434-0.707s3.838,0,3.838,0h12.323l10.303-1.01l8.484-0.808h4.848l3.737-0.303l4.04-0.657h5.454l11.01-0.556
		h9.293l10.202-0.101h10.404l9.394-0.404l8.08,0.202l12.424-0.202l9.697-0.303h8.181l17.575-1.718l10-0.707l8.485-1.01l5.05-0.505
		l9.394-1.314l15.757-2.627l9.293-1.718c0,0,2.222,0.202,2.525,0s2.929-1.01,2.929-1.01l2.424-0.808c0,0,1.313-0.707,2.02-0.808
		s2.828-0.606,2.828-0.606l12.525-2.829l5.151-0.91l1.818-0.707l1.414-0.505l1.414-0.808h1.313h2.424h3.535l4.141-1.415
		c0,0,3.535,0.101,3.838,0s4.444-1.314,4.444-1.314h4.949l5.757-0.91c0,0,13.333-0.505,15.959-0.606s4.343-0.505,4.646-0.505
		s1.313,0,1.313,0h1.111h1.212h2.424l1.616-0.505h2.323c0,0,1.818-0.404,2.121,0s5.757,0.303,5.757,0.303h4.848l10-0.483h12.222
		h14.444l10.404-0.932h6.262h10.505l7.676-0.606h5.353c0,0,15.454-0.404,15.858,0s6.363,1.213,6.363,1.213l9.596,0.202l14.848,0.101
		l4.444,0.404l4.343,0.303l12.222,0.101l19.999,0.303h6.464l10.606,0.404l11.313,0.101l6.464,0.303l11.616,0.606
		c0,0,14.141,1.415,16.262,1.516c4.04,0.808,11.313,2.021,11.313,2.021l9.192,2.627c0,0,3.03,0.606,3.838,0.606s1.919,0,1.919,0
		l3.535,1.112l2.929,0.404l2.727,0.505l1.919,0.808l5.252,0.91l5.252,0.404l1.717,0.404l2.222-0.808h2.424l3.434,0.909
		c0,0,1.212,1.842,2.727,1.881s2.323,0.14,3.939,0.544s3.737,1.112,3.737,1.112l2.626,0.606c0,0,2.222,0.202,2.727,0.404
		s2.929,0.606,2.929,0.606l3.232,0.303c0,0,1.818,0.404,2.121,0.404s2.121-0.303,2.121-0.303s1.212-0.202,2.02-0.202
		s4.04,0.303,4.04,0.303s2.222-0.202,3.03-0.202c0.808,0,7.575,0,7.575,0l9.394,0.303l9.899,0.202l13.131-0.404l16.969-0.101
		l5.656-1.112l4.545,0.202l4.747-0.202l16.767-0.606l25.959-0.91l24.544-0.949l19.393-0.567l29.393-2.021l20.1-0.303l29.797-1.516
		l11.111-0.404c0,0,9.899-0.505,10.707-0.505s11.919-0.303,11.919-0.303l6.565-0.91l4.444,0.202c0,0,5.353-1.213,6.161-1.213
		s7.878-0.505,7.878-0.505l5.959-0.707l8.081,0.303c0,0,8.888-0.303,9.394-0.303c0.505,0,6.06,0,6.06,0s3.535-0.303,4.242-0.303
		s10.909-0.404,10.909-0.404l7.272-0.202l2.121-1.415l5.454-1.213l7.272-1.112l7.373-1.415l3.232-1.011l5.353-1.01
		c0,0,3.434-0.258,3.737-0.685c0.303-0.427,4.141-1.336,4.141-1.336l3.131-0.505h1.414"/>
	<path id="LH17" fill="none" stroke="#FFFFFF" stroke-linejoin="round" stroke-miterlimit="10" d="M0.021,1064.894l7.272,1.01h3.434
		c0,0,3.03,0.202,3.838,0c0.808-0.202,5.656,0.09,5.656,0.09s3.636,1.123,4.242,1.123s4.848,1.01,4.848,1.01h4.646l6.06,1.01
		c0,0,0.202-0.808,2.626,0s7.878,1.213,7.878,1.213l5.858,1.415l9.293,1.01l9.697,1.819l14.343,1.213h12.727l16.161,2.425h12.121
		c0,0,9.899-0.909,10.505,1.213c0.202,0.101,5.757-10.61,8.383-11.52c2.626-0.909,10.558-0.759,10.558-0.759l9-0.333l36-1.667
		l42.667-2l1.295-5.409l14.415-1.352l8.181-0.707h5.151c0,0,6.06,0.303,7.171-0.808c1.313-0.303,3.434,0,3.434,0l4.848-0.135h4.949
		h4.949c0,0,20.459-1.005,25.019-1.786l1.505,8.031c0,0-0.75,10.686,5,19.99c0.81,1.311,6.661,4.815,20,4.51
		c5.681-0.13,4.312,9.141,11.75,8.75c7.634-0.401,17.75,6.75,20-16.75c64.75-10.25,147.25-10,218.25-8.75c77,2.75,96,3,96,3
		s44.893,0.943,58,9.25c7.776,6.228,8.25,9,8.25,9l21.729-39.995l17.777-0.808c0,0,20.067-2.291,28.012,9.971L836,1062l18.5-0.75
		l48.5-3.75l95.5-5.75l20.25-1.5c0,0-3.25-21.75,24.861-22.476l22.491-1.213l21.683-1.751l14.141-1.347l16.7-1.482
		c0,0,10.774-1.213,11.178-1.213s1.347,0.674,2.424,0.674s2.155-0.539,2.828-0.674s2.29-0.539,3.098-0.539s2.963,0,2.963,0
		s2.559-0.404,3.232-0.674c0.674-0.27,2.694-0.674,3.636-0.674s3.502,0.404,4.444,0c0.943-0.404,5.926-0.674,5.926-0.674
		s6.734-0.674,8.35-0.674s2.29-0.808,5.522-0.808s4.579,0.674,6.599,0s3.906,0.404,4.983,0s2.828-0.943,4.175-1.078
		s2.694,0.27,4.444,0s7.138-0.808,7.138-0.808"/>
	<path id="LH18" fill="none" stroke="#FFFFFF" stroke-linejoin="round" stroke-miterlimit="10" d="M0.021,1022.115
		c0,0,5.252,2.291,6.195,2.291s4.714,0,4.714,0h2.963c0,0,1.886-0.539,2.424,0c0.539,0.539,2.828,0,2.828,0s2.963,1.213,3.636,1.213
		s4.04,0,4.04,0s4.983,1.617,5.522,1.617c0.539,0,5.791,0,5.791,0l3.636,0.674c0,0,2.963,0.539,3.636,0.674
		c0.674,0.135,2.02,0.539,2.02,0.539h2.963c0,0,0.943-0.539,1.616,0c0.674,0.539,4.983,1.751,5.656,1.886
		c0.674,0.135,4.714,0.808,4.714,0.808l1.616,0.539h3.367l5.926,0.943h2.694l4.31,0.674l1.751,0.943h2.694h4.983
		c0,0,1.751,0.943,2.155,0.808s3.771,0.013,3.771,0.013h4.175l5.926,1.199h3.906c0,0,5.522-0.404,7.003,0
		c1.482,0.404,4.848,1.347,4.848,1.347h2.559l4.848,1.078c0,0,5.118,1.751,8.35,2.829c3.232,1.078,105.72-4.177,105.72-3.772
		s0.674-22.905,0.674-22.905s11.447-4.177,20.605-4.446l20.605-1.078l6.06-0.539h3.502c0,0,2.29,0.539,2.828,0.539
		c0.539,0,3.098-0.539,3.771-0.539s3.098-0.808,3.098-0.808h2.962h6.464h7.946h28.686c0,0,16.296-2.156,23.837,3.907l239.317-0.404
		l75.552-3.876c0,0,43.635-3.602,49.291-2.996c1.818-0.202,3.333-0.707,3.333-0.707s1.313-0.404,1.616,0s1.616-0.056,2.525-0.18
		c0.909-0.124,0.909-0.079,2.727,0c1.818,0.078,1.818,0.374,4.444-0.077s4.545-0.552,5.555-0.653s5.757,0.404,6.262,0
		s5.656-0.808,7.07-1.01s1.313-0.505,3.131-0.707s2.727,0.202,4.848,0c2.121-0.202,3.535,0.186,4.444-0.058
		c0.909-0.245,4.444,0.24,5.353-0.002s5.252-0.546,5.252-0.546s6.565,0.303,7.474,0s5.353,0,5.353,0l3.939-0.135
		c0,0,14.646-0.876,19.494,9.027c0,0,4.141,1.92,6.262,5.962l39.493,0.707l55.452-3.941l67.169-7.175l12.424-1.617
		c0,0,4.04-2.836,5.555-2.984c0,0,5.656-4.797,11.717-6.818c6.06-2.021,6.464-3.032,11.717-3.436s13.03-1.213,13.03-1.213
		l5.959-0.808c0,0,5.252-0.404,6.363-0.707s6.969-0.606,6.969-0.606l7.07-0.707l12.626-1.213l27.474-2.829l17.07-1.819l19.292-1.718
		l4.141-0.808c0,0,3.535,0.404,4.646,0s6.262-1.01,6.262-1.01l6.06-0.909l12.02-0.909l9.798-0.708"/>
	<path id="LH19" fill="none" stroke="#FFFFFF" stroke-linejoin="round" stroke-miterlimit="10" d="M0.021,972.734l3.636,0.606h2.02
		l2.222,0.505h2.626c0,0,1.212-0.303,1.616,0s2.929,1.112,2.929,1.112h3.939l3.03,1.213h1.616c0,0,1.717,1.112,2.626,1.112
		s4.04,0.606,4.04,0.606l24.14,3.133l2.828,0.505h3.535c0,0,1.818,0.909,2.828,0.909s4.949,0.404,5.555,0.505
		c0.606,0.101,3.838,0.505,3.838,0.505l4.141,1.112h1.818h3.131l3.131,0.808c0,0,7.07,0.808,7.575,0.909s2.323-0.202,2.626,0
		s2.929,0.021,2.929,0.021l12.525,1.899l7.878,1.314c0,0,12.121,0.909,13.737,7.377c0,0,4.949,0.707,6.464,3.638l87.976-4.75
		l14.343-21.524c0,0,11.212-9.499,20.605-9.701c9.393-0.202,18.484-1.011,18.484-1.011h4.141c0,0,6.969-0.606,7.373-0.606
		s5.656,0,5.656,0l24.342-1.112h15.353l16.868-0.606l8.484,0.606c0,0,1.111,0.505,1.414,0.505s3.939,0.606,3.939,0.606
		s3.434,0.303,5.555,7.074c0,0,1.515-0.202,3.939,4.952l77.674-3.234l45.15-0.101l20.302-0.303l28.888,1.751
		c0,0,9.966-4.851,13.198-4.716c0,0,7.676-4.716,13.602-5.12c5.926-0.404,21.009,0.135,24.78,4.581c0,0,11.986-0.135,14.141,4.042
		l48.617-1.482l25.049,0.135c0,0,5.387-2.695,6.464-2.964c1.078-0.27,4.04-1.482,4.31-2.021s-1.078-6.602,9.966-8.354
		c11.043-1.751,17.373-1.213,17.373-1.213l11.717-1.213h9.427l10.37-1.078h6.464l7.676-0.674l25.992-0.674h16.969
		c0,0,13.871,0.674,15.083,8.623c0,0,4.714,1.347,7.272,11.048l40.806-2.291l78.381,1.213l46.059-2.021l7.676-0.27
		c0,0,5.656-5.794,6.868-6.602s9.831-6.872,13.467-8.084s12.659-2.425,12.659-2.425l18.047-1.482l10.909-2.021l3.502,0.539
		c0,0,2.828,0,4.175-0.539s6.464-1.213,6.464-1.213l6.33-1.482h7.407l6.868-0.674l5.522-1.213h2.694h2.559l3.232-0.808h2.963
		c0,0,3.771-1.482,4.848-1.482s9.697,0,9.697,0l3.771-1.078h7.003l5.118-1.347l5.791-0.941h2.694l4.04-0.943
		c0,0,0.808,0.808,1.616,0.808s9.966-1.751,9.966-1.751s10.101,0.404,10.505,0s9.966-1.213,9.966-1.213"/>
	<path id="LH20" fill="none" stroke="#FFFFFF" stroke-linejoin="round" stroke-miterlimit="10" d="M0.021,921.197l7.474,2.425
		l7.878,1.01l5.555,1.213l5.555,1.01l7.878,1.314c0,0,4.343,0.707,4.646,0.707s6.06,0.404,6.868,0.505s2.626,1.213,2.626,1.213
		h3.535l5.252,1.213h3.03l6.161,1.213c0,0,4.444-0.404,5.252,0s3.737,1.112,3.737,1.112l6.565,1.112l5.959,0.707l4.04,0.707
		l1.01,0.808h2.828c0,0,2.121,0.101,3.03,0s3.939-0.213,5.05,0.045s6.262,0.966,6.262,0.966l5.05,1.516c0,0,3.838,0.909,4.343,0.909
		c0.505,0,10.202,1.718,12.222,5.255c0,0,4.949,2.021,6.363,8.084l100.332,4.547l7.676-28.969c0,0,2.559-4.985,4.444-5.794
		l5.522-7.41l5.791-1.078h1.886h3.636l4.579-0.539h4.983h4.983c0,0,1.347,0.27,2.828,0c1.482-0.27,2.424,0.135,3.502,0
		s4.04-0.095,4.04-0.095l3.367-0.006l5.656-0.708c0,0,1.886,0,2.694,0s1.886,0,2.828,0s2.694,0,2.694,0s2.155-0.27,3.098,0
		s4.31-0.12,4.31-0.12h3.502h1.616h1.751h4.848c0,0,3.367,0.285,4.444,0c1.078-0.285,2.424,0,2.424,0l5.926-0.127
		c0,0,3.636,0.158,4.04,0s4.983,0,4.983,0l6.195-0.07h3.502h4.31l3.771,1.664c0,0,2.424-1.213,4.444-0.135s5.252,4.581,5.791,6.872
		c0,0,6.164-18.225,85.914-15.999c79.75,2.226,85.554,18.85,85.554,18.85l0.657,7.386l0.79,13.324c0,0,3.105-4.697,4.317-5.775
		s3.502-9.297,5.656-10.509c2.155-1.213,15.353-2.425,17.912-2.56c2.559-0.135,14.679,0.808,18.989,2.021s7.003,1.886,8.215,3.638
		s5.791,4.716,5.791,4.716l4.31,1.751l36.227,0.269l32.052,0.404c0,0,5.791-0.27,6.33-5.12c0.539-4.851,1.078-10.779,1.078-10.779
		s3.502-13.474,7.003-15.36c3.502-1.886,5.522-2.56,5.926-2.56c0.404,0,4.983-1.078,4.983-1.078l4.175-0.674l7.003-0.674h5.791
		l4.714-0.674c0,0,5.791-0.27,6.195,0s6.868-0.12,6.868-0.12h10.101h6.464l11.986-1.093h6.195l5.252-1.078h2.694
		c0,0-1.886-0.404,1.078-0.539c2.963-0.135,5.791,0,5.791,0l8.215-0.06h7.676l7.407,0.599l4.579,0.404l4.848,1.751
		c0,0,3.906,2.964,5.791,10.375c0,0,29.388-17.192,93.888-19.4s86.25,2.542,86.25,2.542l5.911,24.517c0,0-2.084,3.525,0.206,1.099
		c2.29-2.425,5.791-5.255,7.811-6.198s7.272-2.56,8.484-2.56s9.562-1.482,9.562-1.482l16.295-1.617l15.353-1.617l7.138-0.538
		l2.424-0.808l2.559-0.135l6.734-1.213l18.316-1.886l10.909-1.482c0,0,6.868-1.347,7.407-1.347c0.538,0,4.983,0.135,4.983,0.135
		l15.622-2.021c0,0,16.699-2.56,18.181-2.56s5.118,0,5.118,0l8.484-1.482l14.814-1.347"/>
	<path id="LH21" fill="none" stroke="#FFFFFF" stroke-linejoin="round" stroke-miterlimit="10" d="M0.738,869.12
		C11.976,876.74,121.5,887.5,121.5,887.5l11.667,23l4.667-3c0,0,17.333-6.333,33-8s25.667-4.333,54-1.333s25.667,8.107,25.667,8.107
		s0.865,17.285,2.75,16.476l2.921-6.134l5.791-1.078h1.886h3.636l4.579-0.539h4.983h4.983c0,0,1.347,0.27,2.828,0
		c1.482-0.27,2.424,0.135,3.502,0s4.04-0.095,4.04-0.095l3.367-0.006l5.656-0.708c0,0,1.886,0,2.694,0s1.886,0,2.828,0
		s2.694,0,2.694,0s2.155-0.27,3.098,0s4.31-0.12,4.31-0.12h3.502h1.616h1.751h4.848c0,0,3.367,0.285,4.444,0
		c1.078-0.285,2.424,0,2.424,0l5.926-0.127c0,0,3.636,0.158,4.04,0s4.983,0,4.983,0l6.195-0.07h3.502h4.31l3.771,1.664
		c0,0,2.424-1.213,4.444-0.135s5.252,4.581,5.791,6.872c0,0,2.24-18.226,85.907-16s86,19.974,86,19.974l0.333,9.919
		c0,0-0.304,10.966,0.667,9.667c4.317-5.775,7.826-15.071,9.98-16.283c2.155-1.213,15.353-2.425,17.912-2.56
		c2.559-0.135,14.679,0.808,18.989,2.021s7.003,1.886,8.215,3.638s5.791,4.716,5.791,4.716l4.31,1.751l36.227,0.269l32.052,0.404
		c0,0,5.791-0.27,6.33-5.12c0.539-4.851,1.078-10.779,1.078-10.779s3.502-13.474,7.003-15.36c3.502-1.886,5.522-2.56,5.926-2.56
		c0.404,0,4.983-1.078,4.983-1.078l4.175-0.674l7.003-0.674h5.791l4.714-0.674c0,0,5.791-0.27,6.195,0s6.868-0.12,6.868-0.12h10.101
		h6.464l11.986-1.093h6.195l5.252-1.078h2.694c0,0-1.886-0.404,1.078-0.539c2.963-0.135,5.791,0,5.791,0l8.215-0.06h7.676
		l7.407,0.599l4.579,0.404l4.848,1.751c0,0,3.906,2.964,5.791,10.375c0,0,37.131-19.109,93.881-19.401
		c51-1.708,86.25,2.542,86.25,2.542l4.5,17.25c0,0,0,0,1.624,8.367c2.29-2.425,5.791-5.255,7.811-6.198s7.272-2.56,8.484-2.56
		s9.562-1.482,9.562-1.482l16.295-1.617l15.353-1.617l7.138-0.538l2.424-0.808l2.559-0.135l6.734-1.213l18.316-1.886l10.909-1.482
		c0,0,6.868-1.347,7.407-1.347c0.538,0,4.983,0.135,4.983,0.135l15.622-2.021c0,0,16.699-2.56,18.181-2.56s5.118,0,5.118,0
		l8.484-1.482l14.814-1.347"/>
	<path id="LH22" fill="none" stroke="#FFFFFF" stroke-linejoin="round" stroke-miterlimit="10" d="M0.021,833.887
		c0,0,71.31,22.636,116.763,24.455c50.099,3.436,105.046,6.063,105.046,6.063l63.836,2.829c0,0,56.967,4.244,89.289,0
		c37.574-5.053,105.45-16.573,105.45-16.573s32.12-6.669,99.592-6.063c0,0,95.148,1.617,109.086,8.488
		c0,0,10.303,2.425,22.625,3.638c12.323,1.213,21.211,0.808,21.211,0.808s5.05,0.404,11.515,1.819
		c6.464,1.415,14.141,0.606,14.141,0.606l18.585,1.617c0,0,20.201,1.415,30.706,1.617s35.554-1.415,45.857-3.436
		c20.201-2.223,62.826-7.074,69.896-7.276s43.635-2.627,56.967-2.425s62.624-3.638,62.624-3.638l61.21-7.276l50.503-6.669
		l44.645-6.872"/>
	<path id="LH23" fill="none" stroke="#FFFFFF" stroke-linejoin="round" stroke-miterlimit="10" d="M1199.568,792.119
		c0,0-16.565,1.347-20.471,1.886s-7.811,1.617-7.811,1.617h-8.08l-6.599,0.135c0,0-5.118,0.27-6.464,0.674
		c-1.347,0.404-8.619,1.078-8.619,1.078l-13.333,2.291l-11.178,1.213l-5.522,1.078l-1.616-0.539l-26.396,2.695l-20.471,0.942
		l-18.181,0.674l-15.757-0.135c0,0-10.235,0.404-12.525,0.539c-2.29,0.135-15.218,1.347-15.218,1.347l-15.218,1.617l-5.522,0.135
		l-3.636,0.404l-15.083,1.078l-11.717,0.674l-6.868,1.165h-4.579l-4.983,1.126l-6.868,0.135l-6.464,1.213l-7.676,0.404l-6.868,0.943
		l-3.636,0.539l-2.963,0.135l-2.29,0.674l-1.886,0.539l-8.215,0.27l-5.656,0.404l-2.424,0.135l-4.175,0.404c0,0-2.02,0-2.424,0
		s-1.886,1.078-1.886,1.078s-3.098,0-3.636,0s-4.04,0.27-4.04,0.27l-3.367-0.808h-3.098l-36.632,1.213l-34.881-0.674l-34.477-2.021
		l-11.986-0.27l-12.525-1.482l-7.811-1.213c0,0-6.33-0.943-6.734-1.078s-4.04-1.934-4.04-1.934h-1.751v1.665v3.503l-1.482-0.134
		h-6.868l-9.697-1.482l-2.963-0.404l-3.098,0.135l-4.175-1.078l-3.771,0.135l-8.35-3.234l-1.751-0.943c0,0-3.906-0.943-5.656-1.886
		c-1.212-0.943-7.676-1.886-7.676-1.886l-10.774-3.234c0,0-17.777-6.333-33.13-7.815s-22.087-0.943-25.184-0.943
		c-3.098,0-18.855,0.943-18.855,0.943l-8.484,0.996c0,0-3.636,0.487-4.04,0.082c-0.404-0.404-5.118,0.808-5.118,0.808l-3.906,1.213
		l-1.751,0.539c0,0-1.212,0.539-1.616,0.674c-0.404,0.135-1.886-0.135-1.886-0.135l-3.771,0.674l-3.771,0.404l-3.636,1.213
		l-3.098,0.674l-4.714,1.617l-2.559,0.674c0,0-2.155,0.135-2.694,0.404c-0.539,0.27-2.155,0.674-2.155,0.674l-1.751,0.27
		l-5.118,1.617l-3.771,0.135c0,0-2.155,0.404-2.559,0.404s-1.482,0.404-1.482,0.404l-9.293,3.099l-13.333,3.773l-13.737,3.907
		l-9.158,1.886c0,0-1.482,0-2.02,0c-0.539,0-1.078,1.078-1.078,1.078s-2.02,0.135-2.424,0.135s-0.943,0.808-0.943,0.808l-2.155,0.27
		l-4.444,1.28l-7.676,1.684l-6.734,1.886c0,0-4.848,1.213-8.484,1.213c-3.636,0-5.118,0-5.118,0s0-4.581,0-7.545
		s-1.616-2.156-1.616-2.156l-8.215,1.346l-5.656,0.27l-4.714,0.808l-4.31,0.135l-9.966,0.404l-22.625,1.213l-1.078,0.741
		c0,0-23.703,0.068-24.376,0s-2.424,0.741-2.424,0.741l-5.656-0.135l-21.009,0.808l-1.616-0.539l-4.444,0.539l-12.659,0.27
		l-5.118-0.27l-4.579,0.943h-2.694h-19.79h-18.047h-11.986h-9.966l-9.562-0.674l-5.118-0.943h-6.733h-2.828l-8.889-0.741h-10.505
		h-11.313h-8.889h-16.161h-12.121h-10.909l-18.585-1.819c0,0-15.757-4.042-27.878-7.68C27.088,801.96,0.019,797.109,0.019,797.109"
		/>
	<path id="LH24" fill="none" stroke="#FFFFFF" stroke-linejoin="round" stroke-miterlimit="10" d="M0.021,748.733
		c0,0,40.941,13.204,41.345,13.204s9.427,4.446,10.101,4.312s2.29,0.003,2.29,0.003s2.424,1.614,2.963,1.749
		s5.252,0.943,5.252,0.943l4.579,1.751l7.003,2.021l7.542,3.368l6.06,2.964c0,0,5.387,3.099,6.195,3.099s4.31,0.674,4.31,0.674
		v0.943l-4.175,3.234l-3.906,3.907l-3.501,2.964c0,0-1.751,0.943,0.135,1.751s8.889,1.751,9.831,1.751c0.943,0,7.407,0,7.407,0
		h15.622c0,0,4.31-0.943,5.252-0.943s2.155-0.404,2.828-0.27c0.674,0.135,3.502-0.27,3.502-0.27s0-0.808,2.559-0.808
		s5.252,0,5.252,0l6.33-0.135c0,0,2.828-0.943,3.232-0.943c0.404,0,4.983-0.27,4.983-0.27l7.946-0.539c0,0,2.155-1.078,3.906-1.078
		s7.811,0,7.811,0l5.791-0.674l3.636-0.27l7.542,0.404l2.694-0.674c0,0,2.29,0.27,2.828,0.27c0.539,0,3.636,0,4.175,0
		s8.485,0.135,8.485,0.135l4.444,0.808l4.04-0.808l7.542,0.27l7.676,0.539l9.293,0.943l1.886-6.333l0.808-4.446l0.674-3.234
		c0,0,9.297-2.539,10.644-3.211c1.347-0.672,23.667-0.334,23.667-0.334s71.519,1.468,73,1.333c1.482-0.135,29-1,29-1l12.316-0.649
		c0,0,2.882,1.573,4.363,1.573s5.791-0.808,5.791-0.808s3.636-0.808,7.811-1.213c4.175-0.404,11.447-0.943,15.083-0.674
		c3.636,0.269,5.387,0,6.734-0.135c1.347-0.135,10.033-0.606,10.841-0.876s1.684,18.863,8.282,17.785
		c6.599-1.078,57.885-12.176,69.088-13.945c11.515-1.819,69.199-3.702,69.199-3.702s36.252,4.51,52.615,6.935
		c13.58,2.013,40.842,7.125,51.109,7.074c2.058-0.01,0.194-1.916,0.606-3.234c0.613-1.959,1.054-3.123,1.01-5.053
		c-0.066-2.881,0.587-5.853,0.808-8.219c0.063-0.671,16.026,1.347,17.373,1.078c1.347-0.27,4.31-0.135,5.118-0.135
		s4.848-0.135,4.848-0.135s4.983,0.404,7.542,1.549s4.175,2.089,5.118,2.089s2.155-0.539,3.367-2.089s12.978-2.8,12.978-2.8l30-1.25
		l37.75-3l41-2.648l38.25-1.102l2.305,1.975v4.58l1.078,0.27l1.346,1.347v1.347l1.751,0.674l1.886,1.347
		c0,0,0.539,2.156,1.482,2.156s1.886,0,1.886,0h2.963l1.347-0.673c0,0,3.771,0,4.31-0.135s6.06-0.808,6.06-0.808l4.175,0.27
		c0,0,4.983-0.943,5.387-0.943c0.404,0,7.542-0.606,7.542-0.606h5.791h2.828c0,0-0.135,0.202,1.482,0
		c1.616-0.202,4.175-0.606,4.983-0.606s7.272-0.808,7.272-0.808l3.771-0.135c0,0,3.502-0.404,4.04-0.404s3.098,0,3.098,0
		l7.138-0.404l5.656,0.135l2.424-0.674c0,0,2.963,0,4.848-0.135c1.886-0.135,11.986-0.808,11.986-0.808h10.909
		c0,0,4.175-0.808,4.714-1.078s4.579-0.135,5.656-0.404c1.078-0.27,9.831-0.135,9.831-0.135l18.316,0.539l11.582,0.404l18.585,0.404
		l0.943,2.29l-1.347,6.333l0.404,4.042l0.269,7.141l3.906,0.539l2.155-1.213l3.905-0.27l5.252-0.674l3.636-2.021
		c0,0,3.098,0.135,2.694,0s2.155-0.943,2.155-0.943s2.559,0,3.232-0.135s4.983-0.135,4.983-0.135l2.155-1.482l1.616-0.135
		l3.906-0.674l4.983-0.539l3.367-0.808l2.02-0.943l1.751,0.135l1.616-0.404l2.02,0.135l3.367-0.674l3.906-0.808l4.175-0.674
		l2.559-0.135l6.464-0.404l3.906-0.674l8.484-0.943v9.566v5.524v2.156l1.368,2.089"/>
	<path id="LH25" fill="none" stroke="#FFFFFF" stroke-linejoin="round" stroke-miterlimit="10" d="M0.021,705.853l11.717,2.931
		l6.464,2.021l3.434,2.425c0,0,2.222-0.404,3.232,0s4.04,1.819,4.04,1.819h3.838l8.282,3.234l6.464,2.627l3.636,2.021h2.424
		l5.454,2.223l5.454,1.819c0,0,23.959,37.461,32.04,50.194l40-4.115l20.667-1.552l-0.215-9.33c0,0,11.14-7.509,27.301-7.306
		c16.161,0.202,33.534-0.606,39.594,8.488h4.646l13.737-1.213l98.38-4.648l43.635-10.914l15.151-0.606l1.616-4.851
		c0,0-2.424-6.063,42.625-3.436l50.301,0.202l34.14-0.404l132.116,1.617h24.645l17.575-2.425c0,0,14.545-2.021,19.797-1.415
		s4.242,1.415,4.242,1.415l3.232,0.808l2.424,2.627c0,0-0.202,2.223,2.828,1.819c3.03-0.404,12.727-2.425,12.727-2.425l44.241-3.84
		l46.059-3.638l61.412-3.436l3.636,5.457c0,0,10.707,0.808,14.949,0s9.697-1.213,10.909-1.213s9.293-0.202,9.293-0.202h9.091
		l15.353-1.213l7.676-0.404l16.161-1.213l8.282-0.202l15.555-0.202l30.302-1.213l21.934,0.9c0.605,5.408,2.316,15.083,2.316,15.083
		l43.667-0.333l12.079-1.098l-3.232,11.116c0,0,9.899-8.893,16.161-12.126c12.727-3.436,22.827-5.861,22.827-5.861l11.111-1.819
		l8.888-1.819l1.436,3.234c0,0,1.19-3.032,3.816-3.638c2.626-0.606,13.131-1.011,13.131-1.011l4.848-0.202"/>
	<path id="LH26" fill="none" stroke="#FFFFFF" stroke-linejoin="round" stroke-miterlimit="10" d="M0.021,658.864l17.777,6.265
		l7.272,1.415l7.878,2.829l7.878,2.425l5.656,3.234l5.05,1.415l8.889,3.638h2.424l3.838,2.021c0,0,17.979,9.903,20.403,17.381
		l18.585,7.68l47.473,5.053l4.444,3.234c0,0,5.858-4.851,8.889-6.063s11.717-2.627,11.717-2.627l21.413-0.909
		c0,0,17.171,0.101,20.403,8.185c0,0,6.868-0.808,7.878,1.415l19.999,2.223l75.148-1.617l59.594,1.617l4.444-1.617
		c0,0,8.08-15.158,25.656-15.966s25.858-1.01,25.858-1.01l3.434-0.404l2.02,1.011h7.474l8.484-0.202c0,0,5.454-0.404,7.272-0.202
		s6.262,0.606,6.262,0.606l12.727,0.202l22.221-0.202c0,0,4.242-0.404,4.242,0.808s4.646-0.404,7.878-0.404s7.07,0.606,10.303,0.606
		c3.232,0,7.878,2.223,9.091,3.638c1.212,1.415,10.707,3.638,10.707,3.638l45.655,3.436l44.039-3.436c0,0,16.363-4.042,18.383-4.446
		s6.666-1.415,12.121-2.425c5.454-1.01,11.717-1.213,16.969-1.819s19.393-2.627,26.262-2.425s15.959,2.223,17.171,7.276
		c0,0,2.222-0.202,4.242,0.606c2.02,0.808,8.282,3.032,8.282,3.032l8.282-0.202l79.795,2.829l46.059-8.488l23.029-5.255
		l16.161-0.606v-4.648c0,0,19.393-3.234,27.676-3.335c8.282-0.101,18.787-1.314,18.787-1.314l15.959-0.404l21.615-0.808
		l17.171-0.808l12.525-0.808l3.232-0.606h5.252h7.879c0,0,12.929,0.606,13.737,8.691l15.353,3.84h26.464l11.717,5.659l8.687,6.872
		c0,0,5.656-5.053,9.697-8.084c4.04-3.032,13.939-8.286,23.231-10.307c9.293-2.021,14.343-1.92,14.343-1.92l9.09-1.516
		c0,0,6.667-0.404,7.474-0.404c0.808,0,10.707,0,10.707,0l1.818,1.011"/>
	<path id="LH27" fill="none" stroke="#FFFFFF" stroke-linejoin="round" stroke-miterlimit="10" d="M0.021,610.156l5.252,2.829
		l6.06,1.01l7.07,3.234l11.717,4.446l4.848,1.819l12.121,4.244l11.515,3.436l7.07,3.234c0,0,18.585,8.286,22.625,19.604
		l27.474,4.851l38.18,6.872c0,0,8.484-6.872,14.747-7.882c6.262-1.01,16.969-1.213,16.969-1.213l14.343,0.404
		c0,0,15.959,0.808,20.807,8.691h6.868l6.06,2.425h104.036h39.392l10.101,3.234l1.818-1.415l10.303,0.202
		c0,0,0.808-2.425,3.232-4.446s9.091-4.042,11.313-4.648s11.111-0.404,12.525-0.404s9.495,0,9.495,0l8.484,0.202l15.959-0.808
		l16.161,0.808h15.151l14.747,0.202l15.757-0.202c0,0,19.191,0.606,23.837,10.509l5.033,0.72l0.159-21.864
		c0,0-0.25-17.75,42.75-16.5c42.5-2.5,45,6,45,6l7.5,34.75c0,0-0.448-6.947,2.38-8.361c2.828-1.415,8.08-3.234,8.08-3.234
		l9.495-1.415l9.293-0.606l9.899-0.808l12.929-1.213l9.293-1.011h8.484c0,0,9.495,0.202,17.979,7.276l55.755,0.202l44.039-2.223
		l72.926-4.244c0,0,5.252-7.074,8.888-8.893c3.636-1.819,3.838-3.638,8.889-4.244s10.707-0.404,10.707-0.404l6.464-0.808
		l6.868-1.415l4.848,1.415h4.242l3.03-1.415l5.656-1.011l8.081-0.202l7.272-0.404l9.495-1.01l9.697-0.202l10.505-1.011l14.545-1.213
		l11.313-0.202c0,0,18.787-3.032,26.464,7.68l47.877,4.446l1.212,21.423c0,0,8.889-4.446,11.515-7.276s10.101-10.307,12.929-12.126
		s10.707-5.659,13.535-5.861s6.464-0.808,6.464-0.808s5.454-1.617,6.868-2.223s10.101-1.415,10.101-1.415s8.687-2.223,14.949-2.425
		c6.262-0.202,10.101-1.213,10.101-1.213"/>
	<path id="LH28" fill="none" stroke="#FFFFFF" stroke-linejoin="round" stroke-miterlimit="10" d="M0.021,557.609l5.454,3.234
		l8.485,4.244l11.313,3.436l15.757,5.255l22.019,9.499l21.009,8.084c0,0,10.707,4.648,10.909,22.838l2.866,9.968
		c0,0,0-13.021,27.333-14.011s29,1.677,29,1.677l0.394,12.875c0,0,2.02-10.105,6.464-14.552c10.101-3.638,25.858-5.053,25.858-5.053
		s17.575-0.202,28.888,3.032c0,0,5.252,0.606,13.535,11.116c7.878,11.722,7.878,11.722,7.878,11.722s41.983-10.473,75.983-11.14
		s81.333,9,81.333,9l3.284,16.691c0,0,5.05-17.987,10.909-22.636c0,0,2.323-1.01,2.929-1.819c0.606-0.808,0.808-2.324,0.808-2.324
		l1.919-0.303l2.121-0.505l2.424,0.101l4.848,0.404l4.646-0.202l3.838,0.909c0,0,1.616-0.303,1.919,0s1.717,1.718,1.717,1.718
		l1.313-1.819l2.929-0.202h4.04h6.969l8.181-0.202l6.767-0.202l8.283-0.202l6.161-0.202l5.454,0.101l5.555-0.505l6.767-0.303h9.596
		h10.303l6.666-0.202h12.222l1.111-1.617l-0.808-4.547l0.202-2.223l-1.111-4.345l-0.808-3.739l-0.202-2.021
		c0,0,1.818,1.314,4.343,0.606c2.525-0.707,5.151-1.718,5.151-1.718l3.333-1.516c0,0,1.212-1.213,1.919-1.213s5.05-0.606,5.05-0.606
		l8.249-0.808l4.983-0.943l5.522-1.751l-0.808-10.105l13.871,0.135l6.33,0.135l8.35-0.539l11.313,0.27l-0.808,7.815l9.158,0.674
		l5.522,0.135l5.926,1.078h3.636l7.407,0.404l5.522,0.135l-2.56,11.857l-1.078,5.929l-1.212,7.68v4.177l1.751,0.539l2.155-0.943
		l4.31-1.347l4.714-0.404l4.175-0.539l9.562-0.404l6.33-0.404l2.424,0.27l4.848-0.404c0,0,5.656,0,5.252,0s2.963-0.404,2.963-0.404
		l4.04,0.135l4.983,0.404l4.04-0.674l7.003-0.404h2.963l6.868,0.808c0,0,15.083-0.674,15.757,12.531
		c0,0,42.124-13.416,83.124-19.072s87.667,5.677,87.667,5.677l2,8.667c0,0,5.922-10.901,7.673-12.249
		c1.751-1.347,14.41-12.531,14.41-12.531l6.464-4.985l4.175-0.135l7.003,0.674l7.138-0.135l8.215-0.27h7.542l11.582-1.078
		l15.083-1.078l16.7-0.943l9.158-0.539l6.868-0.539c0,0,7.003-1.482,7.407-1.482c0.404,0,7.407-0.943,7.407-0.943l10.235-1.752
		c0,0,10.909-0.404,11.986-0.539s6.868-0.539,6.868-0.539s3.906-0.674,4.31-0.808c0.404-0.135,2.828,0.135,2.828,0.135
		s5.409,29.856,5.948,31.069s8.667-1.333,15.333,1c6.667,2.333,8.886,10.508,8.886,10.508l4.448,0.825c0,0,7.673-20.9,11.578-23.865
		c3.906-2.964,8.215-5.12,8.215-5.12l9.697-2.829l7.138-1.347l2.963-0.674l2.694-1.617l4.444-0.404l5.926-0.674l3.771-0.808
		l2.694-0.674l2.828-0.539l4.983,0.943l3.232-1.213c0,0,4.579-0.539,10.235-0.674"/>
	<path id="LH29" fill="none" stroke="#FFFFFF" stroke-linejoin="round" stroke-miterlimit="10" d="M0.021,531.537l41.21,10.644
		c0,0,21.548,5.389,26.935,6.198c9.697,1.482,15.891,2.829,30.975,3.503c11.986,1.078,26.665,1.886,39.325,4.716
		c8.754,1.213,21.009,3.099,21.009,3.099l21.683,2.695c0,0,25.184,2.829,40.537,2.829s37.17,0.808,37.17,0.808l23.433,1.078h26.935
		c0,0,20.201-1.078,32.322-2.695s65.317-12.126,65.317-12.126s22.221-4.042,30.975-5.255s37.709-3.638,37.709-3.638l46.328-4.177
		c0,0,9.697-2.695,44.039-0.808c0,0,46.463-0.808,50.638-0.674c4.175,0.135,32.726,1.886,44.039,2.829s38.248,2.425,38.248,2.425
		l37.844,5.389l43.635,6.063c0,0,28.955,4.581,34.342,4.446c5.387-0.135,25.454-0.876,25.454-0.876s22.895,0.606,26.8,0.606
		c3.906,0,28.012,0.135,29.09,0.135s33.669-0.404,37.305-0.741c3.636-0.337,53.331-2.358,53.331-2.358l46.867-2.829l47.271-2.829
		l56.294-2.56c0,0,54.678-2.829,62.489-13.339"/>
	<path id="LH30" fill="none" stroke="#FFFFFF" stroke-linejoin="round" stroke-miterlimit="10" d="M0.021,497.045
		c0,0,24.107,6.737,73.128,13.743c54.947,8.353,82.421,11.857,82.421,11.857l46.597,2.695h4.848h36.632c0,0,7.542,1.347,9.697,1.347
		s17.777,0,17.777,0l26.396-1.078l24.78-1.078l19.932-1.886v5.389h4.31c0,0,5.926,0.27,13.198-1.617
		c7.272-1.886,12.39-4.312,12.39-4.312v5.942c0,0,5.656-2.169,12.39-4.325s17.238-4.851,17.238-4.851l8.889-2.156l29.09-4.17
		l14.814-2.836c0,0,6.195,0.27,7.542,0.27s6.464-1.347,7.542-1.347s9.158-0.808,9.158-0.808s5.387-2.156,6.195-2.156
		s4.579,0,4.579,0s4.04-0.539,5.926-0.808c1.886-0.27,6.195-0.808,7.272-0.808c1.078,0,8.889-1.347,8.889-1.347l17.508-0.27
		l13.198-1.078l8.081,1.078l13.467-0.808l11.582-0.808l19.124-1.078l17.777-0.27l9.427,0.27l19.393-0.808l23.164-0.27
		c0,0,26.935,1.078,36.093,1.617s37.978,4.042,37.978,4.042l40.133,9.971c0,0,26.127,7.545,34.477,7.006s15.083-1.617,19.663-1.617
		s25.319,2.156,25.319,2.156s26.127-0.539,30.167-0.539s15.622-1.617,15.622-1.617l7.272-0.27v2.425l7.811,0.27
		c0,0,11.582-1.347,13.467-1.347c1.886,0,9.966-1.078,9.966-1.078l3.771,0.27l1.078,2.156l33.399-2.964l46.597-3.503l2.694-1.886
		l14.006-1.206c0,0,4.31,3.631,5.926,3.092s4.848-2.951,5.656-3.092s2.963-0.95,4.31-1.219c1.347-0.269,8.35-0.808,8.35-0.808
		l12.121-2.425l1.347,3.234l47.136-9.971l1.078,11.19v2.284l8.889-2.284c0,0,6.734-1.489,8.35-2.028s6.195-2.156,7.003-2.156
		c0.808,0,9.965-1.078,9.965-1.078l13.759-4.042c0,0,20.179-8.084,21.796-7.545"/>
	<path id="LH31" fill="none" stroke="#FFFFFF" stroke-linejoin="round" stroke-miterlimit="10" d="M0.021,446.384
		c0,0,32.995,8.354,35.958,9.701s16.969,5.659,16.969,5.659l9.158,2.156h5.656l23.164,4.851h9.427l7.272,2.156l18.316,1.886h20.471
		c0,0,21.279-1.347,33.669,13.474l0.419,9.408h121h27c0,0,6.188-6.712,13.729-8.06c7.542-1.347,11.044-2.06,14.545-2.156
		C373.5,485,378,508,378,508s30.778-10.001,46.5-14.25c18.5-5,76.435-10.868,91.5-11.75s98.824-6.964,118.75-5.5
		s62.25,1.25,92.5,6.75C758.433,488.92,807.5,501,807.5,501s14.71-26.32,19.02-26.859s18.855-1.078,18.855-1.078l17.508-1.078
		c0,0,11.582-2.156,13.737-2.425c2.155-0.27,8.88,13.44,8.88,13.44l44-5l42.5-2.964l57.879-6.96l23.972-2.56l21.009-0.808
		c0,0,6.464-1.886,7.272-1.886s16.43-0.539,16.43-0.539l17.777-2.156l10.235-1.347l22.356-3.773l11.043-0.539
		c0,0,2.963-1.617,4.579-2.695s7.003-5.12,7.811-5.389c0.808-0.27,15.083-4.312,15.083-4.312h5.926h6.196"/>
	<path id="LH32" fill="none" stroke="#FFFFFF" stroke-linejoin="round" stroke-miterlimit="10" d="M0.021,399.495
		c0,0,20.605,5.659,25.992,7.276s18.855,4.312,18.855,4.312l11.851,2.695c0,0,7.542,1.886,9.158,1.886s22.356,4.311,22.356,4.311
		l12.121,1.886l15.891,2.695l15.083,1.617h16.161c0,0,19.932-2.425,31.514,13.204l140.062,2.695l5.656,11.587
		c0,0,8.35-2.156,15.891-4.312c7.542-2.156,18.316-2.964,23.433-3.234c5.118-0.27,84.037-11.318,84.037-11.318
		s120.399-7.815,122.285-8.219c1.886-0.404,55.755,0,55.755,0h103.43l61.142,1.751l47.675-1.751l4.31,1.213l6.195-1.213
		c0,0,14.006-3.099,24.511,0v8.757l8.081,0.27c0,0,11.582-0.808,18.047,2.964l78.919-2.695h19.393l11.582-0.539
		c0,0,7.003-7.815,16.969-8.758c9.966-0.943,26.127-3.099,26.127-3.099l29.359-4.042l36.901-2.964c0,0,41.749-5.659,46.328-5.659
		s34.477-1.078,34.477-1.078"/>
	<path id="LH33" fill="none" stroke="#FFFFFF" stroke-linejoin="round" stroke-miterlimit="10" d="M0.021,351.798
		c0,0,13.333,3.503,19.528,5.659s12.929,3.503,12.929,3.503s7.811,1.886,9.158,2.695s5.387,2.156,5.387,2.156l13.737,1.347
		c0,0,14.545,3.503,16.161,3.503s23.433,4.312,23.433,4.312l14.276,1.347l14.275,1.078c0,0,8.889,2.695,9.966,2.695s7.003,0,7.003,0
		l3.771,2.425h7.272h6.464l6.195,1.078c0,0,9.158,7.006,10.774,15.899l52.523,2.964l68.145-5.389l20.201,11.048l5.926,5.929
		c0,0,16.969-5.389,34.207-6.198l50.368-0.539c0,0,32.052-2.156,39.864,9.431h79.458v-13.204c0,0,11.313-20.211,29.359-22.366
		c0,0,20.74-4.851,35.285,22.097l74.609-0.27h30.436v-3.503c0,0,14.545-1.347,15.891-1.347s4.848-0.808,5.656-3.234s0-7.006,0-7.006
		s8.081-6.198,25.588-5.389c5.656,0.27,13.737-0.808,13.737-0.808s14.814-1.886,18.585-2.156c3.771-0.269,21.009,0.808,21.009,0.808
		l35.554-1.617c0,0,34.208-10.779,40.941,11.318l24.241-1.347l86.731-1.348l8.08,0.808v7.006l13.737-1.347
		c0,0,2.963-7.545,6.734-9.566s10.505-3.099,10.505-3.099l19.932-2.695l16.969-1.617l31.245-3.503l21.009-2.156l19.932-2.156
		l62.762-8.419"/>
	<path id="LH34" fill="none" stroke="#FFFFFF" stroke-linejoin="round" stroke-miterlimit="10" d="M0.021,302.484l41.614,11.318
		c0,0,40.402,8.893,53.331,10.509c12.929,1.617,40.941,4.042,40.941,4.042h24.511c0,0,16.161,11.588,19.663,35.032
		c0,0-6.581-19.385,76.419-21.885s74.5,21,74.5,21l3,13c0,0,4.189-9.69,21.966-9.151s29.628-0.539,29.628-0.539
		s33.669-1.617,34.477-1.617s21.279-0.27,21.279-0.27s13.467,10.509,17.777,18.324c0,0-2.521-9.029,2.873-16.914
		c2.914-4.26,10.167-4.833,19.333-4.333c11-3.833,36.666-1.354,36.666-1.354s6.311-24.018,7.119-27.521
		c0,0,33.13-6.198,49.291-3.503c0,0,17.089,2.239,20.591,28.378c0,0-3.5-21.5,59.5-22.5c31.125-0.494,46.938,2.18,53.5,9
		c6.721,6.984,3.811,18.124,3.811,18.124s2.12-2.283,5.083-3.899c0,0,1.886-13.204,12.929-22.366l1.347-2.695l9.697,0.27l9.697-0.27
		l20.201-0.808l13.737-1.078l12.659-1.078c0,0,6.734-0.808,11.582-0.539c4.848,0.27,13.737,0.27,13.737,0.27l10.505-1.347
		l8.619-1.617l9.158-0.808l9.158-1.886l8.081,1.347l2.694,0.808c0,0,2.963,5.12,5.656,15.36l6.169,0.386
		c0,0,1.672-17.025,2.48-12.174c0,0,23.203-10.883,56-15s63.5,0,63.5,0s4.101,28.944,5.448,28.136c0,0,7.542-9.971,23.972-11.857
		c16.431-1.886,42.288-4.042,42.288-4.042l25.05-3.773l28.282-1.886l30.975-3.503l39.054-4.075"/>
	<path id="LH35" fill="none" stroke="#FFFFFF" stroke-linejoin="round" stroke-miterlimit="10" d="M0.021,235.385h12.255
		l9.966,4.851l10.505,2.425l8.35,2.695c0,0,8.08-1.886,11.043,0c2.963,1.886,12.121,4.042,13.198,4.042s14.006,2.425,14.006,2.425
		l21.009,2.156l24.241,2.425h11.313c0,0,0.539-4.851,0-6.737s-0.269-8.084,2.155-8.623s10.505,0.539,10.505,0.539l10.774,0.808
		c0,0,16.43,1.886,17.238,1.886s18.316,1.617,18.316,1.617h9.697l14.275,2.425l8.889,0.27l13.198,1.347l17.238,2.964l17.777,3.503
		l25.049,3.503l28.82,5.12l14.275,1.078l-6.195,33.145l-4.04,21.019h21.817l21.548-1.617l38.786-1.886
		c0,0,37.978-1.078,42.018-0.539l-14.006-64.943l42.827-1.886l1.886-14.013c0,0-0.539-2.695,4.848-2.695s26.127,2.964,26.127,2.964
		s17.777,1.078,17.239,2.425c-0.539,1.347-1.078,7.006-1.078,7.006l-0.539,16.708l19.393-1.886l14.275-2.156l11.851-2.156
		c0,0,15.622-5.12,16.7-5.12s10.235-1.886,10.235-1.886l9.966-2.695l11.851-2.695l8.889-3.234h10.505c0,0,5.387,1.078,7.542,1.078
		c2.155,0,10.774-0.808,10.774-0.808s8.889,0.808,9.966,0.808s19.124,1.617,20.471,1.617s12.929,0.808,12.929,0.808l9.966,1.078
		l17.777-0.539l15.353,0.539v14.552c0,0,19.932,0.27,28.551-0.27c8.619-0.539,66.529-4.851,66.529-4.851l1.347-11.318l62.22-16.977
		l42.827-12.935l1.078-6.737c0,0,1.078-2.425,9.966-1.347s31.244,5.389,31.244,5.389l36.093,5.12c0,0,4.31-0.808,1.347,8.623
		s-18.316,60.093-18.316,60.093l59.257-6.737l36.901-2.695l27.474-3.772c0,0,28.82,0,37.17,0.539s22.087,5.929,22.087,7.276"/>
	<path id="LH36" fill="none" stroke="#FFFFFF" stroke-linejoin="round" stroke-miterlimit="10" d="M0.021,235.259h12.255
		l9.966,4.851l10.505,2.425l8.35,2.695c0,0,8.08-1.886,11.043,0c2.963,1.886,12.121,4.042,13.198,4.042s14.006,2.425,14.006,2.425
		l21.009,2.156l24.241,2.425h11.313c0,0,0.539-4.851,0-6.737s-0.269-8.084,2.155-8.623s10.505,0.539,10.505,0.539l10.774,0.808
		c0,0,16.43,1.886,17.238,1.886s18.316,1.617,18.316,1.617h9.697l14.275,2.425l8.889,0.27l13.198,1.347l17.238,2.964l17.777,3.503
		l25.049,3.503l28.82,5.12l14.275,1.078l1.347-10.316l30.355-0.673l13.077-0.944l25.251-1.213c0,0,13.939-0.202,20.201-1.213
		l9.697-0.464l42.827-1.886l1.886-14.013c0,0-0.539-2.695,4.848-2.695s26.127,2.964,26.127,2.964s17.777,1.078,17.239,2.425
		c-0.539,1.347-1.078,7.006-1.078,7.006l-0.539,16.708l19.393-1.886l14.275-2.156l11.851-2.156c0,0,15.622-5.12,16.7-5.12
		s10.235-1.886,10.235-1.886l9.966-2.694l11.851-2.695l8.888-3.234h10.505c0,0,5.387,1.078,7.542,1.078
		c2.155,0,10.774-0.808,10.774-0.808s8.888,0.808,9.966,0.808s19.124,1.617,20.471,1.617s12.929,0.808,12.929,0.808l9.966,1.078
		l17.777-0.539l15.353,0.539l0.538-17.052c0,0,20.269-1.078,28.888-1.617s47.675-2.021,47.675-2.021l0.159,2.703l14.52-1.895
		l11.784-1.011l-1.124,17.365l56.207-15.336l42.827-12.935l1.078-6.737c0,0,1.078-2.425,9.966-1.347s31.244,5.389,31.244,5.389
		l36.093,5.12c0,0-0.539,0.8,14.612,0.8c9.882,0,19.191-1.415,19.191-1.415l44.039-3.436l30.1-1.617l29.292-1.213
		c0,0,4.522-0.202,15.824-0.202c1.886,0,0.107,6.216,1.741,6.57c1.404,0.305,1.425,0.504,11.121-2.124"/>
	<path id="LH37" fill="none" stroke="#FFFFFF" stroke-linejoin="round" stroke-miterlimit="10" d="M0.021,156.228l12.525,2.829
		l4.983,0.741l8.889,1.213l8.754,1.281l12.929,1.414l9.293,1.011l11.919,2.627H78.2c0,0,17.171,2.829,17.979,3.032
		c0.808,0.202,12.427,1.5,12.427,1.5l10.293,2.045l14.451,1.71l14.949,1.617l15.555,2.223l23.029,2.223l20.403,1.213l25.049,1.011
		L269.224,185l26.341,0.736h22.221h44.039l65.25-2.021l21.009,0.202c0,0,19.191,0.202,24.241,0.606s19.797,1.213,19.797,1.213
		h27.676h17.777l1.212,35.368h55.351v-36.379l22.827-1.213l50.099-4.042l50.099-5.255l18.989-2.425v-10.51l45.251-2.425
		l53.735-0.808l50.907-1.819l49.291-2.627l47.675-2.021h48.079l58.583-4.446l50.503-4.446h2.828v-12.531
		c0,0,24.236-3.347,56.563-1.751"/>
	<path id="LH38" fill="none" stroke="#FFFFFF" stroke-linejoin="round" stroke-miterlimit="10" d="M0.021,97.954l19.742,5.302
		l-0.147,13.308l13.939,1.869l13.198,1.617l11.582,2.425l12.659,1.886l0.733,8.36l14.35,0.802c0,0,13.737,1.954,14.545,2.156
		c0.808,0.202,18.316,3.773,18.316,3.773l-0.04,34.467l14.855,1.71l14.949,1.617l15.555,2.223l23.029,2.223l20.403,1.213
		l13.535,0.303l0.303-17.634l47.423,2.414l0.274,17.01l26.745,0.736h22.272l67.912-0.753l-0.288-19.12l39.606-0.782
		c0,0-0.211-2.536,0.09-4.759c0.26-1.924,0.828-3.596,3.171-3.408c5.05,0.404,46.827-1.021,46.827-1.021l19.191,2.257l19.426,1.653
		l22.643,1.48l0.758,24.455l1.212,35.368h55.351l-0.131-61.725l16.359-0.524l45.116-5.389l43.904-1.676l9.838,1.341l9.555-0.203
		h31.244l-0.278,7.647l32.062-1.719l53.735-0.808l50.907-1.819l49.291-2.627l47.675-2.021l43.337-6.063l0.567-12.665
		c0,0-0.399-10.708,0-13.878c0.309-2.458,6.064-2.645,6.064-2.645s47.693-3.264,48.411-5.069c0.521-1.31,0.45-4.116,0.45-4.116
		s-1.019-5.012,0.425-5.956c1.751-1.145,47.643-1.617,48.72-2.964c1.078-1.347-0.106-8.954,0.838-10.271
		c0.945-1.317,36.903-2.125,36.903-2.125s0.808-2.964,3.232-3.234c2.424-0.27,27.204,0,27.204,0"/>
	<path id="LH39" fill="none" stroke="#FFFFFF" stroke-linejoin="round" stroke-miterlimit="10" d="M0.021,84.48
		c0,0,51.042,23.444,60.738,27.217c9.697,3.773,60.065,20.278,60.065,20.278s40.402,11.385,54.409,14.349
		c14.006,2.964,46.597,9.027,68.415,11.318c17.219,1.808,76.765,6.063,103.43,4.177c26.666-1.886,72.879-4.565,110.433-20.076
		c33.438-13.811,35.285-15.36,47.944-22.905c12.659-7.545,24.982-16.236,34.14-20.008s21.885-6.265,28.349-6.265
		s17.609,0.096,40.672,10.509c30.65,13.84,37.305,20.076,58.718,26.139c17.539,4.966,33.803,11.857,63.028,11.588
		c30.167,0.808,65.721,0.27,65.721,0.27l43.635-1.617c0,0,31.783-2.156,43.904-3.773c12.121-1.617,31.783-4.042,42.288-5.659
		c16.785-2.583,16.737-2.848,53.466-10.105c0,0,42.557-10.24,45.52-11.318c2.962-1.078,56.832-16.506,57.91-17.044
		c1.078-0.539,45.217-16.236,50.604-18.392s41.379-15.63,41.379-15.63s18.316-7.276,24.78-7.545"/>
</g>
</svg>
