<?xml version="1.0" encoding="utf-8"?>
<!-- Generator: Adobe Illustrator 16.0.0, SVG Export Plug-In . SVG Version: 6.00 Build 0)  -->
<!DOCTYPE svg PUBLIC "-//W3C//DTD SVG 1.1//EN" "http://www.w3.org/Graphics/SVG/1.1/DTD/svg11.dtd">
<svg version="1.1" id="Layer_1" xmlns="http://www.w3.org/2000/svg" xmlns:xlink="http://www.w3.org/1999/xlink" x="0px" y="0px"
	 width="1700px" height="768px" viewBox="0 0 1700 768" enable-background="new 0 0 1700 768" xml:space="preserve">
<path fill="none" stroke="#000000" stroke-miterlimit="10" d="M1393.021,488.401c-0.213-0.638,0.212-13.112,0.212-13.112
	s1.058-1.693,4.651-1.693s16.497,0.849,16.497,0c0-0.846,2.749,1.06,4.229,0c1.479-1.056,3.596-0.234,5.074-0.224
	c1.481,0.012,3.386-0.432,4.441-0.316c1.059,0.116,3.596,0.06,4.654-0.019c1.057-0.076,1.479-0.56,2.326,0
	c0.846,0.559,2.96-0.264,2.96-0.264h2.538h6.558h6.133c0,0,1.061-1.674,2.538,0c1.48,1.669,3.383,1.032,4.229,1.032
	c0.849,0,2.963-0.847,4.021-0.847s2.325-1.44,3.595-0.931c1.271,0.509,1.904-0.939,2.961-0.109c1.061,0.829-0.635,0.196,1.061,0.829
	c1.689,0.634,11.633-0.21,12.268,0.211c0.635,0.423,6.77-0.421,7.401-0.211c0.634,0.211,7.825,0.846,8.46,0.846
	s10.998-1.056,15.648-1.056c4.653,0,10.576,0.21,10.576,0.21h8.459l2.75,0.211h1.903v22.631h-6.556l-0.637,6.979l-0.566,8.038
	h-2.604c0,0-1.043,0.93-1.9,1.27c-0.441,0.174-125.423,0.112-125.423,0.112s0.117-13.771-0.636-13.65
	c-1.164,0.188-6.553,0.102-8.186,0.24C1391.143,498.712,1393.021,488.401,1393.021,488.401z"/>
<path fill="none" stroke="#000000" stroke-miterlimit="10" d="M1390.146,499.257c-1.168,0-1.693,0.635-1.481,2.537
	c0.212,1.904-0.333,10.098,0.108,10.197c0.439,0.099,12.072,0,12.072,0v-12.592L1390.146,499.257z"/>
<path fill="none" stroke="#000000" stroke-miterlimit="10" d="M1532.812,496.232l11.021,0.204c0.105,1.609,0,13.96,0,13.96
	l-11.855,0.213L1532.812,496.232z"/>
<path fill="none" stroke="#000000" stroke-miterlimit="10" d="M1511.675,536.836c-0.423,0.845,1.479-0.635,4.651,0
	c3.174,0.635,4.02-0.732,5.289,0.268c1.268,1,2.113-1.212,3.596,0c1.48,1.214,1.48-0.464,3.172,0.271
	c1.691,0.729,8.473-0.148,9.522,0.185c1.052,0.334,4.437,0.114,4.437,0.114l8.461,0.071c0,0,2.326-1.118,2.326-1.965
	c0,0,1.691-24.746,0-25.169c-1.693-0.426-4.229-0.212-5.922,0s-15.229,0-15.229,0h-3.174l-1.9,1.27c0,0-15.137-0.156-15.288-0.156
	C1511.464,511.724,1511.675,536.836,1511.675,536.836z"/>
<path fill="none" stroke="#000000" stroke-miterlimit="10" d="M1511.562,564.542h27.605c0,0-1.468-12.479-1.264-14.171
	c0.206-1.692-1.342-10.432-1.342-11.489c0-1.059-0.76-0.562-0.76-0.562l-10.964-0.351l-1.564-0.229l-1.312,0.329l-2.426-0.329
	l-3.133-0.228l-0.947-0.158l-3.783,0.386L1511.562,564.542z"/>
<path fill="none" stroke="#000000" stroke-miterlimit="10" d="M1381.934,514.09l0.172,23.853h11.703h26.278
	c0,0,1.083-24.785,0-25.018c-1.224-0.262-38.153-0.477-37.81-0.229L1381.934,514.09z"/>
<path fill="none" stroke="#000000" stroke-miterlimit="10" d="M1393.809,561.81c0.115,0.573,0,1.376,1.492,2.064
	c1.493,0.689,24.99,0.459,24.99,0.459s0.409-25.015,0.205-25.475c-0.205-0.459-26.688-0.06-26.688-0.06L1393.809,561.81
	L1393.809,561.81z"/>
<path fill="none" stroke="#000000" stroke-miterlimit="10" d="M1380.843,572.597l-0.573,15.032c0,0-0.346,2.639,1.838,3.441
	c0.887,0.324,7.133,0.387,14.229,0.344c10.342-0.062,22.492-0.344,22.492-0.344s1.211,0.111,1.465-0.346
	c0.255-0.459-0.413-25.564-0.413-25.564l-36.511,0.003c0,0-2.41-0.151-2.524,1.799
	C1380.729,568.913,1380.843,572.597,1380.843,572.597z"/>
<path fill="none" stroke="#000000" stroke-miterlimit="10" d="M1393.619,594.811c-0.916,3.559-0.729,18.865-0.729,19.211
	c0,0.345-0.23,3.326,0.345,3.785c0.571,0.46,26.393-0.344,26.393-0.344c-0.458,0,0.006-24.672,0.006-24.672s-1.841-1.021-2.53-0.688
	c-0.688,0.331-22.721-0.677-22.721,0.114S1393.619,594.811,1393.619,594.811z"/>
<path fill="none" stroke="#000000" stroke-miterlimit="10" d="M1381.646,618.366c-0.459,0.704-0.236,17.686,0,23.65
	c0.026,0.698,0.229,1.38,1.378,2.526c1.146,1.146,36.045,0.802,36.608,0.571c0.568-0.229-0.447-26.75-0.447-26.75L1381.646,618.366
	L1381.646,618.366z"/>
<path fill="none" stroke="#000000" stroke-miterlimit="10" d="M1550.903,617.491v26.02l-36.491,0.689c0,0-2.18-0.459-2.41-1.493
	c-0.098-0.438,0.459-25.216,0.459-25.216H1550.903L1550.903,617.491z"/>
<path fill="none" stroke="#000000" stroke-miterlimit="10" d="M1512.576,591.139c0,0,25.357-0.158,25.014,0.288
	c-0.343,0.446,1.438,0.677,1.579,2.168c0.146,1.49,0,22.949,0,22.949h-24.872c0,0-2.088-0.802-2.307-2.754
	C1511.773,611.841,1512.576,591.139,1512.576,591.139z"/>
<path fill="none" stroke="#000000" stroke-miterlimit="10" d="M1511.562,565.201c-0.22-0.115,34.863,0.051,34.863,0.051
	s4.019-0.229,4.479,1.72c0.458,1.952,0,22.836,0,22.836c0,0.807,0,0.807,0,0.807h-38.644L1511.562,565.201z"/>
<path fill="none" stroke="#000000" stroke-miterlimit="10" d="M1102.23,485.309l0.766-8.875c0,0,0.061-2.144,1.436-2.144
	c1.379,0,57.621-0.456,57.621-0.456h40.854h6.271c0,0,0.963-0.164,2.921,0.61c1.882,0.74,2.126-0.458,3.046-0.61
	c0.918-0.153,24.48,0,24.48,0s1.835-1.512,1.988-0.068c0.15,1.445,1.525,18.338,1.525,18.338s0.314,1.734,0,2.457
	c-0.475,1.099-0.456,2.989-0.456,2.989h-5.661l-0.766,15.3l-14.439,0.458c-7.732,0-11.133,0-11.133,0l-97.593,1.227
	c0,0-1.989-0.001-1.989-0.612s-0.459-5.05-0.459-5.05s-1.224-1.988-0.916-3.977c0.308-1.99,0.457-10.101,0.457-10.101h-5.66
	c0,0-2.754-1.223-2.293-1.835C1102.689,492.347,1102.23,485.309,1102.23,485.309z"/>
<path fill="none" stroke="#000000" stroke-miterlimit="10" d="M1093.968,498.467c0,0,0,5.354,0,6.73c0,1.378,0,9.335,0,9.335h17.136
	l-0.459-5.662c0,0-0.834-0.764-0.875-2.371c-0.041-1.604,0.416-11.704,0.416-11.704h-15.299
	C1094.887,494.795,1093.968,497.091,1093.968,498.467z"/>
<path fill="none" stroke="#000000" stroke-miterlimit="10" d="M1236.258,512.85l9.146-0.787l0.494-1.451V499.08
	c0,0-1.989-1.528-3.213-1.528c-1.227,0-5.662,0-5.662,0L1236.258,512.85z"/>
<path fill="none" stroke="#000000" stroke-miterlimit="10" d="M1087.849,540.695l-0.766-0.767v-14.383l0.383-9.334
	c0,0-0.229-1.682,1.3-1.682c1.53,0,37.791,0,37.791,0v26.163h-26.928L1087.849,540.695L1087.849,540.695z"/>
<path fill="none" stroke="#000000" stroke-miterlimit="10" d="M1099.323,566.551c0,0,0.608,0.459,1.527,0
	c0.918-0.457,1.686,0,2.757,0c1.068,0,2.905-1.223,3.211-0.764c0.307,0.458,1.378,0.559,2.603,0.432
	c1.226-0.125,2.294-0.021,3.366,0.536c1.07,0.562,2.141-0.102,3.52,0c1.379,0.104,4.74,0.229,4.74,0.229h6.275l-0.767-26.288
	h-26.929L1099.323,566.551z"/>
<path fill="none" stroke="#000000" stroke-miterlimit="10" d="M1087.083,566.983l-0.766,25.425c0,0-0.001,1.378,0.766,1.378
	c0.278,0,5.595,0,12.241,0c11.594,0,27.23,0,27.23,0l0.768-26.803l-7.057-0.031l-4.706-0.188l-2.237,0.22l-2.221-0.763
	c0,0-2.355,0.438-3.319,0c-0.964-0.436-4.177,0.328-4.177,0.328l-1.429-0.171l-2.854,0.171l-6.121,0.435c0,0-1.376-0.485-2.144,0
	C1090.296,567.47,1087.083,566.983,1087.083,566.983z"/>
<path fill="none" stroke="#000000" stroke-miterlimit="10" d="M1099.323,619.338c0,0,0.458,1.376,1.068,1.376
	c0.612,0,3.216-0.46,4.284,0c1.071,0.459,4.743,0,4.743,0l16.523,0.203l0.61-27.131h-27.23L1099.323,619.338L1099.323,619.338z"/>
<path fill="none" stroke="#000000" stroke-miterlimit="10" d="M1086.317,620.917c0,0-0.917,1.327-0.767,2.397
	c0.152,1.068-0.018,22.029-0.018,22.029s0.782,1.531,2.16,2.146c0.688,0.306,10.401,0.306,19.945,0.229
	c9.546-0.077,18.914-0.229,18.914-0.229l-0.61-26.572h-31.671H1086.317L1086.317,620.917z"/>
<path fill="none" stroke="#000000" stroke-miterlimit="10" d="M1218.062,619.834l35.271-0.529c0,0,0.639-0.105,2.168,0.962
	c1.531,1.072,1.783,20.031,1.783,20.031s0.696,3.212-1.75,4.896c-2.447,1.684-36.873,0.61-36.873,0.61s-1.069,1.227-0.611-2.905
	C1218.512,638.767,1218.062,619.834,1218.062,619.834z"/>
<path fill="none" stroke="#000000" stroke-miterlimit="10" d="M1244.095,591.95l-26.157,0.612v25.969c0,0,0.576,0.796,1.648,0.771
	c1.075-0.021,24.133-0.337,24.133-0.337s0.257-0.395,0.376-1.771C1244.213,615.818,1244.095,591.95,1244.095,591.95z"/>
<path fill="none" stroke="#000000" stroke-miterlimit="10" d="M1217.938,570.296c0.062,0.27,0,20.771,0,20.771
	s0.334,0.315,1.135,0.886c0.801,0.564,37.373-0.669,37.373-0.669V568.83c0,0-0.146-3.014-1.375-2.869
	c-1.229,0.146-35.275,0.432-35.275,0.432S1217.599,568.852,1217.938,570.296z"/>
<path fill="none" stroke="#000000" stroke-miterlimit="10" d="M1217.938,539.381l-0.033,26.146c0,0,26.353,0.145,25.996,0
	c-0.355-0.146,0.25-26.146,0.25-26.146H1217.938z"/>
<path fill="none" stroke="#000000" stroke-miterlimit="10" d="M1217.902,520.585c0,0-0.374,17.927,0,18.071
	c0.373,0.145,37.021,0,37.021,0s1.086-23.165,0.868-24.124c-0.217-0.96-1.734,0.125-4.048-0.67
	c-2.312-0.796-5.572-1.651-6.151-0.932c-0.578,0.726-27.545,1.002-27.688,1.146C1217.757,514.224,1217.902,520.585,1217.902,520.585
	z"/>
<path fill="none" stroke="#000000" stroke-miterlimit="10" d="M788.229,487.267c-0.268,0.403,0-11.808,0-11.808
	s38.111-0.268,40.526,0c2.415,0.269,18.652-0.372,18.921-0.118c0.271,0.253,2.953,4.146,4.832,3.876
	c1.878-0.269,2.952-1.074,3.756-1.88c0.808-0.805,7.112-0.402,7.112-0.402s-0.134-2.549,0-2.146s7.647,0.806,7.647,0.806v1.477
	c0,0,2.282,0.671,4.296,0.806s3.086,0.403,3.221-0.402c0.134-0.806,0-2.727,0-2.727l34.354,1.117v23.348c0,0-8.188-0.806-8.455,0
	c-0.271,0.807-0.136,15.702-0.536,15.97c-0.403,0.271-49.384,0.807-49.384,0.807s-48.039,0.4-48.578,0
	c-0.534-0.402-11.137,0.179-11.137,0.179s0.535-12.121-0.535-12.793c-1.074-0.671-6.709-0.939-6.709-0.939L788.229,487.267z"/>
<path fill="none" stroke="#000000" stroke-miterlimit="10" d="M770.82,516.163l-2.857,1.697l-0.533,22.548c0,0,0,0.938,1.074,1.743
	c1.074,0.807,20.934,0,20.934,0l17.444,0.356v-26.445c0,0-16.102,0.145-19.322,0.101C784.338,516.118,770.82,516.163,770.82,516.163
	z"/>
<path fill="none" stroke="#000000" stroke-miterlimit="10" d="M780.85,551.68v16.104c0,0,0.535,0.537,1.342,1.208
	c0.807,0.669,24.69-0.537,24.69-0.537V542.51c0,0-10.331,0.269-11.675,0c-1.343-0.268-14.357-0.089-14.357-0.089V551.68z"/>
<path fill="none" stroke="#000000" stroke-miterlimit="10" d="M767.43,575.296c-0.135,0.402-0.135,16.907,0,17.981
	c0.135,1.072,0.939,2.549,2.016,2.415c1.07-0.137,23.078,0.009,23.078,0.009h11.943c0,0,2.549-0.947,2.415-2.021
	c-0.135-1.072,0-25.229,0-25.229l-39.553,0.74L767.43,575.296z"/>
<path fill="none" stroke="#000000" stroke-miterlimit="10" d="M780.85,608.307c-0.135-0.135,0,13.284,0,13.284
	s0.535,0.402,1.609,0.537c1.074,0.134,24.423,0,24.423,0s0.134-24.021,0-24.288c-0.135-0.269-0.671-2.139-2.415-2.139
	c-1.745,0-22.546,0.049-22.143,0c0,0-1.342,0.259-1.477,1.602C780.715,598.644,780.85,608.307,780.85,608.307z"/>
<path fill="none" stroke="#000000" stroke-miterlimit="10" d="M767.329,631.252v16.775c0,0,2.159-0.022,5.469-0.053
	c10.879-0.094,34.189-0.258,34.144,0.053c-0.06,0.4-0.06-25.899-0.06-25.899h-32.608l-6.942,0.062L767.329,631.252L767.329,631.252z
	"/>
<path fill="none" stroke="#000000" stroke-miterlimit="10" d="M771.29,508.565v7.497h23.521c0,0,0.205-6.048,0-8.989
	c-0.207-2.943,0.162-3.441-0.541-3.703c-0.705-0.261-5.464-0.902-6.709-0.939c-1.242-0.037-7.631,0.44-10.418,0.626
	c-3.438,0.229-6.426,0.229-6.426,0.229L771.29,508.565z"/>
<path fill="none" stroke="#000000" stroke-miterlimit="10" d="M909.105,516.062c0,0,14.459,0.154,14.112,0
	c-0.344-0.152,0.008-16.448,0.008-16.448l-15.269-0.739c0,0-3.443-0.423-3.521,0.335c-0.075,0.759-0.535,15.97-0.535,15.97
	L909.105,516.062z"/>
<path fill="none" stroke="#000000" stroke-miterlimit="10" d="M896.598,521.073c-0.113,0.459-0.229,8.95,0.574,9.294
	s36.261,0,36.261,0s0.806-14.01,0-14.234c-0.804-0.223-25.016-0.067-25.016-0.067l-4.515-0.886c0,0-7.574,0.233-7.388,0.229
	C896.705,515.406,896.598,521.073,896.598,521.073z"/>
<path fill="none" stroke="#000000" stroke-miterlimit="10" d="M896.513,534.153v6.542c0,0,1.35-0.459,3.757,0
	c2.41,0.458,2.41,0.458,2.41,0.458l1.225,1.209c0,0,10.137,0.062,12.663,0c2.521-0.062,14.111,0.025,14.111,0.025
	s1.491,0.144,2.182-0.893c0.688-1.031,0.932-8.949,0.932-8.949s0.104-1.916-2.423-2.028c-2.526-0.11-17.132-0.018-17.806-0.015
	c-0.669,0.003-16.392-0.138-16.392-0.138L896.513,534.153z"/>
<path fill="none" stroke="#000000" stroke-miterlimit="10" d="M896.513,547.007l0.544,9.408c0,0,8.724,0.115,9.523,0
	c0.804-0.114,0.689-13.905,0.689-13.905l-3.367-0.146l-1.225-1.209c0,0-2.379-0.554-3.43-0.606
	c-1.048-0.054-2.737,0.148-2.737,0.148L896.513,547.007L896.513,547.007z"/>
<path fill="none" stroke="#000000" stroke-miterlimit="10" d="M897.057,561.694v6.758c0,0,8.724-0.446,12.279-0.562
	c3.559-0.112,8.261,1.123,9.293,0.562c1.034-0.562,2.41-1.365,2.525-1.824c0.113-0.458,0.229-24.714,0-24.118
	c-0.23,0.597-13.885,0-13.885,0s0.181,6.461,0.005,8.515c-0.175,2.051-0.694,5.393-0.694,5.393h-9.523V561.694L897.057,561.694z"/>
<path fill="none" stroke="#000000" stroke-miterlimit="10" d="M897.057,580.627c0,0,0,12.396,0,12.164s0,2.18,0,2.18h14.918h0.92
	l20.896-0.57c0,0,0.791-0.229,0.791-5.854s0-19.354,0-19.354s-0.229-1.531-1.378-1.646s-7,0-7,0s-2.294,1.354-2.753,0.905
	c-0.46-0.446-2.732-1.305-2.732-1.305l-2.089,1.305c0,0-7.567-0.537-7.912-0.547c-0.344-0.013-13.659,0.547-13.659,0.547v12.176
	H897.057z"/>
<path fill="none" stroke="#000000" stroke-miterlimit="10" d="M897.057,605.07c-0.113,0.344,0,15.835,0,15.835
	s24.362-0.115,24.229,0c-0.132,0.114,0.001-23.181,0.001-23.181s-0.699-2.589-1.509-2.756c-0.812-0.164-22.724,0-22.724,0
	L897.057,605.07L897.057,605.07z"/>
<path fill="none" stroke="#000000" stroke-miterlimit="10" d="M897.005,629.396c0.052,2.866-0.752,17.672-0.752,17.672
	s18.819,0.113,22.032,0c3.213-0.114,15.262,1.021,16.296,0.052c1.031-0.971,0.571-24.798,0.687-24.933
	c0.116-0.137-0.916-1.514-1.947-1.282c-1.033,0.229-22.076,0-22.076,0h-14.188L897.005,629.396z"/>
<path fill="none" stroke="#000000" stroke-miterlimit="10" d="M106.164,621.029v19.132c0,0-0.177,4.099,1.394,4.438
	c2.367,0.511,13.63,0.429,13.63,0.429h13.618l0,0c0,0,3.135-0.111,4,0c1.505,0.189,4,0,4,0c1.262,0.084,3.242,0,3.242,0v-23.672
	c0,0-2.809-0.648-3.134-0.324s-4.865-0.16-6.81-0.16s-7.35,0.017-7.35,0.017s-11.024-0.037-11.565,0
	C116.648,620.922,106.164,621.029,106.164,621.029z"/>
<path fill="none" stroke="#000000" stroke-miterlimit="10" d="M120.539,600.226l0.05,20.482h17.676l4.648,0.161h3.134v-26.371
	h-13.726c0,0-7.144-0.224-8.971-0.01c-1.902,0.225-2.27-0.207-2.811,0.656C119.999,596.01,120.539,600.226,120.539,600.226z"/>
<path fill="none" stroke="#000000" stroke-miterlimit="10" d="M110.271,580.338v11.456c0,0,0,2.394,1.405,2.604
	c1.405,0.209,26.265,0,26.265,0l8.106,0.102v-26.374c0,0-15.132-0.541-17.401-0.541c-2.27,0-18.05,0.324-18.375,0.648
	C109.947,568.557,110.271,580.338,110.271,580.338z"/>
<path fill="none" stroke="#000000" stroke-miterlimit="10" d="M121.404,553.965c0,0-0.104,13.488,0,13.618s14.375,0,14.375,0
	l10.268,0.541l-0.433-14.159H121.404z"/>
<path fill="none" stroke="#000000" stroke-miterlimit="10" d="M121.358,545.858l0.046,8.104h24.21l0.433-12.104
	c0,0,0.216-1.188-0.865-1.403c-1.08-0.217-14.59,0-14.59,0l-9.233-0.097L121.358,545.858L121.358,545.858z"/>
<path fill="none" stroke="#000000" stroke-miterlimit="10" d="M110.92,524.674c0,0-0.216,11.674,0,12.646
	c0.215,0.972,0.647,2.509,1.837,3.038c1.189,0.526,15.33,0.068,15.33,0.068l17.96-0.068v-25.412h-21.941h-13.282L110.92,524.674z"/>
<path fill="none" stroke="#000000" stroke-miterlimit="10" d="M251.473,621.479h21.229c0,0,0.918,0.115,1.263,1.38
	c0.344,1.262,0,17.213,0,17.213l0.153,5.621c0,0-0.154,0.65-1.645,1.378c-1.491,0.726-12.623,0.726-12.623,0.726h-23.638V621.48
	h15.261V621.479z"/>
<path fill="none" stroke="#000000" stroke-miterlimit="10" d="M236.212,604.727v-9.756h22.95c0,0,1.606,1.148,1.721,2.184
	c0.115,1.033,0,11.476,0,11.476s-1.147,1.49-0.689,2.868c0.459,1.376,0.791,2.639,0.74,3.672c-0.051,1.033,0.005,6.312,0.005,6.312
	h-24.727V604.727z"/>
<path fill="none" stroke="#000000" stroke-miterlimit="10" d="M236.212,577.988c-0.345-0.229,0,16.035,0,16.51
	c0,0.473,24.389,0.234,25.359,0.473c1.948,0.482,4.016,0.574,5.279,0.919c1.262,0.346,4.705-0.919,4.705-0.919
	s-0.131-16.87,0-17.557c0.306-1.605-0.804-6.081-0.804-6.081s0-1.378-1.492-2.064c-1.492-0.688-15.3,0-15.3,0
	s-9.256-0.269-9.601-0.307c-0.344-0.038-8.3,0-8.3,0L236.212,577.988z"/>
<path fill="none" stroke="#000000" stroke-miterlimit="10" d="M236.212,558.367l-0.153,10.595c0,0,12.203,0.137,13.123,0.164
	c0.922,0.028,11.757-0.181,11.757-0.181v-15.857c0,0-9.925,0.605-13.94,0.877c-4.017,0.271-10.787,0-10.787,0V558.367
	L236.212,558.367z"/>
<path fill="none" stroke="#000000" stroke-miterlimit="10" d="M236.059,542.416c0.039,0.345,9.562,0,10.365,0
	c0.804,0,12.738,0,12.738,0s1.375-0.114,1.777,1.033c0.403,1.146,0,9.639,0,9.639l-14.974,0.935l-9.753-0.058L236.059,542.416z"/>
<path fill="none" stroke="#000000" stroke-miterlimit="10" d="M236.059,527.778c-0.077-0.512,0,14.638,0,14.638s11.972,0,13.923,0
	c1.951,0,15.835-0.118,19.393-0.003c3.557,0.115,6.197-0.801,6.197-0.801l0.573-23.293c0,0-0.229-3.417-1.721-3.373
	c-1.492,0.045-5.623-0.234-5.623-0.234s-3.668,0.35-4.59,0.396c-0.762,0.035-3.092-0.386-3.092-0.386l-2.187,0.226
	c0,0-6.425,0.527-8.491,0c-2.066-0.528-3.787,0-4.361,0c-0.514,0-1.817,0.254-3.443,0.159c-1.104-0.062-2.753,0.024-3.213-0.159
	c-0.459-0.187-3.399,0.504-3.399,0.504L236.059,527.778z"/>
<path fill="none" stroke="#000000" stroke-miterlimit="10" d="M98.724,504.389l0.389,10.56c0,0,6.492,0.173,8.309,0
	c1.817-0.172,3.635,0,5.193,0c1.558,0,29.08,0.077,29.08,0.077l48.035,0.658c0,0,29.858,0,32.196,0
	c2.336,0,14.099-0.231,14.099-0.231s2.338-0.622,3.399-0.504c1.061,0.119,5.3,0.173,6.656,0c1.355-0.172,4.295,0.12,5.589,0.175
	c1.294,0.056,8.294-0.175,8.294-0.175l1.154-0.226c0,0-0.404-7.219,0-7.865c0.404-0.65-3.751-1.301-3.751-1.301
	s-0.749-3.246-1.283-3.246c-0.535,0-17.801,0.262-18.19,0c-0.39-0.26-25.445,0-25.445,0s-33.364-1.297-33.494-1.687
	s-40.895-1.819-40.895-1.819l-25.056,1.432l-2.876-1.432c0,0-2.705-0.13-4.912,0c-2.208,0.131-5.712-0.895-5.842-0.058
	c-0.13,0.838-1.168,2.914-0.649,3.304C99.244,502.44,98.724,504.389,98.724,504.389z"/>
<path fill="none" stroke="#000000" stroke-miterlimit="10" d="M1403.182,244.182h79.406c0,0,0.613,1.225,1.529,1.225
	c0.918,0,3.825-0.612,3.825-0.612l29.836-0.612c0,0,1.989,1.071,3.672,1.225c1.683,0.154,5.812-0.612,5.812-0.612
	s1.379-0.572,1.379,0.633c0,1.203,0.918,29.661,0.918,29.661s0.153,1.529-0.766,1.989c-0.919,0.459-107.253,0-107.253,0
	l-16.065,0.203c0,0-2.293-0.203-2.293-1.58S1403.182,244.182,1403.182,244.182z"/>
<path fill="none" stroke="#000000" stroke-miterlimit="10" d="M1380.536,277.28h40.239v30.396h-24.938h-13.616
	c0,0-1.53-0.151-1.685-1.989C1380.383,303.852,1380.536,277.28,1380.536,277.28z"/>
<path fill="none" stroke="#000000" stroke-miterlimit="10" d="M1394.459,308.747c-0.07,0.822,0,22.799,0,22.799
	s-0.152,2.294,0.918,2.753c1.072,0.459,24.696,0.461,24.696,0.461l0.702-27.083h-24.938
	C1395.837,307.677,1394.538,307.827,1394.459,308.747z"/>
<path fill="none" stroke="#000000" stroke-miterlimit="10" d="M1369.215,333.993v22.644l50.796,0.918l0.062-22.795l-16.437-0.111
	c0,0-4.437,0.268-7.496,0.111c-3.06-0.153-6.426-0.92-7.956-0.767c-1.528,0.15-4.739-0.346-5.659-0.021
	c-0.92,0.325-3.367-0.453-5.051-0.148s-4.132-0.248-5.049,0.037C1371.51,334.146,1369.215,333.993,1369.215,333.993z"/>
<path fill="none" stroke="#000000" stroke-miterlimit="10" d="M1395.53,362.757v18.513c0,0,0,2.553,1.378,3.111
	c1.376,0.562,23.165,0,23.165,0l-0.062-26.826h-20.429c0,0-3.745-0.971-4.052,0.815
	C1395.225,360.156,1395.53,362.757,1395.53,362.757z"/>
<path fill="none" stroke="#000000" stroke-miterlimit="10" d="M1379.093,390.449l0.065,15.835h40.915v-21.903l-37.547,0.249
	c0,0-3.315-0.799-3.368,0.373C1379.068,387.083,1379.093,390.449,1379.093,390.449z"/>
<path fill="none" stroke="#000000" stroke-miterlimit="10" d="M1511.811,292.479v12.597c0,0-0.582,2.162,2.757,1.988
	c0.608-0.031,1.835-0.918,2.904-0.767c1.071,0.153,2.296,0.767,2.296,0.767h13.771c0,0,1.577,0.325,2.188,0.174
	c0.613-0.154,2.096-0.632,2.096-0.632l6.121,0.15c0,0,1.986,0.153,2.753-0.609c0.766-0.769,0.731-1.429,1.354-2.104
	c1.835-1.99-1.648-4.384-1.648-4.384l-1.85-14.781c0,0,1.142-1.963,0.918-3.365c-0.227-1.427-2.444-4.151-3.52-4.234
	c-2.664-0.205-4.738,0.429-6.115,1.959c-1.378,1.529-3.263,1.06-4.441,0.438c-0.428-0.226-1.438-2.23-2.667-2.158
	c-1.229,0.072-16.008,0.05-16.008,0.05s-0.909,0.397-0.909,1.314C1511.811,279.803,1511.811,292.479,1511.811,292.479z"/>
<path fill="none" stroke="#000000" stroke-miterlimit="10" d="M1511.811,333.075h13.158c0,0,0.612-0.768,1.377-0.612
	c0.767,0.152,1.377,0.612,1.377,0.612h7.803c0,0,1.377,0.877,1.529-0.633c0.152-1.512-0.497-24.61-0.497-24.61l-2.966-0.135h-14.354
	c0,0-1.909-1.455-2.87-0.533c-1.482,1.424-4.558,0.133-4.558,0.133v3.916V333.075z"/>
<path fill="none" stroke="#000000" stroke-miterlimit="10" d="M1511.811,355.719h33.66c0,0,4.896,0.459,6.119-2.754
	c1.227-3.213-0.305-19.637-0.305-19.637l-39.475-0.253V355.719L1511.811,355.719z"/>
<path fill="none" stroke="#000000" stroke-miterlimit="10" d="M1511.811,382.646h25.857c0,0,1.07-0.153,1.07-1.07
	c0-0.919,0-25.835,0-25.835l-26.928-0.022V382.646L1511.811,382.646z"/>
<polygon fill="none" stroke="#000000" stroke-miterlimit="10" points="1511.811,407.433 1551.285,408.35 1551.285,382.646 
	1511.811,382.646 "/>
<path fill="none" stroke="#000000" stroke-miterlimit="10" d="M1109.711,272.124v-15.319c0,0,2.783-1.497,2.486-3.765
	c-0.241-1.853,0.064-3.611-1.209-5.881c-1.277-2.27-1.377-6.526,0.229-7.093c1.611-0.567,15.229,0.566,20.62,0
	c5.391-0.567,16.737-0.327,18.725-0.164c1.985,0.164,3.123-0.55,5.392-0.192c2.269,0.356,3.12-0.276,5.956-0.103
	c2.838,0.175,55.604-0.023,55.604-0.023s3.123,0.355,5.678-0.007c2.554-0.362,6.522,0,6.522,0s3.974-1.213,4.824,1.908
	c0.853,3.12-0.284,9.646,0,11.632c0.283,1.984,0.078,4.254,0.322,6.809c0.245,2.553-0.244,4.822,0,7.376
	c0.245,2.553,0.068,4.822,0.068,4.822s1.363,3.121,0.062,3.688c-1.307,0.568-108.544,1.46-108.544,1.46h-4.823l-2.553-1.176
	l-1.418,1.176h-7.943c0,0-1.136-0.609-1.136-1.744C1108.575,274.395,1109.711,272.124,1109.711,272.124z"/>
<path fill="none" stroke="#000000" stroke-miterlimit="10" d="M1087.015,295.104h13.052h25.814l0.567-17.832h-5.957l-1.419-1.176
	l-1.418,1.176h-7.943c0,0-1.136,1.093-2.979-1.176c-1.846-2.27-7.518,0.851-9.504,0c-1.984-0.852-9.078,0.083-10.213,1.176
	c-1.137,1.093,0.565,5.917,0,6.768C1086.447,284.892,1087.015,295.104,1087.015,295.104z"/>
<path fill="none" stroke="#000000" stroke-miterlimit="10" d="M1100.348,319.22c0,0,1.418,1.134,4.256,1.418
	c2.84,0.283,3.121-1.702,5.959-1.418c2.839,0.282,15.888,0.708,15.888,0.708l-0.567-24.823c0,0-25.249,0.566-25.533,1.418
	C1100.064,297.374,1100.348,319.22,1100.348,319.22z"/>
<path fill="none" stroke="#000000" stroke-miterlimit="10" d="M1086.614,319.22v31.49c0,0,9.511,0.567,13.606,0
	c4.1-0.568,26.512-1.197,26.228,0.252s-1.138-31.072-1.138-31.072l-16.735-0.439c0,0-1.829,1.614-3.972,1.188
	c-2.145-0.426-4.258-1.418-4.258-1.418H1086.614z"/>
<path fill="none" stroke="#000000" stroke-miterlimit="10" d="M1100.223,359.788c0,0-0.41,11.349,0,11.349
	c0.409,0,0.012,5.674,6.312,5.674c6.298,0,5.446,0,8.851,0c3.405,0,11.064,1.418,11.064,1.418v-27.267c0,0-22.937-0.535-23.825-0.47
	c-0.892,0.063-2.766-1.484-2.584,3.905C1100.223,359.788,1100.223,359.788,1100.223,359.788z"/>
<path fill="none" stroke="#000000" stroke-miterlimit="10" d="M1089.285,378.229v29.817h28.551h2.604h2.141h3.87v-29.817
	c0,0-8.479-2.674-9.345-1.337c-0.867,1.337-0.62,1.337-3.865,1.337c-3.243,0-4.778-2.554-6.705-1.418
	c-1.93,1.137-3.062,0.567-4.482,1.418c-1.419,0.853-5.957-2.284-6.809-1.71C1094.391,377.094,1089.285,378.229,1089.285,378.229z"/>
<path fill="none" stroke="#000000" stroke-miterlimit="10" d="M1218.652,300.778h28.369c0,0,1.128-2.06,3.447-1.308
	c2.316,0.749,3.844-0.362,6.197-0.258c3.104,0.141,1.135-23.963,1.135-23.963l-25.547,0.72l-13.604,0.29L1218.652,300.778
	L1218.652,300.778z"/>
<path fill="none" stroke="#000000" stroke-miterlimit="10" d="M1218.652,326.312h22.979c0,0,2.488-25.649,1.119-25.704
	c-1.37-0.057-24.381-0.284-24.098,0.171S1218.652,326.312,1218.652,326.312z"/>
<path fill="none" stroke="#000000" stroke-miterlimit="10" d="M1218.652,358.37h38.105c0,0,0.121-1.13,0.367-4.506
	c1.467-20.12,0.09-29.512,0.188-31.807c0.062-1.395-5.91,0.151-5.91,0.151s-2.9,0.438-5.229,0.681
	c-2.131,0.223-4.155-0.852-4.257,0.301c-0.102,1.151-0.289,3.119-0.289,3.119h-22.979v32.061H1218.652L1218.652,358.37z"/>
<path fill="none" stroke="#000000" stroke-miterlimit="10" d="M1218.652,383.792l26.192,1.211c0,0,0-5.263-0.379-8.557
	c-0.329-2.867,0-8.434,0-9.282c0-0.854,0.379-8.794,0.379-8.794h-26.192V383.792z"/>
<path fill="none" stroke="#000000" stroke-miterlimit="10" d="M1218.203,406.031c1.138,0.565,39.883,0,39.883,0l-0.498-19.009
	c0,0,0.15-1.732-2.971-1.622c-3.121,0.109-35.114-2.12-35.965-0.308C1217.801,386.909,1218.203,406.031,1218.203,406.031z"/>
<path fill="none" stroke="#000000" stroke-miterlimit="10" d="M787.156,256.85c0,0-0.376-10.634,0.151-12.821
	c0.614-2.54,2.64-5.96,4.159-6.468c1.524-0.508,35.71-0.897,38.96-0.748c2.835,0.131,50.127,0.494,53.427,0.494
	c3.301,0,14.489,0.021,17.789,0.274s9.62,0.741,11.651,2.518c2.03,1.777,3.808,4.822,3.808,8.629c0,3.808,0,15.482,0,15.482
	s-0.143,6.997,0,9.391c0.177,3.019-2.093,3.966-5.642,3.788c-2.834-0.143-26.204,0.236-26.204,0.236h-50.924l-47.202-0.415
	L787.156,256.85z"/>
<path fill="none" stroke="#000000" stroke-miterlimit="10" d="M766.778,281.163l0.198,6.896c0,0,0.158,4.724,0.258,6.074
	c0,0-0.008,5.625,0.459,6.56c0.466,0.932,6.233,0.833,6.233,0.833s5.89,0.106,9.794,0c6.71-0.186,23.644,0,23.644,0
	s0.14-12.279-0.018-16.788c-0.153-4.509,0.018-7.351,0.018-7.351s-22.557,0.274-23.021,0.237s-9.146-0.116-11.502-0.237
	c-2.321-0.118-4.469-0.178-5.703,0.786C766.636,278.563,766.778,281.163,766.778,281.163z"/>
<path fill="none" stroke="#000000" stroke-miterlimit="10" d="M782.384,311.949c-0.161,0.319-0.537,14.494,0,15.188
	c0.536,0.698,2.179,0.297,2.984,0.244c0.806-0.054,13.87,0.47,13.87,0.47s6.014,0.542,7.031,0.007
	c1.021-0.537,0.759-1.146,0.752-2.385c-0.011-1.933,0.432-23.271,0.398-23.511c-0.058-0.438-17.521-0.516-17.521-0.516l-7.408,0.123
	L782.384,311.949z"/>
<path fill="none" stroke="#000000" stroke-miterlimit="10" d="M767.082,343.69c0.23,0.383-0.742,9.861,0,10.264
	c1.225,0.66,10.061,0.604,11.208,0.451c1.147-0.153,12.433-0.348,14.114-0.409c1.684-0.062,14.229-0.059,14.229-0.059l0.459-20.27
	c0,0,0.459-3.825,0-4.284c-0.459-0.46-2.986-1.563-5.354-1.453c-3.48,0.164-15.822-0.292-16.145-0.312
	c-1.146-0.073-10.074,0.124-11.016,0c-1.3-0.172-7.27,0.542-7.27,0.542L767.082,343.69z"/>
<path fill="none" stroke="#000000" stroke-miterlimit="10" d="M780.127,366.964c-0.115,0.344,0.459,16.523,0.917,16.753
	c0.459,0.229,10.328,0.344,12.049,0c1.725-0.344,13.312,0.218,13.312,0.218s0.229-30.741,0.229-29.997
	c0,0.748-14.229,0.061-14.229,0.061s-12.536-0.021-12.292,0.508C780.355,355.029,780.127,366.964,780.127,366.964z"/>
<path fill="none" stroke="#000000" stroke-miterlimit="10" d="M768.192,383.935c0,0,0.229,8.618,0,10.685
	c-0.229,2.065-0.115,10.213,0,10.899c0.112,0.689-0.173,2.648,0.46,3.101c1.146,0.821,9.716,0.459,11.456,0.688
	c1.736,0.23,15.05,0.115,17.001,0c1.948-0.113,7.345,0.115,8.263-0.459c0.917-0.571,1.262-2.294,1.262-2.294
	c-0.229-1.034,0.562-22.581-0.229-22.618c-0.789-0.034-13.312-0.218-13.312-0.218s-10.526-0.353-12.049,0
	C780.107,383.935,768.192,383.935,768.192,383.935z"/>
<path fill="none" stroke="#000000" stroke-miterlimit="10" d="M896.724,294.725c-0.284-0.057,0.344,8.703,0,8.647
	c-0.341-0.057,17.864-0.229,17.809,0.001c-0.059,0.226,14.165,0,14.165,0l5.688,0.1c0,0,0.568-0.101,0.738-0.841
	c0.171-0.739-0.047-19.683,0-20.708c0.086-1.877-0.17-4.322-2.047-4.55c-1.877-0.229-12.971,0-12.971,0l-23.459,0.088
	L896.724,294.725z"/>
<path fill="none" stroke="#000000" stroke-miterlimit="10" d="M896.383,316.173c-0.171,0.059-0.113,11.266,0,11.776
	s0.341,0.909,0.967,1.535c0.646,0.645,9.898,0.354,13.824,0.3c0.688-0.01,10.297,0.099,10.639-0.356
	c0.343-0.455,0.514-13.994,0.514-13.994s0.512-8.702,0.283-8.932c-0.229-0.228-1.31-2.317-3.354-2.675
	c-2.049-0.356-12.289-0.354-12.289-0.354l-10.24-0.101L896.383,316.173z"/>
<path fill="none" stroke="#000000" stroke-miterlimit="10" d="M896.273,338.757c0.291-0.227-0.278,16.498,0,17.066
	c0.277,0.566,17.688,0.114,19.224,0.228c1.536,0.114,13.881,0.359,14.28,0.065c0.396-0.293,2.104-0.635,3.694-2.738
	c1.595-2.104,1.595-4.438,1.311-7.965c-0.283-3.527-0.113-7.168-0.454-7.567c-0.341-0.396,0.629-1.192,0.598-2.218
	c-0.031-1.022,0.102-3.872-0.256-4.096c-0.91-0.569-4.6-0.781-5.688-0.911c-0.901-0.106-5.632-0.284-7.736-0.229
	c-2.104,0.059-11.771-0.577-15.302-0.494c-0.398,0.01-8.534-0.215-8.818,0c-0.285,0.213-0.456,0.438-0.849,1.18
	C896.199,331.219,896.678,343.484,896.273,338.757z"/>
<path fill="none" stroke="#000000" stroke-miterlimit="10" d="M896.195,365.324c-0.107,1.137,0.211,17.35,0,17.521
	s17.035,0.285,19.365,0.343c2.331,0.059,6.631-0.221,6.517-0.276c-0.114-0.059,0.311-25.379-0.205-25.606
	c-0.517-0.228-16.045-0.228-16.842-0.228s-8.854-0.171-8.835,0.228C896.212,357.7,896.195,365.324,896.195,365.324z"/>
<path fill="none" stroke="#000000" stroke-miterlimit="10" d="M896.195,390.508c0,0-0.67,13.305-0.408,14.441
	c0.262,1.138,0.35,2.451,1.139,3.15c0.787,0.698,16.453,0.611,16.453,0.611s0.951-1.398,2.184-1.137
	c1.231,0.263,2.105,1.144,2.632,1.14c0.523-0.003,16.731,0,16.731,0l-0.716-22.058c0,0-0.613-2.016-1.576-2.713
	c-0.963-0.701-2.45-0.751-2.45-0.751h-17.767l-16.222,0.663V390.508L896.195,390.508z"/>
<path fill="none" stroke="#000000" stroke-miterlimit="10" d="M460.533,204.711c0,0,39.336-1.407,42.148-0.844
	c2.814,0.563,16.326-0.203,18.299-0.102c1.971,0.102,3.068,0.334,4.225-0.01c0.753-0.224,41.324-0.569,43.67-0.443
	c1.729,0.094,25.786,0.752,25.786,0.752c4.223-0.15,10.521-0.157,13.661-0.214c1.838-0.033,3.589-0.19,4.4,0.496
	c0.616,0.517,0.498,1.414,0.594,2.617c0.24,3.14-0.133,8.787-0.105,14.298c0.041,8.901,0.455,17.666-0.881,17.854
	c-2.689,0.378-6.092,1.021-12.285,0.743c-1.9-0.085-9.981,0.006-28.688,0.314c-16.001,0.265-39.35,0.22-42.705-0.216
	c-2.113-0.275-25.517,0.977-27.567,0.666c-1.499-0.225-40.221,0.186-40.221,0.186L460.533,204.711z"/>
<path fill="none" stroke="#000000" stroke-miterlimit="10" d="M593.773,243.837h20.539c0,0,0.573-2.497,0-3.028
	c-0.574-0.529-1.982-1.693-1.982-1.693s-5.822,0.709-6.742,0.747c-0.919,0.038-11.812-0.013-11.812-0.013L593.773,243.837
	L593.773,243.837z"/>
<path fill="none" stroke="#000000" stroke-miterlimit="10" d="M593.773,272.524h25.244c0,0,0.113-18.36,0-19.852
	c-0.114-1.492,1.362-9.181,0.052-8.836c-1.313,0.344-25.296,0-25.296,0V272.524z"/>
<path fill="none" stroke="#000000" stroke-miterlimit="10" d="M593.773,299.146c0,0,12.392-0.115,15.375-0.115
	c2.98,0,14.112,0,14.112,0s2.7-0.973,2.704-2.181c0.003-0.975,0.068-20.667-0.179-21.458c-0.249-0.794-0.647-2.104-1.033-2.295
	c-0.425-0.212-2.522-0.688-3.213-0.573c-0.688,0.114-27.771,0-27.771,0v26.623H593.773L593.773,299.146z"/>
<path fill="none" stroke="#000000" stroke-miterlimit="10" d="M593.773,328.537c0,0,8.852-0.076,9.707-0.13
	c0.855-0.056,12.949,0.128,13.37-0.129c0.601-0.367,3.903-1.904,3.798-3.99c-0.105-2.085,0.002-13.532,0.002-13.532
	s0.267-9.093,0.317-9.359c0.056-0.267,1.285-1.38,1.07-1.869c-0.214-0.494-28.269,0-28.269,0v29.011L593.773,328.537
	L593.773,328.537z"/>
<path fill="none" stroke="#000000" stroke-miterlimit="10" d="M593.71,355.157c0,0,5.063-0.113,6.295-0.062
	c1.23,0.056,21.069,0.113,22.062-0.021c0.991-0.138,9.065-0.084,9.388-0.297c0.321-0.214,1.285-0.749,1.285-2.247
	s-0.43-18.667-0.645-19.789c-0.215-1.123-0.535-3.266-1.444-3.854c-0.907-0.587-5.294-1.067-5.453-0.963
	c-0.161,0.107-18.401,0.71-18.562,0.611c-0.157-0.1-12.62-0.002-12.86,0C593.53,328.539,593.71,355.157,593.71,355.157z"/>
<path fill="none" stroke="#000000" stroke-miterlimit="10" d="M593.372,385.571c0,0,7.649-0.097,9.146-0.097
	c1.498,0,6.045,0.216,6.634,0c0.589-0.214,1.124-0.533,1.604-1.392c0.481-0.854,0.321-4.76,0.321-4.76
	c-0.055-1.123,0.052-18.348,0.025-19.147c-0.025-0.803-0.128-4.867,0.004-4.707c0.131,0.16-17.396-0.312-17.396-0.312l-0.062,15.206
	L593.372,385.571z"/>
<path fill="none" stroke="#000000" stroke-miterlimit="10" d="M593.372,409.621c2.521,0.117,11.891,0.022,11.891,0.022
	s10.949,0.037,11.175-0.174c0.229-0.212-0.27-14.854-0.313-16.609c-0.045-1.76,0.313-7.322,0.09-7.289c-0.225,0.034-22.84,0-22.84,0
	L593.372,409.621L593.372,409.621z"/>
<path fill="none" stroke="#000000" stroke-miterlimit="10" d="M462.762,269.175c0,0,9.51-0.029,10.157,0
	c0.98,0.045,10.49,0.052,10.49,0.052s0.1-16.943-0.019-18.801c-0.115-1.858-0.27-8.113-0.298-8.744
	c-0.039-0.875-1.354-0.873-1.354-0.873s-2.806-0.161-3.058-0.161c-0.64,0-8.608,0.161-8.608,0.161s-9.056,0.101-8.938,0.274
	s0.823,1.208,0.987,1.915c0.154,0.664,0.638,7.197,0.638,7.662C462.761,251.125,462.762,269.175,462.762,269.175z"/>
<path fill="none" stroke="#000000" stroke-miterlimit="10" d="M450.574,269.397c-0.237-0.059,0.477,10.033,0.417,13.482
	c-0.062,3.45,0.062,7.816,0.237,8.054c0.176,0.237,0.355,2.2,1.547,3.332c1.007,0.955,1.688,1.665,2.877,2.021
	c1.188,0.357,8.603-0.118,8.603-0.118c10.95-0.321,5.594-0.08,8.447-0.059c3.129,0.022,11.062-0.417,11.062-0.417
	s-0.355-26.466-0.696-26.466c-0.062,0-23.194-0.001-23.76,0.027C457.23,269.363,450.574,269.397,450.574,269.397z"/>
<path fill="none" stroke="#000000" stroke-miterlimit="10" d="M457.891,325.135c0.417,0.952,0.654,1.546,1.013,1.605
	c0.355,0.06,8.862,0.104,10.054,0.104c1.189,0,14.796,0.386,14.677,0.021c-0.119-0.365,0.438-28.559,0.135-31.173
	c-0.043-0.357-13.948,0.327-13.948,0.327l-12.164,0.399c0.477,0.7,0.42,0.416,0.417,1.057c-0.062,11.718,0.179,13.508,0.179,13.803
	S457.891,325.135,457.891,325.135z"/>
<path fill="none" stroke="#000000" stroke-miterlimit="10" d="M440.225,327.335c-0.236-0.178-0.355,10.41-0.355,10.41
	s-0.188,0.952-0.068,2.201c0.119,1.248-0.04,1.604,0.068,2.021c0.124,0.478-0.061,7.078,0,7.376c0.06,0.298-0.13,0.773,0.381,0.895
	c0.513,0.119,1.88,0,1.88,0s5.83,0,6.543,0c3.688,0,7.257,0.145,8.981,0.053c0.4-0.021,4.4,0.03,6.962-0.066
	c1.131-0.043,18.616,0.581,18.973,0.369c0.357-0.212,0.521-23.315,0.045-23.727c-0.446-0.385-14.021,0.103-15.213-0.044
	c-0.431-0.055-9.22,0.044-9.22,0.044s-7.964-0.033-8.981,0C448.791,326.91,440.225,327.335,440.225,327.335z"/>
<path fill="none" stroke="#000000" stroke-miterlimit="10" d="M464.909,380.512c0,0,0.417,0.895,1.013,1.071
	c0.594,0.179,2.321,0.106,2.321,0.106s4.161,0.104,4.814,0.161c0.653,0.062,2.976,0.089,4.521,0.089s3.926-0.511,3.926-0.511
	c0.72-0.422,2.117-1.349,2.271-1.759c0.374-1.011-0.188-29.08-0.188-29.08h-18.704c0,0,0.086,11.896,0.026,14.517
	C464.851,367.724,464.909,380.512,464.909,380.512z"/>
<path fill="none" stroke="#000000" stroke-miterlimit="10" d="M448.492,381.881c0.06-0.238-1.13,1.129-1.665,2.142
	c-0.535,1.012-0.595,2.083-0.595,3.093c0,1.012,0.061,12.136,0,13.623c-0.062,1.484,0.178,8.401,0.178,8.76
	c0,0.355,14.69,0.103,16.894-0.017c2.202-0.12,18.797,0.06,19.331-0.536c0.536-0.597,0.666-26.055,0.417-27.093
	c-0.14-0.583-9.696,0.213-9.992,0c-0.298-0.21-15.523-0.21-17.487-0.389S448.492,381.881,448.492,381.881z"/>
<path fill="none" stroke="#000000" stroke-miterlimit="10" d="M121.745,237.8c0,0-0.262,32.631,0,33.024
	c0.262,0.392-0.495,6.683-0.116,6.683c0.378,0,55.025,0,55.025,0h60.805c0,0,17.822,0.132,20.181,0
	c2.358-0.131,5.373,0.059,5.373,0.059s0.262-4.384,0-4.776c-0.263-0.393,0.102-3.931,0.116-4.849c0.015-0.918,0-14.153,0-14.153
	l0.538-14.415c0,0-1.441-0.394-2.227-0.654c-0.787-0.263-3.407-0.263-3.407-0.263L121.745,237.8z"/>
<path fill="none" stroke="#000000" stroke-miterlimit="10" d="M107.776,277.565v23.928c0,0,3.919,0,7.838,0
	c3.919,0,3.466-0.127,5.906,0c2.438,0.125,26.584,0,26.584,0v-23.928H107.776z"/>
<path fill="none" stroke="#000000" stroke-miterlimit="10" d="M107.145,331.061v25.932c0,0,16.055-0.126,17.952,0
	c1.896,0.127,23.008,0,23.008,0V330.95L107.145,331.061z"/>
<polygon fill="none" stroke="#000000" stroke-miterlimit="10" points="124.97,387.077 148.161,387.077 148.105,356.99 
	125.097,356.99 "/>
<polygon fill="none" stroke="#000000" stroke-miterlimit="10" points="107.65,387.077 107.65,408.064 148.105,408.064 
	148.161,387.077 "/>
<path fill="none" stroke="#000000" stroke-miterlimit="10" d="M237.856,387.006c0,0,18.283-0.426,21.111-0.328
	c1.63,0.059,16.708,0.084,17.674,0.404c1.062,0.354,0.855,1.63,0.892,3.634c0.04,2.222,0,17.351,0,17.351h-39.677V387.006z"/>
<path fill="none" stroke="#000000" stroke-miterlimit="10" d="M237.856,357.936h23.714c0,0,1.531,0.385,1.836,0.845
	c0.306,0.458,0.842,1.836,0.842,2.445c0,0.612,0,25.438,0,25.438l-26.393,0.342L237.856,357.936L237.856,357.936z"/>
<path fill="none" stroke="#000000" stroke-miterlimit="10" d="M237.856,333.533h29.566c0,0,2.64-0.27,4.017,0.726
	c1.184,0.856,0.459,5.279,0.574,7.115c0.115,1.836,0.033,16.062,0.033,16.062l-34.19,0.497V333.533L237.856,333.533z"/>
<path fill="none" stroke="#000000" stroke-miterlimit="10" d="M237.856,303.393h25.322c0,0,1.262,0.229,1.606,0.688
	c0.344,0.459,0.802,1.722,0.917,2.181c0.114,0.46,0,27.239,0,27.239l-27.846,0.033L237.856,303.393L237.856,303.393z"/>
<path fill="none" stroke="#000000" stroke-miterlimit="10" d="M237.856,277.565h37.714l0.573,22.384c0,0-0.216,1.499-1.032,2.295
	c-0.85,0.829-2.512,1.146-2.512,1.146h-34.743V277.565z"/>
<path fill="none" stroke="#000000" stroke-miterlimit="10" d="M121.834,316.487c0,0-0.347,12.702-0.314,12.977
	c0.036,0.312,0.127,0.63,0.802,1.063c0.727,0.467,12.763,0.421,12.763,0.421h13.02v-29.455l-26.271,0.055
	c0,0-0.755,0.452-0.687,1.208C121.217,303.511,121.834,316.487,121.834,316.487z"/>
<path fill="none" stroke="#000000" stroke-miterlimit="10" d="M1412.694,30.554V14.23c0,0-0.376-2.815,0.938-4.128
	c1.314-1.313,0.375-3.002,0-3.94c-0.376-0.938-0.156-2.438-0.156-2.438h57.193c0,0,47.469-1.127,47.469,0c0,1.125,0,23.077,0,23.64
	c0,0.562-0.751,2.812-2.062,3.19c-1.312,0.374-17.074,0-17.074,0l-63.229,0.167c0,0-0.938-0.209-2.062,0
	C1432.583,30.928,1412.694,30.554,1412.694,30.554z"/>
<path fill="none" stroke="#000000" stroke-miterlimit="10" d="M1408.129,44.505l-0.125,10.707c0,0-0.374,2.733,2.439,3.484
	c2.812,0.751,24.578,0,24.578,0l0.382-27.913l-27.399-0.062L1408.129,44.505z"/>
<path fill="none" stroke="#000000" stroke-miterlimit="10" d="M1395.996,59.03v15.238c0,0,0.376,1.877,2.438,2.628
	c0.709,0.258,5.238,0.338,10.885,0.333c10.808-0.01,25.703-0.333,25.703-0.333v-18.2L1395.996,59.03z"/>
<path fill="none" stroke="#000000" stroke-miterlimit="10" d="M1409.854,101.341c-0.013-0.749,0.592-24.11,0.592-24.11l24.576-0.334
	v26.078l-22.768,0.274C1412.254,103.249,1409.884,103.271,1409.854,101.341z"/>
<path fill="none" stroke="#000000" stroke-miterlimit="10" d="M1396.627,118.549c0,0-1.194-13.322-0.631-13.322
	c0.562,0-1.126-1.125,2.438-1.125c3.565,0,36.588,0,36.588,0v14.447h-36.658H1396.627z"/>
<path fill="none" stroke="#000000" stroke-miterlimit="10" d="M1498.438,30.783v24.642c0,0,1.937,0,4.691-0.105
	c2.971-0.113,2.544,0.015,4.984,0.02c2.406,0.005,5.521,0.356,6.271-0.395s1.25-1.18,1.312-2.252
	c0.062-1.092,0.375-22.139,0.375-22.139l-9.988,0.229H1498.438z"/>
<path fill="none" stroke="#000000" stroke-miterlimit="10" d="M1498.438,74.081V56.257c0,0,1.398,0.11,4.686-0.033
	c4.518-0.196,16.721-0.24,19.533,0c2.812,0.24,12.37,0.466,14.434,1.188c2.063,0.721,3.003,2.598,3.191,4.85
	c0.188,2.252,0,10.131,0,10.131s0,4.316-3.38,4.504c-3.377,0.188-38.464-1.126-38.464-1.126V74.081L1498.438,74.081z"/>
<path fill="none" stroke="#000000" stroke-miterlimit="10" d="M1498.438,101.402c-0.186,0.375,25.957-0.433,27.207-0.081
	c1.158,0.326,0.756-23.478-0.938-24.091c-1.691-0.615-26.268-1.46-26.268-1.46C1498.438,76.709,1498.438,101.402,1498.438,101.402z"
	/>
<path fill="none" stroke="#000000" stroke-miterlimit="10" d="M1498.438,118.549c0,0,41.278,0.75,40.341,0
	c-0.938-0.751,1.531-16.512,0.016-16.699c-1.517-0.188-40.382,0.196-40.354,0.932
	C1498.465,103.518,1498.438,118.549,1498.438,118.549z"/>
<path fill="none" stroke="#000000" stroke-miterlimit="10" d="M1105.599,3.719c0,0-0.417,25.521,0.333,26.835
	c0.75,1.312,1.5-0.751,2.438,0c0.938,0.75,5.067,0.374,5.067,0.374c2.062,0.188,15.758,0,15.758,0s2.629-0.562,4.129-0.187
	c1.502,0.374,5.441,0.271,6.754,0.374c1.314,0.104,38.275-0.562,38.275-0.562l48.219,0.188c0,0,1.688-1.127,2.062-2.252
	c0.375-1.126,1.125-25.142,0-24.766C1227.512,4.098,1105.599,3.719,1105.599,3.719z"/>
<path fill="none" stroke="#000000" stroke-miterlimit="10" d="M1117.377,41.998v8.256c0,0-0.375,4.689,1.312,6.003
	s25.601,0,25.601,0V39.56v-8.433l-8.714-0.021c0,0-2.801-0.549-3.748-0.489c-0.948,0.059-2.633,0.312-2.633,0.312l-11.854,0.081
	L1117.377,41.998z"/>
<path fill="none" stroke="#000000" stroke-miterlimit="10" d="M1121.691,65.263c0,0,0,2.064,0,5.066s0,6.379,0,6.379l0.938,4.69
	c0,0,1.313,0.563,0,4.315c-1.312,3.753-1.312,3.753-1.312,3.753l0.938,10.507h22.035V56.257l-12.653,0.584c0,0-9.568-0.917-9.382,0
	c0.188,0.917,1.501,0.167,0.562,2.419C1121.879,61.511,1121.691,65.263,1121.691,65.263z"/>
<path fill="none" stroke="#000000" stroke-miterlimit="10" d="M1107.432,104.476c0,0.188,1.314-0.562,3.379-2.062
	c2.063-1.502,2.252-2.439,2.252-2.439h31.229c0,0,0.188,19.7,0,19.137c-0.188-0.562-36.858,0.012-36.858,0.012
	s-1.123-2.638,1.689-3.951s-3.638,0.562-1.912-5.623C1107.6,108.153,1107.432,104.476,1107.432,104.476z"/>
<path fill="none" stroke="#000000" stroke-miterlimit="10" d="M1208.562,30.671V48.19h18.762c0,0-2.063-2.814,0-3.189
	c2.062-0.375,0.812-7.505,1.906-9.381c1.096-1.876-2.657-4.878-2.657-4.878L1208.562,30.671z"/>
<path fill="none" stroke="#000000" stroke-miterlimit="10" d="M1208.562,63.574h19.138c0,0,1.688,1.126,3.752,1.313
	c2.062,0.188,4.877-4.878,4.877-4.878V49.878l-2.813-1.688h-24.953V63.574L1208.562,63.574z"/>
<path fill="none" stroke="#000000" stroke-miterlimit="10" d="M1208.562,103.163h17.446c0,0,2.34,1.126,3.42-1.126
	c1.083-2.252,0-18.199,0-18.199l-0.979-1.876c0,0,1.235,0.375,1.462-0.939c0.227-1.312-0.48-2.907-0.48-2.907l0.525-13.223
	l-2.257-1.318h-19.138V103.163L1208.562,103.163z"/>
<path fill="none" stroke="#000000" stroke-miterlimit="10" d="M1208.562,119.122v-15.959h25.141c0,0,2.438,0.375,3.753,0.281
	c1.313-0.094,1.688-0.845,3.563-0.281c1.875,0.562,2.252,0.563,4.129,0.281c1.878-0.281,3.188-0.47,2.812,1.031
	c-0.376,1.502,0.064,14.906,0.064,14.906l-29.03-0.26c0,0-0.678-0.176-1.24,0c-0.562,0.176-2.062-0.551-2.254,0.012
	C1215.314,119.697,1208.562,119.122,1208.562,119.122z"/>
<path fill="none" stroke="#000000" stroke-miterlimit="10" d="M807.521,16.11v10.978c0,0-0.156,2.319,1.234,2.782
	c1.393,0.465,43.499,0.446,43.499,0.446l47.263,0.176V16.728c0,0,0.465-9.31,0-9.774c-0.466-0.464-9.618-0.477-13.019-0.489
	c-1.863-0.007-39.243-0.438-39.243-0.438H821.9c0,0-9.243,0.273-9.881,0.263c-2.957-0.052-4.507-0.895-4.505,2.057
	C807.516,9.028,807.592,9.027,807.521,16.11z"/>
<path fill="none" stroke="#000000" stroke-miterlimit="10" d="M802.121,37.401c-0.076,0.229-0.002,12.317-0.002,12.317l19.812,0.076
	c0,0,0.459-13.389,0.385-13.159c-0.076,0.23,0.009-5.584,0.009-5.584l-20.239-0.56L802.121,37.401z"/>
<path fill="none" stroke="#000000" stroke-miterlimit="10" d="M791.562,58.592l0.383,9.944c0,0,0.61,0.919,1.301,1.072
	c0.689,0.152,15.684,0,15.913,0c0,0,12.622,0.289,12.852,0.067c0.229-0.221,0.478-19.346,0.314-19.04
	c-0.162,0.306-15.769-0.159-15.998-0.004c-0.229,0.157-4.513-0.033-4.513-0.033s-1.53-0.957-2.297-0.804
	c-0.766,0.152-2.859,0.612-3.854,0.917c-0.993,0.307-2.801,0.307-3.336,1.378c-0.536,1.07-0.767,4.283-0.767,4.283v2.22H791.562z"/>
<path fill="none" stroke="#000000" stroke-miterlimit="10" d="M802.885,81.848V96.69h19.44V70.45H805.64
	c0,0-1.837,0.229-2.063,1.836C803.344,73.892,802.885,81.848,802.885,81.848z"/>
<path fill="none" stroke="#000000" stroke-miterlimit="10" d="M794.088,101.126c-0.306,0.307,0.536,17.213,0.46,17.519
	c-0.077,0.306-0.448,3.29,0.005,3.901c0.453,0.612,11.469,0.535,13.152,0.459c1.683-0.076,14.781-0.612,14.62-0.383
	c-0.162,0.229,0-18.895,0-18.895V97.99l-23.343-0.537h-4.961L794.088,101.126z"/>
<path fill="none" stroke="#000000" stroke-miterlimit="10" d="M884.091,37.401c0,0,0,8.95,0,9.181c0,0.229,16.867,0,16.867,0
	s2.065-0.23,2.868-0.919c0.804-0.688,0.804-11.704,0.574-11.934c-0.23-0.23-0.115-2.64-1.033-2.755
	c-0.917-0.114-8.818-0.114-9.058,0c-0.236,0.115-10.221-0.086-10.221-0.086L884.091,37.401L884.091,37.401z"/>
<path fill="none" stroke="#000000" stroke-miterlimit="10" d="M884.091,50.483c0,0,0.345,15.032,0,15.491s30.981,0,30.981,0V50.483
	c0,0-0.574-2.869-1.378-2.869c-0.802,0-13.54,0-13.54,0h-16.063V50.483z"/>
<path fill="none" stroke="#000000" stroke-miterlimit="10" d="M884.091,69.76c-0.212,3.788,0.229,34.361-0.003,34.361
	c-0.229,0,8.438,0.03,11.08,0.1c3.85,0.101,10.41,0.091,10.181,0.32c-0.229,0.229,0.096-20.359-0.023-20.972
	c-0.119-0.613,0.023-14.497,0.023-14.497c-0.011,1.033,0.087-1.262-1.521-1.836c-1.604-0.573-19.965,0.688-19.735,0
	S884.091,69.76,884.091,69.76z"/>
<path fill="none" stroke="#000000" stroke-miterlimit="10" d="M884.091,111.186c0,0,0.229-5.278,0-6.019
	c-0.229-0.739,16.235,0.115,16.579,0.001c0.346-0.115,12.108,0.051,14.402,0.051c2.295,0,2.18,3.098,2.18,3.098v13.082
	c0,0-29.26,0-30.752,0c-1.493,0-2.409-1.722-2.409-1.722v-8.032V111.186L884.091,111.186z"/>
<path fill="none" stroke="#000000" stroke-miterlimit="10" d="M473.399,21.72c0,0-0.153-16.063,0-16.754
	c0.151-0.689,0.61-2.066,1.605-2.448c0.995-0.382,38.403-0.459,38.403-0.459s23.181-0.076,24.786,0
	c1.605,0.077,24.556,0.084,25.168-0.033c0.61-0.119,1.455,0.722,1.53,1.104c0.075,0.382,0,18.054,0,18.054l0.383,5.661
	c0,0-0.075,1.453-1.762,1.683c-1.684,0.23-33.89,0.612-34.117,0.688c-0.229,0.076-34.332,0.031-34.654,0
	c-0.518-0.051-16.765,0.188-17.061,0.121c-0.321-0.073-2.143,0.108-3.137-0.963c-1.098-1.18-1.266-3.763-1.217-3.978
	C473.395,24.119,473.399,21.72,473.399,21.72z"/>
<path fill="none" stroke="#000000" stroke-miterlimit="10" d="M468.121,36.713v15.492h19.622V34.646c0,0,0.119-5.215,0-5.298
	c-0.12-0.082-20.081,0-20.081,0L468.121,36.713z"/>
<path fill="none" stroke="#000000" stroke-miterlimit="10" d="M454.581,52.205c0.115,0,0.081,20.862,0,21.457
	c-0.066,0.482,0.579,2.095,1.166,2.373c0.312,0.148,0.67,0.381,2.161,0.726c1.492,0.345,6.137-0.089,11.476-0.271
	c0.115-0.004,12.163-0.188,12.163-0.188l6.249,0.062l-0.053-24.158L454.581,52.205L454.581,52.205z"/>
<path fill="none" stroke="#000000" stroke-miterlimit="10" d="M470.145,77.081l0.168,23.789c0,0,0.313,1.477,0.875,1.813
	c0.561,0.338,8.024,0.338,8.024,0.338s5.568,0.057,7.931,0c1.271-0.03,0.653-6.58,0.653-6.58l-0.272-19.149L470.145,77.081z"/>
<path fill="none" stroke="#000000" stroke-miterlimit="10" d="M452.512,109.576c-0.026-0.933-0.042,9.189-0.169,9.189
	c-0.126,0-0.025,2.067,0.646,2.407c0.6,0.304,13.358,0.462,13.358,0.462l18.646-0.294c0,0,1.938,0.294,2.107-1.647
	c0.161-1.854,0.253-15.644,0.253-15.644s0-0.633-0.633-0.76c-0.634-0.126-16.577-0.168-16.577-0.168s-16.575-0.169-16.997,0
	c-0.424,0.168-0.635,0.675-0.635,1.476C452.512,105.991,452.401,106.09,452.512,109.576z"/>
<path fill="none" stroke="#000000" stroke-miterlimit="10" d="M550.188,40.923c-0.19,0-0.19,18.292,0,18.485
	c0.192,0.191,14.764,0.256,19.574-0.193c1.295-0.121,0.45-16.557,0.516-19.062c0.062-2.374-0.063-10.761-0.577-10.804
	c-0.516-0.043-12.065,0-12.065,0h-7.59L550.188,40.923z"/>
<path fill="none" stroke="#000000" stroke-miterlimit="10" d="M550.675,66.147c-0.062,0.257,0.027,11.872,0.027,11.872
	s20.795,0.064,20.603,0c-0.191-0.063-0.062,0.322,0.644,0.707c0.706,0.385,15.595,0,15.595,0V61.91c0,0-0.32-1.732-1.346-1.861
	c-1.028-0.129-16.047,0-16.047,0l-19.77-0.058C550.381,59.991,550.729,64.931,550.675,66.147"/>
<path fill="none" stroke="#000000" stroke-miterlimit="10" d="M550.051,88.738c0,0-0.016,11.294,0.001,11.486
	c0.018,0.192,0.586,1.299,1.419,1.286c0.454-0.007,17.269-0.129,17.845-0.257s1.541-0.834,1.732-1.412
	c0.192-0.578-0.559-18.934-0.559-18.934s0-2.011-1.944-2.011c-0.706,0-18.164,0-18.164,0s0-0.172,0,0.791
	C550.381,80.652,550.051,88.738,550.051,88.738z"/>
<path fill="none" stroke="#000000" stroke-miterlimit="10" d="M549.748,104.55c-0.077,2,0.297,14.226,0.297,14.226
	s-0.113,0.257,0.722,0.771c0.832,0.514,21.115,0.514,21.115,0.514h18.997l-0.512-18.549h-19.288l-20.707,0.644L549.748,104.55z"/>
<path fill="none" stroke="#000000" stroke-miterlimit="10" d="M145.153,3.608l4.181-1.792c0,0,45.594-0.198,48.182,0
	c2.588,0.199,36.634,0.852,36.634,0.852s2.39-0.056,1.992,0.94c-0.399,0.995,0.288,24.091,0.044,24.29
	c-0.244,0.198,0.054,1.393,0.054,1.393h-91.086L145.153,3.608L145.153,3.608z"/>
<path fill="none" stroke="#000000" stroke-miterlimit="10" d="M136.99,30.089v16.724c0,0-0.199,1.394,0.996,1.99
	c1.195,0.598,21.701,0,21.701,0l0.996-0.796V30.089H136.99z"/>
<path fill="none" stroke="#000000" stroke-miterlimit="10" d="M132.809,56.768v7.964c0,0,0.797,2.389,1.593,3.584
	c0.796,1.194,4.778,1.194,6.769,1.194c1.991,0,18.317,0,18.317,0v-8.361l0.199-12.346l-13.438,0.258l-13.439,0.008L132.809,56.768
	L132.809,56.768z"/>
<path fill="none" stroke="#000000" stroke-miterlimit="10" d="M136.978,79.47c-0.172,3.076,0,18.112,0,18.112
	s0.322,4.111,2.653,4.677c2.318,0.562,20.056-0.137,20.056-0.137l0.686-0.728l0.311-0.825l-0.996-29.989
	c0,0-22.545-0.382-22.709,0.323C136.806,71.64,136.978,79.47,136.978,79.47z"/>
<path fill="none" stroke="#000000" stroke-miterlimit="10" d="M129.436,109.178v13.08h28.937c0,0,1.771-1.863,2.144-3.263
	c0.374-1.397,0.009-16.13,0.009-16.13s-17.458,0.24-29.763,0.24c0,0-1.119,0.485-1.212,1.139
	C129.458,104.896,129.436,109.178,129.436,109.178z"/>
<path fill="none" stroke="#000000" stroke-miterlimit="10" d="M223.669,49.907h14.769c0,0,1.007-0.083,1.427-0.839
	c0.419-0.755,0-17.538,0-17.538s-0.167-2.128-1.007-2.239c-0.838-0.11-15.607,0-15.607,0L223.669,49.907z"/>
<path fill="none" stroke="#000000" stroke-miterlimit="10" d="M223.25,58.635c0,0,0.103,8.893,0,10.405
	c-0.021,0.302,0.419,0.671,0.838,0.923c0.42,0.252,8.633-0.053,13.595,0.194c4.281,0.213,14.013,0.118,14.769-0.121
	c0.754-0.241,0.838-0.828,1.006-1.332c0.168-0.503,0.084-17.454,0-17.538s-0.167-0.755-0.839-0.923s-29.37,0-29.37,0L223.25,58.635
	L223.25,58.635z"/>
<path fill="none" stroke="#000000" stroke-miterlimit="10" d="M223.25,80.368v20.308c0,0,0.083,1.673,1.426,1.802
	c1.342,0.128,18.209-0.291,18.713-0.543c0.503-0.252,1.427-1.259,1.427-1.93c0-0.672,0-23.496,0-23.496v-6.032l-20.728-0.514
	c0,0-0.755-0.231-0.838,0.514C223.166,71.223,223.25,80.368,223.25,80.368z"/>
<path fill="none" stroke="#000000" stroke-miterlimit="10" d="M223.212,106.546c0.014,0.127-0.056,14.455,0,14.581
	c0.056,0.126,33.43,0,33.43,0v-15.339c0,0,0-2.866-1.728-2.95c-0.705-0.034-9.818-0.337-9.818-0.337h-21.239
	c0,0-0.491,0.168-0.646,0.758C223.057,103.85,223.212,106.546,223.212,106.546z"/>
<polygon fill="#FFFFFF" stroke="#1D1D1B" stroke-miterlimit="10" points="393.525,729.868 393.525,716.672 456.357,717.685 
	456.357,740.021 394.062,740.142 "/>
<path fill="#FFFFFF" stroke="#1D1D1B" stroke-miterlimit="10" d="M394.316,742.953l31.133-0.902h30.908c0,0,0.226,1.241,0,1.467
	c-0.227,0.227,5.979-0.824,7.673-0.093c1.69,0.733,6.14,1.633,5.862,12.841c-0.274,11.163,0,9.476,0,9.476s-3.384,4.964-11.167,4.4
	c-7.782-0.564-10.94-2.37-10.94-2.37l-25.397-0.003l-26.38-0.448L394.316,742.953z"/>
<path fill="#FFFFFF" stroke="#1D1D1B" stroke-miterlimit="10" d="M393.534,690.899c0,0,27.101,0.677,32.949,0.453
	c5.849-0.225,29.875-0.13,29.875-0.13v17.658v4.836c0,0-0.6,1.237-1.948,1.688c-1.35,0.45-30.543,0.443-30.543,0.443
	s-29.406,0.405-29.743-0.245C393.785,714.955,393.534,690.899,393.534,690.899z"/>
<path fill="#FFFFFF" stroke="#1D1D1B" stroke-miterlimit="10" d="M393.525,676.107v-10.481c0,0,63.471,0.178,63.471,0.516
	c0,0.337-0.639,23.957-0.639,23.957l-62.834-0.794v-4.438L393.525,676.107z"/>
<polygon fill="#FFFFFF" stroke="#1D1D1B" stroke-miterlimit="10" points="393.525,638.583 423.365,638.583 456.996,639.033 
	456.996,663.104 427.753,663.104 393.525,662.934 "/>
<path fill="#FFFFFF" stroke="#1D1D1B" stroke-miterlimit="10" d="M393.525,620.925c0,0,0.307,15.127,0,15.435
	c-0.306,0.307,37.188-0.038,37.188-0.038l26.283,0.34v-25.433h-28.579c0,0-35.223-0.762-34.892-0.148
	C393.857,611.691,393.525,620.925,393.525,620.925z"/>
<polygon fill="#FFFFFF" stroke="#1D1D1B" stroke-miterlimit="10" points="393.525,596.388 393.525,608.781 426.582,608.781 
	456.996,608.781 456.357,583.994 393.525,584.912 "/>
<path fill="#FFFFFF" stroke="#1D1D1B" stroke-miterlimit="10" d="M396.843,552.811c11.371,2.261,32.646,7.163,36.624,8.081
	c3.979,0.919,24.939,5.354,24.939,5.354l-1.41,15.301c0,0-62.858,1.534-63.471,1.381c-0.613-0.152-0.491-9.12-0.002-13.393
	C394.861,557.843,396.843,552.811,396.843,552.811z"/>
<path fill="#FFFFFF" stroke="#1D1D1B" stroke-miterlimit="10" d="M406.231,523.369l57.411,26.51c0,0-2.719,6.552-3.407,8.723
	c-0.626,1.967-1.828,6.004-1.828,6.004l-60.937-13.719C397.471,550.887,402.955,525.823,406.231,523.369z"/>
<path fill="#FFFFFF" stroke="#1D1D1B" stroke-miterlimit="10" d="M422.16,496.68l49.726,37.433c0,0-7.4,12.401-7.287,13.654
	c0.113,1.25-56.661-27.188-57.001-27.477C407.255,520.003,420.111,496.68,422.16,496.68z"/>
<path fill="#FFFFFF" stroke="#1D1D1B" stroke-miterlimit="10" d="M422.956,493.494c0,0,19.116-21.959,21.277-22.073
	c2.161-0.113,40.163,48.869,40.163,48.869s-9.493,9.688-11.48,11.888C471.886,533.316,422.956,493.494,422.956,493.494z"/>
<path fill="#FFFFFF" stroke="#1D1D1B" stroke-miterlimit="10" d="M480.479,448.533l23.737,58.271c0,0-15.712,9.661-17.658,11.782
	c-1.77,1.927-40.163-48.874-40.163-48.874S469.442,451.038,480.479,448.533z"/>
<path fill="#FFFFFF" stroke="#1D1D1B" stroke-miterlimit="10" d="M527.36,436.265l4.14,64.284c0,0-22.928,4.465-24.917,5.802
	c-2.504,1.684-24.332-58.941-24.332-58.941S510.841,435.012,527.36,436.265z"/>
<path fill="#FFFFFF" stroke="#1D1D1B" stroke-miterlimit="10" d="M529.906,436.081c0,0,15.119-0.223,16.553,0.644
	c1.432,0.865-4.379,64.508-4.379,64.508s-6.634-0.127-7.736,0C533.128,501.371,529.906,436.081,529.906,436.081z"/>
<path fill="#FFFFFF" stroke="#1D1D1B" stroke-miterlimit="10" d="M549.302,436.725c0,0,30.092,3.549,36.154,8.814
	c2.663,2.312-21.302,59.898-21.302,59.898s-14.704-2.841-19.419-4.206C543.264,500.804,549.302,436.725,549.302,436.725z"/>
<path fill="#FFFFFF" stroke="#1D1D1B" stroke-miterlimit="10" d="M623.887,466.642l-38.193,49.933c0,0-15.931-9.428-19.328-10.129
	c-3.264-0.675,22.706-59.485,22.706-59.485S612.508,455.378,623.887,466.642z"/>
<path fill="#FFFFFF" stroke="#1D1D1B" stroke-miterlimit="10" d="M626.163,468.463c0.114-0.568,21.562,17.295,21.538,20.943
	c-0.023,3.799-42.631,35.626-48.732,41.179c-0.462,0.422-8.53-10.295-11.719-12.086
	C585.347,517.427,626.163,468.463,626.163,468.463z"/>
<path fill="#FFFFFF" stroke="#1D1D1B" stroke-miterlimit="10" d="M649.235,491.512c0,0,12.346,13.928,16.294,26.768
	c0.908,2.957-56.01,28.35-56.223,28.35c-0.212,0-8.843-13.539-8.794-14.904C600.562,530.357,649.235,491.512,649.235,491.512z"/>
<path fill="#FFFFFF" stroke="#1D1D1B" stroke-miterlimit="10" d="M609.673,548.903l56.994-28.613c0,0,13.01,25.168,9.815,28.613
	c-3.769,4.062-61.471,15.93-61.471,15.93C616.363,571.589,610.951,549.621,609.673,548.903z"/>
<path fill="#FFFFFF" stroke="#1D1D1B" stroke-miterlimit="10" d="M614.703,566.88c-0.19-0.129,62.769-16.082,62.769-16.082
	s2.997,7.343,3.857,15.97c0.39,3.906-1.122,15.04-1.122,15.04c-4.575-0.146-64.258-0.705-63.817-0.592
	C616.829,581.33,616.557,568.13,614.703,566.88z"/>
<path fill="#FFFFFF" stroke="#1D1D1B" stroke-miterlimit="10" d="M617.401,583.846c0-0.552,62.806-0.716,62.806-0.716v23.914
	h-62.806V583.846z"/>
<path fill="#FFFFFF" stroke="#1D1D1B" stroke-miterlimit="10" d="M617.401,608.632c-0.114,0.46,62.806,0.548,62.806,0.548v24.123
	c0,0-61.554-0.253-62.236,0C617.287,633.556,617.401,608.632,617.401,608.632z"/>
<path fill="#FFFFFF" stroke="#1D1D1B" stroke-miterlimit="10" d="M618.198,635.374l62.575,0.229c0,0-0.566,23.552-0.566,23.664
	c0,0.115-61.896-0.795-62.236,0C617.629,660.062,618.532,634.814,618.198,635.374z"/>
<path fill="#FFFFFF" stroke="#1D1D1B" stroke-miterlimit="10" d="M617.395,661.429c8.203,0.166,62.357,0.23,62.357,0.002
	c0-0.228,1.137,23.822,0.455,24.052c-0.683,0.228-62.479,0.132-62.812,0.442C617.061,686.234,617.395,661.429,617.395,661.429z"/>
<path fill="#FFFFFF" stroke="#1D1D1B" stroke-miterlimit="10" d="M617.245,687.682c2.888,0.043,63.528,0,63.528,0l-0.351,25.291
	c0,0-62.809,0.228-63.028,0C617.174,712.745,617.245,687.682,617.245,687.682z"/>
<path fill="#FFFFFF" stroke="#1D1D1B" stroke-miterlimit="10" d="M617.234,715.59c0.167-0.456,63.539-0.798,63.539-0.798
	s-1.021,23.458-1.25,23.788c-0.228,0.333-61.534,1.904-62.278,0.643C616.502,737.963,617.234,715.59,617.234,715.59z"/>
<path fill="#FFFFFF" stroke="#1D1D1B" stroke-miterlimit="10" d="M615.468,741.572c0,0,64.171-0.135,64.171,0.123s0,9.689,0,9.689
	s-1.365-0.156-1.708,0c-0.341,0.156-0.238,16.078-0.112,15.857c0.47-0.828-51.428-0.341-51.428-0.341s-6.03,2.69-10.809,2.654
	c-3.077-0.021-10.21-0.038-10.906-3.337c-0.699-3.3-1.664-10.581,0.639-16.841c2.304-6.257,3.555-7.428,6.399-7.808
	C614.558,741.189,615.468,741.572,615.468,741.572z"/>
<path fill="#FFFFFF" stroke="#1D1D1B" stroke-miterlimit="10" d="M1603.29,427.366v-3.921l58.777-1.147c0,0,1.435,0.383,1.53,1.243
	s0,27.543,0,27.543s0.04,1.914-0.41,2.104s-56.972,0-56.972,0s-2.983,0.095-2.926-0.957S1603.29,427.366,1603.29,427.366z"/>
<path fill="#FFFFFF" stroke="#1D1D1B" stroke-miterlimit="10" d="M1608.46,454.719h38.306l0.957,28.021c0,0,0,1.816-0.479,1.912
	s-37.298,0.383-37.298,0.383s-1.435,0.287-1.435-1.339S1608.46,454.719,1608.46,454.719z"/>
<path fill="#FFFFFF" stroke="#1D1D1B" stroke-miterlimit="10" d="M1648.296,454.719h15.345v29.838h-14.293
	c0,0-0.286-0.191-0.478-1.243S1648.296,454.719,1648.296,454.719z"/>
<path fill="#FFFFFF" stroke="#1D1D1B" stroke-miterlimit="10" d="M1601.53,485.897h62.11v32.038c0,0-0.808,1.244-2.146,1.722
	s-58.051,0.094-58.051,0.094s-1.281,0.096-1.281-1.243S1601.53,485.897,1601.53,485.897z"/>
<path fill="#FFFFFF" stroke="#1D1D1B" stroke-miterlimit="10" d="M1609.086,521.281h42.558v25.535c0,0-0.287,2.774-2.582,3.061
	s-38.063,0-38.063,0s-1.624,0.191-1.529-0.287S1609.086,521.281,1609.086,521.281z"/>
<path fill="#FFFFFF" stroke="#1D1D1B" stroke-miterlimit="10" d="M1653.27,521.281h10.371v27.543c0,0-1.668,1.116-3.39,1.18
	s-6.408-2.039-6.981-3.092S1653.27,521.281,1653.27,521.281z"/>
<path fill="#FFFFFF" stroke="#1D1D1B" stroke-miterlimit="10" d="M1602.582,551.311h61.059v25.248c0,0-0.233,4.112-3.103,4.112
	s-57.382,0-57.382,0L1602.582,551.311z"/>
<path fill="#FFFFFF" stroke="#1D1D1B" stroke-miterlimit="10" d="M1607.651,582.775l37.968-0.383v25.631
	c0,0-0.192,1.912-1.148,2.199s-35.385,0-35.385,0s-1.435,0.001-1.435-0.669S1607.651,582.775,1607.651,582.775z"/>
<path fill="#FFFFFF" stroke="#1D1D1B" stroke-miterlimit="10" d="M1646.664,582.293l14.447-0.092c0,0,2.571,0.287,2.529,1.722
	s0,23.526,0,23.526s0,2.199-1.381,2.486c-0.795,0.165-14.92,0.415-14.92,0.415s-1.052-0.606-1.052-1.467
	S1646.664,582.293,1646.664,582.293z"/>
<path fill="#FFFFFF" stroke="#1D1D1B" stroke-miterlimit="10" d="M1603.922,611.848h56.138c0,0,3.623,0.382,3.581,3.921
	s0,22.857,0,22.857s0.245,2.486-1.381,2.582s-56.234,0-56.234,0s-1.721,0.097-2.104-1.052S1603.922,611.848,1603.922,611.848z"/>
<path fill="#FFFFFF" stroke="#1D1D1B" stroke-miterlimit="10" d="M1607.651,642.738h36.82l-0.287,28.404
	c0,0-0.287,1.861-2.104,1.827c-0.881-0.017-34.429-0.488-34.429-0.488V642.738z"/>
<path fill="#FFFFFF" stroke="#1D1D1B" stroke-miterlimit="10" d="M1646.288,642.738l17.353-0.383v28.213
	c0,0,0.245,2.182-1.477,2.334s-14.823,0-14.823,0s-2.104-0.422-1.722-1.474S1646.288,642.738,1646.288,642.738z"/>
<path fill="#FFFFFF" stroke="#1D1D1B" stroke-miterlimit="10" d="M1602.966,673.533l60.687,0.574v28.117c0,0,0.138,1.148-1.01,1.626
	s-58.338,0-58.338,0s-1.434-0.191-1.339-1.435S1602.966,673.533,1602.966,673.533z"/>
<path fill="#FFFFFF" stroke="#1D1D1B" stroke-miterlimit="10" d="M1607.651,705.572h30.795c0,0,0.479,0.286,0.766,1.147
	s0.007,29.172,0.007,29.172s-0.294,3.44-2.78,2.951c-1.049-0.206-26.396-0.276-26.396-0.276s-2.391-0.287-2.391-1.435
	S1607.651,705.572,1607.651,705.572z"/>
<path fill="#FFFFFF" stroke="#1D1D1B" stroke-miterlimit="10" d="M1640.551,706.051c0,0,0.191-0.287,1.052-0.479s21.613,0,21.613,0
	s0.213,0.286,0.441,0.956s0,29.935,0,29.935s-0.633,1.834-1.685,2.256s-20.37,0-20.37,0s-1.435-0.535-1.435-1.396
	S1640.551,706.051,1640.551,706.051z"/>
<path fill="#FFFFFF" stroke="#1D1D1B" stroke-miterlimit="10" d="M1602.822,135h39.816v25.061c0,0,0.968,4.157-3.133,4.122
	c-2.086-0.018-36.684,0-36.684,0V135z"/>
<path fill="#FFFFFF" stroke="#1D1D1B" stroke-miterlimit="10" d="M1643.628,135l20.005,0.413v27.204c0,0-0.55,1.566-1.457,1.566
	s-16.699,0-16.699,0s-2.105,0.66-1.849-3.709C1643.892,155.992,1643.628,135,1643.628,135z"/>
<path fill="#FFFFFF" stroke="#1D1D1B" stroke-miterlimit="10" d="M1607.108,165.419h56.524v27.533c0,0,0.19,1.154-0.716,1.566
	s-55.891,0.495-55.891,0.495L1607.108,165.419z"/>
<path fill="#FFFFFF" stroke="#1D1D1B" stroke-miterlimit="10" d="M1601.831,195.841h44.187l0.33,26.462c0,0-0.083,1.978-0.577,2.226
	s-1.566,0.495-1.566,0.495h-41.712c0,0-0.578-0.247-0.66-1.154S1601.831,195.841,1601.831,195.841z"/>
<path fill="#FFFFFF" stroke="#1D1D1B" stroke-miterlimit="10" d="M1647.09,195.841h16.56l-0.402,27.369c0,0,0.082,1.401-0.742,1.813
	s-14.838,0-14.838,0s-0.412-0.165-0.577-1.484S1647.09,195.841,1647.09,195.841z"/>
<path fill="#FFFFFF" stroke="#1D1D1B" stroke-miterlimit="10" d="M1607.791,226.251h55.858c0,0,0.5,26.207,0,27.616
	s-1.19,1.268-1.19,1.268s-53.54-0.282-54.526-0.705s-0.846-1.832-0.846-1.832L1607.791,226.251z"/>
<path fill="#FFFFFF" stroke="#1D1D1B" stroke-miterlimit="10" d="M1604.691,256.262h36.915c0,0,0.704,0.423,0.704,0.986
	s0,27.615,0,27.615s-0.423,0.563-1.55,0.986s-35.729,0.113-35.729,0.113s-0.705-0.422-0.846-1.409
	S1604.691,256.262,1604.691,256.262z"/>
<path fill="#FFFFFF" stroke="#1D1D1B" stroke-miterlimit="10" d="M1643.297,256.262h20.353v27.897c0,0,0.077,1.458-0.909,1.786
	s-17.834,0.014-17.834,0.014s-1.638-0.014-1.609-1.658C1643.324,282.725,1643.297,256.262,1643.297,256.262z"/>
<path fill="#FFFFFF" stroke="#1D1D1B" stroke-miterlimit="10" d="M1608.839,287.162h53.237c0,0,1.661,0.297,1.574,0.892
	s0.222,26.172,0.222,26.172s-0.012,1.636-1.201,2.082s-47.438,0.198-47.438,0.198s-3.569,0.069-4.907-1.09
	c-0.961-0.832-1.487-3.271-1.487-3.271V287.162z"/>
<path fill="#FFFFFF" stroke="#1D1D1B" stroke-miterlimit="10" d="M1644.875,317.646h17.647c0,0,0.918,0,1.128,0.892
	s0.222,20.968,0.222,20.968s1.029,0.297,1.029,1.041s0.445,0.941,0,1.958s-1.464,2.206-1.029,2.652s-1.944,1.636-1.944,1.636
	l-14.6-0.09c0,0-2.53,0.398-2.451-1.79C1644.903,344.185,1644.875,317.646,1644.875,317.646z"/>
<path fill="#FFFFFF" stroke="#1D1D1B" stroke-miterlimit="10" d="M1607.719,347.688H1656h7.812v27.188v1.562
	c0,0-0.469,0.469-1.094,1.25s-55,0-55,0V347.688z"/>
<path fill="#FFFFFF" stroke="#1D1D1B" stroke-miterlimit="10" d="M1603.377,382.983c0,0-0.781-3.188,2.344-3.812
	s38.248,0.017,38.248,0.017v26.781l-0.154,1.274h-40.524L1603.377,382.983z"/>
<path fill="#FFFFFF" stroke="#1D1D1B" stroke-miterlimit="10" d="M1645.531,378.91h17.656v27.84h-16.353
	c0,0-1.356-0.383-1.304-1.875C1645.576,403.616,1645.531,378.91,1645.531,378.91z"/>
<path fill="#FFFFFF" stroke="#1D1D1B" stroke-miterlimit="10" d="M1603.29,317.646h40.679V345c0,0-0.672,1.793-1.219,1.625
	s-37.75-0.096-37.75-0.096s-1.92,0.398-1.71-0.895S1603.29,317.646,1603.29,317.646z"/>
<path fill="#FFFFFF" stroke="#1D1D1B" stroke-miterlimit="10" d="M1651.776,2.44h12.535v26.99c0,0,0.224,2.9-2.677,3.346
	s-9.858,0-9.858,0V2.44z"/>
<path fill="#FFFFFF" stroke="#1D1D1B" stroke-miterlimit="10" d="M1608.212,33.557h55.318v26.544c0,0,0.669,2.789-1.562,3.123
	s-53.314,0-53.314,0L1608.212,33.557z"/>
<path fill="#FFFFFF" stroke="#1D1D1B" stroke-miterlimit="10" d="M1605.981,94.453h57.651l-0.009,24.429l-57.643-0.562V94.453z"/>
<path fill="#FFFFFF" stroke="#1D1D1B" stroke-miterlimit="10" d="M1610.489,2.44h40.311v30.535h-40.311V2.44z"/>
<path fill="#FFFFFF" stroke="#1D1D1B" stroke-miterlimit="10" d="M1646.184,64.354h17.44l-0.376,25.72c0,0,0.165,2.473-2.803,2.803
	s-11.871,0.146-11.871,0.146s-3.084,0.595-3.05-3.691c0.009-1.157-0.003-24.978-0.003-24.978H1646.184z"/>
<path fill="#FFFFFF" stroke="#1D1D1B" stroke-miterlimit="10" d="M1644.617,89.496c0.185,2.638-1.813,3.577-1.813,3.577h-33.469
	l-0.742-28.72h36.024C1644.617,64.354,1644.482,87.577,1644.617,89.496z"/>
</svg>
