<?xml version="1.0" encoding="utf-8"?>
<!-- Generator: Adobe Illustrator 17.0.0, SVG Export Plug-In . SVG Version: 6.00 Build 0)  -->
<!DOCTYPE svg PUBLIC "-//W3C//DTD SVG 1.1//EN" "http://www.w3.org/Graphics/SVG/1.1/DTD/svg11.dtd">
<svg version="1.1" id="Capa_1" xmlns="http://www.w3.org/2000/svg" xmlns:xlink="http://www.w3.org/1999/xlink" x="0px" y="0px"
	 width="1200px" height="1920px" viewBox="0 0 1200 1920" enable-background="new 0 0 1200 1920" xml:space="preserve">
<g id="Capa_5">
	<rect width="1200" height="1920"/>
</g>
<g id="ventanasybalcones">
	<path id="CelloP1" fill="#FFFFFF" stroke="#FFFFFF" stroke-miterlimit="10" d="M113.25,1690.75l2-1.75l9-5.25l-1.5-157.25v-1.833
		c0,0,47.083-12.333,62.25-14.667s33-6.667,52.5-7.833c19.5-1.167,35-3.5,70.667,2.5s52.167,7.5,65.667,11.333
		s15.167,3.833,15.333,5.5c0.167,1.667,3.505,4.5,3.505,13.333s0,98.833,0,98.833s-0.005,6.333-0.005,7s0.333,18.833-4.667,36.167
		l-2.333,5l0.583,7.667c0,0,11.875-3.625,13-4.125s3.375-1.75,3.375-1.75s2.625-5.5,3.75-6.75s11.5-12.25,13.375-13.25
		s10.25-3.25,14.5-3.375s8.25,0.75,10.375,1.75s8.875,6.5,9.625,8.375s3.875,10.75,3.5,12.875s-4.75,15.375-5.125,16.25
		s0.125,23.375-0.25,24.875s-1.75,12.75-14.5,15.5s-16.5-4.75-20.875-4.625s-12.75,1.125-16.875,6.625c0,0,1.125,4.25,0,5
		s-2.375,1.745-2.375,1.745s2.625,27.005-1.125,35.38c0,0,0.625,2.375,0.75,3s5,9.875,5,9.875s-0.5,1.75-1.5,0.625
		s-7.75-6.25-7.75-6.25L387,1793.5l-4.125,9l-3.5,4.875l-2.5-2.75l4.5-10.125c0,0,1.5-1-4-0.375s-10.75,4.5-12.25,5.75
		s-7.625,5.125-14.75,4.625s-9.125-1.125-11-2.875s-2.25-4.625-8.25-5.875s-11.5,1.375-12.75,1.875s-4.125-2.25-5.75-3
		s-3.125-3.375-4.125-1.25s-1.125,3.25-3.25,4.375s-19.5,8.75-27.75,8.25s-23.5-11.75-24.375-11.875s-13.375-4.25-22.5,3.625
		S214.5,1809,213,1809s-10.875-0.375-13.625-1.75s-8.375-7-11.25-8.375S187,1794,181.375,1794s-13.75,1.625-15.875,2
		s-9.75,0.875-11.75,3.125s-5,5-8.625,5.25s-10.25,0.25-11.375-0.125s-9.125-2.375-9.125-2.375l-4.75-2.625
		c0,0,0.75-0.375-1.75-0.75s-5.5-0.125-6.75,0.125s-3.75,0.75-5,0.5s-4.125-2-5.5-2.625s-2-0.375-4-0.25s-5.5,0.25-6.625-0.25
		s-5.25,5.625-7,6.25s-5.125,4-5.75,4.25s-4.5,2-7.875,1.875s-10.25-2.625-10.75-3.875s-3.125-4.375-3.875-5.5
		s-7.625-5.75-10.375-3.875s-5.625,5-5.625,5.375s-2.25,11.125-2.25,11.125l-28.625-2.25c0,0,16.125-10.625,16.625-12.25
		s0.875-3.125,1.875-5.375s7.75-8,10.625-8.5s7-1,8.625-0.875s5-2.75,5-2.75s-7.875-22.125-12.25-26.25s-8.125-8.375-9.75-13
		S26.125,1710,26.125,1710s-3.75-2.375-1.625-4.125s9.125-7.375,9.125-7.375s6.125-5.875,7.375-7.5s4.625-3.25,2.75-4.5
		s-4.875-7.5-6.25-8.625s-5.5-4.75-3.5-7.625s1.75-7.75,2.25-9.375s-0.5-4-1-6.25s-2.75-3.375,1.5-4.125s3.75-2.75,5.625-3.375
		s4,0.25,4.625,2.5s2.375,4.604,2.125,6.552s-1.625,1.823-0.375,3.448s2.25,2.5,3.5,4.75s5.25,7.125,4,11.75
		s-3.625,9.375-3.625,9.375s6.75,10.625,7.5,10.875s6.375,3.75,14.375,3.5s13.25-0.125,15.5,0.625s16,9.875,16,9.875
		s3.75-1.25,6.875-1.625s8.5-1.375,8.5-1.375S121.625,1697.125,113.25,1690.75z"/>
	<path id="CelloP2" fill="#FFFFFF" stroke="#FFFFFF" stroke-miterlimit="10" d="M304,1356.25l-133.125,3L170,1275v-61.5
		c0,0-3.667-15.167,33.333-25.833C226.5,1183,236,1182,236,1182s19.167-2.167,36.667,2.833s31.625,11.667,32.458,17.167
		c3.47,30.5,3.192,57.23,3.375,77.375c0.589,64.746-1.75,76.75-1.75,76.75L304,1356.25z"/>
	<path id="CelloP3" fill="#FFFFFF" stroke="#FFFFFF" stroke-miterlimit="10" d="M132.667,983.833c0,0-1.75-68.917,0-72.667
		C147.5,902.5,174.75,897.75,192.25,897.75s50.083,1.583,54.75,4.25c4,3.5,5.333,56.333,5.333,73.833s-4.083,81.667-4.083,81.667
		s0.875,2.75-6.75,3c-12,0.5-80.75,2.625-80.75,2.625h-21.417l-3.667-1.292L132.667,983.833z"/>
	<path id="CelloP4" fill="#FFFFFF" stroke="#FFFFFF" stroke-miterlimit="10" d="M156.5,772.125l-61.667,2.542
		c0,0-6.613-39.998-6.667-50.333s-0.333-55.667,0-65.333c0.333-9.667,6.333-42.167,6.333-42.167s16.625-5.958,24-7.083
		s31.375-0.75,34.375,0.75c1.375,2.875,3.25,13.625,3,16.75s5.616,59.887,4.792,73.917C161.667,715.167,156.5,772.125,156.5,772.125
		z"/>
	<path id="CelloP4_1_" fill="#FFFFFF" stroke="#FFFFFF" stroke-miterlimit="10" d="M395.5,775.75c0,0-156.25,4-167,0
		c-4.5-8.75-8.258-69.498-8-80.25s-0.753-42.947,2.5-49.75c1.642-3.432,5.5-11.5,5.5-11.5s37.875-14.375,76-14.875
		s51.75-0.125,85.875,8.625c0,0,8.875,6.75,11.375,63.881C403.794,738.586,395.417,774.5,395.5,775.75z"/>
	<path id="CelloP4_2_" fill="#FFFFFF" stroke="#FFFFFF" stroke-miterlimit="10" d="M180.25,495.667c0,0-4.25-52.319-5.25-78.326
		s4.5-59.091,4.5-59.091s12-15.75,66.167-16.417s68,3,81.667,10.167c4.833,14.333,4.833,18.833,5.167,22.167
		c0.333,3.333,2,53.167,2,53.167v60.333c0,0-1,4.833-7.167,5.5C317.833,493.833,180.25,495.667,180.25,495.667z"/>
	<path fill="#FFFFFF" stroke="#FFFFFF" stroke-linejoin="round" stroke-miterlimit="10" d="M456.279,1515.718
		c0,0-11.529-6.468-12.029,34.282s0.375,112,0.375,112s10.184,7.271,11.654,14.261l1.433,5.711c0,0-1.469,6.546-1.621,7.028
		s-3.467,10.5-3.467,10.5l-0.537,26.214c0,0,10.37-0.248,8.567-76.214S456.279,1515.718,456.279,1515.718z"/>
	<path fill="#FFFFFF" stroke="#FFFFFF" stroke-miterlimit="10" d="M505.5,1740c0,0-3.167-5.167-3.333-7.833
		c-0.167-2.667,0-12,4.833-15.5s6.167-5.333,16.333-5.833c10.167-0.5,91.5,3.167,99.5,2c9.5-0.167,86.833-8,89.5-7.5
		s15,2.833,16.333,19.167c0,0-0.5,9.167-2.667,11.667c0,0,2,7.167-35.833,7.5c-39.333,2.5-70.5,4.833-79.833,4.667
		c-9.333-0.167-47.833,1.833-66.333-2.833C521.167,1743.833,507.884,1744.594,505.5,1740z"/>
	<path fill="#FFFFFF" stroke="#FFFFFF" stroke-miterlimit="10" d="M502.833,1668.167c0,0-11-3.833-12-73.667
		c0.333-46,0.833-51.833,0.833-51.833s1.833-30.167,6.333-38.333l-0.083-1.75c0,0,1.083-4.25,6.333-10.833
		c4.833-5.5,7.917-9,13.083-10.917c5.167-1.917,21.25-9.5,32-11.167s24.583-4.25,29.667-4.917s31.583-1.25,42.25-0.833
		s18.25-0.583,30.75,1.667c7.75,1.5,41.333,7.167,58,15.583c9.667,6.5,15.75,10.5,20.917,35.75c1.5,10.333,1.75,15.083,1.833,20.167
		c0.083,5.083,2.083,37.667,1.583,44.583c0.333,14.917,0.25,37.833-0.417,43.75s-1.333,17.583-4.167,25.25
		c-2.833,7.667-5.417,15.417-20.75,19.25c-16.833,3.083-14.083,4.25-51.833,5.833s-44.75,1.833-59.75,2.083
		c-15.417-0.167-66.083-1.083-79.417-4.25C507.417,1671.167,502.833,1668.167,502.833,1668.167z"/>
	<path fill="#FFFFFF" stroke="#FFFFFF" stroke-linejoin="round" stroke-miterlimit="10" d="M768.925,1662.685
		c0,0-5.813-150.685,6.131-174.935c2.194-4.75,2.444-11.5,11.694-11.25s31.5-0.007,31.5-0.007s6.586-1.271,7.99,13.989
		l-0.074,12.765l6.542,8.652l0.625,158.014l5.167,13.581c0,0-9.806-7.774-11.005-8.158s-29.5,0.833-29.5,0.833l-12.713,10.005
		c0,0-6.368,8.14-7.952,14.482s-4.867,13.388,2.645,21.993s15.762,17.858,17.019,22.354c0.368,0.586,2.006,3.617,2.006,3.617
		l-13.034-1.495c0,0-4.383-18.274-5.591-20.16s-5.752-12.191-7.812-29.476S768.925,1662.685,768.925,1662.685z"/>
	<path fill="#FFFFFF" stroke="#FFFFFF" stroke-miterlimit="10" d="M340.875,1370.75v-8.417c0,0,0.625-0.833,0.792-1.167
		c0.167-0.333-0.792-1.917-0.792-1.917s-0.458-1-0.375-1.333s0.588-2.25,0.588-2.25s1.118-0.833,0.598-1.583s-0.873-0.5-1.196-1.333
		s0-1.583,0-1.583s-0.407-0.5-1.407-0.5s-2.667,0.333-3,0.583s-0.583,0.583-0.5,1.333s0.5,1.667,0.5,1.667s-2.25-1.083-1.583-2.833
		s1.667-2.833,2.333-3c0.667-0.167,3-0.5,3.5,0.417s0.648,2.167,1.49,2.25c0.76-0.333,1.593-2.083,1.593-2.083s0.583-1.167,0-2.25
		c-0.667-1.083-4.39-6.167-4.39-6.167l-0.443-0.667l-0.917-0.417l-0.333-2.167l-2.167-2.917c0,0-0.667-0.75-0.417-1.417
		s1-1.583,1-1.583s0.833,0,1.667,0c0.833,0,3.667,1.167,4.583,2c0.917,0.833,2.667,2.667,3.5,1.667s0.917-1.583,0.917-1.583h1.333
		l0.417-11l0.5-0.5l-2.417-5.25c0,0-0.583-0.833-5.5,0c0.083,0.25-1.417,0.833-1.5-1.167c0.167-0.917,0.333-1.25-0.25-2.917
		s-0.333-2.333,0.417-3.167s2.105-2.083,2.105-2.083s0.355-1.083,0-1.833s-0.522-1.417-0.522-1.417s1.5-1.25,1.917-0.917
		s1.833,3.25,1.833,3.25s-0.167,1.5,0.333,1.5s1.417-0.167,1.25,0.25s-0.583,1.583-0.167,2.167c0.417,0.583,1.583,1.5,1.583,1.5
		l0.917,0.333c0,0,0-1.75,0-2.167s0-1.5,0-2s0.25-1.75-0.5-2.083s-1.917,0-1.5-0.583s0.167,0,0.417-0.583s0.083-3.167,0.083-3.167
		l-0.333-2.667l-0.583-10.333c0,0-0.583-7.5,0.667-9c0.417-1,1.583-1.417,2.5-1.167s5.333,0.25,5.667,0.333
		c0.333,0.083,2.167-0.083,2.5,1.583c0.333,1.667,6.333,35,6.333,35s1.5,0.667,3.083-0.25s2.333-0.583,2.333-0.583
		s0.75-0.083,1.75-1.75c2.583-1.667,4.417-2.083,5.417-2.5s2.417-1,2.417-1v-1l-0.667-1.5l0.167-1.167c0,0,0.917,2.5,1.667,1.75
		c-0.25-1.333,0.333-3.333,0.333-3.583s-0.417-1.5,0-1.75s0.917-1.5,1-1.833s0.333-0.833,0.667-1.083
		c0.333-0.25,2.167,0.25,2.5,0.25s2.667,0.417,3,0.417s1.917-0.083,2.917,0.083c1,0.167,3.667,0.917,3.667,2.583s0,2.25,0,2.25
		s1.75-0.333,2.167,0.25s1.167,1.083,1.167,1.083s0.333-0.417,0.583-2.167s0.667-4.417,0.667-4.417s0.5-1.917,2.583-2.25
		s2.75-0.083,3.583,0.083c0.75,0.75,2.333,1.417,2.5,0.75s0-1.167,0-1.167s2.5,0.5,2.75,0.417s2-0.083,2-1.083s0.583-4.25,0-6.417
		c-1.5-2.5-7-12.417-7-12.417s-1.083-6.5,2.5-12.083s8.417-6.833,11.083-6.167c2.667,0.667,8.167,1.75,8.167,1.75
		s5.667,2.833,7.167,6.25c1.75,2.417,2.583,5.333,2.583,5.333l2,0.417c0,0,1.333,0.417,0,1.917c-0.167,0.833,0.167,2.167,1,3.5
		c0.583,1.667,2.917,6.667,2.917,6.667s2.417-0.75,3.5-4.167s0.833-4.583,0.833-4.583l0.833-1.083c0,0,0.583-3.583,0.667-5.333
		c0.083-1.75,1.5-9.333,2.667-11.75s5.917-10.083,8.25-11.833s7.417-5,8.167-5.25s6.167-2,7.667-2s4.917-0.417,4.917-0.417
		l2.25-10.333l1.333-11.083l1.417-8.75c0,0,10.5-11.333,56.25-8.75c0,0,40.083,4.667,68.083,19.833c0,0,8.333,4.833,8.5,9.167
		c0.167,4.333,0.833,55.583,0.833,55.583s2.833,0.083,6.333,2.833c3.583,3.417,10.917,11.75,14.667,14.5s10.75,8.417,23.917,7.083
		c6.583-0.667,11.083-1.5,11.083-1.5l-1.167-58.583c0,0-1-8.583,3.25-12.083c0,0,0.75-0.833,1.917-0.833s2.667,0.25,2.917-1.083
		s-0.5-11.75,1.667-13s25.5-14.917,42.417-16.167s38.667-1.75,43.917,0.333c0,0,3.333,1.25,3.333,5.25v27.167
		c0,0,7.167,1.667,9,2.667s9,7,9.333,13.333c0.667,7.5,1,17,6.333,21c0,0,5.833,5.833,10.667,3c0,0,3.333-1.5,4.833-0.667
		s14.708-2.125,20.083-4.875s20.125,0.375,22.5,3.875s6.085,14.36,6.152,40.244c0,0,0.542,11.103-0.027,13.381
		c-0.5,2-0.125,3.625-0.125,3.625l-0.375,4.375c0,0,0-2.75-1-3.375s-1.25,2.75-1.25,2.75s1.75,4.125,1.5,5.5s-2.125,2.875-1.875,4
		s2.125,2.625,2.125,2.625s1.25,1.375,1.125,2.75s0.5,2-0.5,2.5s-2,0-3.25,1.25s-1.625,0.625-1.25,1.25s2.125,1.625,2.125,2
		s-1.625,2.375-1.625,2.375l-1.25-1.25l-2,0.375l0.5,4c0,0-0.25,6.5,0.75,6.625s4.375,1.75,3.25,2.5s-5.875,2.875-7.875,2.5
		s-4.5,0.75-4.5,0.75l-2.5-0.875c0,0,1.25-1.125-2-0.375s-6.25,0.875-7.5,1.25s-6.75,0-6.75,0s-3.125,0.5-3.375,0.875
		s-2,1.25-3,1.25s-4.75-1.75-4.75-1.75s-1.375-4-0.25-4.875s5.375-0.875,5.375-0.875l0.5-2.625c0,0-2.625-1.625-7.125-1.125
		s-8.25,2.125-9.75,2s0.75-1.625-3.125-1.25s-8.75,6.875-8.75,6.875s-1.5,2.25-1.875,3s-4.5,0.625-4.5,0.625l1.875-15.25l-0.25-1.75
		l-4.125-0.125c0,0,1.875,3,1.375,3.25s-1.875,3-3,2.375s-3.5-2.25-3.5-2.25s-0.625,2.25,0,2.5s0.125,1.5,0.125,1.5l-5.75-2
		c0,0-3.75-4.875-5-5.75s-2,1-2,1.875s5.125,8.875,5.125,8.875L773.5,1380l-6.625-0.75l-18.75,0.75c0,0,4.625-5.625,5.25-6
		s4.375-0.625,4.375-0.625l0.125-2.5l0.125-1.5c0,0-2.75-1.75-3.625-1.875s-4.125,3.875-4.125,3.875l-7.75,5.5l-3.25,0.375
		l-1.125-3.5c0,0-11.5-2.75-14.5-3.75s-5.125,3-8.25,3.5s-17.25-0.625-18.625-1.125s-17.875-4.625-19.375-4.75s-10.75-0.625-25,3
		c-16.625,4-42.5,9.375-55.25,2.125c0,0-9.5-4.75-17.625-4.25l-3.25,1.125l-0.375,1.375c0,0-7.375,2.875-9.125,3.125l-0.875,3.875
		l-4.75,0.25l-0.25-3c0,0-7.125-3.5-7-5.25s-0.75-3.5-0.75-3.5s-10.75,14.75-40-1c0,0,3.875,4.625,2.75,6.5s1.375,5.5-12.375,4.75
		c-13.375,0.5-13.375,1.5-13.625-7.125c0,0,3.125-3.5-4.125-0.125s-12.875,10-30.25,6c0,0-18.125-10.125-30.25-1l-3,1.125L423,1380
		l-5.75,0.875l-0.75-4.625c0,0-1.125-0.125-2-0.625s-1.5-0.75-3-0.125s-10-1.25-10.75-1.25s-3.125,4.375-3.125,4.375
		s-3.75-1.75-5.75-1.25s-8.5-0.75-8.875-0.625s-4.875,0.5-6.375,0.375S373,1374.5,373,1374.5v-1.625c0,0-3.25-1.625-3.25-0.75
		s0.625,1.625-0.25,2.5s-2.625,2.875-2.625,2.875s-13.75,1.875-15.25,1.125s-7.625-5-8-4.875S340.875,1370.75,340.875,1370.75z"/>
	<path fill="#FFFFFF" stroke="#FFFFFF" stroke-miterlimit="10" d="M330.333,1074.167c0,0-3.5-9.333-2.833-19.333
		c0,0-3.002-9.667-0.084-11.833c0,0-1.802-5.333-1.275-6.333c0.526-1,0.693-5.833,0.693-5.833s-0.5-1.5-4.5-1
		c0,0-6.5-5.167-3.5-7.833c3-2.667,5.354-0.833,5.354-0.833s2.979,2.333,2.979-1.667s0.167-11.667,0.167-11.667s-0.167,1.333-2-1
		s-1.458-4-1.146-5s5.479-2.667,6.146-2.667s8.333,2.833,7.833,3.667c-0.5,0.833,0.214,3.833,0.023,5.5
		c-0.19,1.667-1.244,4.5,0.033,5.5s5.277,3.667,10.61,0.833c5.333-2.833,10.167-4.333,11.5-4.333s7.833,0.167,7.833,0.167
		s7.667-1,8.5-1s-0.667-73.167-0.667-73.167s1.167-6.833,1.667-8.5s0-5.5,0-5.5s0.333-18,80.833-16.833
		c0,0,58.667,4.5,74.667,11.667c0,0,10,2.333,11.5,3.167c1.5,0.833,4.5-0.167,4.333,8.833c0.333,11.5,1.667,62.167,1.667,62.167
		s1,2.333,1.833,3s0.333,2.833,4.167,2.5c3.833-0.333,5.5,0.5,7-0.667s-1.167-2.667,0-3.833c1.167-1.167,2.5-1.721,3-2.527
		s0.5-2.639,2.167-1.139s1.5,4.167,3.667,3.5s4.833-1.667,4.833-1.667s19.5-0.667,24.333,3.833l4.167,3.833
		c0,0-5.833-6.333-0.833-14.667c0,0-1.167-3.833-0.333-4.333c0.833-0.5,7.167-3.833,7.167-3.833l3.5-2.667l-0.667-45.333
		c0,0,18.5-5.333,37.167-4.667c18.667,0.667,35.833,2.167,37.5,3.333c1.667,1.167,0.833,48,0.833,48l0.208,38.5
		c0,0,10.292-1.167,14.625-10.333C709.333,993,710.667,985,710.667,985s2.333-3.667,4.167-5.5c1.833-1.833,4.333-1.833,4.667-2.333
		s5.333-0.5,6.667,1.167c1.333,1.667,2.833,2.333,2.833,4.5s-1.333,3.333,0,4.333s3.667,0.279,4,2.639s2.667,0.361,0,4.027
		c-2.667,3.667-2.167,1.333-3.667,4.833s-4,1.5-6.167,4.833s-6,6.833-2.167,8.333s1-0.167,6.833,1.833s10.333,4.5,13.833,2.833
		s16.5-7.167,17-7.667s2.333-4.5,2.333-4.5s-1.667-4.5-2.833-4.833c-1.167-0.333-4.667-0.167-4.667-0.167S752.667,994,752.833,993
		c0.167-1,2.667-4,6,0.333s3.833,6.833,5.167,6.833s1.833-2.333,3.667-0.333c1.833,2,2.833,3.667,3,4.667s0,4.667,0,4.667l4.167,1
		c0,0,4,1.833,4.667,2.167c0.667,0.333,4.667-0.667,4.833-1.833c0.167-1.167,1.833-3.5,1.833-3.5s4.333,2.167,4.333,4
		s0.167,3.167-2.5,4.167s-7.5,1-8,1.833s-2.667,2-2.833,5.667c-0.167,3.667-5.833,13.667-4.5,35.833c0,0,6.833,19.667-4.5,25.5
		c0,0-16.667,0.167-24.333-7.167l-0.667-1.5c0,0-6.167-1.167-6.167-0.667s1,2.333-1.167,3.667c-2.167,1.333-5.5,1.167-5.5,1.167
		v-4.5l-3.833-0.333l-2.5,5.833c0,0-4.167-1.667-4.833-2c-0.667-0.333-3-5.667-5.167-7.667s0.667-3.5-4.5-4.5
		s-6.833,1.667-9.833,2.5s-63.167-2.167-72.5-4.167l-1.167,4h-13.333l-0.333-3.333c0,0-28.333,5.5-54.5-8.667
		c0,0-13.333,4.833-20.167,1.833c0,0-1.667,8.833-25.167,6.333c0,0-11.5,8.167-23.667,2l-6.833-6.667l-7-3l-3.167-0.333L474,1069
		c0,0-40.5,1.333-50.833,2.667c0,0,0,3-1.333,4.167s-1.167,1.667-2.167,1.667s-3.5-0.667-3.5-0.667s-1-2-1.833-2s-1.667,0.5-4,1
		s-12.5-0.667-12.5-0.667l-13.833,2.5c0,0-1.833,9.333-2,10.5s-0.667,5.833-1.5,6.167c-0.833,0.333-4.333,1.333-5.333,0
		s-1-4.5-1-4.5v-2.667c0,0-5.333,4.333-7.5,4.667c-2.167,0.333-9-3.833-9.833-4.5s-3.167-5-3.167-5S339.5,1086.833,330.333,1074.167
		z"/>
	<path fill="#FFFFFF" stroke="#FFFFFF" stroke-miterlimit="10" d="M438.5,767.5c0,0,0.667-8.833,1.167-9.667
		c0.5-0.833-3.5-2.5-2.333-4.833s-0.333-40.5,5-41.167c0,0,8,0.333,9,0s3.167,6.333,3.167,6.333S465.333,701.5,468.667,701
		c3.333-0.5,11,1,13.667,1.667s13.5,6.667,14.5,6.833s6.167,0.333,11.333,0.167c5.167-0.167,24.333-4.333,29.167-4.167
		c4.833,0.167,11.5-0.833,12.667-0.833s5.667,1.167,5.667,1.167v-67.5c0,0,40.167-13,76.333-4.167c0,0,6.5,1.333,7.333,7.5
		c-0.167,7.333,0,65.333,0,65.333s2.667,1.333,3.667,2s3.167,2.667,3.167,2.667s7.5-6,8.5-6.667s6.5-5.409,9.5-5.705
		c3-0.295,11.333,0,11.333,0l3,1.038c0,0,8.333-5.833,11-6.5s-2.667-6.833-1-8.5s5.833-2,6.833-2s7.667-0.833,7,3.833
		c-0.667,4.667-1.667,8.667-1.667,8.667s11,14.5,8.5,39.5s-1,27.833-11.833,35.833c0,0-7.167,9.667-11.333,10.167
		s-38.333-5-38.333-5s-0.333,2.167-5.833,2S606.168,774,604.502,774s-10.667,3.333-12.167,3.5s-4.333,1-4.333,1s-4.833-7.5-6.5-7.5
		s-4.333,2-5.333,3s-3.667,4.167-6,5.333c-2.333,1.167-6.833,2.833-10.167,3C556.667,782.5,544.667,774,544.667,774
		s-20.5,1.167-22.667,1.75s-6.167-5.917-8.333-6.75c-2.167-0.833-3.833,7.5-11.167,8.833c-7.333,1.333-24.333,3.333-29.833,5.333
		s-13.333,7-19.833,1.667C446.333,779.5,438.5,767.5,438.5,767.5z"/>
	<path fill="#FFFFFF" stroke="#FFFFFF" stroke-miterlimit="10" d="M366.333,498.5c0,0-9.333-6.833-7.333-10.5s3.052-9,3.526-9.667
		s-0.193-2.167,1.307-5.5s2.5-18.333,2.5-18.333s-2.5-65-2.167-69.667s2-11.333,2.167-12.5s-0.5-3.167,2.167-4.5s5.167-2.667,5.5,0
		s3.167,13.333,3.167,13.333s9.333,23.833,10.167,24.5c0.833,0.667,4.667,2.667,4.667,2.667s4.333-13.667,5-16.167s2-6.5,5.333-6.5
		s11.167,2.833,11.167,2.833s7,0.667,8.833-0.167c1.833-0.833,15-14.5,15-14.5s-1.5-9.167,0.667-11s2.333-4.833,5.167-2.5
		c2.833,2.333,6.167,4.5,6.667,5.167s1,7.667-2.167,10.667s-2.833,4.333-1.333,6.833s8.167,11.333,8.167,11.333l3.667-1.5
		l1.167-0.833v-26c0,0,31-8,40.833-8.333s29.833,2.5,32.667,5.667L534.5,366l1.333,46.167c0,0,16,0,17.833,0.5s6.5-8,9.167-8
		s3.5-7.5,7.5-8s2.5,1.5,6.833,2s4,1,5.833,0.167s2.667-2.167,7.833-1.833c3,0.167,5.667,0.5,5.667,0.5v-49
		c0,0,30-12.833,55.833-12.833s55.167,4.833,56.167,5.833l0.833,69.833c0,0,3.667,3.333,4.5,3.333s-0.333,1.333,6.167,1
		s4.667-0.167,9.667-1.5s9.5,0,11,0.667s7.333,3.333,9,0.833s0.5-3.167,2.333-5.5s7.167-5.167,9.833-9
		c2.667-3.833-1.833-28.5-2.833-31.667s-12.167-18-12-21.833s1.667-13.333,3.667-14.833s6-5,6.5-5.167s0.667,7,2.333,9.667
		c1.667,2.667,23.5,27.5,25,33.167v3.833c0,0,17.167,13.5,19,10.833s1.5-4.833,1.833-8.167c0.333-3.333-0.5-3.667-1.833-5.5
		s-5.5-4-3-6.167s3.814-6.167,4.907-4c1.093,2.167,2.426,5,5.093,6.833s4.167-0.333,5.333,2.167
		c1.167,2.5-5.667,14.167-4.667,15.333c1,1.167,4.269,3.667,4.801,8.833c0.532,5.167,3.699,9.167,0.699,11s-6.667,2.333-7.167,3.667
		c-0.5,1.333-4.333,4.333-1.667,6c2.667,1.667,4.333,4.5,4.833,7.5S826,448,814.167,455l4.996,14.5c0,0,1.337,8.5,0.67,10.5
		S818,492.5,818,492.5s5,12.5-6.5,8.667C807,501,796,497.5,796,497.5s-10-4.833-14.333-5.833s-12.333-3-18.333-6.833
		s-8.167-6.333-10.833-6.833s-2.833,1-6.667,2c-3.833,1-10.667,1.833-10.667,0s-8-5-10.5-4.167s-2.333,5.5-7.167,5.167
		s-75.667-5.5-77.667-5.5s-52.5-0.333-54.833-0.333s-47.833,2.833-54.667,4.667c-6.833,1.833-73.833,6.833-76.333,7.5
		s-36.167,2.333-39.167,1.167s-6.667-4-10.167-3.333s-8.5,2.167-10,4.833s1.5,4.5-3,6.833s-6.167,1.167-9.833,3.5
		c-3.667,2.333-4.167,6.333-5,6.667c-0.833,0.333-3.333-4.167-3.333-4.167L366.333,498.5z"/>
	<path id="PianoP1" fill="#FFFFFF" stroke="#FFFFFF" stroke-miterlimit="10" d="M882.375,1674.375l-0.125-7.875l-1.083-60.667
		l-1.833-48V1519.5c0,0-0.917-8,1.458-9.167s5.208-1.667,5.208-1.667s3.167-3.167,2.667-5.5s-2.292-17.042,9.333-24.917
		c22.375-3.5,25.125-4.75,59.625-5.25s105.875,0.75,105.875,0.75s27.75,1.375,30.125,2.625s6.125,2,6.5,8.125s0,16,0,16
		s2.25,3.25,4.125,2.875v62.375l0.625,99.5l1.125,7.25c0,0-12.167,10.833-13,17.167c0,0,3,5,8.333,7.333s16.5,10.167,47,3.167
		v-1.833c0,0,12-1,20.833-17.833c0,0,1.5-7.667,1.5-9.167s-2.667-4-3.667-7.5s-3.167-5.333-6-4.167c-2.833,1.167-6,2.667-6.833,1.5
		s-4.5-4.167-3-8.5s-0.833-12.5,4-12.667s10.5,1.667,11.167,1.667s3.5-0.5,3.5-0.5s-3-10.167,0.833-12.167s11.667-3,12.333-2
		s4.833,0.5,1.5,6.167s-6,5.333-6,9.167c0,3.833,2,11.667,2.5,13.167s3.333,7,3.333,9.167s8.167,30.333-18.167,46.667
		c0,0-3.5,5.667-4.667,8.167s-2.167,3.833-1.5,6.833s3.667,9.167,3,11.833c-0.667,2.667-0.5,5.667-2,10.167
		s-6.333,10.667-6.833,14.167s-0.833,7.167,0.167,7.167s4.833-2.167,4.833-2.167s2.833-0.833,2.833,1.167s-0.333,6.667-0.833,8.333
		s-1,6-5.667,8.667s-7.333,6.167-11.667,7.333c-4.333,1.167-20.667,3.333-22.833,3.333s-20.667-0.167-31.667-1.833
		s-13.667-2.667-23.833-3.333c-10.167-0.667-23.667-1.333-29.667-1.333s-14.667,0.5-23.167,0.5s-17.667,6.833-27.667,6
		s-25.833-4.333-29.5-4.667c-3.667-0.333-13,1.667-13.5,1.833s-2.5,0.167-4.333-1.333s-3.5-3.167-8.167-1.833
		c-4.667,1.333-6.833,1.833-12.833,2.5s-7.5,7.167-18.5,6s-26.167-2.333-28.167-2.833s-10.833-4.667-16.333-5.667
		s-4.833-1.5-14.333-3.833s-18.167-4.333-19.333-4.333s-6.167,4.667-7.167,4.667s-4.167-0.333-4.5,0.167s-9.667,10.78-11.5,11.973
		s4.667-11.807,7.167-14.473s1.167-3,1.167-3s-5.667,0.667-7.167,0s-5.5-7.667-5.5-7.667s6.667,9.833,14.333,4.667
		c0,0,6.333-0.833,7.5-1s5.5-0.667,4.333-1.833c-1.167-1.167-3-3-2.667-4s-0.667-9.833-3.167-13.167s-8.167-8.427-12.167-9.88
		s-6-9.453-8.167-12.286s-19.833-17.167-17.167-27.667c2.667-10.5,3.833-18.833,11.833-23.833s8.667-7.833,10.833-8.667
		c2.167-0.833,7.333-0.5,10-1s18.333-1,19.5,0.167s7.333,7.167,9.833,7.833c2.5,0.667,19.167,5.5,20.5,6.667s14.167,9.5,21,10.167
		l10.5,0.5C889.333,1700.5,888.417,1675.083,882.375,1674.375z"/>
	<path id="PianoP2" fill="#FFFFFF" stroke="#FFFFFF" stroke-miterlimit="10" d="M862.835,1356.5l-1.085-46.25c0,0-2-42.25-2.5-51.25
		s5-44.625,5-44.625s-7.25-29.75,70.125-34.125c34.5-1.125,46-0.75,68.125,5.75c0,0,2.264,1.041,3.375,4.625
		c6.625,21.375,6.625,73.625,6.625,73.625l-3.25,88.5C1009.25,1352.75,864.585,1356.875,862.835,1356.5z"/>
	<path id="PianoP3" fill="#FFFFFF" stroke="#FFFFFF" stroke-miterlimit="10" d="M832,1054.75v-105V912c0,0,20.5-12.5,90.375-18.75
		c0,0,58.75-4.625,88.625,1.75c0,0,0.297,1.317,1.375,4.25c3.125,8.5,5.875,31.553,5.875,64.75c0,41.054,0,85.5,0,85.5l-64.75,4.875
		l-91.125,5.125l-26.125,1.5L832,1054.75z"/>
	<path id="PianoP4" fill="#FFFFFF" stroke="#FFFFFF" stroke-miterlimit="10" d="M737.667,769c0,0-3.957-53.731-4-80.532
		c-0.043-26.801,3.667-59.135,6.583-60.718c0.886-0.481,37.5-12.625,77.75-17.375c0,0,56.125-3.625,85.125,3.375
		c0,0,7.125,0,6.75,12.375c2.262,6.801,7.458,26.593,7.458,62.375s-3.667,70.167-3.667,70.167l-119.917,6.458L737.667,769z"/>
	<path id="PianoP4_1_" fill="#FFFFFF" stroke="#FFFFFF" stroke-miterlimit="10" d="M1063.75,744.333c0,0-1.75-46.583-2-61.083
		s3.75-47,3.75-47s-2-15.5,25.583-20.083c0,0,16.75-1.75,27.667,10.333c0,0,4.747,23.232,5,50.5c0.231,24.968,1.25,39.5-2.5,65
		L1063.75,744.333z"/>
	<path id="PianoP5" fill="#FFFFFF" stroke="#FFFFFF" stroke-miterlimit="10" d="M882,480c0,0-7.403-49.94-7.5-68.75
		C874.28,368.5,876,334,876,334s37.875-16.75,67.625-21.625c0,0,53-1.625,55.5,2C1002.75,315.75,1012,313.25,1012,386.5
		c0,36.452-4.25,83-4.25,83l-58.125,4.5l-62.875,6H882z"/>
</g>
</svg>
