<?xml version="1.0" encoding="utf-8"?>
<!-- Generator: Adobe Illustrator 17.0.0, SVG Export Plug-In . SVG Version: 6.00 Build 0)  -->
<!DOCTYPE svg PUBLIC "-//W3C//DTD SVG 1.1//EN" "http://www.w3.org/Graphics/SVG/1.1/DTD/svg11.dtd">
<svg version="1.1" xmlns="http://www.w3.org/2000/svg" xmlns:xlink="http://www.w3.org/1999/xlink" x="0px" y="0px" width="1200px"
	 height="1920px" viewBox="0 0 1200 1920" enable-background="new 0 0 1200 1920" xml:space="preserve">
<g id="fondo">
	<g id="Capa_25">
	</g>
	<rect x="-29" y="-27" stroke="#FFFFFF" stroke-linejoin="round" stroke-miterlimit="10" width="1312" height="1964"/>
</g>
<g id="verticales">
	<path id="LV2" fill="none" stroke="#FFFFFF" stroke-miterlimit="10" d="M70,117.6l0.1,0.7c0.5,4.5,1.1,8.8,1.1,8.8l2,24.2l0.7,16.1
		l-7.7-0.7l1.3,19.2l1.2,48.2c0,0,0.7,8.8,1.2,10c-0.2,1.8-0.5,3.8-0.5,3.8l3.2,3.3l-10.5-2v15.2v12.8v13.7l-0.8,24.8l8.2,1.2
		l-0.5,16l-0.9,3.5l0.9,2.3l-1.8,3l1,2.2v4.5v7.7v12.7l-21.3-3.3l1,46.7l-3.5-1.3l1.3,30.5l0.7,13.5l0.2,5.2l11.8,4h4.7h1.7l0.8,1.3
		l0.3,11.5l1,12.7l0.3,3.3v4.2l-0.2,12.7l-7.4-0.7l1,13.5L61,531l1,10.8l0.2,3.3l2.2,3.5l-0.5,2.3l-3.2,6.3v3l-2.7,1.5l-0.7,3.3
		l-1.5,3.5c0,0-3.8,7.5-4,8.7s5.5,3.3,5.5,3.3l-2.3,7.7l-1.3,7.7l-0.8,3.2l-1,2.3l1,1.2l-1,5.5l-2,20.2l16,6l-1,2.5l-0.5,5.3l0,3
		l1.1,1.4l-1.2,0.7l-0.2,7.7l-0.7,1.2v7.9l-0.3,9.7l-0.5,4.6l-0.3,2.2l-2.4-0.8l0.4,17.9l-0.3,8.5l0.1,8.8l0.5,9.1l0.5,1.5l0.2,1.8
		l0.2,4.1l0.2,4.3l-0.4,2.9l0.8,2.2l0.1,3.2l0.2,4.7v3.3l0.6,4.4l-0.2,2.7l-0.2,1.9l0.7,2.2l-0.4,5l-0.1,1.4l-3.5-0.6l-3.6-1.5
		l-2.7-1.2l-7.8-3.2c0,0-1.2,1.9-0.9,2.8c0.2,1.7,1.4,6.8,1.4,6.8l0.8,1.4v2.8l0.6,1.3l0.2,1.6l-0.2,1.2l1.4,2.9l0.8,3l-0.2,1.4
		l1.1,2.1l0.9,2.3l0.9,2l0.4,1.8l0.7,1.8l1.3,2l2.1,3.8l2.2,1.6l-0.2,2.2l0.3,2.3l2,2.1l-0.2,1.8l1.2,1l0.8,2.2l3.9,1.2l2.1,1.1
		l0.7,1.2l1.1,7.4l1.1,7.4l0.2,2l0.7,1.6v2.3l-0.6,0.9l0.9,1.4l0.5,7.3l1.1,1.8l0.1,4.4l0.4,7.9l-0.9,1.3l0.9,2.4l-0.7,12.5
		c0,0-2.5,0.9-4.7,0.7s-19.9-3.1-19.9-3.1s-0.9-0.3-1.2,2.8s-0.1,5.1-0.1,5.1l0.1,6.8l-0.4,11.8l-0.4,5.8l-0.8,3.1l0.4,13.1
		c0,0-0.2,2.1-1.6,2.1s-4.9-0.7-4.9-0.7s-1.2,0-0.8,2.3s0.4,3.3,0.4,3.3l-0.1,2.1l0.4,1.8l0.1,5.5l-0.2,4.3l0.2,6.4v3.6l0.2,20.6
		l9.7,1.2l0.1,12.7l-0.4,16.2l0.4,17.8c0,0,0.1,2.7,1.2,3.1s5,1.1,5,1.1l0.3,13.6v12.1v14.7c0,0,4.7,1.5,7.3,1.8s10.6,1.5,10.6,1.5
		l6.4,0.6h1.7v8.6l1.1,14.2v6.4l0.6,7.8l0.4,8.2l-5.4-0.5l2.1,6.1l2.9,11l4.1,16.1l3.9,15.9v0.7h2.2v2.8v3.2l1.1,5l0.4,9.8l1.9,18.8
		l14,0.5l0.7,56.1l-3.6,2.2l0.7,12.5l0.2,7l-0.5,2.3l0.5,2.9l-0.1,9.6l-0.1,11.6h-4l0.6,25.3l0.6,25.9c0,0-0.2,1.4,4.2,1.6
		c4.3,0.2,4.1,3.6,4.1,3.6l0.6,6.8l1.2,13.1l0.5,10.2v9.7l-35-0.7v4.4l0.9,8.4l0.2,2.5l0.4,7.8l0.8,10.1l1.2,5.6v1.6l0.2,1.9
		l-0.5,3.2c0,0-1.1,30-0.1,33.8l-8.8,0.6l-11.9,10c0,0-1,3.2-1.1,5.8s-1.2,10.9-1.2,10.9l-1,6.1l-1,5.8l0.4,1.6l-0.9,3l14.2,1.2
		l1.2,1.9l-3,40.8l1,2.1l-1.4,1l-0.8,40c0,0-3.2-1.2-3.5,4.9s0.4,30.9,0.4,30.9l-0.1,10l0.1,3.9h-4.9c0,0-3.8-1-3.8,4.9
		c0.6,5.8,0.8,9.1,0.8,9.1v5.4l-0.4,4l1.1,2.8l-0.5,4.1l0.5,10.5l-0.1,2.1l0.4,1.8l2,65.1H53.6c0,0-0.2,12.4,0.1,15.9
		s0.8,7.4,0.9,8.6s1.1,5.9,1.1,6.6s0.1,4.4,0.1,4.4"/>
	<path id="LV4" fill="none" stroke="#FFFFFF" stroke-linejoin="round" stroke-miterlimit="10" d="M136.1,1776.1l-0.2-38.2l0.1-13.1
		l-0.1-7.1h6l15.9-1.1c0,0,0.1-1.6,0.1-2.4s0.2-9.9,0.2-9.9s0.1-4,0.4-5.6s0-4.1,0.8-6.4s1.6-5.5,1.6-5.5l-0.1-5.1H147l-6.8-152.9
		c0,0-5.5-5.7-5.4-7.2c0.1-1.6-0.8-21-0.8-21l-0.8-8l-1.9-14.6l-0.5-6.8c0,0-0.9-5.8-1.1-7.4c-0.2-1.6,0-15.1,0-15.1l0.1-7.6
		l0.2-11.6l0.1-17.1h20.4v-7.1l-0.1-2.5l-0.1-5.1l-0.2-4.8l0.4-4.2c0,0,0.4-10.5,0.4-15.2s0-6.2,0-6.2l10.9-0.2l1.8,0.8h2.1
		c0,0,4.7-0.9,6.8-1.1c3.5,0,4.2-2.5,4.2-2.5l3.8-1.8l2.3-53.7l-6.1-74.9l-6.4-19.8c-1.2-2.4-4.5-3.3-4.5-3.3
		c-3.2-1.4-16.9-1.1-16.9-1.1l-0.3-1.8l-1.3-3.4l-1.9-4.3l-2.5-5.6l-1.6-3.8l-2.9-6.6l-3.1-10.4v-1.9l-1.1-2.8l-0.4-1.8l-0.9-1.4
		l-2.5-1.4l-1.9-3.6l-1.5-2.6l-0.1-1.9l-1.2-2.6l-2.7-7.4l-2.8-7.1l-2.2-6.1c0,0-2.1-5.4-2.5-6.9s-1.6-6.3-1.6-6.3l12.3-0.6
		l15.9-1.4l-0.3-5.2v-5.6v-4.2c0,0,0-16,0-20.5s-4.8-4.1-4.8-4.1l-8.1-0.4l-17.2-0.7l0.1-14.4l0.1-12.6c0,0-0.1-7.8-0.1-9.8
		s-2.2-3.3-2.2-3.3l-6.8-1.3l-0.4-13.8l-0.2-25.1l-0.1-9.9l-4.9-0.6l-1.6-2.9l1.2-2.3l-0.3-13.4l-0.6-14.3l0.3-7.7
		c0,0,0.8-8.3-0.7-8.7c-3.8-0.7-3.3-2.8-3.3-2.8l-0.2-4.5l1.2-15l0.5-9.2l0.5-9.5l1.2-10.2h24.6l-0.2-2.8l-3.5-14
		c0,0-2.5-9.1-2.5-10.5s-0.1-4.2-0.1-4.2l-1-7.1l-0.4-5.4l-0.5-3.9c0,0,0.1-2.2,0-4.9s-1.2-7.2-1.2-7.2l-7.8-1l0.6-2.8l0.2-6.3
		c0,0,0.1-4.8,0.2-8.6s1-8.6,1-8.6l1.2-23.1l-9.8-126.4l-1.2-33.1c0,0-1.4-2.4-1.6-10.5c-0.2-8.1-6.8-12.8-6.8-12.8l0.6-0.6
		l8.4-19.9l1.2-4.2l1.7-3.3l1.8-6.5l3-5.5l-2.3-4.5l-2.2-6.6l-1.7-5.3l-0.6-2.8l-1.8-6l-2.6-9.2l-1.9-4.9l17.3,2.5L107,501
		c0,0,0-10.2-0.2-10.6s-0.8-2-0.8-2l1.2-1.7l-0.4-2.7l0.2-3.2l0.5-2.7l-0.2-6.5c0,0-0.2-1.3-1.4-1.7c-4.1-0.9-3.8-4-3.8-4l0.2-20
		l-0.1-5l-0.6-9.8V423l0.9,0.1v-3.8V412v-12.2v-24.9l13.5,1.8h6.4l-0.2-9.4l0.9-1.4l-0.8-3.2l0.1-10.8v-9.4l0.8-15l-15.4-1.9
		l0.4-9.6l0.3-13.5l0.4-16.1V283v-4.3V273l0.6-2.4l-0.6-1.7l0.9-2.7v-4.6v-3.3v-3.7l10.2,0.5l-1.2-2.4l-0.2-2.6l0.1-3.7l-0.4-4.6
		c0,0,0.1-4.4,0-5.8c-0.1-1.4-0.4-5.2-0.4-5.2l-0.9-3.9l0.5-3.1v-1.7l-0.6-4.9l-0.3-9.5l-0.5-6.2l-1-3.6c0,0,0.7-2,0.8-2.5
		c0.2-0.5,0.1-3,0.1-3l-1-3.4l-0.2-5.5c0,0,0.1-2.2,0.2-3.1c0.1-0.8-0.8-2.7-0.8-2.7v-4.9l5.9,0.4l-0.6-2.6l-0.4-3.6v-2.3l0.1-2.5
		l-0.3-3.5l0.1-2.6l-0.6-8.5c0,0,0.7-6.8,1.8-11c0.5-2.1,0.5-2.1,0.5-2.1"/>
	<path id="LV6" fill="none" stroke="#FFFFFF" stroke-linejoin="round" stroke-miterlimit="10" d="M174,172.8l0.3,6.8H162l5,63.2
		l-24.8-1.8c0,0-10.5-1.2-3.2,21s17.5,55.2,17.5,55.2l4,11.5c0,0,12.4,6.5,15.7,21.8l-5,21.3l1.7,94.3c0,0,0.8,4.3-1.7,9
		c-7-1.4-11.4-1.7-21.4-0.9c1,9,1.2,20.5,5.5,48.2l-26.8-3.5c0,0-1.2,1.2-1.8,20.8c0.8,11.2,1.2,15.5,1.2,15.5s-7,46.8,1.8,58.8
		l9.5,153.5l-1,6l1.5,3.2c0,0-6.8,10.2-7,16.8l2.1,1.5l26.3-2l-1.2,32.5h-6.2v35c0,0-2,1.2,1,10.8c2.8,12.5,2.8,22,7.8,28.2
		l-31.4,7.3l1.7,157.3l22.3,2.3l35.2-0.3c0,0,3.4,4.3,3.1,7.3s1.5,39.8,1.5,39.8l-25,1.8h-7.8c0,0-2.2,0.8-1.1,5.2
		c1.1,4.5,10.3,37,10.3,37s5.5,18.8,10.2,25.5s9.8,13.8,9.8,13.8l27.1,70L210,1355l0.2,3.5c0,0-0.8,13.2-6,15.8l-3.5,36.5l-4.5,2.2
		h-30.5l-3.5,32c0,0,3,24.8,5.2,31.2s4.5,39.2,4.5,44.5s51,156.2,51,156.2s-4.8,25.5-3.2,28s9.8,9.2,9.8,9.2l1.5,54.7"/>
	<path id="LV9" fill="none" stroke="#FFFFFF" stroke-linejoin="round" stroke-miterlimit="10" d="M222,157.9
		C222,157.9,222.1,160.3,222,157.9C222,156.7,222,157.9,222,157.9L222,157.9c0,1.8,0,4.8,0,4.8l-0.3,4.6l-0.6,1.1l0.6,1.2l-0.6,2.6
		v3.5v1.6v5.1l-2.1,1.9v2.6v6.2v5.5v3.6v2.9v5.6v7.5l-0.4,15.2v13.9h1.2l0.6,12.7l0.7,7.9l0.4,5.2l0.7,5.9l0.7,4.8l0.6,7.6l1.1,13.9
		l0.3,1.2v2.8v5.2l0.8,2.4l0.4,2.3v2.4l0.4,2.5l1.1,6.6v2.8c0,0-0.1,4.5,0,4.7s0.7,3.5,0.7,3.5s0.8,3.1,0.8,4s0,7.1,0,7.1L256,466.3
		l-3.7,24l-1.3,9l-2.3,4.7l-2.7,7.3l-2.3,9c0,0-0.5,4.2,0.7,5.3c1.5,1,8.2,1,8.2,1h9.2h8.7l-1,5.2l-1.3,9l-0.5,3.2l-0.7,3.7l-1,6.3
		l-1,4.3l-0.5,6l-0.8,3.7l0.2,3.7l0.5,8.2l1.2,13.2l0.3,5.5l0.5,3.3l1,3l3.2,8.7l1.3,8.7v9.3l5.7,140.8v3.5c0,0-2.8,3.5-2.3,9.3
		c0,0-2.7,3-3.2,5s-1.3,13.3-1.3,13.3l-0.7,4.7l-0.2,6.2l-0.8,12.5l-3.3,1.7l-0.3,27.5l-0.5,3.2l0.2,3.5l-0.7,1.7c0,0-2.8,1-3.3,6
		s0,8.8,0,8.8l-0.5,3l0.5,1.7c0,0-0.8,1.4-0.8,3.5c-0.2,2.2-0.6,4.1-0.6,4.1l-0.1,2.8l-0.7,2.2l-0.7,3.9l-0.4,4.9l-1.3,9.1l1.9,1.6
		l10.5-1c0,0,6.9-0.4,7.7-0.4s4-0.2,4-0.2s3.2-0.2,3.3,3.8c-0.4,4.3-1.2,7.6-1.2,7.6s-0.8,1.2-0.6,1.5s0.9,1.4,0.9,1.4l0.8,7.5v8.2
		l0.4,7.4v11.5l12.5-0.5l0.8,22.8v24.7h-8.6c0,0-2.3,0.1-2.2,4.4c0.1,4.3,0.2,15.4,0.2,15.4l0.2,9.8c0,0-0.2,11.6-1.6,13.5
		s-3.8,3.2-7.2,2.9l-3.5,0.1c0,0-0.6,1.9-0.6,4.1s0.1,10.9,0.1,10.9l-0.2,3.6l0.1,4.2v3.4l-0.1,5.6l-0.2,3.6l-0.2,4.4l0.2,3.6
		l-0.4,5.2l0.2,3.9v2.9h-13.2l-0.5,2.8l-0.8,2.2l0.2,1.4l-1.2,1.6v4.1l-0.6,1.8l-0.5,3.4l-1.2,2.9l-1,5.6l-0.6,2.1l-0.1,1.5
		l-1.2,2.4v1l-1.2,2.4h-2.2c0,0,0.5,12.1,0.5,13.8s0.4,5.1,0.4,5.1l0.6,3.8c0,0,0.2,4.2,0.8,5c0.4,1.4,0.5,6,0.5,6l0.8,5.9l4,110.2
		l4.3,46.3l5.3,13.7l1.3,0.8c0,0-1.5,0.7-2.3,6s-2.2,9-2.2,9l-1,4.7l-0.3,6.3l-1,15.8l-0.7,12.7l9,0.8l-0.8,22.7c0,0-2,7.7-2,8.5
		s0.5,5.2,0.8,7.8c0.3,2.7,1.8,8.7,2.3,9.5s3.8,7,4.5,7.5s5.2,4.3,5.8,5c0.7,0.7,2.8,5,2.8,5l0.7,4.5c0,0,3.2,14.8,4,16.5
		s2.3,153.6,2.3,153.6L280,1679l-1.3,8c0,0-3.3,12.3-3.3,14.7c0,2.3,0.3,8.3,0.3,8.3v4.7H272l0.3,26.7l0.3,29.3"/>
	<path id="LV10" fill="none" stroke="#FFFFFF" stroke-linejoin="round" stroke-miterlimit="10" d="M222,157.9c0,1.6,0,4.8,0,4.8
		l-0.3,4.6l-0.6,1.1l0.6,1.2l-0.6,2.6v3.5v1.6v5.1l-2.1,1.9v2.6v6.2v5.5v3.6v2.9v5.6v7.5l-0.4,15.2v13.9h1.2l0.6,12.7l0.7,7.9
		l0.4,5.2l0.7,5.9l0.7,4.8l0.6,7.6l1.1,13.9l0.3,1.2v2.8v5.2l0.8,2.4l0.4,2.3v2.4l0.4,2.5l1.1,6.6v2.8c0,0-0.1,4.5,0,4.7
		s0.7,3.5,0.7,3.5s0.8,3.1,0.8,4s0,7.1,0,7.1L256,466.3l-3.7,24l-1.3,9l-2.3,4.7l-2.7,7.3l-2.3,9c0,0-0.5,4.2,0.7,5.3
		c1.5,1,8.2,1,8.2,1h9.2h8.7l-1,5.2l-1.3,9l-0.5,3.2l-0.7,3.7l-1,6.3l-1,4.3l-0.5,6l-0.8,3.7l0.2,3.7l0.5,8.2l1.2,13.2l0.3,5.5
		l0.5,3.3l1,3l3.2,8.7l1.3,8.7v9.3l5.7,140.8v3.5c0,0-2.8,3.5-2.3,9.3c0,0-2.7,3-3.2,5s-1.3,13.3-1.3,13.3l-0.7,4.7l-0.2,6.2
		l-0.8,12.5h26.7V851l0.8,15.2l-0.1,15.2l1.2,21.5v11l-13.8,0.1c0,0,0,0,0.1,4c-0.4,4.3-1.2,7.6-1.2,7.6s0.1,1.1,0.3,1.5
		s0,1.5,0,1.5l0.8,7.5v8.2l0.4,7.4v11.5l12.5-0.5l0.8,22.8v24.7h-8.6c0,0-2.3,0.1-2.2,4.4c0.1,4.3,0.2,15.4,0.2,15.4l0.2,9.8
		c0,0-0.2,11.6-1.6,13.5s-3.8,3.2-7.2,2.9l-3.5,0.1c0,0-0.6,1.9-0.6,4.1s0.1,10.9,0.1,10.9l-0.2,3.6l0.1,4.2v3.4l-0.1,5.6l-0.2,3.6
		l-0.2,4.4l0.2,3.6l0.8,5l-0.9,4.1v2.9h-13.2l-0.5,2.8l-0.8,2.2l0.2,1.5l-1.2,1.5v4.1l-0.6,1.8l-0.5,3.4l-1.2,2.9l-1,5.6l-0.6,2.1
		l-0.1,1.5l-1.2,2.4v1l-1.2,2.4h-2.2c0,0,0.5,12.1,0.5,13.8s0.4,5.1,0.4,5.1l0.6,3.8c0,0,0.2,4.2,0.8,5c0.4,1.4,0.5,6,0.5,6l0.8,5.9
		l4,110.2l4.3,46.3l5.3,13.7l1.3,0.8c0,0-1.5,0.7-2.3,6s-2.2,9-2.2,9l-1,4.7l-0.3,6.3l-1,15.8l-0.7,12.7l-32.4-0.4l-1.7,31.3
		c0,0-1,4.4-1,5.2s1.5,13.8,4,18.8c1.2,2.4,6.8,5.9,7.2,6.8s9.3,36.2,10,36.8s43.4,143.1,43.4,143.1L280,1679l-1.3,8
		c0,0-3.3,12.3-3.3,14.7c0,2.3,0.3,8.3,0.3,8.3v4.7H272l0.3,26.7l0.3,29.3"/>
	<path id="LV14_1_" fill="none" stroke="#FFFFFF" stroke-linejoin="round" stroke-miterlimit="10" d="M346.3,164.8c0,4,0,14,0,14
		s-0.2,6.8,3.8,7s10.8,0,10.8,0s1.2-0.5,1.2,7s0,19.2,0,19.2v5v2.8v2.5l-0.6,3.2v2.1l0.6,3.9l-1,2.1c0,0-0.4,1.2-0.2,1.6
		s0.2,3.5,0.2,3.5v2.6l-0.4,3.6v4.4v6.2h-15.4l-11.9,65.2c0,0,1.2,33.1,1.1,52.2c3.5,28.3,3.5,96,3.5,96v16.3c0,0,6.6,0.6,9.2,0.4
		c0,4-0.1,7.9-0.1,7.9l-0.8,4.9l-1.2,6.8l-0.2,5.4l-0.2,4.8l-0.8,3.4l-1.2,4.9v3.1c0,0,0.8,1.6,2.1,1.8c-0.2,2-1.9,7.8-1.9,7.8
		l-1.9,6.6l-1.2,5.1l-0.6,5.2l-0.8,3.9l-1.5,4.8l-0.8,1.8c0,0-2.8-0.1-2.4,8.2s2.8,31.9,2.8,31.9l0.6,6.4l0.7,6.9l1.6,8.4
		l19.1,144.8l11.4,1.6l-2.2,11l-0.2,4c0,0-2,5.1-2.2,10s-0.6,22.6-0.6,22.6v3.6l-0.1,1l-15.4,0.9c0,0-0.5,0.5,1.5,5.4
		s3.4,8.1,3.4,8.1l2.9,8.8l3,8.8l2.5,7.1l3.1,7c0,0,7.6,31,7.7,46.4c3,1.4,6.9,3.3,7.1,6.5s5.2,19.4,5.2,19.4l5.9,77v25.2
		l-10.8,32.9c0,0-6,12-7,17.4s-1,7.4-1,7.4s1.8,0,1.8,1.1s-0.2,2.6-0.2,2.6l-0.4,4.5l-0.5,5.6l-1.2,11.1l-1,6.4l-0.2,2.6l-0.4,1.6
		v1.5l-0.2,2.2l0.1,2.9l0.2,3.4v2.8l0.8,2.1l-0.5,2.1l0.4,2l0.2,2.8v3v2.9v2.5v2l0.1,2.5l-0.5,12.2l0.2,1.2v1v1.6v1.5h2.5v3.8
		l-0.2,2.5l-0.5,2.9l0.8,16.9l0.4,7.6l0.2,5.1c0,0-1.2,5.4-1.1,6.1s7.8,0.6,7.8,0.6l8.5-0.5c0,0,2.8,0.4,2.8,1.2s0,2.5,0,2.5v2.4v2
		v2.4v1.6v2.4v3.4v2.4l-0.9,1.8l0.9,1.5v5.5v4.4v2.8v2.1l-0.6,2.6v1.5l0.6,3c0,0,2.9,1.1,7.9,1s8.1,0,8.1,0s0.6,2,0.6,3.2
		s0,4.2,0,4.2v4v4.6l-1.1,21.4l-5.8,7l0.4,11.1l0.2,11.6l0.4,9.5l-0.6,7.2l-5.5,6.1c0,0-5.9,4.2-7,6.2s-1.2,4.1-1.2,4.1
		s-4.4,2.5-4.9,3.9s-1.8,4.4-1.8,4.4l-0.1,1.6l-1.1,1.9l0.4,4.1c0,0-1.5,3.1-1.9,5.8c0,0,11.8-0.9,12.4-0.9s7.4-0.6,7.4-0.6
		l-2.1,13.9l-1.9,10.4l-1.4,7.5l-1,5.1c0,0,7.2,8,10,11.8s6.1,7.5,7.6,10.6s2.5,7.9,2.5,7.9l1.4,8.9l0.8,9.8l0.3,281.4h-2.7
		l-0.3,6.9l0.9,35.6"/>
	<path id="LV16" fill="none" stroke="#FFFFFF" stroke-linejoin="round" stroke-miterlimit="10" d="M506.8,1814.1l-0.2-3.5v-5.2
		l1.2-7v-6.8v-6.5v-3.8v-7.5v-8.8v-5.8h-3.7c0,0-2.6-1.8-2.6-2.5s-0.5-8,0.8-8s1.5-5.8,1.5-5.8s0.8-6,0-9.5s-5-6-5-6H487l0,0
		l0.1-12.5c0,0-0.2-30.9-0.5-25.7c-0.9-5.2,1.8-7.3,1.8-7.3l5-4.4l10.7-8.1l3.6-13.9l-3.5-125l-1.4-26l-12.6-2.5l-8.8-0.2l-9.2,0.5
		l-2-39.2l-1.7-23l-1.8-8.3l0.3-9l0.8-5.7l0.5-19.2l18.6,0.6c0,0,0-1,0-1.9c0-2.9,0.1-10.2,0.5-17.5c0.5-9.5,6.5-15.5,6.5-15.5
		l8.5-40.2c0,0-13.7-97.8-13.5-106.2c0.2-8.3-14.7-19.2-14.7-19.2l-7.7-7.3l-1.2-4.7l-2.8-13l-2.5-6.2c0,0-4.2-11.3-5.2-14
		s-6.5-11.5-8-13.5c-1.3-1.2-2.5-7-2.5-7l-0.3-7l-2.2-13.8l-0.3-4.7v-4l-0.8-3.7l-0.3-4.3l-0.5-3.5l-0.8-2.3c0,0,4-1.7,4-2.2
		s0-10.3,0.7-13.2s3.2-6.3,3.2-6.3l-2.2-5.2l-0.2-28.7l-3.3-124.3l-0.2-4.5l1.5-4.3l0.3-6.3l0.2-4l0.2-3.8l0.3-3.3l0.5-4.3l0.7-4
		c0,0-0.8-3.3-0.7-5c0.2-1.7,0.7-4.7,0.7-4.7c-1.2-2-1.3-7.5-1.3-7.5v-3.2l-1.5-3.8l-1-3.7l-0.8-5.3c0,0-2.3-10.3-2.7-13
		s-0.7-3.7-5.2-2.5s-5,0-5,0l0.3-5.3v-6l1.7-5.7l0.3-7l1.7-6.3l1.2-7l2-6.2v-5.2c0,0-1-3-1.5-3.2s-3.5-0.3-8.5-0.8s-4.7,0.3-4.7,0.3
		l-5.7,1L408,775l-5,0.8l-7,0.9l-1.3-3.8l-1.2-9.3l0.7-19.7l-3.5-9.8v-42.8l1.2-32.5c0,0,4.7-9.7,4.8-10.3c0.2-0.7,3.3-9.3,3.3-9.3
		l2.7-7.2l3.3-6.3l3.1-3.2c0,0,1.5-0.7,2.2-0.8c0.7-0.2,1-2,1-2l-0.1-1.8l0.4-4.5l0.1-5.9v-2.4v-3.9l0.2-3.3l0.4-7.5l-0.6-21.9
		c0,0-1.2-9.4-1.9-12.2s0-7.4,0-7.4l1.5-2.9l0.6-3.2l0.9-4.1l1.5-4v-4l1.2-2.9l0.6-3.8c0,0,0.9-3.6,1.1-5.9s-0.5-2.9-0.5-2.9
		s-6.5,1.6-6.2,1s0-5.6,0-5.6s1.4-10.8,1.9-14.2c1.1-2.6,4.2-4.9,4.2-4.9l-1.5-41.2l-0.1-4.1l0.8-2.4l-1.4-3.2l0.7-8.2v-2.5l-0.7-3
		v-2.6v-3.9v-12.9h5.3l-0.1-5.8l0.5-10.5l-0.9-3.1l0.6-11c0,0-0.1-5.2-0.4-9.2s0.2-3.9,0.2-3.9c1.5,0.1,3-1.6,3-1.6l0.2-2.5
		l-0.5-7.9l-0.2-10.4c0,0-0.5-12-0.8-18.8s-3-6.2-3-6.2h-3.9l-0.5-19.1v-10.1l-0.2-13.2L414,253l15.7-1.7l0.8-11l-0.7-6.7l0.7-3
		l-0.7-3.8V223l-0.2-4.5v-4.8c0,0,0.7-11.2,0.7-22c0.8-9.3-1.7-8.5-1.7-8.5h-2.8h-6.6V172v-6.5c0,0,3,0,6.6,0
		c-0.9-1.8-0.1-6.8-0.1-6.8s0.2-3,0-4.5 M454.8,1504.1c0.7-1.9,17.5-1.6,17.5-1.6"/>
	<path id="LV17" fill="none" stroke="#FFFFFF" stroke-linejoin="round" stroke-miterlimit="10" d="M506.9,1814.3l-0.2-3.5v-5.2
		l1.2-7v-6.8v-6.5v-3.8v-7.5v-8.8v-5.8h-3.7c0,0-2.6-1.8-2.6-2.5s-0.5-8,0.8-8s1.5-5.8,1.5-5.8s0.8-6,0-9.5s-5-6-5-6h-11.8l0,0
		l0.1-12.5c0,0-0.2-30.9-0.5-25.7c-0.9-5.2,1.8-7.3,1.8-7.3l5-4.4l10-4.6c0,0-3.3-4.1-4.7-6.2c-6.2-13.2-7.8-52-8.2-68.7
		c-1.8-58.8,7.5-92.7,7.5-92.7l19.8-15.7c0,0-10.2-12.5-10.2-17.2c0-5.2-1.1-8-1.1-8v-5.7l-0.5-18.3l-0.8-14.5l-1.5-26.9l-16.7-0.7
		c0,0,0-1,0-1.9c0-2.9,0.1-10.2,0.5-17.5c0.5-9.5,2.8-11.2,2.8-11.2l-6.7-0.8l-9.2-32.3c0,0,2.5-34.7,3.3-55.5
		c-0.3-23.8,1-30.5-0.3-41.4c-7.7-2.3-14.5-2.3-16.8-2.6c0.2-8.3-0.8-45-0.8-45l6.8,0.5l-1.2-4.7l-2.8-13l-2.5-6.2
		c0,0-4.2-11.3-5.2-14s-6.5-11.5-8-13.5c-1.3-1.2-2.5-7-2.5-7l-0.3-7l-2.2-13.8l-0.3-4.7v-4l-0.8-3.7l-0.3-4.3l-0.5-3.5l-0.8-2.3
		c0,0,4-1.7,4-2.2s0-10.3,0.7-13.2s3.2-6.3,3.2-6.3l-2.2-5.2L445,1034l-3.3-124.3l-0.2-4.5l1.5-4.3l0.3-6.3l0.2-4l0.2-3.8l0.3-3.3
		l0.5-4.3l0.7-4c0,0-0.8-3.3-0.7-5c0.2-1.7,0.7-4.7,0.7-4.7c-1.2-2-1.3-7.5-1.3-7.5v-3.2l-1.5-3.8l-1-3.7l-0.8-5.3
		c0,0-2.3-10.3-2.7-13s-0.7-3.7-5.2-2.5s-5,0-5,0l0.3-5.3v-6l1.7-5.7l0.3-7l1.7-6.3l1.2-7l2-6.2v-5.2c0,0-1-3-1.5-3.2
		s-3.5-0.3-8.5-0.8s-4.7,0.3-4.7,0.3l-5.7,1l-6.3,0.2l-5,0.8l-7,0.9l3.3-26.1l2.2-13.7l0.5-42.3l-1.5-31.7c0,0-1.3-13.8-1.2-14.5
		c0.2-0.7-0.8-5.3-0.8-5.3l4.1-11.2l3.3-6.3l3.1-3.2c0,0,1.5-0.7,2.2-0.8c0.7-0.2,1-2,1-2l-0.1-1.8l0.4-4.5l0.1-5.9v-2.4v-3.9
		l0.2-3.3l0.4-7.5l-0.6-21.9c0,0-1.2-9.4-1.9-12.2s0-7.4,0-7.4l1.5-2.9l0.6-3.2l0.9-4.1l1.5-4v-4l1.2-2.9l0.6-3.8
		c0,0,0.9-3.6,1.1-5.9s-0.5-2.9-0.5-2.9s-6.5,1.6-6.2,1s0-5.6,0-5.6s1.4-10.8,1.9-14.2c1.1-2.6,4.2-4.9,4.2-4.9l-1.5-41.2l-0.1-4.1
		l0.8-2.4l-1.4-3.2l0.7-8.2V430l-0.7-3v-2.6v-3.9v-12.9h5.3l-0.1-5.8l0.5-10.5l-0.9-3.1l0.6-11c0,0-0.1-5.2-0.4-9.2s0.2-3.9,0.2-3.9
		c1.5,0.1,3-1.6,3-1.6l0.2-2.5l-0.5-7.9l-0.2-10.4c0,0-0.5-12-0.8-18.8s-3-6.2-3-6.2h-3.9l-0.5-19.1v-10.1l-0.2-13.2l-0.6-21.1
		l15.7-1.7l0.8-11l-0.7-6.7l0.7-3L430,227v-3.8l-0.2-4.5v-4.8c0,0,0.7-11.2,0.7-22c0.8-9.3-1.7-8.5-1.7-8.5h-2.8h-6.6v-11.2v-6.5
		c0,0,3,0,6.6,0c-0.9-1.8-0.1-6.8-0.1-6.8s0.2-3.5,0-5 M455.8,1509.1c0.7-1.9,17.5-1.6,17.5-1.6"/>
	<path id="LV19" fill="none" stroke="#FFFFFF" stroke-linejoin="round" stroke-miterlimit="10" d="M604.6,1811.3l0.5-3.9l2.9-25.8
		l1.6-9.5v-5.1l-0.6-2.9h-30v-6.8l0.5-4.5l0.4-4l13-13.1l11.8-48.4l-7.4-141.6l-14.1-68.9c0,0-2.2-7.8-3.6-11.6
		c-1.6-1.8-3.2-40.6-3.2-40.6s-0.5-17-0.4-19.5s-0.1-5.4-0.1-5.4h7.4v-9.5v-3v-3.9l-1.2-4.1h-29.4l-0.1-1.4c-1-4.5,1.8-9.5,1.8-9.5
		l12.8-15.9l-1.6-38.5c0,0-7.2-108.2-7.5-110.9s-1.1-31.9-1.1-31.9s-0.1-4-0.9-4.8s-3.1-6.6-3.1-6.6l-0.8-5.1c0,0-0.5-2.9-1.5-5.9
		s-4.6-7.6-4.6-7.6s-3.8-3.9-4-4.4s-1.6-2.5-1.6-2.5v-7.6l-0.6-5.6v-5.1l-0.9-6.1v-3.6l-1-10.6c0,0,0-5.1,0-7s-1.1-2.9-1.1-2.9
		c-2.6,0-4.5-0.6-4.5-0.6l-1-13.5v-3.8l4.1-1.8l-1.4-26.6l-1.4-33.5l-4-89.4l-2.4-14.4l-1.1-7.5l-2.6-14.9l-1.5-10.5l-1.4-7.4
		l-1.2-6.8l-1.1-4.6l-1.2-6v-5v-6.4l-0.2-4.5l0.4-4.4l0.4-2.5l-0.8-2.2l-0.4-3.8v-2l-0.1-2.5v-2.4l-0.8-3.2c0,0-6.2,1.2-7.4,1.2
		s-3,0.6-3,0.6l-8.4,1.4l-1-7.9l0.6-8.9l0.4-7.4c0,0,1-5.6,1.8-5.8s11.6-9,11.6-9l5.2-18.9l-0.8-33l-0.1-7.8c0,0,0.4-3.6,0.2-7.2
		s-5.4-2.8-5.4-2.8h-12.5h-9.8h-5.2l-6.5-0.8h-4.9h-2.5l-2-0.6l0.1-2l-0.5-10.6c0,0-0.4-11.9,0-19s3.8-6.8,3.8-6.8h21.2l0.9-7.4
		l0.5-5.9l-0.4-16.6c0,0,0.1-5.5,0-9.9c-0.4-3.9,2.9-4.1,2.9-4.1h1.9l-0.4-3.1v-3.1l0.1-2.2l-0.5-2.1l-0.2-3.2l-0.4-4.1l-0.9-3.5
		l-0.5-4.1l-0.2-3.8l-0.6-5.9l-0.8-3.5l-0.4-3.6l-0.2-3.9l-1-4.1l-0.5-3.5l0.5-3.2l-1.8-3.2c0,0-0.2-5-1.1-9.4
		c-1.4-5.2-1.1-5.2-1.1-5.2l0.1-3.4v-3.8l-0.2-3.1l-0.8-5.6c0,0-1.2-13.1-1.2-14.1s0-3.8,0-3.8v-3.4v-9.2l0.1-5.4c0,0-0.2-2.2,0-4
		s2.2-3,2.2-3s-0.4-117.1-0.8-119.9s-0.6-10.1-0.6-10.1l1.1-4.8l0.8-4.9v-10.2l0.8-12l0.6-28.2v-9.9V276v-3.1v-3.5v-2.1V262v-3.2
		v-3.4l0.6-1.6l0.2-2.4c0,0-0.8-2.4-0.9-3.1s1.2-1.4,1.2-1.4l0.7-1.5l0.2-2c0,0-0.4-2,0-5.4c1.2-5.2,3.5-4.8,3.5-4.8l5.8,0.2
		c0,0,11.8,1.5,17,2.5c5-0.2,4-3,4-3l-0.2-3l0.5-7.8l1-26.8c0,0,0.2-6.2,0.2-7.8s-3.8-2-3.8-2s-8.2,0-13,0s-8.8-1.8-8.8-1.8v-4.2
		c0,0,0-4.2,0-12s6.4-7.2,6.4-7.2h12.1v-2v-5.6c0,0,0-7.9,0-9.9s0-5,0-5s3,0,6,0s4.8-3.5,4.8-3.5v-11.8c0,0,0-8.7,0-13.2"/>
	<path id="LV22" fill="none" stroke="#FFFFFF" stroke-linejoin="round" stroke-miterlimit="10" d="M656.2,1811.1
		c0.8-1.4-0.2-3.6-0.2-3.6l1.2-5.7l1.8-7.2l0.7-6.5l1-4l2.5-11.7l1.7-11.3h3.5l11.5-1l-0.1-2.2c0,0,0.3-6.7,0-9.3
		c-0.3-2.7-3.2-5.2-3.2-5.2h-8h-11.8l1.8-51.5l3.2-51.5l-10-109.5c0,0-7-62.3-8.7-62.8s-4.7-7-4.7-7l-0.7-13.2l-0.3-9.2l1-14
		c0,0,0-18,0-20.5s-1.8-4.7-1.5-4.2s-0.8-8-0.1-9.3s-1.3-5.5-1.3-5.5l1.3-5.5h-11.5v-2.8l-5.8-11l-8.5-58.7l-18.2-55.5l-8.8-26.8
		l4-17.5l0.7-7.3l1.5-8.8c0,0,1.2-10.5,1.8-16.2c0.7-5.7,2.8-32,2.8-32l2.5-9.3l-0.3-7.2l0.5-5.8v-5.8l-0.2-14.7c0,0-0.3-4.5,0-9.2
		s-2.3-3.8-2.3-3.8s-10.8,0-14.3,0s-4.2-4.5-4.2-4.5l0.2-10.3l0.1-2.8l-15.2-0.7l2.2-32.3l0.5-55.2l-1.5-23.7l-6.7-1.7
		c0,0-2-8.8,0.5-17.5c1.4-4.9,5.8-10.3,5.8-10.3l-3-54.2l-4.2-29.2l-1.3-11.7L554,817l-0.2-10.2l-1-10.2l13.7-1l15.7-1l0.8-3.7
		l0.3-7.3l0.7-10.2l2-51l-2.2-87.7c0,0-2.5-10.2-3.2-10.8c-0.7-0.7-1-7-1-7l-2.3-12.8l-2-10.3l-0.8-7.7l-2.8-9.8l-0.7-13.5l-1-6.5
		l-1.7-8.3l-1.8-9.8V525l-0.8-9.3l-1.2-8.5l0.8-5.8l29.7-1.7l-1-5.2v-6.3c0,0,1.6-3.7,1.6-4.2s0-4,0-5s4.4-4,4.4-4l-7.7,0.2l-1-63.5
		l1.3-55.5l1.3-11.3l1-11l-1.7-7.5l-0.2-4c0,0-1.2-8-2-13.7c-0.8-5.7-8.8-34.7-8.8-34.7l-2-10.7l-4.3-5.8h-6.5v-1.8l-0.8-4.4v-3.6
		v-4l0.7-3.8v-4.2l0.1-3.8c0,0-0.1-5.5,0-8.9s6.5-2.1,6.5-2.1s10.5,0,15,0s4.2-3.9,4.2-3.9l-0.8-6v-4.5v-13.5v-20.8
		c0,0,0.1-7.1,0.8-10.2s4.8-2.6,4.8-2.6h7.4v-2.6v-3.6l-0.7-2.9v-3.8l-0.4-2.2V142l0.1-7.9v-5.2l-0.8-3.1v-3.5l0.6-3.4l-0.5-4.4
		c0,0-0.1-3.2,0-10.4"/>
	<path id="LV26" fill="none" stroke="#FFFFFF" stroke-linejoin="round" stroke-miterlimit="10" d="M705.1,1811.8l0.2-4.2l0.8-6.4
		l1.9-9.5l1.8-12.1l3.2-19.2l23.4-0.6c0,0,0.1-4.6,0.1-5.1s0-5,0-5l0.2-12.6l0.9-6.8l-0.1-5.8c0,0,5.8-1,6.5-2.5s0.8-11.8,0.8-11.8
		l-0.8-36.4l-8.9-4.2l-9.5-4l-4.4-1.9H707c0,0-18.9-42.6-19.1-41.6s-6-78.9-6-78.9s-14.1-58.2-8.8-68.1s3.1-49,3.1-49l0.5-9.1
		l0.4-15.2l7.1-0.9v-12c0,0,0-9.9,0-10.2s-7.9-7.9-7.9-7.9l-23-11.1l-22.2-44.8l-2-71.3c0,0-2.8-2.7-8.3-13.8
		c-2.8-9.3,9.3-19.8,9.3-19.8l1.5-12.8l0.9-3.6v-4.8l1.4-6.1c0,0-0.2-4.6,1.5-18.1s4.8-19.6,4.9-21s1.9-3.5,2-3.9s1.6-1.4,2.1-2.1
		s0.5-4.8,0.5-4.8l0.4-6.9l1-9.8l0.5-9.2l0.4-5.8l0.2-6.8l0.2-6.5l17.1-0.2v-2.8c0,0-0.8-6.8-1-11.2s-4.5-6.2-4.5-6.2l4.5-82
		c0,0-4.5-54.2-2.5-60.2s4-32.5,4-33.5s6.2-40.5,6.2-40.5v-17.2l0.2-11.8l1-8.2l-6-2l-9-3.2l-7.5-1.5c0,0,19.2-89.5,18.8-99
		s2-47,2-47l7.6-1.3c0,0,0-33,0-42.3c-9.2,0-33.1,2.4-33.1,2.4l2.2-26.5l4.5-11.8l5.2-25.2l4-14.2l2.3-23.5c0,0,2-4.5,2.5-13
		s-3.8-6.5-3.8-6.5h-7h-12.4v-10.2v-13l25.2-6.9c0,0-5.3-128.5-4.8-130s2.8-20.2,2.8-20.2l1.8-10.7l1.2-1.5v-3.7l1.7-5.2l1-5v-3.8
		l0.5-3.7v-2.3l0.8-2.8l1-2.2l-0.5-2.5l1.2-1.7l-0.2-2.5l1-3.7l0.5-3.5v-3.3l1-4.5c0,0,1.8-4.5,2.5-9.5s-3.1-5.5-3.1-5.5h-4.3
		l-2.8-1l-1-4.3v-4.2v-3.5v-2.8v-3v-4.2v-4v-3.8v-7.2V193v-8c0,0,0-4.3-1.5-6s-10.5,0-10.5,0v-3.5v-8.2c0,0-0.2-5.2,0-10.2
		s-3.8-4.3-3.8-4.3l-7.8,0.7l-0.5-1.7l-0.5-7.1l0.3-6.9l-1.1-5.7c0,0,1.2-4.3,1.2-5.2s-0.7-1.7-1.1-4.5"/>
	<path id="LV29" fill="none" stroke="#FFFFFF" stroke-linejoin="round" stroke-miterlimit="10" d="M801.7,1811.8l-1.7-35.8
		c0-5.2-2.5-5.1-2.5-5.1c-8.1,0-8-3.7-8-3.7l-0.5-5.3l-0.9-5.9c0,0-5.1-22.2-6.5-26.5c-1.4-4.2-3.4-4.9-3.4-4.9
		c-4.5-16.1-7-37.1-7-37.1l-3.2-35.2l-1.7-65.3c0,0,1.2-52.9,1.5-61.3s3.3-27.5,3.3-27.5c-0.8-0.7-22,0.7-22,0.7v-0.8
		c-0.5-7.1,5.4-56.8,5.4-56.8l0.8-7l-0.8-7.8l0.6-3.6l-0.5-3.9l0.4-3.5v-3.2l-0.5-4c0,0-0.1-3.1-0.4-5.2c0.1-2.1,1.1-2.2,1.1-2.2
		h19.9H786c0,0,0.2-7.8,0.5-10.8s-1.2-5-1.6-7.1s-2.4-24-2.4-24l-6.1-0.5l-11.6,1l-0.6,7.9l-11.6-9.5l-21.2-43.9l-8.2-51l-4.2-16
		l-7-38.4l-0.4-3.5l2.2-5.2l2.2-12.1l1.6-9.1l2.8-12c0,0,2.4-10.1,2.8-13c4.1-5.9,4.2-13.1,4.2-13.1l0.8-20.2c0,0,0.5-10.8,0.6-12.6
		s0.4-13.6,0.4-13.6s10.6,2.6,10.6,2.2s0.1-8-0.5-10.4s-2.1-9.1-2.1-9.1l-4-3.6l-7.8-10.2l0.8-9l11-20.6l1.8-15.5l-0.2-13h-11.5
		l0.2-21.9l-0.2-13.4v-14.8h10.2l-0.2-19.1l-0.9-18.6l-0.2-9l-0.1-4.2l10-0.8c0,0,0.5-13.4,0.6-22.1c1.9-6.6,1.6-21.8,1.6-21.8
		l-0.2-9.5v-6.4v-6.4c0,0,0.6-8,0.6-13.4s-1.4-5-1.4-5h-5h-4l-4.4-0.8l-1-1.1L732,811l-0.7-3.9l-1.1-2.5l-0.8-4.5l-1.1-3.2v-2.6
		l-1.2-4.2l-1.2-3.5l-0.6-3.1l-0.1-2.2c0,0-0.8-2.5-1.5-5.1c-0.6-4,0.9-3.9,0.9-3.9s1.8-1.4,6.2,1.5s6.8,1.5,7.4,1.4
		s-3.1-4.8-3.1-4.8l-0.7-9.7l-1-42.7c0,0,2.6-83.6,2.5-87s1.3-8.3-0.3-10.6c2.1-0.2,1.9-12.9,1.9-12.9l-0.4-6.9l-0.5-16.8
		c0,0-0.4-8.5-0.8-14.1s0.1-13.2,0.1-13.2l1-8.5l0.4-7.6l0.4-2.9l0.4-3.9l0.6-7l1.8-16.1c0,0,1-3.6-1.1-5.2s-1.9-3-1.9-3
		s0-3.9,0.2-9.2c0.2-7.5-1.2-7.5-1.2-7.5l-9.2-2.4l-8.1-1.8l-3-1.8l-0.8-4.3l0.2-6l-0.7-67.5l-0.7-39.8c0,0,1.5-3,2.4-3.1
		s1.5-2.2,1.5-2.2c1-8.2,7.9-18,9-18.9s4.8-5,4.8-5l3.5-11.8l13.9-48.4l3.2-12c0,0,1.4-5.4,1.9-11.1s-7.1-4.6-7.1-4.6h-11.2l1-18.2
		v-7.2v-4.6l0.9-12.6l-0.2-12.2l0.4-3.4l-0.2-4l0.1-3l0.4-1.9c0,0-0.8-3.5-1.2-7.5c0.2-8.8,3.5-10.5,5.2-11c8.5,0.8,8-3,7.8-3
		c-0.7-11.8-0.7-12.2-0.7-12.2"/>
	<path id="LV30" fill="none" stroke="#FFFFFF" stroke-linejoin="round" stroke-miterlimit="10" d="M829.5,1813.1
		c0,0-1.2-15-1.2-18.4s0.8-20.9,0.8-20.9l26.9-5.1c0,0-15.7-33.1-26.5-69.4c-1.5-5.1,0.9-13.4,0.2-18.5c-4.5-31.8-17-56.7-17-56.5
		c0,0.5-12.8-44.5-12.8-44.5l-10-55.2l-7.9-38.4c0,0-1.6-9.3,0.4-10.1s9.5-9.1,9.5-9.1l3.5-30.2l-1-35l32.1,1.4c0,0,0.2-13.4,0-15
		s-4.5-12.9-4.5-12.9L801,1299l-50.5-11.2l-2-43.5c0,0-6.8-24-3.8-38.4c10.8-7.2,15-60.1,15-60.1l2.6-19.5v-7.1l0.8-4.4l0.8-2.4
		c0,0,0-8.1-0.1-9.8s1.5-2.8,1.5-2.8v-6.2l-0.6-3l-0.6-4.5l-0.9-9l4.2-8.2l21.6,0.6v-12.8l-0.8-4.5c0,0,0.4-2.5,2-2.8
		c4.1,0,4.1-1.5,4.1-1.5l-0.1-12.1l-0.5-7.8l0.4-22.5l-0.4-4.2l6.2-1.1v-47.8l-17.8,0.3l0.2-1.5l-2.2-36l-0.6-4.2l-0.4-3.5l0.2-2.5
		c0,0,0.5-2.1,2.1-3.5s8.8-1,8.8-1l-0.7-14.8l-1.4-18.4v-4.2l-2.1-9.9v-3.4v-3.1l-0.8-6.8l0.1-4.6l-0.6-10.8v-3.9l-3.2-0.8h-3.8
		l-3.2-0.6h-3.2l-1.1-13.8l-0.5-3l-0.2-3.2l-0.5-10.6l-1.1-2.8l-0.6-3.1l-0.5-3.5l-0.2-3.5c0,0,0.1-2.6-0.6-5.1s5.8-5.9,5.8-5.9
		l9.8-21.2l0.1-61.4l26.8-47.8l7.8-75V530l-0.8-8.2c0,0-5.9,0.5-6-1.2s-1.8-19-1.8-19l-7.6-4.8l1.6-4.6l-1.4-36.6
		c0,0,3.4-32.1,3-32.9s6.5-13.4,6.5-13.4l5.2-7.6l-4.2-10.6l-3.2-7.6l-1.8-18.4l-2.1-8.6v-7.9l-2.1-2.6v-4.4l-0.9-5.4
		c0,0-0.4-2.5,0-3s0.9-3.6,0.9-3.6l10.4,0.5l11.8-1.2l1-4.2l-0.2-5l0.8-23.8l0.5-40l-25.9,0.9V243v-8.9v-6.2l-0.6-2.4V224l-2.2,0.1
		l-3.5-0.1l-3.5,0.9l-2.8-0.4c0,0-2.9,1.4-3.2,1.5s-2.1-1.4-2.1-1.4v-2.2v-7.6v-5.1v-4.2v-5.6v-2.9l1.1-1.9l-1.1-2.8l0.7-4.6
		l0.3-15.3c0,0-0.7-8.7,0-11.3c0.7-2.7,12-7,12-7c-1-10.7-0.6-10.1-0.6-10.1"/>
	<path id="LV33" fill="none" stroke="#FFFFFF" stroke-linejoin="round" stroke-miterlimit="10" d="M859,1811.7l-0.8-2.7
		c0,0-2.2-9.3-3.7-13.8s-7.3-15.3-7.3-15.3H867l-16.2-65l-17.5-45v-83.5c0,0-0.9-47-0.2-70.8c0.2-6.3-2-3.2-7-12.3
		c2.3-10.2-1.8-18-1.7-21.8c13.2-9.3,13.7-13.5,17.2-16c-0.7-2.2,0.5-8,0.5-8s3.1-9.6,6.1-14.6s3.5-10,3.5-10v-11.5l-0.5-16.5
		l4.6-1.8c0,0-0.4-8.8-1.1-13.8s-2.5-9.2-2.5-9.2l-1-10.2l-27.5-77.8l-39.5-13.2l-3.2-20.4c0,0-0.2-12.3-0.7-21.5
		c0-8.4-2.6-14.7-2.6-14.7v-1c0-1.2,1.6-8.2,3.6-10.4s12.1-12.1,15.1-13.8c0-1.6,1.8-17.6,1.8-17.6l2.4-13.2c0,0,1.8-8.8,2.5-13.9
		c0.8-5.1-0.5-7.6-0.5-7.6v-6.4l0.8-7.9v-10.7l0.8-4.4l0.4-9h9l-0.9-9l0.2-3.2l-0.2-5.9l-1.2-18.8v-14.8v-5l7.8,1
		c0,0,7.8,2.3,10.3,4.2s0.8-1.3,0.8-1.3l0.2-6.8l0.2-9.8l-0.7-78.8c0,0,1.2-40,0.8-42.7c-0.3-2.7-1.7-11.5-1.7-11.5
		s-1-23.3-1.2-28.3s-1.5-10.7-1.5-10.7l-1.5-10.5l-1-7.7l-2.2-15.5l-1.2-10h5.1l-0.5-4.3l-1.5-17.3l-0.5-11.3l-1.5-7.8
		c0,0-0.8-6.3-1.1-8.3s1.4-7.8,1.4-7.8s11.5-18.3,11.5-18.8s21-49.7,21-49.7s-12.8-85.3-12.5-86.2c0.3-0.8,9-31.7,9.2-32.2
		s4.5-17.8,4.5-17.8v-21l-2-9.2v-4.3v-3.5h12.5l0.2-36.5l-0.3-14.2c0,0,7.8-1.3,10.3-2.5c-1-7.3-2.2-57.4-2.2-57.4l0.5-27.3
		l1.7-40.3v-2.8c0-6.2-8.3-14.9-8.3-14.9l1.9-1.1l-0.4-2.6l-3.5-14l-4.2-13.3l-0.8-5.2l-1.2-4l-2.5-6.8c0,0-4.4-18.7-4.7-21.1
		c-0.3-2.4-2.3-2.5-2.3-2.5l-0.3-5.4c0,0,0.2-3,0.2-3.2s0.2-2.9,0.8-3.7s5.8-2.1,6.3-2.1s-0.9-3.3-0.9-3.3l-0.1-2.6l0.8-3.2
		c0,0,0.3-5,0-6.1s-3.7-0.8-3.7-0.8H846c0,0-6.6,0.8-9.1,0.8s-5.8-1.1-5.8-1.1l1.7-12.4v-4.7l0.9-4.9v-11.2v-13.5l1.2-9.2
		c0,0,0-5.8,0-7.8s4.8-6.2,4.8-6.2s-0.3-4.8,0-9.5c0.2-2.4,0.2-2.4,0.2-2.4"/>
	<path id="LV35" fill="none" stroke="#FFFFFF" stroke-linejoin="round" stroke-miterlimit="10" d="M947.2,1801.5
		c-2.8-20.1,0-57.4,0-57.4l-31.5-0.6v-6.8l-8.8-4.4l-2.6-5.1l-0.8-5.1l-0.2-4.8l25.5-1.5h5l-0.2-5.9l0.8-9l-0.4-11.6l-0.4-1.5
		l-0.2-3.6v-4.4l-0.1-4.4c0,0,0-2.2,0.1-6.5s1.1-4.9,1.1-4.9l-1.2-1.5l-0.3-67.2l-6.4-101.9c0,0-1.6-12.7,0.8-13.1
		c2.4-0.4,3.4-19.8,3.4-19.8l0.6-2.2l-0.2-2.8l0.1-1.8v-3.2l0.5-5.5c0,0,0.2-2.8,0-6.4c-0.2-3.6,0-4.8,0-4.8l0.4-1.8l-0.3-5.3v-3.9
		l-0.2-10.1l-0.4-2.3c0,0-0.2-3.2-0.2-4.3s1.1-3.2,1.1-3.2l-0.1-2.2l-0.3-2.8l-0.4-1.5l-0.6-1.8v-3.9v-2.2l-0.5-3l-1.2-4.2l-0.5-3.5
		l-0.8-3.1l-0.2-1.2l-0.7-3.1l-0.8-1.6l-0.4-1.8l-0.2-3.8c0,0,0.1-2.1,0.1-3.7c0-1.6,0.6-7.8,0.6-7.8l-40.5-160.7l0.1-6.6l-0.4-4.2
		l0.2-2.1l-0.8-1.3l0.8-1.2l-0.7-1.6v-2.4l0.1-5.5l-0.2-2.4l0.2-1.8l-0.3-5.7l-0.2-2.6l-0.2-1.8l0.1-3.2c0,0-0.3-4.2-0.4-6.3
		c0.2-3.1-0.8-5.2-0.8-5.2l-0.5-4.7l-0.3-2.1l-0.4-3.4v-2.5l-0.2-2.4l-0.9-1.6l0.5-1.1l-0.5-2.2l-0.1-2.4c0,0-0.2-4.8-0.5-7.2
		s1.1-2.8,1.1-2.8h3.2l6-0.4h3.6l12.7-0.3l0.2-6.2l0.1-1.8l-0.4-2.7l-0.1-2.1l-0.2-6v-3.2l-0.2-6.8l0.2-1.1l-0.2-2.4l-0.1-2.2
		c0,0-0.2-1.2-0.2-1.4s-0.4-1.3-0.4-1.3s-0.1-1.2,0.2-4.1s1.3-5.4,1.3-5.4l-1.1-5.6l-2-12.3l-14.2-135.8l-1-5.5c0,0,3.4-4.9,3.6-5.2
		c0.2-0.3,3.2-6.5,3.2-6.5l1.2-3l0.9-2.2v-1.2c0,0,0.8-1.7,0.7-1.9s0-1.4,0-1.4l1.3-1.4v-1.6l0.5-0.8l0.4-1.8l0.7-1.3l0.7-3.2
		c0,0,1-1.6,2.3-7.3s-0.5-5.6-0.5-5.6s0-3.9,0-4.2s0-1.2,0-1.2l0.6-1.7l-0.6-1.8v-1.8v-1.8v-2.1v-0.9l0.3-2v-2.2l0.1-2v-2.4v-3.1
		l0.1-1.8l-0.1-1.7l0.1-1.8c0,0-0.5-1.9-0.5-3.2s1.4-1.8,1.4-1.8l2.2-0.4l3.2-0.4l0.4-2.3V810v-6.2v-8.6v-4.1v-2.8l0.3-2.8
		c0,0,0-6.9,0-7.7s0.7-1.8,0.9-1.8s2,0,2,0l1-0.8h1.2h1.5l2.1-0.7h1.8h2.4l2.9-0.4l1.5,0.4l3-0.7l4.2-0.5c0,0,3.8,0.1,4.6,0
		s4.1-0.4,4.1-0.4l0.1-4.5l0.2-2.7l-0.1-2.6l-0.2-2.4l0.2-3.4v-1.4v-1.7l-0.1-4.9v-2.8l-0.1-2.1l0.1-1.6v-1.7l-0.4-3.7
		c0,0-0.1-2.1-0.1-3.9s1.1-1.8,1.1-1.8h1.1h6h5.1l3.7-0.6h1.4l2-0.3l2,0.3h2l3.4-0.4v-0.5l-0.3-4.9l0.1-2.4v-2.4l-0.1-3.8l0.1-2.2
		l0.1-3.8l-0.1-3.2l-0.1-4.3l0.2-3.2l0.2-3.5l-0.1-2.2l-0.2-4.6l0.2-2.7h-2.7H965h-5.5l0.3-4.3l-0.5-5.3l0.2-4.8l0.2-4.9l0.2-6.2
		l0.2-2.9l-0.2-4.2l-0.2-2.2l0.3-8.8h-3.3h-2.3h-1.8l-3.1-0.7l0.1-1.2l0.5-5.2l-0.2-9.8l0.1-4.3l-0.2-3v-0.8l-0.2-2.6l0.3-2.1
		l-0.1-5.1v-2.4v-3.2l0.1-5.5l0.5-2.3l-0.8-0.3l-2.5,0.3c0,0-3.2-0.8-3.9-0.8s-2.8-0.9-2.8-0.9l0.9-6.9l2.1-6.9l2.6-9.2l1.6-7.5
		c0,0,0.4-2.9,0.5-4.7s-1.2-1.7-1.2-1.7l0.1-2.1l-0.4-3.2l-0.2-4.9l0.1-4.1l0.3-7.2v-3.6v-2.8l-0.1-2.6l0.3-3.9l1.8-0.6l2.4-0.7
		l2.8-0.4h3.9h2.9h3.1l3.3-0.5c0,0,3.2,0.1,3.4,0s2.6,0,2.6,0l1.8-0.6l1.6,0.6l4-0.8l1-4.8v-2.4c0,0-0.7-2.1-0.7-2.5
		s0.4-1.6,0.6-2.1s0-3.8,0-3.8v-5.6V492v-4.9c0,0-0.6-4.4-0.8-5.2s-0.8-2.6-0.9-3.9s-0.6-3.5-0.6-3.5l-21.8-6.5l-19-42.5l-14.1-97.2
		l1.4-11.4c2.7-2.6,2.8-18.4,3.1-20.2s0-21.2,0-21.2v-13.2l-0.2-9.1l-0.2-5.4L928,240v-4.1l0.2-14l3.5-1.8v-4.9l0.2-6.8l0.4-4.1
		l0.9-7.8l-0.1-5.9l0.5-2.4l-0.1-2.8l0.5-3.6l0.1-3.9l-0.1-2.2l0.2-3.6l1.2-8.4v-2.4v-4.2v-4.1l-9.7,0.6V146l0.6-5.1v-3.4
		c0,0,0.4-1.9,0.6-3.6c-0.3-0.8-0.4-1.3-0.4-1.3"/>
	<path id="LV39" fill="none" stroke="#FFFFFF" stroke-linejoin="round" stroke-miterlimit="10" d="M996,1799.4l0.7-16.2l-8.1-78.2
		v-3.2l-0.2-2.7l-0.1-2.7l-0.6-3.4l-0.2-2.2l-0.8-3.9l-0.8-2.3l-1.2-2.8l-1.2-3.9l-1.2-3.2l0.1-2.5l-0.4-1.7c0,0,0-1.2-0.4-3.2
		s0.6-3.3,0.6-3.3l-0.6-2.2v-45.2l-3.4-67l-0.4-55.8c0,0,23.3-4.2,24.2-8.2c4-17.8,0-37.8,0-37.8s0.1-7.9,0-13.5s0-32,0-32l-22.5,1
		v-0.8v-5.5l-0.5-4.2l-0.2-3.9l-0.2-10.4l0.2-4.9c0,0,0.4-2.8,0.4-4.2s-0.5-6.6-0.5-6.6s0.6-2.4,0.6-4.1s0.2-5.6,0.2-5.6l-0.5-6.6
		l-4.9-3.2h-22.4l-10.9-48.2l-7.2-41.4l-9.5-18.2l22.5-24.8l13.5-75.8l8.8-32.5l28.2-2.5c0,0-0.9-32.8-1-36.2s-1.2-10-1.2-10
		s17.4,4,24.3-5.6c0.3-5.8,0.9-55.5,0.9-55.5l-2.7-78.8c0,0,0-23.3-14-21.3c4-6.5,16.1-37.3,16.1-37.3l1.5-7.8l1.8-11.5l3.5-11.8
		l3.5-18.2l5.9-0.8l1.1-24l0.1-12.9l2.4-0.3l-0.2-39.4l-24,0.3l64.8-0.9c0,0-15.5-15.4-15.5-28.5c0-17-22.7-16.8-22.7-16.8v-36
		l-1.2-8.6h-9.7l-0.4-12.1l0.5-4.4l0.5-11.9v-5l0.2-3.2l-0.1-10.2l0.4-4.6l0.2-1.5l0.4-1.9l0.2-2.5l0.9-1.5l-0.2-2l0.4-2.8l0.6-2
		l0.5-1.9l-0.1-2.2l1-2.6v-2.4v-3.9c-0.1-5.6-2-5.2-2-5.2v-2l-0.8-4.8l-1.5-3.9v-2.5v-1.5l-0.8-4v-2.9v-2.6l-0.8-1.9v-2.2l-0.9-3.6
		l-1.4-5.2V515h2.2v-3.4v-6.8v-3.1v-5.5v-2.5l-0.9-2.2v-2.8v-16.4v-4l-1.4,0.2c-2.5,0.5-17.2,1.9-17.2,1.9h-6.8l-5.2-1.4H994
		l-37.4-70.2l12.9-53.6l14.5-62.8l6.3-31.2l6.9-41l-17.7-2.5l1.2-0.8l1-7.9v-6.4v-7.2l0.7-4.8l0.5-8.2l0.1-7.2v-2.5l0.9-3.1V151
		h-3.6v-8.2L980,129c0,0,1.2-2,0.2-6.7"/>
	<path id="LV41" fill="none" stroke="#FFFFFF" stroke-linejoin="round" stroke-miterlimit="10" d="M1024.2,111.5c0,0,0,0.4,0.3,1.8
		c0.5,2.8,3.5,5.8,3.5,5.8v6l-0.1,16.4c0,0-0.9,6.4,3.9,6.6c3-0.2,5.5,0,5.5,0v3.5v5.2v4.1v2.9l-0.6,2.1v3.8l-0.1,3.6l-0.6,5.9v5.4
		v5.5l-1.4,24.6c0,0,3.3-0.1,2.8,1.6s-1.4,3.8-1.4,3.8l-0.6,2.9l-0.8,2.7l-0.8,2.8l-0.4,2.8l-0.9,1.8l-1.3,3.9l-0.8,2.8l-0.8,2.3
		l-0.4,2.5l-0.9,1.9l-0.3,2.7l-0.9,1.4l-0.2,1.6l-1.8,3.2l0.3,1.1l-1.2,2.5v2.8l-1.2,2.7l-0.4,1.2l-1.4,5.2l-0.7,2.3v2.3l-1.2,3
		l-1.8,4.9l17.5-2.1c0,0,3.1,43.8,0.9,49.7c4.7-0.2,7.8-0.5,7.8-0.5l0.7,46.8l17.7,0l4,43.7c0,0-5.5,1.2-12.8,2
		c-0.2,7.3,1,36.2,0.5,42.5c14.3-0.5,22.5-1.2,22.5-1.2l0.5,10l1.2,7l2.2,13l1.5,14l-20.8,3.2c0,0,6.4-1.8,7.2,1.7
		c0.8,3.4,1.8,6.1,1.8,6.1l3.2,10.1l3.2,7.8l2.7,7l4.2,6.4c0,0,1.7,1.1,1.8,6.2s0.8,12.4,0.8,12.4v8.1v6.3l-1,10.7l-0.3,6.2
		l-0.7,18.2l-0.4,64.2l2.4,30V735l5.1,8.6c0,0-2.6,0.4-2.8,5.6s0.2,7.1,0.2,7.1l0.8,5.9l-0.2,3.4l0.1,4.4l-0.6,6l-0.1,1.9l0.2,3
		l-0.1,2.5l0.2,3.5l-0.4,3.8l-0.2,3l0.1,9.8c0,0-17,1.4-19.8,1.4s-3.9,1-3.9,1.9s0,4.2,0,4.2l-0.4,12.1l-0.1,9.5l-0.6,6.8l0.9,3
		l-0.9,3c0,0-1.1,6.9-1.1,8.1s-0.9,4.6-0.9,4.6l-1.4,2c0,0-1.5,7-1.5,7.8s-13,2.6-13,2.6l-0.5,3.9v5.9l0.6,31.5h6.8l6.6-1.2l6.4-0.4
		l4-1.1l5.6-0.6c0,0,4.4-0.1,4.4,4.1c0.4,4.2,0.9,12.6,0.9,12.6v2.9v4.4l0.1,14.6c0,0,1,1.5-4.1,1.6c-5.8,0.8-12.6,1.5-12.6,1.5
		s-1.5,1-1.4,3.5s0.6,10.2,0.6,10.2l0.2,3.9l-0.4,3.1v3.2l1,3.2v11.1c0,0,10.2-1.1,10.8-1.1s0.8,0.9,0.9,2.9s-0.5,7.8-0.5,7.8
		l0.1,4.4l-0.2,21.9l0.1,1.6l-4.1,0.8l-11.1,0.6h-4.9l-7.8,0.8c0,0-2.1,2.4-2,5.5s0,13.8,0,13.8l0.5,2.8l-0.4,2.8l0.4,4l-0.1,1.9
		l0.2,5l0.1,5.1l-0.4,4.2l0.4,8.1v5.2v6.2v5.4h5h2.5h3c0,0,1.6,0.6,1.4,2.4s-4.6,12.4-4.6,12.4l-4.4,10.9l-4.9,12.9
		c0,0-2.2,3.9-3.1,6.2s-2.2,6.8-2.2,6.8l-2.5,8.1l-1.6,3.6l-1,4.8l-1.6,3l-0.4,2.4l-2,5.9c0,0-2.1,2.1-4.9,4.5s-5,3.5-5,3.5
		l-2.8,1.9c0,0-3.8,3.9-4.5,14.7c-0.5,8.4,0.7,26.2,0.7,26.2l-0.2,116.5l-0.8,6.2l-2.7,2c0,0-1.2,8.5-1.7,10s-0.8,2.8-0.8,2.8
		s5.8-0.5,6.8-0.8s3.3-0.7,4.8-0.7s5.7,0,5.7,0l5.7-0.8c0,0,1,1.3,1.2,2.3s0,7.2,0,7.2l0.3,3.5l0.7,4.7l0.2,6.9l0.5,4l-0.1,2.8
		c0,0-0.2,4.5,0.5,4.7s3.7,0,3.7,0l3.5,0.1c0,0,1.3,0.5,1.2,1.7s-0.7,8.8-0.7,8.8v1.8v1.2v1.6l-0.8,2.2l-0.5,3l0.2,3.2l-0.8,7
		l-1.8,3.8c0,0-0.1,34.2,17.2,51.9c0.2,5.4-6.6,172.9-6.6,172.9l-28.7,4.3c0,0-0.7,4.7-0.7,7.3s0.5,6.2,0.5,6.8c0,0.7,1,5.8,1,5.8
		s1.3,6,1.3,7.8s0.2,7,0.2,7l-0.5,4.8v12.8h-9.2l0.5,11.3l0.5,27.5l0.2,11.8"/>
	<path id="LV44" fill="none" stroke="#FFFFFF" stroke-linejoin="round" stroke-miterlimit="10" d="M1174.8,60
		c-0.7,4.2-1.8,5.2-1.8,5.2l-2.8,19.2l-1.8,42l-0.8,1.2l-23.8,2.5l-2,10.8v18v37v13l-13.8,0.8l-10,0.7h-5.2l-1.5,4.7v5.3v6v5.2v7.3
		v10.3V273l16.7-1.2l4.8-0.5c0,0,2-0.8,1.2,5c-0.3,7.5-1,19.5-1,19.5l-0.5,25.3l-19.3,1.5h-6.8c0,0-4.1-0.7-4,6.2s0.1,44.3,0.1,44.3
		l27.1-3.7v16.8l-1,28.5l-17.2,1.8l0.3,16l0.1,23l-0.1,4.9l5.8-0.6l20.5-2.9l19-2.7l3.2-0.3v9v44.2v0.8l13.8-3.7c0,0,3.5-1.5,3,3.7
		l-0.7,6.5l-0.7,10.3l-0.8,15.7c0,0,2.5,2.8,1.2,9.5s-2.7,14-2.7,14l-4.8,27.2h3.3l6.3-1.2l3.5-1c0,0,2.3,0.5,3.2,0.8
		c0.8,0.3,2.7,0.7,2.7,0.7v3.5l0.8,15.8V625v14l-10,1.8l-6.5,1.5l0.2,7.8l-0.7,19.7l-0.2,16.2l-1.7,2.8v20.7l-0.2,23.8h4.3h4.2
		l0.7,1.7l-0.8,21.3l-1.7,37.5l-3.7,1.7h-7h-9.7l-0.8,14l-0.8,5l-0.2,4.7l-0.5,7.2l-0.2,6.3c0,0,0.5,23.5-0.7,24.2s7-0.7,7-0.7
		l7.8-1.3l17.5-2.2h2.5c0,0,0.8-1.2,1,6.3s1,24,1,24l1,11.7l-7.6,0.7c0,0-2.4,0.6-2.5,5.2c-0.1,4.8-0.8,8.7-0.8,8.7l-0.5,3.9
		l-0.6,5.6l-2.3,18.1l-7.2,1.1l-1.4-0.6l-6.2,0.6l-12.4,2.2l-9.5,0.6v21l0.4,18.8h2.4l6.9-1.1l9.8-0.6l0.4,6.5l-0.6,18.2v14l0.1,0.9
		l11.4-0.9l8.8-0.9l2.1,0.1c0,0,2.9-0.4,2.5,4s-0.4,13.9-0.4,13.9l0.1,16.1c0,0-23.1,2.5-24.7,3s0.5,14.8,0.5,14.8l-1.5,20.8
		c0,0,1.8,1.4,2.2,4.9l-0.5,1.8l1,1.8l0.1,3.8l0.8,3.2l0.9,1.5l-0.4,2.4l0.9,1.4l0.4,4.2l0.2,1.6l0.1,3.2l0.6,3l-0.8,2.2l-0.4,4
		l2,15.2l2.5,23.2l0.8,2.1l-46.2,4h-1.6c0,0-2.1,0-2.1,5.1c0,6.1,0.2,14,0.2,14s1,27.8,1,28.1s9,0,9,0l10.4-1l8.9-0.5
		c0,0,3.8-0.2,3.8,2.5s0,7.9,0,7.9l0.6,19.9l1.6,15.9v1.1l-13.5,0.6l-7,0.6c0,0-3.1,0.5-3.1,3.8s0.1,9.2,0.1,9.2l0.2,7l-0.6,25.4
		l0.1,0.6l11.1-0.6l10.9-0.8c0,0,3.6-0.8,3.5,3.9s-0.2,13.8-0.2,13.8l-0.4,26.2c0,0-0.6,2.5,4.5,1.9c1.6-0.1,2.4,0.8,2.4,2.9
		s-1.1,33.1-1.1,33.1l-10.6,0.8l0.5,19.8l-1,22l0.2,7v14.5l0.8,7.2l0.6,4.2l8-0.2c0,0,5.3-0.2,5.5,3.7c0.2,3.8,1,11.3,1,11.3
		l2.5,12.3l0.5,5.2l1.2,10.8c0,0,0.8,3.2-6.5,3.2s-8.7,3-8.7,5s0.2,6.7,0.2,6.7l0.7,43.2l1,34.2c0,0-0.5,4.5-0.5,5.2s1,4.7,1,4.7
		l-0.2,3.3l-1.3,31l-0.2,6.3h10.5l-2.3,39.2l-2.2,20.2l-0.5,3.2h7.2l-5.7,47.7"/>
</g>
</svg>
