<?xml version="1.0" encoding="utf-8"?>
<!-- Generator: Adobe Illustrator 17.0.0, SVG Export Plug-In . SVG Version: 6.00 Build 0)  -->
<!DOCTYPE svg PUBLIC "-//W3C//DTD SVG 1.1//EN" "http://www.w3.org/Graphics/SVG/1.1/DTD/svg11.dtd">
<svg version="1.1" xmlns="http://www.w3.org/2000/svg" xmlns:xlink="http://www.w3.org/1999/xlink" x="0px" y="0px" width="1200px"
	 height="1920px" viewBox="0 0 1200 1920" enable-background="new 0 0 1200 1920" xml:space="preserve">
<g id="fondo">
	<rect id="negro" stroke="#FFFFFF" stroke-linejoin="round" stroke-miterlimit="10" width="1200" height="1920"/>
</g>
<g id="verticales">
	<path id="LV1" fill="none" stroke="#FFFFFF" stroke-linejoin="round" stroke-miterlimit="10" d="M18,1531.562h18.667l-1.333,43.667
		 M19.375,88.354l0.5,18.583l-0.292,1.875l-0.125,3.667l0.397,4.168l0.24,14.123l0.197,5.334l0.25,8.333l0.749,15.445l-10.957-0.403
		v15.75l2,21.667l-0.333,15l0.333,25.333c0,0-0.667,28.667,0,43v26l27.333,5.667v50.333l-33.333-9l4,48.667H4.667l0.681,17.569
		L6.5,449.229l18.833,4.333L29,504.896l-13.333-2.667l4.833,36.5l-8.167,24.833h-2l-1.667,5.333l-1,12.667l-3,31.333l17.5,8
		l-3.833,45L19,710.562l3.167,3.333l3.167,42.667L7,751.229l-0.333,8L10,773.562l6.667,27.333l12,4.667L31,829.229l0.667,13.667
		l4,2.667l-8,28.333h-5.5H20.5l0.667,23.167l1,28.167L24,927.062v49.667l-11-2.167l1,49.5H7.667l1.667,41.333l20,3L29,1079.062
		l-0.167,6.5l0.167,7.167l1.333,8.333L31,1111.729l14.667,3.167l2.5,25l1,11.5l0.833,8.167l1,2v4h1.833l-7.667,41.833H37
		l-0.833,5.833l-0.667,8.167l0.5,10.167v12.5l0.167,9l-0.167,7l1.333,3l3.167,1l0.333,28.333v7.333l-0.167,6.5l0.167,3.333
		l2.667,2.167l1,1.333l-0.833,2.833l0.5,2.5v7l0.5,14.5l0.667,9.667l0.667,7.833l1.667,8.167h-8l-0.333,4.833L39,1375.562
		l0.333,6.667l1.667,9.167l-0.5,6.167l1.333,11l0.5,9.5l0.667,7.5l1.333,8.667l0.833,9l1.167,6.833l-4.333,14.5l-4.667,12l-2,10.333
		l-2,7.667h-24L8,1530.229l10,1.333l0.333,15.333v7l0.667,14l-0.333,6l16.667,1.333h8l4,1.333v8.333L46,1594.229v10l-0.333,8.333
		l-1,5l-20.333,2l-0.667,7.333l-0.333,13l0.333,8.667l0.333,10l0.667,8v3.667h10h4.667l1.667,2.667l-1.667,9.667l1.333,7l-0.333,20
		l-1,12.667H28.75l1.583,13l4,20.333l2,15.667l-0.333,7l-1,12c0,0,0.5,8.25,0.5,9s0.75,7.75,0.75,7.75v5.5"/>
	<path id="LV2" fill="none" stroke="#FFFFFF" stroke-miterlimit="10" d="M47.667,412l14,4.333l2,47.5 M114.812,1367.667H137v-53.833
		h-26.5 M55.875,1814.125c0,0-0.125-3.625-0.125-4.375s-1-5.375-1.125-6.625s-0.5-5.125-0.875-8.625s-0.125-15.875-0.125-15.875
		H64.25l-2-65.125l-0.375-1.75l0.125-2.125l-0.5-10.5L62,1695l-1.125-2.75l0.375-4v-5.375c0,0-0.125-3.375-0.75-9.125
		c0-5.875,3.75-4.875,3.75-4.875h4.875L69,1665l0.125-10c0,0-0.625-24.75-0.375-30.875s3.5-4.875,3.5-4.875l0.75-40l1.375-1
		l-1-2.125l3-40.75l-1.25-1.875l-14.25-1.25l0.875-3l-0.375-1.625l1-5.75l1-6.125c0,0,1.125-8.25,1.25-10.875
		s1.124-5.777,1.124-5.777l11.875-10l8.751-0.598c-1-3.75,0.125-33.75,0.125-33.75l0.5-3.25l-0.25-1.875V1448l-1.25-5.625
		l-0.75-10.125l-0.375-7.75l-0.25-2.5l-0.875-8.375v-4.375l35,0.667v-9.667l-0.5-10.167L116.5,1377l-0.583-6.75
		c0,0,0.25-3.417-4.083-3.583c-4.333-0.167-4.167-1.583-4.167-1.583l-0.583-25.917l-0.583-25.333h4l0.083-11.583l0.083-9.583
		l-0.5-2.917l0.5-2.333l-0.25-7l-0.667-12.5l3.583-2.167l-0.667-56.083l-14-0.5l-1.917-18.833l-0.417-9.833l-1.083-5v-3.167v-2.771
		H93v-0.688L89.062,1153L85,1136.938l-2.938-11L80,1119.875l5.375,0.5l-0.438-8.188l-0.625-7.812V1098l-1.062-14.188v-8.562h-1.688
		l-6.375-0.562c0,0-8.062-1.188-10.625-1.5s-7.287-1.812-7.287-1.812v-14.688v-12.062l-0.338-13.562c0,0-3.875-0.688-5-1.062
		s-1.25-3.062-1.25-3.062l-0.438-17.75L50.625,993l-0.062-12.688l-9.688-1.25l-0.188-20.625v-3.562l-0.25-6.375l0.25-4.312
		l-0.062-5.5l-0.438-1.812l0.125-2.062c0,0-0.062-1-0.438-3.312s0.812-2.312,0.812-2.312s3.5,0.75,4.875,0.688
		s1.625-2.125,1.625-2.125l-0.375-13.125l0.75-3.062l0.375-5.75L48.312,894l-0.125-6.812c0,0-0.125-1.938,0.125-5.062
		s1.188-2.812,1.188-2.812s17.688,2.875,19.875,3.125s4.688-0.688,4.688-0.688l0.688-12.5l-0.938-2.438l0.938-1.312l-0.375-7.875
		l-0.125-4.375l-1.125-1.812l-0.5-7.312l-0.938-1.375l0.562-0.875v-2.312L71.562,838l-0.188-2l-1.125-7.438l-1.125-7.438
		l-0.688-1.188l-2.125-1.062l-3.938-1.25l-0.812-2.25l-1.25-1l0.25-1.75l-2-2.062l-0.312-2.312l0.25-2.188l-2.25-1.646l-2.083-3.833
		l-1.333-2l-0.667-1.833L51.75,795l-0.917-2l-0.917-2.333l-1.083-2.083l0.25-1.417l-0.75-3l-1.417-2.917l0.167-1.25l-0.167-1.583
		l-0.583-1.333v-2.75l-0.75-1.417c0,0-1.25-5.167-1.417-6.833c-0.333-0.917,0.917-2.833,0.917-2.833l7.75,3.167l2.667,1.167
		l3.583,1.5l3.5,0.583l0.083-1.417l0.417-5L62.417,761l0.25-1.917l0.25-2.667L62.333,752v-3.333L62.083,744L62,740.75l-0.833-2.167
		l0.417-2.917l-0.25-4.333l-0.167-4.083l-0.25-1.75l-0.5-1.5l-0.5-9.083l-0.083-8.833l0.333-8.5l-0.417-17.896l2.438,0.75
		l0.312-2.188l0.5-4.562L63.312,664v-7.875l0.688-1.25l0.188-7.688l1.188-0.688l-1.062-1.375l0.021-2.958l0.5-5.333l1-2.5l-16-6
		l2-20.167l1-5.5l-1-1.167l1-2.333L53.667,596L55,588.333l2.333-7.667c0,0-5.667-2.167-5.5-3.333c0.167-1.167,4-8.667,4-8.667
		l1.5-3.5L58,561.833l2.667-1.5v-3L63.833,551l0.5-2.333l-2.167-3.5L62,541.833L61,531l-0.5-8.667l-1.042-13.5l7.375,0.667
		L67,496.833v-4.167l-0.333-3.333l-1-12.667l-0.333-11.5l-0.833-1.333h-1.667h-4.667l-11.833-4l-0.167-5.167l-0.667-13.5
		l-1.333-30.5l3.5,1.333l-1-46.667l21.292,3.333V356v-7.667v-4.5L67,341.667l1.833-3l-0.875-2.333l0.875-3.5l0.5-16l-8.167-1.167
		L62,290.833v-13.667v-12.833v-15.167l10.5,2l-3.167-3.333c0,0,0.333-2,0.5-3.833c-0.5-1.167-1.167-10-1.167-10L67.5,185.833
		l-1.281-19.177l7.719,0.656l-0.656-16.062L71.25,127c0,0-0.875-6.25-1.375-10.75s-0.125-8-0.125-8"/>
	<path id="LV3" fill="none" stroke="#FFFFFF" stroke-linejoin="round" stroke-miterlimit="10" d="M136.125,1776.125l-0.25-38.25
		L136,1724.75l-0.125-7.125h6l15.875-1.125c0,0,0.125-1.625,0.125-2.375s0.25-9.875,0.25-9.875s0.125-4,0.375-5.625
		s0-4.125,0.75-6.375s1.625-5.5,1.625-5.5l-0.125-5.083H147l-6.75-152.917c0,0-5.5-5.667-5.417-7.25c0.083-1.583-0.833-21-0.833-21
		l-0.75-8l-1.917-14.583l-0.5-6.833c0,0-0.917-5.833-1.083-7.417c-0.167-1.583,0-15.083,0-15.083l0.083-7.583l0.25-11.583
		l0.083-17.083h20.417v-7.083l-0.083-2.5l-0.083-5.083l-0.167-4.75l0.417-4.25c0,0,0.417-10.5,0.417-15.25s0-6.25,0-6.25
		l10.917-0.25l1.75,0.833h2.083c0,0,4.667-0.917,6.833-1.083c3.5,0,4.167-2.5,4.167-2.5l3.833-1.833l2.333-53.667l-6.062-74.917
		L170.5,1214c-1.188-2.375-4.5-3.312-4.5-3.312c-3.188-1.438-16.875-1.062-16.875-1.062l-0.312-1.75l-1.312-3.438l-1.875-4.312
		l-2.5-5.562l-1.625-3.75l-2.875-6.562l-3.062-10.375v-1.938l-1.062-2.812l-0.375-1.75L133.25,1166l-2.5-1.438l-1.938-3.625
		l-1.5-2.625l-0.125-1.938l-1.25-2.562l-2.688-7.438l-2.75-7.125l-2.25-6.062c0,0-2.125-5.375-2.5-6.938s-1.562-6.312-1.562-6.312
		l12.312-0.604l15.875-1.396l-0.312-5.25v-5.625v-4.188c0,0,0-16,0-20.5s-4.75-4.062-4.75-4.062l-8.125-0.375L112,1077.25
		l0.062-14.438l0.125-12.562c0,0-0.062-7.75-0.125-9.75s-2.25-3.312-2.25-3.312l-6.75-1.312l-0.438-13.812L102.438,997l-0.125-9.875
		l-4.875-0.562l-1.625-2.938l1.25-2.312l-0.312-13.375l-0.583-14.271L96.5,946c0,0,0.833-8.333-0.667-8.667
		C92,936.667,92.5,934.5,92.5,934.5l-0.167-4.5l1.167-15l0.5-9.167l0.5-9.5l1.167-10.208h24.583l-0.25-2.75l-3.5-14
		c0,0-2.5-9.125-2.5-10.5s-0.125-4.25-0.125-4.25l-1-7.125l-0.375-5.375l-0.5-3.875c0,0,0.125-2.25,0-4.875s-1.25-7.25-1.25-7.25
		l-7.833-1.042l0.583-2.833l0.167-6.333c0,0,0.083-4.833,0.25-8.583c0.167-3.75,1-8.583,1-8.583l1.167-23.083l-9.75-126.417
		l-1.25-33.083c0,0-1.417-2.417-1.583-10.5c-0.167-8.083-6.833-12.75-6.833-12.75l0.583-0.583l8.417-19.917l1.167-4.167l1.667-3.333
		l1.833-6.5l3-5.5l-2.333-4.5l-2.167-6.583l-1.667-5.333l-0.583-2.75l-1.833-6l-2.583-9.167l-1.917-4.917l17.333,2.5L107,501
		c0,0,0-10.25-0.25-10.583c-0.25-0.333-0.833-2-0.833-2l1.25-1.667l-0.417-2.667l0.167-3.167l0.5-2.667l-0.167-6.5
		c0,0-0.167-1.333-1.417-1.667c-4.083-0.917-3.75-4-3.75-4l0.167-20l-0.083-5l-0.583-9.833V423l15.75,1.25l-0.25-11.25l-0.75-5.75
		l0.167-3.917l0.083-3.5l-0.167-8.083L116,376.583h6.417l-0.167-9.417l0.917-1.417l-0.833-3.25l0.083-10.75v-9.417l0.75-15
		l-15.417-1.917l0.417-9.583l0.333-13.5l0.417-16.083V283v-4.333V273l0.583-2.417l-0.583-1.667l0.917-2.667v-4.583v-3.333v-3.667
		l10.25,0.5l-1.25-2.417l-0.25-2.583l0.083-3.667l-0.417-4.583c0,0,0.083-4.417,0-5.833c-0.083-1.417-0.417-5.25-0.417-5.25
		l-0.917-3.917l0.495-3.083v-1.667l-0.579-4.917l-0.333-9.5l-0.5-6.25l-1-3.583c0,0,0.667-2,0.833-2.5c0.167-0.5,0.083-3,0.083-3
		l-1-3.417l-0.229-5.5c0,0,0.146-2.25,0.229-3.083c0.083-0.833-0.833-2.667-0.833-2.667v-4.917L120,173.25l-0.562-2.562L119,167.083
		v-2.333l0.083-2.5l-0.333-3.5l0.125-2.625l-0.625-8.458c0,0,0.083-7,1.75-11s-0.125-11.917-0.125-11.917 M116,376.583l-6.167-0.917
		l-7.333-0.833v48.239l14.833,1.177l10.333,0.75L138,426.167v17.167l1,30l7.833,0.833c0,0,3.333,0.167,2.833,9.5
		c0.333,5.333,1.167,12.167,1.167,12.167l0.833,4l0.667,6v5c0,0,2.667,9.5,2.667,11.667l-8.167-0.833l-15.667-1.333
		c0,0-4.833-1.333-4.833,3.667s0.083,13.417,0.083,13.417l0.417,2.167L126.75,542l0.167,2.417l0.167,2.25l-0.583,2.25l0.333,4.083
		c0,0-2.5,1-0.083,7.75l-0.167,6.75l-0.417,11.833l-0.5,5.833v5.583c0,0-2.917,19.5,6.167,20.583l6.917,144.417l2.125,17.625
		c0,0-3.125,3-1.875,6.75c-1.125,0.625-5.5,3.375-6,9.5c-0.25,3.25-0.5,5.5-0.5,5.5h3h2.875h4.125l7.625-1.375l10.125-0.625v19.25
		l-0.625,13.5h-4.75c0,0-2.125-0.375-1.75,7c0.625,8.75,0.75,13.25,0.75,13.25l-0.25,3.125l-0.5,3.125l0.5,8.625
		c0,0-0.625,3.875,0.5,10.25S158,887,158,887s2.125,16,9.625,17L195,1055.5l1.5,6.833c0,0-3.167,2.5-3.167,6.667
		s0.833,27.5,0.833,27.5l-0.333,14.833c0,0,0.667,3-3.333,2.5c-11,1-20.167,1.5-20.167,1.5h-6.667h-3c0,0-1.833-0.333-0.833,3.833
		l1.542,1.833l-0.708,1.5l1.5,4l0.667,4.5l7.833,25c0,0,2.333,6.5,3.167,9.667c0.833,3.167,10.833,28.333,17.667,31.333
		 M171.167,1521.5c1.333-10.333-1.667-31.167-1.667-31.167s-4.167-19.333-6.333-28C161,1453.667,162.5,1445,162.5,1445l-0.167-5.667
		l1.333-8.333l0.5-6.5l0.167-4.333l0.667-7.833h-14.417 M160.25,793.125l12.396-1.375v-1l1.854-20.25v-14c0,0-2,0-6.5,0.75
		s-13.667,8.25-13.667,8.25V627c0.5-8,6.333-17.333,6.333-17.333l1.5-12.333c0,0,2-24.833,2.167-29.167
		C164.5,563.833,165.5,560,165.5,560l0.833-10.167v-8c0,0,0-6.333,0-12.667c0-6.333-2.667-5.667-2.667-5.667l-8.667-1
		 M185.667,900.167c-1.167-3.167-4-22.833-4.833-30.833c-0.833-8,1-9,1-9L181,851.167c0,0,0.167-4.833,0-14.833s-2-10.458-2-10.458
		h-19.375 M120.25,886.125c0,0,17.083,32.542,20.75,35.208"/>
	<path id="LV4" fill="none" stroke="#FFFFFF" stroke-linejoin="round" stroke-miterlimit="10" d="M172.458,138.708l0.042,5.458
		c0,0,1.251,4.526,1.5,6.833c0.295,2.734,0,11.25,0,11.25l0.458,1.75l-0.375,2.125l0.042,2.333L174,172.625l0.25,5.667l0.098,1.235
		l-12.973-0.652c0,0,0.625,2.625,0.625,3.875s-0.625,2.25-0.625,2.25l1,1.75l0.25,4.625L163.25,195v4.875l1.062,7.312l0.5,4.562
		l-0.188,2.75l0.25,3.75l0.938,6.625l-0.062,2.25l-0.125,1l0.5,1.5v1.688l0.5,4.625l0.562,3.625l0.125,2.938l0.062,0.625H173
		l1.75,5.542L180,266l7,21.667l2.333,9.917l0.833,5.917l0.917,2l1.333,5.583l1,4.583l0.75,3.833l0.5,6.583l0.5,4.583v2.083l0.667,2
		v4.917c0,0,0.583,5.167,1,5.833c0.417,0.667,2.833,2.083,2.833,2.083l0.5,3.25v131.5V492L199,497.5l0.375,4.5l0.792,3.125v7.25
		l1.208,3.625v3.375l2.875,6l1.625,3l0.75,12.5L208,546v5l0.625,3l1.75,4.5v4.375l0.75,3L212,570l1.875,14l1.75,11.625v4.5l2.5,2.75
		l-0.75,1.625l0.75,4.25c0,0,5.375,2.917,8.208,6.917c3.833,4.833,7.833,10.167,7.833,10.167l3.667,7.167l3,11.167l2.833,128.167
		V779L242,787.333L240.333,803l-1,9.667L238,828h-13.667l-0.5,4.833l0.5,3.5L223.5,841l-0.5,5.167l-0.167,2.5l-0.333,5.167
		l-0.167,8.5L222,868.667l0.5,5.833L222,883l0.333,6l0.333,6.167c0,0,0.667,6,0.667,6.833s6,157.667,6,157.667l-2.333,9
		l-1.667,9.833l-0.833,9.333l0.167,5l-1.167,6.333v7.167l-0.167,3.167l-0.5,2.167H214.5l-1,13l-0.5,5.167l-0.833,7.5l-1.333,8.667
		l-0.5,4.333l-0.833,1.167l1.667,6.333l4.667,12.5l2.667,8l2.167,7.667l3,61.333V1278l1.333,56.333l-0.833,15.333l-2.5,9.333
		l-12.5,3.333l-0.5,5.5l-1.833,4.667l-3.167,2.833l-1.146,5v6.5l-0.688,3.5l-0.5,6.833L201,1406.5c0,0-0.084,2.619-1.516,4.488
		c-0.579,0.756-1.379,1.39-2.484,1.678c-1.5,0.833-1.667,3.5-1.667,3.5l-0.667,3.833v7.333l-0.5,6.167l-0.667,9l-0.333,4.667
		l0.667,5.167c0,0,1.333,8.5,2.5,11.5c1.167,3,3.667,8.5,3.667,8.5s3,5.333,3.833,9.167c0.833,3.833,2.333,13,2.333,13l1.167,5.5
		l0.167,5l0.5,4.333L207.5,1677h13l0.25,6.5v2.75l-1,11.75l-1.5,15.75H230l0.25,55.5 M167.375,243.125H156.5l-9.5-0.875l-6.5-0.875
		c0,0-5.375-1.375-5,5.75c0.375,3.5,0.5,5.625,0.5,5.625l0.125,3.5c0,0,1.25,0.875,1.875,2.125s1.625,6.5,1.625,6.5l6.75,20.375
		l1.5,7c0,0,3.481,8,3.553,8.375C151.5,301,154.125,310,154.125,310l1.375,4.75l3.625,13.25c0,0,4.5,3.375,6,5s8,7.375,10,13.625
		s3.25,12.25,3.25,12.25l3.25,3.75 M494.25,1519 M247,1519c0,0-1.875-11-3.333-16.25c-1.458-5.25-4.417-19-5.917-24
		s-4.75-8.375-7.625-11.833c-3.5-6.458-4.5-15.792-5.125-19.792s1.125-4.625,1.125-4.625v-3.5l0.25-3.875L226.5,1431l0.5-2.625
		l-0.125-5.25l0.125-2.75l0.125-2.25l0.625-2.125v-4.317h-2.5c0,0-3,0.317-3.75,0s-4,0-4,0l-5.25,0.694c0,0-4.25-0.377-7.5-0.044
		c-3.25,0.333-5.266-1.345-5.266-1.345 M241.384,793.125l-29.051-1.792l-2.667,34.542L210.5,827l3,0.833h3.833l7,0.167"/>
	<path id="LV5" fill="none" stroke="#FFFFFF" stroke-linejoin="round" stroke-miterlimit="10" d="M221.125,146.625
		c0,0,1,2.5,0.875,3.625s-0.432,3.375-0.432,3.375s-0.046,2.625,0.443,4.25c0.489,1.625,0,4.75,0,4.75l-0.334,4.625l-0.552,1.125
		l0.552,1.25l-0.552,2.625v3.5v1.625v5.125L219,184.375V187v6.25v5.5v3.625v2.875v5.625v7.5l-0.375,15.25v13.938h1.188l0.614,12.688
		l0.698,7.875l0.438,5.188l0.666,5.938l0.709,4.75l0.562,7.625l1.125,13.875l0.312,1.188v2.75v5.188l0.812,2.438l0.375,2.312v2.438
		l0.438,2.5l1.062,6.562v2.812c0,0-0.062,4.5,0,4.688s0.688,3.5,0.688,3.5s0.75,3.125,0.75,4s0,7.062,0,7.062L256,466.333l-3.667,24
		l-1.333,9L248.667,504L246,511.333l-2.333,9c0,0-0.5,4.167,0.667,5.333c1.5,1,8.167,1,8.167,1h9.167h8.667l-1,5.167l-1.333,9
		L267.5,544l-0.667,3.667l-1,6.333l-1,4.333l-0.5,6L263.5,568l0.167,3.667l0.5,8.167L265.333,593l0.333,5.5l0.5,3.333l1,3
		l3.167,8.667l1.333,8.667v9.333l5.667,140.833v3.5c0,0-2.833,3.5-2.333,9.333c0,0-2.667,3-3.167,5S270.5,803.5,270.5,803.5
		l-0.667,4.667l-0.167,6.167l-0.833,12.5L265.5,828.5l-0.333,27.5l-0.5,3.167l0.167,3.5l-0.667,1.667c0,0-2.833,1-3.333,6
		s0,8.833,0,8.833l-0.5,3l0.5,1.667c0,0-0.75,1.417-0.75,3.5c-0.167,2.25-0.583,4.083-0.583,4.083l-0.083,2.833l-0.667,2.25
		l-0.667,3.917l-0.417,4.917l-1.333,9.083L258.25,916l10.5-1c0,0,6.917-0.417,7.667-0.417s4-0.25,4-0.25s3.25-0.25,3.333,3.75
		c-0.417,4.333-1.167,7.583-1.167,7.583s-0.75,1.167-0.583,1.5c0.167,0.333,0.917,1.417,0.917,1.417l0.833,7.5v8.167l0.417,7.417
		v11.5l12.5-0.5l0.75,22.75v24.667h-8.583c0,0-2.333,0.083-2.25,4.417c0.083,4.333,0.25,15.417,0.25,15.417l0.167,9.75
		c0,0-0.25,11.583-1.625,13.458s-3.75,3.25-7.25,2.875l-3.5,0.062c0,0-0.625,1.938-0.625,4.063s0.125,10.875,0.125,10.875
		l-0.25,3.625l0.125,4.25v3.375l-0.125,5.625l-0.25,3.625l-0.25,4.375l0.25,3.625l-0.375,5.25l0.25,3.875v2.875h-13.25l-0.5,2.75
		l-0.75,2.25l0.25,1.375l-1.229,1.625v4.125l-0.646,1.75l-0.5,3.375l-1.25,2.875l-1,5.625l-0.625,2.125l-0.125,1.5l-1.25,2.375v1
		l-1.25,2.375h-2.25c0,0,0.5,12.125,0.5,13.75S250,1165.5,250,1165.5l0.625,3.75c0,0,0.25,4.25,0.75,5c0.375,1.375,0.5,6,0.5,6
		l0.75,5.875l4.042,110.208l4.333,46.333l5.333,13.667l1.333,0.833c0,0-1.5,0.667-2.333,6c-0.833,5.333-2.167,9-2.167,9l-1,4.667
		l-0.333,6.333l-1,15.833l-0.667,12.667l9,0.833l-0.833,22.667c0,0-2,7.667-2,8.5c0,0.833,0.5,5.167,0.833,7.833
		c0.333,2.667,1.833,8.667,2.333,9.5s3.833,7,4.5,7.5s5.167,4.333,5.833,5c0.667,0.667,2.833,5,2.833,5l0.667,4.5
		c0,0,3.167,14.833,4,16.5c0.833,1.667,2.273,153.556,2.273,153.556L280,1679l-1.333,8c0,0-3.333,12.333-3.333,14.667
		c0,2.333,0.333,8.333,0.333,8.333v4.667H272l0.333,26.667l0.333,29.333 M296.667,962.667l16.667-0.333v-3.688l-1-1.708v-13.604
		V932.5v-7.167c0,0-0.833-6-0.833-7s-0.667-2.833-0.667-2.833l-2.5-0.833h-2.5c0,0-4.5,0-7.5,0s-2-1.833-2-1.833v-21.5v-7.667
		c0,0-0.333-5.167-0.833-10.5c-0.5-5.333,0.833-5.5,0.833-5.5v-8.5l-1-3.167l1-2.667L295.5,851v-2.167v-22h-6.75h-8h-7.5h-4.417"/>
	<path id="LV6" fill="none" stroke="#FFFFFF" stroke-linejoin="round" stroke-miterlimit="10" d="M268.667,152.354v9v5.333v6v4
		c0,0-0.667,6.833,0,7.833c0.667,1,0.667,3.5,0.667,3.5v6.5v11.333v10.5v6.667v10.167v5.833v4.5l-0.963,6.167l-0.704,4.5l-8-1.167v4
		v2c0,0-1.792,3.833-1.646,7.5c0.146,3.667,0,7,0,7v4l-0.008,4.667l-0.679,5.333v4.833v4.667l-1,3.667v5.5v4l-1.167,2.5
		c0,0,2.333,20.167,0,29.833c-2.333,9.667,6.167,32.833,6.167,32.833l9.167,62.333l6.5,32.5l22.833,18.333l1.5,5.5v3.833l-1.167,1
		l-1.333,8.833l-0.333,5.333l-0.167,11.333h11v8.333l-0.833,5.667l-1.167,11c0,0-1.5,11-1.667,12.5
		c-0.167,1.5,0.167,3.833,0.167,3.833s-2.5,0.167-2.167,4.333c0.333,4.167,1.5,12.333,1.5,12.333s2,22.167,6.167,29.333
		c0,0-1.833,5,0.667,9.5l12.667,149.667c0,0-1.667,7.833-1.667,8.833s0.167,3.333,0,3.833s-1.333,3.167-1.333,3.167
		s-1.167,2.833-1.167,4s-1.5,1.5-1.667,2.667c-0.167,1.167,0,4.833,0,5.333s-0.333,4.167-0.333,4.167s0,2.5,0,3.167
		c0,0.667-0.833,3.5-0.833,3.5l0.167,5.333v6l-0.333,4.167l0.167,1.167h7v4.167L326,843.188v4.333l2,10l1,7.667l1.5,6.333
		l1.833,11.5l2.833,15.167l1.667,15.5h6l0.667,12.5v35.333H322l0.167,46.5h7l0.333,44.833l-29.667,1.167l-0.703,56.667h2.369
		c0,0-9.167,32.167-11.167,35.5c-1.167,1-2.667-0.5-4,5.667c-1.333,6.167-3,16.167-3,16.167s0.333,8.333,0.667,11.667
		s0.667,11,0.833,12c0.167,1,3.333,156.167,3.333,156.167l0.667,9.667c0,0-1.5,2-1.833,6.667s-1.167,4.5-1.167,4.5
		s-2.5,2.333,0.5,3.5s9,0,9,0l8.667-0.667l8.333-0.833c0,0,6.5-1.167,6.333,5c-0.167,6.167-0.167,15-0.167,15l0.167,14.667
		l-0.667,6.833h-13.333l-0.667,5.833l-2,11.333c0,0-1.5,7.333-1.667,8c-0.167,0.667-1.203,4.833-1.203,4.833s-2.464-0.5,1.203,8.167
		c3.667,8.667,7.667,16.5,7.667,16.5l4.833,6.5c0,0,6.333,4.5,6.5,5.833c0.167,1.333,1.333,8.167,1.333,8.167l0.917,3.583
		c0,0,0.083,1.5-0.25,1.75c-0.333,0.25-0.833,1.167-0.833,1.167s0.75,1.333,1.25,1.333c-0.083,1.083-0.25,3.917-0.25,3.917
		l0.25,3.667l-0.167,2.083l4.75,89.167l20.167,83.5c0,0-3.167,0.667-3.5,8.667c0.5,7.667,0.5,11.833,0.5,11.833v7.667l-0.167,9
		h-17.167v54.25"/>
	<path id="LV7" fill="none" stroke="#FFFFFF" stroke-linejoin="round" stroke-miterlimit="10" d="M370.667,1684.667l-0.333-8
		L358,1513.5c0,0,0.333-11.667,0.167-18.333c-1-12.5-3-12-5.333-14.333c-5-3.5-8.167-10.333-8.167-10.333l-7.5-14.5
		c0,0-3.667-8.5-4.333-13.833c-0.667-5.333,0.833-10.333,1.833-13.167s2-13.167,2-13.167c0.167-6,2.833-5,2.833-5
		s4.167-1,8.833-2.167c6.333-0.667,7.5-3.5,7.5-3.5l0.5-4.5c0,0,1.333-7.833,2.167-10.167s5-7.333,5-7.333l0.167-19.333
		l-0.333-37.667h5.5L368,1306.333l0.333-18c0,0,0.167-4.167,0.167-6.167s-3.333-2-3.333-2l-0.667-30.333L363.833,1235h-24
		l-0.167-16.667l0.167-6.167c0,0,1-14,1-17.667s-1.333-3.667-1.333-3.667h-19l5.167-21.167l3.667-15.5l0.667-5.5l3.167-2.167
		l2.5-17.5l0.5-6.5l2.5-13.833l2.167-2.667l0.833-3.833l1.333-6.5c0,0,2.667-9.333,5-12.333c6.333-10,27.333-21.667,27.333-21.667
		l8.333-54.333L385,972.667c0,0-4.333-34-4.333-48s-38-10.667-38-10.667h-5.833l-0.161-1.496l-0.667-6.204l-0.735-6.835
		l-1.309-7.416l-1.391-7.445l-2.432-14.296l-1.309-6.11l-1.272-8.576L326,847.833l-0.017-4.498l-0.865-8.321l-0.452-4.555V826.5
		c0,0-5.583,0-7,0c-0.375-0.75,0.167-5.333,0.167-5.333v-5.125l-0.167-6.208c0,0,0.552-2.029,0.833-3.5
		c-0.167-1.125,0.132-4.662,0.132-4.662l0.201-2.671c0,0-0.072-3.083-0.07-4.082c0.001-0.999,0.178-1.625,0.178-1.625
		c1.733-2.04,1.246-1.445,1.678-3.147c0.432-1.702,2.423-6.53,2.423-6.53L323,780l0.389-2.505l1.277-6.328l-0.158-1.862
		l-10.198-120.502L312,621.5c-2.438-4.438-0.667-9.5-0.667-9.5c-1.167-1.25-3.108-9.225-3.108-9.225l-1.147-5.778l-1.466-10.176
		c0,0-1.65-13.505-1.945-16.488c0.042-2.917,0.914-3.684,2.167-4.333c-0.542-2.938,0.032-5.414,0.032-5.414l1.468-10.919
		l1.105-10.423l0.895-6.244v-4.688v-3.646h-0.958h-10.042l0.176-8.479l0.093-4.498l0.065-0.806l0.305-3.807l1.194-7.911l1.167-1
		l-0.075-4.107l-0.628-2.303l17.994-5.423V469c0,0-28.958-118.833-27.625-123.833S295.167,315,295.167,315v-5.167l0.667-6.833
		l1.583-7.833L299.5,274.5c0,0,1-4.667,1.131-7.333c0.131-2.667,0-5.667,0-5.667s4.369,0.5,7.703,1.333
		c3.333,0.833,9.667,1,10.167,0s-0.667-21.565-0.667-21.565l-0.167-7.768l0.833-17.333v-6.833V204.5v-4.667l-0.833-4V192.5v-7
		c0,0-11.917,0.25-10.667,0s2.25-3.25,2.056-5.25c-0.194-2,0-6,0-6s-0.056-4.25-0.556-8c1.25-3.5,0-11.25,0-11.25 M371.333,1501.833
		c0,0,1.667-5.833,3.667-9.333s8.833-7.833,8.833-9.5s-8-22.833-10-27.167c-2-4.333-9.333-15.833-9.333-15.833l3.5-22.833
		l1.5-11.833c0,0-1.167,0-3,0c-4.333,0.833-11.712,1.075-11.712,1.075 M363.333,1326.167h-31.667c0,0-0.333,6.167-0.333,7.833
		s-1,13.5-1,13.5l-0.68,4.421l-0.32,6.079v8.833c0,0-1.167,2.833,3.333,2.833s8.333,0,8.333,0h8.833l0.167,22l1.05,16.518"/>
	<path id="LV8" fill="none" stroke="#FFFFFF" stroke-linejoin="round" stroke-miterlimit="10" d="M413.035,1811.811l-0.917-35.625
		l0.333-6.875h2.667l-0.333-281.375l-0.75-9.75l-1.375-8.875c0,0-1-4.75-2.5-7.875s-4.875-6.875-7.625-10.625s-10-11.75-10-11.75
		l1-5.125l1.375-7.5l1.875-10.375l2.125-13.875c0,0-6.75,0.625-7.375,0.625s-12.375,0.875-12.375,0.875
		c0.375-2.625,1.875-5.75,1.875-5.75l-0.375-4.125l1.125-1.875l0.125-1.625c0,0,1.25-3,1.75-4.375s4.875-3.875,4.875-3.875
		s0.125-2.125,1.25-4.125s7-6.25,7-6.25l5.5-6.125l0.625-7.25l-0.375-9.5l-0.25-11.625l-0.375-11.125l5.75-7l1.125-21.375v-4.625v-4
		c0,0,0-3,0-4.25s-0.625-3.24-0.625-3.24s-3.125-0.135-8.125-0.01s-7.875-1-7.875-1l-0.625-3v-1.5l0.625-2.625v-2.125v-2.75v-4.375
		v-5.5l-0.875-1.5l0.875-1.75v-2.375v-3.375v-2.375v-1.625v-2.375v-2v-2.375c0,0,0-1.625,0-2.5s-2.75-1.25-2.75-1.25l-8.5,0.5
		c0,0-7.625,0.125-7.75-0.625s1.125-6.125,1.125-6.125l-0.25-5.125l-0.375-7.625l-0.75-16.875l0.5-2.875l0.25-2.5v-3.75h-2.5v-1.5
		v-1.625v-1l-0.25-1.25l0.5-12.25l-0.125-2.5v-2v-2.5v-2.875v-3l-0.25-2.75l-0.375-2l0.5-2.125l-0.75-2.125v-2.75l-0.25-3.375
		l-0.125-2.875l0.25-2.25v-1.5l0.375-1.625l0.25-2.625l1-6.375l1.25-11.125l0.5-5.625l0.375-4.5c0,0,0.25-1.5,0.25-2.625
		s-1.75-1.125-1.75-1.125s0-2,1-7.375s7-17.375,7-17.375l10.75-32.875v-25.25l-5.875-77c0,0-4.944-16.241-5.163-19.395
		c-0.219-3.154-4.13-5.034-7.095-6.462c-0.132-15.356-7.743-46.394-7.743-46.394l-3.125-7l-2.5-7.125l-3-8.75l-2.875-8.75
		c0,0-1.375-3.25-3.375-8.125s-1.5-5.375-1.5-5.375l15.375-0.875l0.125-1v-3.625c0,0,0.375-17.75,0.625-22.625s2.25-10,2.25-10
		l0.25-4l2.25-11l-11.375-1.625l-19.125-144.75l-1.647-8.375l-0.728-6.875l-0.625-6.375c0,0-2.375-23.5-2.75-31.875
		s2.375-8.25,2.375-8.25l0.75-1.75l1.5-4.75l0.75-3.875l0.625-5.25l1.25-5.125l1.875-6.625c0,0,1.625-5.75,1.875-7.75
		c-1.375-0.125-2.125-1.75-2.125-1.75v-3.125l1.248-4.875l0.752-3.375l0.25-4.75l0.25-5.375l1.25-6.75l0.75-4.875
		c0,0,0.125-3.875,0.125-7.875c-2.625,0.125-15.125,3.875-15.125,3.875h-3.125c0,0-3.5-118-3.375-137.125s7.875-31.75,7.875-31.75
		l11.875-65.25h15.375v-6.25v-4.375l0.375-3.625v-2.625c0,0-0.125-3.125-0.25-3.5s0.25-1.625,0.25-1.625l1-2.125l-0.625-3.875
		v-2.125l0.625-3.25v-2.5v-2.75v-5c0,0,0-11.75,0-19.25s-1.25-7-1.25-7s-6.75,0.25-10.75,0s-3.75-7-3.75-7s0-10,0-14
		c-1-2.25-1-9.75-1-9.75"/>
	<path id="LV9" fill="none" stroke="#FFFFFF" stroke-linejoin="round" stroke-miterlimit="10" d="M383.75,152.667
		c0,0,1.25,4.333,2.5,8.583c0,5.5,0,13.25,0,13.25v10L361,185.75c0,0,1.25,0.438,1.25,7.25v10.75v11.562v6.938l-0.625,3.25v1.75
		l0.625,3.938l-1.121,2.891v2.376l0.121,3.796l-0.168,2.752L360.875,246v9.625l14.5-0.812c0,0,0.875-0.562,0.875,7.438
		s0.312,12.438,0.312,12.438v9.188l0.5,7.75v7.938v9.688l0.312,8.688l-13.312,0.938l0.188,3.062l0.375,2.188l0.125,2l-0.25,7.312
		l-0.188,10.188L363.938,350l-1.125,12.812l0.062,3.688h-6.25v10.25v5.375v3.25l0.75,2.25V391l-0.75,1.125l0.875,1.375l-0.875,2
		v2.375v2.25v3.625l0.75,4.25l0.25,0.75h6.5h7.75c0,0-0.125,29.125-0.25,28.625s0.75,37.125,0.75,37.125l2.375,21.75l1.75,12.125
		c0,0-4.5,8.5-4.25,18.75c3.375-0.375,6-1.125,6-1.125l-1.25,9l-0.75,9.5L376,555.125L375.125,557c0,0-1.25-0.5-1,6.25
		s0.125,13.625,0.125,13.625l-0.125,14.5l-0.25,10.125l0.25,10.375l1.25,8c0,0,0.875,9.375,0.875,9.75s11.625,146,11.625,146
		l5.875,1.125h3.75l6.625-1.125c0,0,0.75-1.25,1.25,3.625s0.875,13.375,0.875,13.375V798l1.25,14.25v3.375h0.75v1.625l-0.75,1.625
		v3.375l0.75,7.625l-5,1l-0.125,4.875l0.75,4l0.75,3l1.125,2.875l0.125,3.25V854l0.625,7.375c0,0-2.625,1.125-1.875,5.375
		s1.625,7.375,1.625,7.375l1,5.875l0.125,15.75l-0.25,5.625l-0.5,8L411,1064.667l-2.167,10.667c0,0-2.833,3-3.5,18.5
		c-0.167,1-0.167,1-0.167,1l-0.729,0.729l-0.062,2.375l0.438,14.75l0.75,7.062l0.25,5.875l1.125,13.75c0,0,0.188,2.875,1.688,4.875
		s5,6.75,6.062,12.25c1.312,3.562,1.938,7.125,1.938,7.125l1.125,4.062c0,0,2.688,8.625,3.5,21.375v0.562l-14.75,0.688l0.438,21.5
		l0.375,11.062l0.125,12.562l29.688,0.562h0.562v25.5v11.188L432,1367.5c0,0-0.75,11.5-0.75,12.25s12,0,12,0s2.5-1.5,1.5,6
		s-1,10.5-1,11.5s-1.417,1.583-3.667,1.583S436,1399.25,436,1399.25v7.167l-0.5,11.417l-0.5,9.25l-0.75,7.833
		c0,0-0.25,7.833,0,10.833s1.333,7.917,1.333,7.917s14.083,27.667,15.083,32.667c0,0,5.667,19.667,5.667,31.333
		c0,11.667,11.667,187.333-3.333,209c0,0-3.659,6.767-3.659,9.434c1.006,3.172,1.326,9.566,1.326,9.566L452,1758
		c0,0-1,2.333,5.667,2.333h2.989c0,0,1.011,4.833,1.011,8.917s0,26.75,0,26.75l-1.333,18.125"/>
	<path id="LV10" fill="none" stroke="#FFFFFF" stroke-linejoin="round" stroke-miterlimit="10" d="M506.75,1814.125l-0.25-3.458
		v-5.167l1.25-7v-6.75v-6.5v-3.75v-7.5v-8.75v-5.75h-3.667c0,0-2.583-1.75-2.583-2.5s-0.5-8,0.75-8s1.5-5.75,1.5-5.75s0.75-6,0-9.5
		s-5-6-5-6H487l0,0l0.087-12.502c0,0-0.193-30.95-0.467-25.748c-0.87-5.25,1.819-7.317,1.819-7.317l5.015-4.422l10.726-8.126
		l3.57-13.886l-3.5-125l-1.44-26l-12.56-2.5l-8.75-0.25l-9.167,0.5l-2-39.167l-1.667-23l-1.833-8.333l0.333-9l0.833-5.667
		l0.5-19.167l18.625,0.583c0,0,0.042-1.047,0.047-1.874c0.019-2.88,0.106-10.161,0.494-17.543c0.5-9.5,6.5-15.5,6.5-15.5l8.5-40.167
		c0,0-13.667-97.833-13.5-106.167c0.167-8.333-14.667-19.167-14.667-19.167l-7.667-7.333l-1.167-4.667l-2.833-13l-2.5-6.167
		c0,0-4.167-11.333-5.167-14c-1-2.667-6.5-11.5-8-13.5c-1.333-1.167-2.5-7-2.5-7l-0.333-7l-2.167-13.833l-0.333-4.667v-4L441,1099.5
		l-0.333-4.333l-0.5-3.5l-0.833-2.333c0,0,4-1.667,4-2.167s0-10.333,0.667-13.167s3.167-6.333,3.167-6.333L445,1062.5l-0.167-28.667
		L441.5,909.5l-0.167-4.5l1.5-4.333l0.333-6.333l0.167-4l0.167-3.833l0.333-3.333l0.5-4.333l0.667-4c0,0-0.833-3.333-0.667-5
		c0.167-1.667,0.667-4.667,0.667-4.667c-1.167-2-1.333-7.5-1.333-7.5V854.5l-1.5-3.833l-1-3.667l-0.833-5.333
		c0,0-2.333-10.333-2.667-13C437.333,826,437,825,432.5,826.167c-4.5,1.167-5,0-5,0l0.333-5.333v-6l1.667-5.667l0.333-7l1.667-6.333
		l1.167-7l2-6.167V777.5c0,0-1-3-1.5-3.167c-0.5-0.167-3.5-0.333-8.5-0.833S420,773.833,420,773.833l-5.667,1L408,775l-5.03,0.821
		L396,776.75l-1.333-3.75l-1.167-9.333L394.167,744l-3.5-9.833v-42.833l1.167-32.5c0,0,4.667-9.667,4.833-10.333
		c0.167-0.667,3.333-9.333,3.333-9.333l2.667-7.167l3.333-6.333l3.146-3.167c0,0,1.521-0.667,2.188-0.833c0.667-0.167,1-2,1-2
		l-0.083-1.792l0.375-4.5l0.125-5.875v-2.375v-3.875L413,598l0.375-7.5l-0.625-21.875c0,0-1.25-9.375-1.875-12.25s0-7.375,0-7.375
		l1.5-2.875l0.625-3.25l0.875-4.125l1.458-4v-4l1.167-2.875l0.625-3.75c0,0,0.875-3.625,1.125-5.875s-0.5-2.875-0.5-2.875
		s-6.5,1.625-6.25,1s0-5.625,0-5.625s1.375-10.75,1.875-14.25c1.125-2.625,4.25-4.875,4.25-4.875l-1.5-41.25L416,446.25l0.75-2.375
		l-1.417-3.25l0.667-8.25v-2.5l-0.667-3v-2.625v-3.875V407.5h5.292l-0.125-5.75l0.5-10.5l-0.875-3.125l0.625-11
		c0,0-0.125-5.25-0.375-9.25s0.25-3.875,0.25-3.875c1.5,0.125,3-1.625,3-1.625l0.25-2.5l-0.5-7.875l-0.25-10.375
		c0,0-0.5-12-0.832-18.75s-3.043-6.25-3.043-6.25h-3.917l-0.458-19.125v-10.125l-0.25-13.25L414.042,253l15.667-1.667l0.837-11
		l-0.67-6.667l0.67-3l-0.67-3.833V223l-0.167-4.5v-4.833c0,0,0.667-11.167,0.667-22c0.833-9.333-1.667-8.5-1.667-8.5h-2.759h-6.574
		V172v-6.5c0,0,3,0,6.574,0c-0.926-1.833-0.074-6.833-0.074-6.833s0.167-3.5,0-5c-1.667-7.667-0.951-8.919-0.951-8.919
		 M466.593,1190.039l-6.968,0.586v11.875v12.75v6.125l0.875,3l-0.875,2.25l0.625,9.25c0,0,11.75,0.625,12.375,0.75
		s10.25,2.75,12.125,4.5s4.375,4.875,4.375,4.875 M487.375,1727.438c0,0-0.576-23.72-0.75-33.812c-0.02-1.168,0.062-3,0.062-3
		s-0.067-1.125-0.066-4.438c-0.041-2.125,0.757-2.885,1.818-4.004c1.422-1.5,2.67-2.589,2.67-2.589l4.726-3.695
		c0,0,4.497-3.4,7.226-5.566c2.729-2.167,15.938-6,15.938-6V1626v-136.5c-14.875-2.75-12.438-36.312-13.188-39.625
		c0.117-3.312-0.562-21.875-0.562-21.875l-0.688-10.562l0.062-4.438l-0.363-2.125l-0.012-2.375l0.012-1v-1.125l-0.846-1.292
		l0.75-0.667c0,0,0.208-0.667,0.083-2.042s-0.5-2.958-0.5-2.958l-16.625-0.667 M472.333,1502.5c0,0-16.855-0.224-17.511,1.638"/>
	<path id="LV11" fill="none" stroke="#FFFFFF" stroke-linejoin="round" stroke-miterlimit="10" d="M554.674,1811.655l0.333-8.833
		l0.667-5.833l1-5.333l0.167-4.5l0.5-6l0.833-3.667c0,0-0.167-3.333,0.5-8.833c1.167-5.5-0.833-4.833-0.833-4.833h-4.167h-3.833
		l-8.333-1v-1.5l0.667-7.333l0.667-4.667l2-4.333v-37.333l21.667-17.667l-19.167-219.5v-1.667c0-2.333-1-14.333-1-14.333v-10.667
		v-5.5v-2.667l-1.167-6.167v-5.5v-7.333l-1-5.333l-1.167-11.667h-8.833l0.167-20.5l-19.167-0.667l0.833-17.667l25.667-8.667
		l-5.667-58l-2.333-41.333l-8.667-52l-5.5-11.333c0,0-4.333-9.667-4.333-10.167s-4.5-10-4.667-11
		c-0.167-1-5.167-11.333-5.167-11.333s-9.167-15.5-10-17.5s-1.833-7.167-1.833-7.167v-7.333l-1-14.167v-7.333
		c0,0-0.5-10.5-0.833-11.667c-0.333-1.167-0.667-4.667-0.667-4.667l-5-1.167l-0.333-8.333l0.833-4.167l0.667-4.5l4.333-1.667
		l5.667-12.167l-2.833-127.333l-5.167-22.833l-4-15.5l-2-11.333l-2-9c0,0-2.5-7.333-2.833-9.5s-1-9-1-9l-1.167-5.667l-2-11.833
		l-0.667-10.167l-0.167-7.167l-4.5,1.333l-6,1l-5.32,1.333v-7l0.987-4.667l0.5-4c0,0,0.667-2.833,0.833-3.5
		c0.167-0.667,0-3.333,0-3.333l0.667-2.667v-2.5v-3l-1-1.667l-0.167-4.167l1.333-2v-2c0,0,0-3.333,0-4.333s-0.667,0-0.667,0
		l-2.487-0.833l-2.68,0.833l-5.792-1l-1.042-11.167l-0.167-22.667l-2.333-28l-0.333-3.333l-0.333-3.333l0.333-5.333l-1.5-1.667
		l-0.333-3.833l0.5-5.167l-0.333-4.333l-0.5-4l0.167-3.333v-3.333l-0.167-2.833l-0.167-3.667c0,0,0.167-3.667-0.333-3.833
		c-0.5-0.167,0.5-1.833,0.5-1.833l-1-1.833h-5.306v-1.833l0.806-2.5v-3.333l-0.806-2.5v-2v-2.833l0.806-3.667
		c0,0-0.5-8.333-0.667-16c-0.833-7.5,2.333-6.94,2.333-6.94s3.667-0.393,9.875-0.06c6.208,0.333,4.792-0.833,4.792-0.833v-12.5
		v-6.333l0.333-5c0,0-0.5-9.667-0.5-10.5c0-0.833-0.167-3.167-0.333-4c-0.167-0.833,0-3.833,0-3.833l0.167-3.833l-0.333-3
		c0,0-0.167-4-0.333-4.667c-0.167-0.667,0.333-7.333,0.333-7.333l-0.667-3.5c0,0-0.333-4.333-0.333-4.833s0.333-4.333,0.333-4.333
		l-0.667-8.667l0.167-7.167l-0.5-5.833l0.833-2.167l-0.667-1.833l-1.167-3.5l1.167-3.833l2.5-0.667l-0.167-7.667l0.5-8.833v-5.333
		l7-1.667l3.333-9.833l9.875-100.25c0,0-3.375-23.25-3.75-25.125s-3-10-3.75-12.375c-0.75-2.25-4.625-12.5-4.625-12.5l-2.75-6
		l-2-3.875l-0.5-3.625l-0.875-2.875l-0.375-3.625l-1.125-5.25l-1-5.125l-1.375-4.875l-0.5-3.5l-1-2.5l-0.125-2.5l-1-5.125
		l-0.917-3.625v-2.5l-0.583-2.875l-1.125-1.375l-0.375-2.75l0.125-1.875l-1.625-5.125v-1.875c0,0-0.875-1.5-1.5-1.875s0-1.75,0-1.75
		v-1.375l2.75-1h4.875h6.875h5.75h6.25h3.75l1-1.5v-1.75l-0.25-2.25l0.25-3l0.375-2.375l-0.375-1.875l0.5-3.5l0.375-2.125l0.25-1.75
		v-3l0.875-18.625l1.125-23.75h-8.375l-9.25-1l0.792-16.625v-10.25h14.833l-0.75-3.833l-0.75-4.542c0,0-0.25-3.125-0.75-5.75
		c-0.375-2.75-2.125-11.625-2.125-11.625"/>
	<path id="LV12" fill="none" stroke="#FFFFFF" stroke-linejoin="round" stroke-miterlimit="10" d="M604.625,1811.333l0.5-3.875
		l2.875-25.75l1.625-9.5v-5.125l-0.625-2.875h-30v-6.75l0.5-4.5l0.375-4l13-13.125l11.75-48.375l-7.375-141.625l-14.125-68.875
		c0,0-2.25-7.75-3.625-11.625c-1.625-1.75-3.25-40.625-3.25-40.625s-0.5-17-0.375-19.5s-0.125-5.375-0.125-5.375h7.375v-9.5v-3
		v-3.875l-1.25-4.125H552.5l-0.125-1.375c-1-4.5,1.75-9.5,1.75-9.5l12.757-15.917l-1.632-38.458c0,0-7.25-108.25-7.5-110.875
		s-1.125-31.875-1.125-31.875s-0.125-4-0.875-4.75s-3.125-6.625-3.125-6.625l-0.75-5.125c0,0-0.5-2.875-1.5-5.875
		s-4.625-7.625-4.625-7.625s-3.75-3.875-4-4.375s-1.625-2.5-1.625-2.5v-7.625l-0.625-5.625v-5.125l-0.875-6.125v-3.625l-1-10.625
		c0,0,0-5.125,0-7s-1.125-2.875-1.125-2.875c-2.625,0-4.5-0.625-4.5-0.625l-1-13.5v-3.75l4.125-1.75l-1.375-26.625l-1.375-33.5
		l-4-89.375L526,902.333l-1.125-7.5l-2.625-14.875l-1.5-10.5l-1.375-7.375l-1.25-6.75L517,850.708l-1.25-6v-5v-6.375l-0.25-4.5
		l0.375-4.375l0.375-2.5l-0.75-2.25l-0.375-3.75v-2l-0.125-2.5v-2.375l-0.75-3.25c0,0-6.25,1.25-7.375,1.25s-3,0.625-3,0.625
		l-8.375,1.375l-0.958-7.875l0.583-8.875l0.375-7.375c0,0,1-5.625,1.75-5.75s11.625-9,11.625-9l5.25-18.875l-0.75-33l-0.125-7.75
		c0,0,0.375-3.625,0.25-7.25s-5.375-2.75-5.375-2.75h-12.5h-9.75h-5.25l-6.5-0.75h-4.875h-2.5l-2-0.625l0.125-2l-0.5-10.625
		c0,0-0.375-11.875,0-19s3.75-6.75,3.75-6.75h21.25l0.875-7.375l0.5-5.875l-0.375-16.625c0,0,0.125-5.5,0-9.875
		c-0.375-3.875,2.875-4.125,2.875-4.125h1.875l-0.375-3.125v-3.125l0.125-2.25l-0.5-2.125l-0.25-3.25l-0.375-4.125l-0.875-3.5
		l-0.5-4.125l-0.25-3.75l-0.625-5.875l-0.75-3.5l-0.375-3.625l-0.25-3.875l-1-4.125l-0.5-3.5l0.5-3.25l-1.75-3.25
		c0,0-0.25-5-1.125-9.375c-1.375-5.25-1.125-5.25-1.125-5.25l0.125-3.375v-3.75l-0.25-3.125l-0.75-5.625
		c0,0-1.25-13.125-1.236-14.125c0.014-1,0-3.75,0-3.75v-3.375v-9.25l0.111-5.375c0,0-0.25-2.25,0-4s2.25-3,2.25-3
		s-0.375-117.125-0.75-119.875S484,353.208,484,353.208l1.125-4.75l0.75-4.875v-10.25l0.75-12l0.617-28.25v-9.875v-7.25v-3.125v-3.5
		v-2.125v-5.25v-3.25v-3.375l0.633-1.625l0.25-2.375c0,0-0.75-2.375-0.875-3.125s1.25-1.375,1.25-1.375l0.708-1.5l0.167-2
		c0,0-0.375-2,0-5.375c1.25-5.25,3.5-4.75,3.5-4.75l5.75,0.25c0,0,11.75,1.5,17,2.5c5-0.25,4-3,4-3l-0.25-3l0.5-7.75l1-26.75
		c0,0,0.25-6.25,0.25-7.75s-3.75-2-3.75-2s-8.25,0-13,0s-8.75-1.75-8.75-1.75v-4.25c0,0,0-4.25,0-12s6.354-7.25,6.354-7.25h12.146
		v-2v-5.583c0,0,0-7.917,0-9.917s0-5,0-5s3,0,6,0s4.75-3.5,4.75-3.5v-11.75c0,0,0-8.25,0-12.75s-2.5-7-2.5-7 M582.75,1476.75
		l20.5-10.25c9-27,6-48.833,6-48.833v-18.042h-26.5 M513.875,805.625l24.647-6.745l-0.855-20.547l-1.125-4.667L552.333,763
		c0,0,0.333-103.167,0-107c-0.333-3.833-9.167-28.667-11.438-33.833c-2.271-5.167-3.396-13-5.062-22.333
		C534.167,590.5,522.5,552,522.5,552l-4.333-13l0.167-7.667c0,0,0.667-22.5,0.833-25.833c0.167-3.333,4.833-3.167,4.833-3.167
		s5.833,0,11.833,0s5-3.333,5-3.333v-10.167V478l-1.5-6.667l-19-29l-7.5-75.333c8.333-6.5,15.833-50.5,15.833-50.5l4.167-35
		l3-34.667l0.708-10.5l1.792-9.5v-1.167l1-3V218v-3v-3.333c0,0-1-6.5-1.167-8.833c0.333-4.167,0-8.167,0-8.167v-6.5
		c0,0,0-2.667-0.667-3.372c-0.667-0.705-3.333,0.826-3.333,0.826s-3.167,0.712-4.5,0.82c-1.333,0.108-3.167-1.275-4.833-1.608
		c-1.667-0.333-4.844,1.608-4.844,1.608 M513.125,703.125c0.001-3.212,5.857-2.958,5.857-2.958v-10.833c0,0-0.482-20.5-0.148-23
		c0.333-2.5,0-5.5,0-5.5h-4.667L515,643.167c0,0,0.167-8.5,0-17.833c-0.167-9.333-3.167-8.583-3.167-8.583H494.75 M537.5,184.795
		c0,0,1.5-12.295,1.25-14.295s-1-5.75-1.833-7.75c-0.833-2-10.917-2.292-10.917-2.292h-11.875 M524.875,114.75L535.75,113H544h5.25
		c7.5-8.5,14.001-1.25,14.001-1.25h3.475c0,0,0.024-3-0.219-4.917c-0.243-1.917,0-2.833,0-2.833s0.493-5,0-8.25
		c-4.993-4-2.757-8.25-2.757-8.25"/>
	<path id="LV13" fill="none" stroke="#FFFFFF" stroke-linejoin="round" stroke-miterlimit="10" d="M656.167,1811.125
		C657,1809.75,656,1807.5,656,1807.5l1.167-5.667l1.833-7.167l0.667-6.5l1-4l2.5-11.667l1.667-11.333h3.5l11.482-1l-0.148-2.167
		c0,0,0.333-6.667,0-9.333c-0.333-2.667-3.167-5.167-3.167-5.167h-8h-11.833l1.833-51.5l3.167-51.5l-10-109.5
		c0,0-7-62.333-8.667-62.833s-4.667-7-4.667-7L637.667,1448l-0.333-9.167l1-14c0,0,0-18,0-20.5s-1.833-4.667-1.531-4.167
		s-0.803-8-0.136-9.333c0.667-1.333-1.333-5.5-1.333-5.5l1.333-5.5h-11.5V1377l-5.833-11l-8.5-58.667l-18.167-55.5L583.833,1225
		l4-17.5l0.667-7.333l1.5-8.833c0,0,1.167-10.5,1.833-16.167c0.667-5.667,2.833-32,2.833-32l2.5-9.333l-0.333-7.167l0.5-5.833V1115
		l-0.167-14.667c0,0-0.333-4.5,0-9.167c0.333-4.667-2.333-3.833-2.333-3.833s-10.833,0-14.333,0s-4.167-4.5-4.167-4.5l0.167-10.333
		l0.5-12.167l-1.333-10.667l-22.833-9.5l-8-60.73L544,965.167l4.833-13.5c0,0,5.5-4.833,6.5-9.833s7-13.5,7-13.5l-3-54.167
		L555.167,845l-1.333-11.667L554,817l-0.167-10.167l-1-10.167l13.674-1l15.66-1L583,791l0.333-7.333L584,773.5l2-51l-2.167-87.667
		c0,0-2.5-10.167-3.167-10.833c-0.667-0.667-1-7-1-7l-2.333-12.833l-2-10.333l-0.833-7.667l-2.833-9.833l-0.667-13.5l-1-6.5
		L568.333,548l-1.826-9.833V525l-0.84-9.333l-1.167-8.5l0.833-5.833L595,499.667l-0.958-5.167v-6.333c0,0,1.625-3.667,1.625-4.167
		s0-4,0-5s4.384-4,4.384-4l9.199-23l10.083-43.667l-21.333-57l-4-6.5l1-11l-1.667-7.5l-0.167-4c0,0-1.167-8-2-13.667
		C590.333,303,582.333,274,582.333,274l-2-10.667L576,257.5h-6.5v-1.75l-0.75-4.375v-3.625v-4l0.694-3.75v-4.25L569.5,232
		c0,0-0.125-5.5,0-8.875S576,221,576,221s10.5,0,15,0s4.25-3.875,4.25-3.875l-0.75-6v-4.5v-13.5v-20.75c0,0,0.125-7.125,0.75-10.25
		s4.801-2.625,4.801-2.625h7.422v-2.625v-3.625l-0.722-2.875v-3.75l-0.375-2.25V142l0.125-7.875v-5.25l-0.806-3.125v-3.5
		l0.556-3.375l-0.5-4.375c0,0-0.125-3.25,0-10.375s3.5-10.375,3.5-10.375 M628.5,347.25c7-22,0-55.25,0-55.25l-6-29.5
		c0,0-3-13.75-3-15.75s-1.639-1.25-1.639-1.25V236v-9.75V216l-0.111-24c0,0,0.25-6.5,0-9s-10.278-1.75-10.278-1.75V159.5
		 M619.713,945.767c-1.25-11-18.088-16.267-18.088-16.267c1.25-9.5-1.625-39.25-1.625-39.25V864l-2.25-20.5l0.25-13
		c0,0,0-16.25-0.25-25.75s2.301-9.056,2.301-9.056l6.615-0.444c0,0,6.335,1,7.085,0s1.5-8,2-12.25s-3.843-11-3.843-11L607.5,643.667
		c-2.25-10.083,4.407-52.417,4.407-52.417l0.467-7c0,0,1.876-4.5,1.876-5.5s0.75-19,0.75-19l1.5-21.75l0.75-15.167
		c0,0,0.25-10.833,1-17.333s-4-5.833-4-5.833H595 M634.833,929c0.667-3.5,1.333-30,1.333-30s0.5-17.833,0.5-28.667
		c0-10.833,2.5-24,2.5-24V840.5v-36.333l-11-4.167L621,797.833l-7.25-2.583 M569.5,257.5l-13.25,2v8.25v10.75v8.5v22v18.5
		c0,0,28.224-2.548,37.987,14.726"/>
	<path id="LV14" fill="none" stroke="#FFFFFF" stroke-linejoin="round" stroke-miterlimit="10" d="M705.125,1811.75l0.25-4.25
		l0.75-6.375l1.875-9.5l1.75-12.125l3.25-19.25l23.375-0.625c0,0,0.125-4.625,0.125-5.125s0-5,0-5l0.25-12.625l0.875-6.75
		l-0.125-5.75c0,0,5.75-1,6.5-2.5s0.75-11.75,0.75-11.75L744,1673.75l-8.875-4.25l-9.5-4l-4.375-1.875H707
		c0,0-18.875-42.625-19.125-41.625s-6-78.875-6-78.875s-14.125-58.25-8.75-68.125s3.125-49,3.125-49l0.5-9.125l0.375-15.25
		l7.125-0.875v-12c0,0,0-9.875,0-10.25s-7.875-7.875-7.875-7.875l-23-11.125l-29.625-46.625l-7.625-42.5c0,0-7-20.625-1.875-40.25
		s15.875-20.375,15.875-20.375l1.5-12.75l0.875-3.625v-4.75l1.375-6.125c0,0-0.25-4.625,1.5-18.125s4.75-19.625,4.875-21
		s1.875-3.5,2-3.875s1.625-1.375,2.125-2.125s0.5-4.75,0.5-4.75l0.375-6.875l1-9.75l0.5-9.25l0.375-5.75l0.25-6.75l0.25-6.5
		l17.125-0.25v-2.75c0,0-0.75-6.75-1-11.25s-4.5-6.25-4.5-6.25l4.5-82c0,0-4.5-54.25-2.5-60.25s4-32.5,4-33.5s6.25-40.5,6.25-40.5
		v-17.25l0.25-11.75l1-8.25l-6-2l-9-3.25l-7.5-1.5c0,0,0.25-9.75-0.25-19.25S636.75,769,636.75,769l-3.5-21c0,0,1-95.25,4-107.25
		s8.25-21,8.25-21l2.25-26.5l4.5-11.75l5.25-25.25l3.994-14.25l2.256-23.5c0,0,2-4.5,2.5-13s-3.75-6.5-3.75-6.5h-7h-12.4v-10.25v-13
		l25.234-6.917c0,0-5.333-128.5-4.833-130s2.833-20.167,2.833-20.167L668.167,308l1.167-1.5v-3.667l1.667-5.167l1-5v-3.833
		l0.5-3.667v-2.333l0.833-2.833l1-2.167l-0.5-2.5l1.167-1.667l-0.167-2.5l1-3.667l0.5-3.5v-3.333l1-4.5c0,0,1.833-4.5,2.482-9.5
		s-3.148-5.5-3.148-5.5h-4.333l-2.833-1l-1-4.333v-4.167v-3.5v-2.833v-3v-4.167v-4v-3.833v-7.167V193v-8c0,0,0-4.333-1.5-6
		s-10.495,0-10.495,0v-3.5v-8.167c0,0-0.172-5.167-0.005-10.167s-3.833-4.333-3.833-4.333l-7.833,0.667l-0.5-1.667l-0.5-7.086
		l0.333-6.914l-1.067-5.667c0,0,1.234-4.333,1.234-5.167s-0.833-2.5-1.167-5.333c-0.333-2.833,0.667-5.667,1-7.667
		c0.333-2,7.667-7.167,7.667-7.167 M672.75,813.75l2,1.375h3.812h1.813V811.5l-0.56-7.5l-1.253-1.75l1.253-2.5l-1.157-2
		c0,0-0.033-3.875-0.096-5c-0.063-1.125,0-3.25,0-3.25l-2.812-6.5l-6.75-6.25l-3.25-60.25V708c0,0,0,0,0-3s3.625-6.25,3.625-6.25
		l0.375-11.5l0.25-8.875l0.125-7.375v-1.75c0,0,0.25-1.875,0.375-5.125s1.625-2.968,1.625-2.968s2.375-0.032,3.5-0.032
		c3.5,0.375,2.937-2.625,2.937-2.625v-14.833v-7.917V624c0,0,0.938-6.25-3.062-7.264c-4-1.014-30,3.014-30,3.014"/>
	<path id="LV15" fill="none" stroke="#FFFFFF" stroke-linejoin="round" stroke-miterlimit="10" d="M758.167,1811.333l4.833-51.167
		h6.5c0,0,8.333,0.5,14.667,1.167c5.833,0.667,4.167-4.167,4.167-4.167l-1.167-5c0,0-3.667-14.5-3.833-16.5
		c-0.167-2-2.833-9.833-4.167-10.667c-1.333-0.833-5.667-0.833-5.667-0.833l-6.333,0.833H762.5h-11c0,0-6,0-6.75-0.667
		c-0.75-0.667-0.006-13.166-0.006-13.166L744,1673.75l-22.75-10.125l-0.583-9.458l-0.042-22.542l1.25-63.75c0,0-5.875-33.375-6-33
		s-10.5-41.125-6.5-48.25s5-11.75,4.75-13.125c-2.625-16.5-0.625-29.375-0.625-29.375l1.25-11.625l0.125-9.875l0.375-6.25
		c0,0-0.25-6.375-0.375-11.5s4.125-4.184,4.125-4.184s4.5,0.184,12.5-0.066c7.375,0.625,6-3.375,6-3.375v-8.625V1377.5l-20.75-7.5
		l-20-10.375l-9.5-73.625c0,0-2.625-61.625-2.625-62.875s-0.25-4.75-0.25-6.125s-1.375-4.375-1.625-5.25s-4.188-1.125-4.188-1.125
		v-33.25c0,0,0.563-6.75,1.253-9.875s1.56-16.375,1.56-16.375l1.75-8l0.75-4.25l-0.125-13l-0.125-6.125l0.125-5.125l0.125-3.5
		l-0.25-4.625c0,0-0.625-2.125-0.935-2.5s0.56-1.75,0.56-1.75s-0.125-2.125-0.5-7.875s1.125-5.25,1.125-5.25s4.75,0,13.125,0.125
		c9.5,1.875,7.875-2.625,7.875-2.625l-0.125-2.5c0,0-0.625-8.25-1.75-10.375c-0.375-2.5-7.125-2.25-7.125-2.25l-8.25-6.5
		L691,977.875c0,0-1.75-33.125,0-47.875s7.25-20,7.25-20.625s1-5.25,1-5.25l2.75-12.5c0,0,2.375-12.5,3.375-14.75s2.5-21,2.5-21
		v-13.5l-0.75-5.5l-1.75-14.375c0,0,0.375-3.75,0-7.375s-8.5-22.875-8.5-22.875l-3.375-6l1.125-16.625l3.625-15L693.5,726
		l-0.75-21.25l-0.125-6.125l6.875-1.875l1.375-12.75l0.75-9.25c0,0,0.5-10.75,0.625-13.25S701,658,701,658h-5.625L694,648.25
		l-0.75-12.5L693,625.125v-7.75l0.625-8.75L694,600l0.5-4.75l-0.75-4.875l0.625-4.125l1-4l0.625-3.875l0.125-5.125l0.25-8.75
		l1.25-3.125v-3l0.375-3.25l1.375-6.875l-0.125-4.5l0.5-4.875l-0.375-3.5l0.125-5l0.5-3.75l0.25-5.125l0.75-4.375l0.125-2.25
		l-0.375-2.75l0.75-7.75l0.75-4.125l-5-0.875h-5l-0.625-5.625l-0.625-7.5v-7.875l14.875-1.125l-9.25-64.125
		c0,0-1.875-71.75-1.875-74s3.125-13.5,3.125-13.5l0.625-3.125l1.028-4.25V315l1.097-5.5l0.625-3.75l1.5-9L704,290l1.75-7.5
		l1.5-6.25l2.389-7.5l2.111-9.75l1.5-7.25c0,0,0.5-5.5,1.5-7.5s2-3.5,2-3.5l0.25-16v-19l0.75-14.25c0,0,0.75-9.25,0.75-11.5
		s1.25-7.75,1.25-7.75l-17,1.5l-1.611-2.75v-12.75l1.611-4l-1.611-4.5v-6v-2c0,0-0.889-3.5-1.389-3.5s0-2.25,0-4.75s3-6.25,3-6.25"
		/>
	<path id="LV16" fill="none" stroke="#FFFFFF" stroke-linejoin="round" stroke-miterlimit="10" d="M801.667,1811.75l-1.738-35.75
		c0.012-5.25-2.512-5.083-2.512-5.083c-8.083,0-8-3.667-8-3.667l-0.5-5.333l-0.854-5.912c0,0-5.128-22.244-6.508-26.462
		c-1.38-4.219-3.397-4.927-3.397-4.927c-3.676-11.551-7.574-52.199-7.574-52.199l-2.333-32.75L767.583,1587
		c0,0,1.417-55.917,1.75-64.333c0.333-8.417,2.917-23.417,2.917-23.417c-0.833-0.667-23.125-0.375-23.125-0.375v-0.75
		c-0.5-7.125,5.375-56.75,5.375-56.75l0.75-7l-0.75-7.75l0.625-3.625l-0.5-3.875l0.375-3.5v-3.25l-0.5-4c0,0-0.125-3.125-0.375-5.25
		c0.125-2.125,1.125-2.25,1.125-2.25h19.875H786c0,0,0.25-7.75,0.5-10.75s-1.25-5-1.625-7.125s-2.375-24-2.375-24l-6.125-0.5
		l-11.625,1l-0.625,7.875l-11.625-9.5L731.324,1314l-8.199-51l-4.25-16l-7-38.375l-0.375-3.5l2.25-5.25l2.25-12.125l1.625-9.125
		l2.75-12c0,0,2.375-10.125,2.75-13c4.125-5.875,4.25-13.125,4.25-13.125l0.75-20.25c0,0,0.5-10.75,0.625-12.625
		s0.375-13.625,0.375-13.625s10.625,2.625,10.625,2.25s0.125-8-0.5-10.375s-2.125-9.125-2.125-9.125l-4-3.625l-7.75-10.25l0.75-9
		l11-20.625l1.75-15.5l-0.25-13h-11.5l0.25-21.875l-0.25-13.422v-14.828h10.25l-0.25-19.125l-0.875-18.625l-0.25-9l-0.125-4.25
		l10-0.75c0,0,0.5-13.375,0.625-22.125c1.875-6.625,1.625-21.75,1.625-21.75l-0.25-9.5v-6.375v-6.375c0,0,0.625-8,0.625-13.375
		s-1.375-5-1.375-5h-5h-4l-4.36-0.75l-1.015-1.125L732,811l-0.676-3.875l-1.074-2.5l-0.75-4.5l-1.125-3.25v-2.625l-1.25-4.25
		l-1.25-3.5l-0.625-3.125l-0.125-2.25c0,0-0.75-2.5-1.5-5.125c-0.625-4,0.875-3.875,0.875-3.875s1.75-1.375,6.25,1.5
		s6.75,1.5,7.375,1.375s3.375-4.5,3.375-4.5l3.25-3.75l4.625-27.625c0,0-10-104.75-10.125-108.125s-2.125-8.5-3.75-10.75
		c2.125-0.25,1.875-12.875,1.875-12.875L737,600.5l-0.5-16.75c0,0-0.375-8.5-0.75-14.125s0.125-13.25,0.125-13.25l1-8.5l0.375-7.625
		l0.375-2.875L738,533.5l0.625-7l1.75-16.125c0,0,1-3.625-1.125-5.25s-1.875-3-1.875-3s0-3.875,0.25-9.25
		c0.25-7.5-1.25-7.5-1.25-7.5l-9.25-2.375L719,481.25l-3-1.75h-5l-2.5-8.75l3.25-70.125V362c0,0,3.75-3.125,4.625-3.25
		s1.5-2.25,1.5-2.25c1-8.25,7.875-18,9-18.875s4.75-5,4.75-5l3.5-11.75L749,272.5l3.25-12c0,0,1.375-5.375,1.875-11.125
		S747,244.75,747,244.75h-11.25l1-18.25v-7.25v-4.625L737.625,202l-0.25-12.25l0.375-3.375l-0.25-4l0.125-3L738,177.5
		c0,0-0.75-3.5-1.25-7.5c0.25-8.75,3.5-10.5,5.25-11c8.5,0.75,8-3,7.75-3c-1.5-14.25,0-21.5,0-21.5 M777.76,1501.996l15.49-37.121
		c-1.875-14.5,1.875-28.375,1.875-28.375l-1-20.75v-14h-3.375l-1-0.875H786 M749.125,1498.875c0,0-19.292-2.042-23.625,5.792"/>
	<path id="LV17" fill="none" stroke="#FFFFFF" stroke-linejoin="round" stroke-miterlimit="10" d="M829.5,1813.125
		c0,0-1.25-15-1.25-18.375s0.75-20.875,0.75-20.875l26.875-5.125c0,0-15.655-33.119-26.542-69.417
		c-1.521-5.073,0.924-13.361,0.194-18.493C825,1649,812.5,1624.161,812.5,1624.375c0,0.5-12.75-44.5-12.75-44.5l-10-55.25
		l-7.908-38.402c0,0-1.592-9.348,0.408-10.098S798,1467,801,1465s5.125-3.125,5.125-3.125c6.75-0.875,14-24,14-24l0.625-15.25
		l0.875-13.5l0.125-6h4.625c0,0,0.25-13.375,0-15s-4.5-12.875-4.5-12.875L801,1299l-50.5-11.25l-2-43.5c0,0-6.75-24-3.75-38.375
		c10.75-7.25,15-60.125,15-60.125l2.625-19.5v-7.125l0.75-4.375l0.75-2.375c0,0,0-8.125-0.125-9.75s1.5-2.75,1.5-2.75v-6.25
		l-0.625-3l-0.625-4.5l-0.875-9l4.25-8.25L789,1069.5v-12.75l-0.75-4.5c0,0,0.375-2.5,2-2.75c4.125,0,4.125-1.5,4.125-1.5
		l-0.125-12.125l-0.5-7.75l0.375-22.5l-0.375-4.25c0,0-5.5,0.625-6,0.625s-6.25,0.125-6.25,0.125s-5.875,0-6.25,0
		s-2.5,0.125-2.5,0.125l-3.875,0.125l-5,0.75l-0.75-14.875v-7.875l0.75-7.125v-5v-14.375l18.25-1.125l0.25-1.5l-2.25-36L779.5,911
		l-0.375-3.5l0.25-2.5c0,0,0.5-2.125,2.125-3.5s8.845-1,8.845-1l-0.72-14.75l-1.375-18.375v-4.25l-2.125-9.875v-3.375v-3.125
		l-0.75-6.75l0.125-4.625l-0.625-10.75v-3.875l-3.25-0.75h-3.75l-3.25-0.625h-3.25l-1.125-13.75l-0.5-3l-0.25-3.25L769,788.75
		l-1.125-2.75l-0.625-3.125l-0.5-3.5l-0.25-3.5c0,0,0.125-2.625-0.625-5.125s5.75-5.875,5.75-5.875l9.75-21.25l0.125-61.375
		l-7.875-62.875v-9.625v-8.25c0,0,0.625-10.875,0.625-13s3.25-15.25,3.25-15.25l2.625-12.5l1-5.5l-0.5-8.125L780,538.25
		l-0.25-15.375l0.375-8.25l-3-1.125c0,0-0.125-14.375-0.25-16.125s-1.25-5.25-1.25-5.25l1.5-3.25l24.375,3.25l-1.375-36.625
		c0,0,3.375-32.125,3-32.875s6.5-13.375,6.5-13.375l5.25-7.625L810.625,391l-3.25-7.625L805.625,365l-2.125-8.625V348.5
		l-2.125-2.625V341.5l-0.875-5.375c0,0-0.375-2.5,0-3s0.875-3.625,0.875-3.625l-3.625,0.625l-8.781-0.5l-5.469,0.5h-5.375v-5.75
		l0.75-6.5V312.5l0.75-6.875v-4.375v-7.75l0.625-12v-6.75l0.625-14.5l0.75-1.625h4.125l6.375-0.625h3.75l3.75-1.375V243v-8.875
		v-6.25L799,225.5V224l-2.25,0.125l-3.5-0.125l-3.5,0.875L787,224.5c0,0-2.875,1.375-3.25,1.5s-2.125-1.375-2.125-1.375v-2.25
		v-7.625v-5.125v-4.25v-5.625v-2.875L782.75,195l-1.125-2.75l0.745-4.583l0.296-15.333c0,0-0.667-8.667,0-11.333
		c0.667-2.667,12-7,12-7c-1.333-10.667,0-19.5,0-19.5 M807.333,616.167c4.333-7,7.667-52.667,7.667-52.667l0.5-5.333l0.5-2.667
		l-0.333-5.833l0.167-21.5l-1-5.333l1.5-1.833c0,0,6.333-1,11-1c4.667,0,3.333-5,3.333-5l-2.167-18.167l-2-22l6.833-1
		c0,0,8.333-0.667,9.167-1c0.833-0.333-0.833-4.167-0.833-4.167l0.5-29.5l0.5-11.167c5.833-0.5,4.333-6.833,4.333-6.833v-5.833
		v-20.167v-3.833l-1.5-6.667l1.5-3.833l-0.75-3.083H831l0.25-3l2-47H830h-5.75h-1.875L824.25,309v-15.75V276.5v-7.25v-8v-6h-5.5
		l-6.75,1.375l-5.75-0.688l-2.75-0.688l-3.875,1.375 M801.5,492.125l4.75,4.625l1.25,7.5l1.75,16l5.583,2.583 M793.75,1001.375
		l6.178-0.208v-1V954.5l-1.262-2.375h-4.333L791,951.5l-3.167,0.938h-3.167l-2.542,0.312 M781.625,224.625
		c0,0-3.792,1.708-5.292,1.708s-9.167,0-9.167,0h-8.833l-3.25,0.833c0,0-0.917,4.167-1.25,9.833c-0.333,5.667,0,10.177,0,10.177
		L753.685,257c0,0,0.482,2.833,6.315,3s21.216-0.49,21.216-0.49"/>
	<path id="LV18" fill="none" stroke="#FFFFFF" stroke-linejoin="round" stroke-miterlimit="10" d="M859,1811.655l-0.833-2.655
		c0,0-2.167-9.333-3.667-13.833s-7.333-15.333-7.333-15.333H867l-16.167-65L825.333,1585l-2.958-54.667c0,0-4.208-46.167-4.042-50
		c13.167-9.333,19.833-12.5,23.333-15c-0.667-2.167,0.5-8,0.5-8s3.083-9.583,6.083-14.583s3.5-10,3.5-10v-11.5l-0.5-16.5l4.625-1.75
		c0,0-0.375-8.75-1.125-13.75s-2.5-9.25-2.5-9.25l-1-10.25l-27.5-77.75l-39.5-13.25l-16-36.583c0,0,0.667-19.083,2.833-19.75
		c2.167-0.667,6.667-0.333,6.667-0.333v-1c0-1.25,1.583-8.25,3.583-10.417c2-2.167,12.083-12.083,15.083-13.833
		c0-1.583,1.75-17.583,1.75-17.583l2.417-13.167c0,0,1.75-8.833,2.5-13.917c0.75-5.083-0.5-7.583-0.5-7.583v-6.417l0.833-7.917
		v-10.667l0.75-4.417l0.417-9h9l-0.917-9l0.25-3.25l-0.25-5.917l-1.167-18.833v-14.833v-5l7.833,1c0,0,7.833,2.333,10.333,4.167
		s4,5.167,4,5.167h2.833l7.167-13.833l-0.667-90c0,0-8.833-39.167-9.167-41.833c-0.333-2.667-4.5-10.5-4.5-10.5
		s-1-23.333-1.167-28.333c-0.167-5-1.5-10.667-1.5-10.667l-1.5-10.5l-1-7.667l-2.167-15.5l-1.25-10h5.083l-0.5-4.333l-1.5-17.333
		l-0.5-11.333l-1.5-7.833c0,0-0.833-6.333-1.083-8.333s1.417-7.833,1.417-7.833s11.5-18.333,11.5-18.833s21-49.667,21-49.667
		s-12.833-85.333-12.5-86.167c0.333-0.833,9-31.667,9.167-32.167c0.167-0.5,4.542-17.833,4.542-17.833v-21L853.833,529v-4.333v-3.5
		h12.5l0.167-36.5l-0.333-14.167c0,0,7.833-1.333,10.333-2.5c24.5-15,17.167-58.333,17.167-58.333v-28L887,346.333l-2.667-6.667
		c0-6.167-16.167-14.417-16.167-14.417l1.917-1.083l-0.417-2.583l-3.5-14L862,294.25l-0.833-5.167l-1.25-4l-2.472-6.833
		c0,0-4.361-18.667-4.695-21.083c-0.333-2.417-2.333-2.5-2.333-2.5l-0.333-5.417c0,0,0.167-3,0.167-3.25s0.25-2.917,0.75-3.667
		s5.75-2.083,6.315-2.083s-0.898-3.333-0.898-3.333l-0.083-2.583l0.833-3.167c0,0,0.333-5,0-6.083
		c-0.333-1.083-3.667-0.75-3.667-0.75H846c0,0-6.583,0.75-9.083,0.75s-5.75-1.083-5.75-1.083l1.667-12.417v-4.667L833.75,202v-11.25
		v-13.5L835,168c0,0,0-5.75,0-7.75s4.75-6.25,4.75-6.25s-0.25-4.75,0-9.5s1.75-11.5,1.75-11.5"/>
	<path id="LV19" fill="none" stroke="#FFFFFF" stroke-linejoin="round" stroke-miterlimit="10" d="M899.167,1806l-11.667-58
		l-2.333-19c-1.167-4.333-0.5-18.667-0.5-18.667l-0.167-2.667l3.667-0.833c0,0,0.667-2.833,0.667-4.833s-0.333-6.333-0.333-6.333
		l-0.333-2.333l-0.5-2.5v-3.5c0,0-0.5-4-1.333-5.667c-0.167-4.833-4-7.833-4-7.833L897,1661l4.167-117c0,0-3.667-64-3.667-64.667
		c0-0.667-0.167-6.333-1-9.333s-2.333-5.833-2.333-5.833l0.5-1.667l0.333-5.167l0.167-6.5L895.5,1445l1-7.667c0,0,0.667-3,0-3.5
		S893,1433,893,1433l-0.833-0.833l-1.333-2.333l-3.5-5.167l-3.333-3.5l-2.667-5c0,0-4.167-5.5-4.833-6.833c-0.5-1.333-3-5-3-5
		c1.833,0.5,5.833-0.833,5.833-0.833l-0.833-2.5l-1.375-4.667l-0.625-3.833l-1.5-3.167l0.167-2.333c0,0-2.5-6.5-3.667-10.667
		c-1-5.5-5-6-5-6c2.333,0.5,3.833-3.833,3.833-3.833s9.667,0.167,12.833,0c2.167-1.167,1.167-9.667,1.167-9.667l-6.208-6.208
		l-7.5-80l-6.125-40.5c0,0-1.875-4.75-1.875-5.875s-2.5-3.625-2.5-3.625l-1.875-3.125l-2.375-4.375l-1.125-2.25L854,1207.5l-2-3.875
		l-1.375-3.25l-1.375-3.625l-1.25-3.125l-2.125-3.5L842.75,1186l0.125-9.375v-4.375V1169v-2.375v-2v-1.25l-0.75-2.125l0.25-3.375
		l-0.75-2.125l0.625-0.875c0,0-0.125-5.625,0.125-8c0.625-6.75-0.75-5.875-0.75-5.875l-1.75-13.125l0.125-2.625v-2.5l-0.75-0.875
		v-2.75l-0.75-2.75v-1.875l0.75-1l-0.75-0.625v-2.625V1107l21.875-0.75l0.25-1.625L860,1098.75l-0.125-4.75l-0.25-3.75l0.125-3.375
		l0.375-3.75l-1.25-1.375l0.625-1.625l-0.375-1.375l-0.125-1v-4.625c-0.5-8.875-2.125-7-3.125-7.375c0-1.125,0-6.25,0-6.25
		l7.625-22.75l7-34.375L858.75,904.5l0.625-14.25c0,0,1.375-11.5,2-18.375s-0.75-13.375-0.75-13.375l-0.75-3.125V852.5l-1-1.875
		l0.875-2.375h-1.625l1-2.5L859,844l-0.375-1.25l-0.75-9.625l-0.625-12.875h4l-0.125-6.625l0.625-2.125l-0.125-3.625v-2.5
		l0.25-2.625v-2.625l-0.125-2.625l0.375-2.125l0.5-1.625l-0.625-3l0.5-1.875l-0.25-2.5l0.5-2.375l-0.25-1.5l0.375-2.75l1.125-9.5
		c0,0,0.5-2.625,0.5-4.875s-1-5.625-1-5.625l-3.125-2L864.5,755l13.375-16.75l3.5-109.875c0,0-2.125-12.375-2-16.625
		c2.375,0.375,5.625-8.375,5.625-8.375l1.25-1l0.5-2.625l0.875-0.75v-1.5l2.875-5.375l4.875-11.5l3.556-9l1.319-6.25
		c0,0,0.75-3.25,1-5.875s-2.319-2-2.319-2l0.569-3.25l-0.569-4.25l0.569-4.75l0.875-1.125l-0.625-1.625l0.125-2v-6.375L899.5,528
		l-0.569-7.125h2.819l4.875-0.75l2.5-0.75h2L912,513.25l0.875-10.75l0.875-13.125c0,0,0.125-5.875,0.25-7.875s1.75-4.125,1.75-4.125
		L914,475.25l-4-10.5L904.75,443l-4.833-115.583v-6.583l-0.417-8.25v-3.667l-0.5-5.583c0,0,0-2.833,0-5.917
		c0-3.083-1.25-11.917-1.25-11.917l-1.833-10.583l-1.333-6.833l-1.917-11.583l-1.167-6.583l-1.083-6.583l-0.667-3.083l-0.75-3.583
		c0,0-0.75-3.083-1-3.833s-0.667-0.583-0.667-0.583s-1.917,0.417-3.25,0.833c-1.333,0.417-1.972,0-1.972,0v-3.667l0.556-10
		l0.917-10.667l0.583-7.583l0.556-2.25V191.5l0.444-5.5l0.167-3.25v-2.5v-0.833v-1.833l0.25-1.333L885.5,174l0.167-1.833l0.5-6.5
		c0,0,0.167-3.333,1.167-8.333c-1-2.333-2.667-5.667-2.667-5.667s0.333-4.333-1.667-12C881,132,883,129,883,129"/>
	<path id="LV20" fill="none" stroke="#FFFFFF" stroke-linejoin="round" stroke-miterlimit="10" d="M947.25,1801.5
		c-2.75-20.125,0-57.375,0-57.375l-31.5-0.625v-6.75l-8.75-4.375l-2.625-5.125l-0.75-5.125l-0.25-4.75l25.5-1.5h5l-0.25-5.875
		l0.75-9L934,1689.375l-0.375-1.5l-0.25-3.625v-4.375l-0.125-4.375c0,0,0-2.25,0.125-6.5s1.125-4.875,1.125-4.875l-1.167-1.458
		L933,1595.5l-6.417-101.917c0,0-1.583-12.667,0.833-13.083c2.417-0.417,3.415-19.833,3.415-19.833l0.585-2.167l-0.167-2.833
		l0.083-1.833v-3.167l0.5-5.5c0,0,0.167-2.833,0-6.417c-0.167-3.583,0-4.75,0-4.75l0.417-1.75l-0.333-5.333V1423l-0.167-10.083
		l-0.417-2.333c0,0-0.25-3.25-0.167-4.333c0.083-1.083,1.083-3.167,1.083-3.167l-0.083-2.167l-0.333-2.75l-0.417-1.5l-0.585-1.75
		V1391v-2.167l-0.498-3l-1.25-4.167l-0.5-3.5l-0.75-3.083l-0.25-1.25l-0.667-3.083l-0.833-1.583l-0.417-1.833l-0.167-3.833
		c0,0,0.083-2.083,0.083-3.667c0-1.583,0.583-7.833,0.583-7.833l-40.5-160.667l0.083-6.583l-0.417-4.167l0.167-2.083l-0.833-1.333
		L885.5,1176l-0.667-1.583V1172l0.083-5.5l-0.25-2.417l0.167-1.75l-0.333-5.667l-0.167-2.583l-0.25-1.833l0.083-3.167
		c0,0-0.333-4.167-0.417-6.333c0.167-3.083-0.75-5.25-0.75-5.25l-0.5-4.667l-0.333-2.083l-0.417-3.417v-2.5l-0.167-2.417
		l-0.917-1.583l0.5-1.083l-0.5-2.25l-0.083-2.417c0,0-0.25-4.833-0.5-7.25c-0.25-2.417,1.083-2.833,1.083-2.833h3.25l6-0.417H894
		l12.667-0.333l0.25-6.25l0.083-1.75l-0.417-2.667l-0.083-2.083l-0.25-6v-3.25l-0.167-6.75l0.167-1.083L906,1072l-0.083-2.167
		c0,0-0.167-1.167-0.25-1.417c-0.083-0.25-0.417-1.333-0.417-1.333s-0.083-1.25,0.167-4.083s1.333-5.417,1.333-5.417l-1.083-5.583
		l-2-12.333L889.5,903.917l-1-5.5c0,0,3.417-4.917,3.583-5.25c0.167-0.333,3.167-6.5,3.167-6.5l1.167-3l0.917-2.25v-1.25
		c0,0,0.75-1.667,0.667-1.917s0-1.417,0-1.417l1.333-1.417v-1.583l0.5-0.833l0.417-1.75l0.667-1.333l0.667-3.167
		c0,0,1-1.583,2.333-7.333c1.333-5.75-0.5-5.583-0.5-5.583s0-3.917,0-4.167s0-1.25,0-1.25L904,846.75l-0.583-1.833v-1.75v-1.75
		v-2.083v-0.917l0.333-2v-2.167l0.083-2v-2.417v-3.083l0.083-1.75l-0.083-1.667l0.083-1.833c0,0-0.5-1.917-0.5-3.167
		s1.417-1.75,1.417-1.75l2.25-0.417l3.167-0.417l0.417-2.333V810v-6.167v-8.583v-4.083v-2.833l0.333-2.75c0,0,0-6.917,0-7.667
		s0.667-1.75,0.917-1.75s2,0,2,0l1-0.75h1.167h1.5l2.083-0.667h1.833h2.417l2.917-0.417l1.5,0.417l3-0.667l4.25-0.5
		c0,0,3.833,0.083,4.583,0c0.75-0.083,4.083-0.396,4.083-0.396l0.125-4.5l0.25-2.688l-0.125-2.625l-0.188-2.438l0.25-3.375v-1.375
		V754.5l-0.062-4.875v-2.75l-0.062-2.062l0.125-1.562v-1.688l-0.438-3.688c0,0-0.062-2.062-0.062-3.938s1.062-1.812,1.062-1.812
		h1.125h6h5.062l3.688-0.562h1.375l2-0.312l2,0.312h2l3.438-0.375v-0.5l-0.312-4.938l0.062-2.375v-2.438l-0.062-3.812l0.125-2.25
		l0.125-3.812l-0.062-3.188l-0.125-4.312l0.188-3.188l0.188-3.5l-0.062-2.25L971.667,690l0.167-2.667h-2.667H965h-5.5l0.333-4.333
		l-0.5-5.333l0.167-4.833l0.167-4.917l0.167-6.167l0.25-2.917l-0.25-4.25l-0.167-2.167l0.333-8.75h-3.333h-2.333h-1.75L949.5,643
		l0.083-1.25l0.5-5.25l-0.25-9.75l0.083-4.333l-0.167-3v-0.75l-0.25-2.583l0.333-2.083l-0.083-5.083V606.5v-3.25l0.083-5.5
		l0.5-2.333l-0.75-0.333l-2.5,0.333c0,0-3.25-0.833-3.917-0.833c-0.667,0-2.792-0.896-2.792-0.896l0.938-6.875l2.062-6.938
		l2.562-9.25l1.625-7.5c0,0,0.375-2.938,0.5-4.688s-1.188-1.688-1.188-1.688l0.125-2.062l-0.375-3.25l-0.25-4.875l0.125-4.125
		l0.312-7.25v-3.562v-2.812l-0.062-2.625l0.312-3.875l1.75-0.625l2.375-0.688l2.812-0.375h3.875h2.938h3.125l3.312-0.5
		c0,0,3.25,0.125,3.438,0s2.562,0,2.562,0L975,519.5l1.625,0.625l4-0.75l0.986-4.75v-2.375c0,0-0.736-2.125-0.736-2.5
		s0.375-1.625,0.625-2.125s0-3.75,0-3.75v-5.625V492v-4.875c0,0-0.625-4.375-0.75-5.25S980,479.25,979.875,478s-0.625-3.5-0.625-3.5
		L957.5,468l-19-42.5l-14.125-97.25l1.403-11.375c2.653-2.625,2.847-18.375,3.097-20.25s0-21.25,0-21.25v-13.25l-0.25-9.125
		l-0.25-5.375L928,240v-4.125l0.25-14l3.5-1.75v-4.875l0.25-6.75l0.375-4.125l0.875-7.75l-0.125-5.875l0.5-2.375l-0.125-2.75
		L934,182l0.125-3.875l-0.125-2.25l0.25-3.625l1.25-8.375V161.5v-4.25v-4.125l-9.722,0.625V146l0.611-5.125V137.5
		c0,0,0.361-1.875,0.611-3.625c-2.75-8,0-11.25,0-11.25 M960,643.667L976.879,642l-1.131-24.667c0,0,0.086-19.833,0.086-21
		c0-1.167-1-1.5,3.833-2c4.833-0.5,5-2.167,5-2.167l2.5-12.833l1.5-6.5c0,0,2.5-9.167,3.167-12.333c0.667-3.167-1.5-6.667-1.5-6.667
		l-0.667-5.333v-4.833v-3v-2.5l-0.833-7V526.5c0,0-0.583-3.75-1.083-6s-1.75-1.125-1.75-1.125h-5.375"/>
	<path id="LV21" fill="none" stroke="#FFFFFF" stroke-linejoin="round" stroke-miterlimit="10" d="M996,1799.417l0.667-16.167
		l-8.083-78.167v-3.167l-0.25-2.667l-0.083-2.667l-0.583-3.417l-0.167-2.25l-0.75-3.875l-0.833-2.292l-1.167-2.833l-1.167-3.917
		l-1.25-3.25l0.083-2.5L982,1670.5c0,0,0-1.25-0.389-3.25c-0.389-2,0.556-3.333,0.556-3.333l-0.556-2.25V1616.5l-3.361-67
		l-0.375-55.75c0,0-7.125-10.25-8.75-17.125s-0.125-18.5-0.125-18.5l0.125-9.375c0,0,0.25-4,0.25-8.125s0-5.875,0-5.875l0.25-11.625
		c0,0,0.375-4.375,0.25-10s0.125-9.875,0.125-9.875h9.625v-0.75v-5.5l-0.5-4.25l-0.25-3.875l-0.25-10.375l0.25-4.875
		c0,0,0.375-2.75,0.375-4.25s-0.5-6.625-0.5-6.625s0.625-2.375,0.625-4.125s0.25-5.625,0.25-5.625l-0.5-6.625l-4.875-3.25h-22.375
		L941,1294.875l-7.25-41.375l-9.5-18.25c0,0-7.375-48.25-6.25-49s2.875-12.875,2.875-12.875v-4.125l1-1.375l0.639-6.625v-5.375
		v-2.625v-3.125l0.736-4.5c0,0,0-2.25,0.375-4.875s-0.375-6.375-0.375-6.375l-0.625-21.125c0,0-0.25-3.125,0-7.125
		s5.107-2.819,5.107-2.819l7.268-0.056c0,0,6.75,0.125,9,0s3.875-0.625,3.875-0.625l-0.125-12l-0.25-2.25c0,0,0.25-1.625,0.25-2.5
		s0-1.75,0-1.75l0.625-2.375l-0.875-2.5l-0.375-8.875v-3.625l0.5-1.875l-0.375-2.125c0,0,0.75-0.625,0.625-4.125
		s-0.875-4.25-0.875-4.25h-1.125l-6.625-44.125l-3.75-58.375c0,0-9-55.75-7.625-57.5s2-4.75,2-4.75l1.5-3.5l1.75-1.875v-2.625
		l1.125-1.875l2.75-6.875c0,0,2.375-6.25,4.125-11.75c2.375-5.375,1.375-10.875,1.375-10.875L942.375,837l0.625-4.375l0.25-3.5
		l0.25-5.625l0.5-4c0,0,0-1.875,0-5.125s5.375-2.625,5.375-2.625L976,809.625V797.5v-5.375L975.875,786l0.125-3.375l-0.875-11.5
		l17.5-1.25l-0.375-17.5l-0.125-6.125L992,741.125l0.625-11.75l22.625-0.75v-7.5l-0.125-6.625l0.125-4.625v-4.125l-0.125-4.625
		l0.25-6.25l-0.25-10h6.25l-0.125-23.5l0.125-10.125l-0.125-5.75l0.125-7l9.5-0.625l-0.375-12.125l0.5-4.375l0.5-11.875v-5
		l0.25-3.25l-0.125-10.25l0.375-4.625l0.25-1.5l0.375-1.875l0.25-2.5l0.875-1.5l-0.25-2l0.375-2.75l0.625-2l0.5-1.875l-0.125-2.25
		l1-2.625v-2.375v-3.875c-0.125-5.625-2-5.25-2-5.25v-2l-0.75-4.75l-1.5-3.875v-2.5v-1.5l-0.75-4V532.5v-2.625l-0.75-1.875v-2.25
		l-0.875-3.625l-1.375-5.25V515h2.25v-3.375v-6.75v-3.125v-5.5v-2.5l-0.875-2.25v-2.75v-16.375v-4l-1.375,0.25
		c-2.5,0.5-17.25,1.875-17.25,1.875h-6.75l-5.25-1.375H994l-37.375-70.25l-16.375-81.75c2.875-1,7.5-31.125,7.5-31.125l1.25-6.75
		v-3.625l1-2.75v-4.75l1-6.25v-3.5l0.75-4.375v-1.25v-3.375v-1.5l1.125-2.125v-2.125V242l0.75-3.125v-4.25l0.625-2.75v-3.25
		l0.625-2.375v-2.125v-2.25l1-2.125v-4.375c0,0,0.375-3,1.375-7.625s5.875-2.875,5.875-2.875l7.25,1.25l4.25,0.625l4.931,1
		l1.194-0.75l1.028-7.875v-6.375v-7.25l0.722-4.75l0.5-8.25l0.125-7.25v-2.5l0.875-3.125V151h-3.556v-8.25L980,129c0,0,1-3,0-7.75
		s0-9.5,0-9.5 M977.875,1493.75c0,0,23-18.125,24-19s1.75-9.875,1.875-14c-3.5-6.75-2.625-26.375-2.625-26.375l0.25-20.125v-4.625
		l0.75-4.25V1402h-6l-5.792,0.625h-2.708h-3l-5,0.625 M948.738,359.502c0,0,25.762-35.252,26.512-40.752S985,273,985,273l1-4.5
		l0.25-5.75l2.21-6.25l4.04-20.75c0,0,2.5-15.75,3.5-20.5s-2.75-5.5-2.75-5.5l-12.5-2.75 M952.75,1185.75
		c1.25-38,7.25-51.75,7.25-51.75s4.75-17,6.75-25.5s5.25-6.75,5.25-6.75l24.5-1.5V1085v-13.25l-1.167-13.5l-0.833-6.417l0.833-3.833
		l-32.75-150.5c4.5-4.333,16.333-36.25,16.75-37.083c0.417-0.833,2.75-11.333,2.75-11.333l2.583-24.583c0,0,0.333-6.333,0.75-11.333
		c0.417-5-1.667-4.083-1.667-4.083l-7.75,0.542 M966.731,916.559L999,896.667c10.333-6,21.167-49.167,21.167-49.167l9.167-41.5
		l6.542-0.667v-20c0,0,0.292-13.833,0-17.333c3.668,0,3.533-3,3.533-3v-13.667v-5.667c0,0-0.075-9.667-0.075-13.333
		c0.5-4.333-1.667-3.708-1.667-3.708h-12.917h-9.5 M985.167,1187.333c2.5-25.167,14.333-52.167,14.333-52.167l1.667-6l1.333-4.833
		l2-3l0.333-2.333l1-2.333l1.167-5.167l1-1.167l-1.167-0.833l1.333-1.667c0,0,1.167-3.333,1.667-5.833s-4-1.75-4-1.75H996.5
		 M1030.875,637.875h9.729c0,0,1.229,0.458,1.229,8.625s0,32.667,0,32.667s-1,4.333,3.167,4.167c4.167-0.167,15.167,1.5,17.833,10.5
		"/>
	<path id="LV22" fill="none" stroke="#FFFFFF" stroke-linejoin="round" stroke-miterlimit="10" d="M1024.5,100.75
		c0,0-0.75,9.75,0,12.5s3.5,5.75,3.5,5.75v6l-0.125,16.375c0,0-0.875,6.375,3.875,6.625c3-0.25,5.5,0,5.5,0v3.5v5.25v4.125v2.875
		l-0.625,2.125v3.75l-0.125,3.625l-0.625,5.875v5.375v5.5l-1.375,24.625c0,0,3.333-0.125,2.75,1.625s-1.375,3.75-1.375,3.75
		l-0.625,2.917l-0.75,2.667l-0.75,2.833l-0.417,2.75l-0.917,1.833l-1.333,3.917l-0.75,2.75L1029.5,242l-0.417,2.5l-0.917,1.917
		l-0.333,2.667l-0.917,1.417l-0.167,1.583l-1.75,3.167l0.333,1.083l-1.167,2.5v2.833l-1.167,2.667l-0.417,1.25l-1.417,5.167
		l-0.667,2.333v2.333l-1.25,3l-2.167,6l-5.833,15.333c0,0-5.5,17.083-10.917,18.417c-5.417,1.333-10,1.917-10,1.917V400l13,24.167
		l-1.573,45.779c0,0,3.443,2.189,23.591-0.962c3.899-0.609,3.899-0.609,3.899-0.609v12.292V491.5l0.875,2.25V515l20.792-1.917
		l9.833-1.75c0,0,6.417-1.75,7.25,1.667c0.833,3.417,1.833,6.083,1.833,6.083l3.25,10.083l3.167,7.75l2.667,7l4.25,6.417
		c0,0,1.667,1.083,1.833,6.167s0.75,12.417,0.75,12.417V577v6.333l-1,10.667l-0.333,6.25l-0.667,18.167l-0.417,64.25l2.417,30V735
		l5.125,8.625c0,0-2.625,0.375-2.75,5.625s0.25,7.125,0.25,7.125l0.75,5.875l-0.25,3.375L1089,770l-0.625,6l-0.125,1.875l0.25,3
		l-0.125,2.5l0.25,3.5l-0.375,3.75l-0.25,3l0.125,9.75c0,0-17,1.375-19.75,1.375s-3.875,1-3.875,1.875s0,4.25,0,4.25L1064.125,823
		l-0.125,9.5l-0.625,6.75l0.875,3l-0.875,3c0,0-1.125,6.875-1.125,8.125s-0.875,4.625-0.875,4.625l-1.375,2c0,0-1.5,7-1.5,7.75
		s-13,2.625-13,2.625l-0.5,3.875v5.875l0.625,31.5h6.75l6.625-1.25l6.375-0.375l4-1.125l5.625-0.625c0,0,4.375-0.125,4.375,4.125
		c0.375,4.25,0.875,12.625,0.875,12.625v2.875v4.375l0.125,14.625c0,0,1,1.5-4.125,1.625c-5.75,0.75-12.625,1.5-12.625,1.5
		s-1.5,1-1.375,3.5s0.625,10.25,0.625,10.25l0.25,3.875l-0.375,3.125V974l1,3.25v11.125c0,0,10.25-1.125,10.75-1.125
		s0.75,0.875,0.875,2.875s-0.5,7.75-0.5,7.75l0.125,4.375l-0.25,21.875l0.125,1.625l-4.125,0.75l-11.125,0.625h-4.875l-7.75,0.75
		c0,0-2.125,2.375-2,5.5s0,13.75,0,13.75l0.5,2.75l-0.375,2.75l0.375,4l-0.125,1.875l0.25,5l0.125,5.125l-0.375,4.25l0.375,8.125
		v5.25v6.25v5.375h5h2.5h3c0,0,1.625,0.625,1.375,2.375s-4.625,12.375-4.625,12.375l-4.375,10.875l-4.875,12.875
		c0,0-2.167,3.875-3.146,6.25c-0.979,2.375-2.229,6.75-2.229,6.75l-2.5,8.125l-1.625,3.625l-1,4.75l-1.625,3l-0.375,2.375l-2,5.875
		c0,0-2.125,2.125-4.875,4.5s-5,3.5-5,3.5l-2.75,1.875c0,0-6.125,4.75-8.875,12.75s-11.375,27.125-11.375,27.125L1007,1343l-0.5,9.5
		h2.667c0,0-1.167,8.5-1.667,10s-0.833,2.833-0.833,2.833s5.833-0.5,6.833-0.833s3.333-0.667,4.833-0.667s5.667,0,5.667,0
		l5.667-0.833c0,0,1,1.333,1.167,2.333c0.167,1,0,7.167,0,7.167l0.333,3.5l0.667,4.667l0.167,6.917l0.5,4l-0.083,2.833
		c0,0-0.25,4.5,0.5,4.667c0.75,0.167,3.667,0,3.667,0l3.5,0.074c0,0,1.333,0.509,1.25,1.676c-0.083,1.167-0.729,8.833-0.729,8.833
		v1.833v1.25v1.583l-0.771,2.167l-0.5,3l0.167,3.167l-0.75,7l-1.75,3.833c0,0-0.083,34.167,17.25,51.917
		c0.167,5.417-6.583,172.917-6.583,172.917l-28.667,4.333c0,0-0.667,4.667-0.667,7.333s0.5,6.167,0.5,6.833c0,0.667,1,5.833,1,5.833
		s1.333,6,1.333,7.833s0.167,7,0.167,7l-0.5,4.833v12.833h-9.167l0.5,11.333l0.5,27.5l0.167,11.833 M1067.204,511.718
		c0,0,3.796-1.218,7.796-1.718s5-2.333,5-2.333v-8.833L1077.5,481c0,0-1.167-8.5-1.167-12s-3.833-4.167-3.833-4.167
		s-10,0.5-15.167,1c-5.167,0.5-4.167-2.833-4.167-2.833l-0.333-15.833c0,0,0.167-9.833,0.167-17.333s3.5-7.167,3.5-7.167
		l9.167-0.667l-1.333-11l-1.64-9.333c0,0-0.36-11-0.027-17c0.333-6-2.333-7.333-12-6.333c-9.667,1-8.333-3-8.333-3v-7.667
		c0,0,0-25.667,0-30c0-4.333-1.729-5.333-1.729-5.333h-4.698l-0.031-25c0,0-0.542-10.333,0-16.667
		c0.542-6.333-6.208-8.787-6.208-8.787H1018"/>
	<path id="LV23" fill="none" stroke="#FFFFFF" stroke-linejoin="round" stroke-miterlimit="10" d="M1081.5,80.842
		c0,0,3.125,5.75,2.75,10.5s-1.359,8.25-1.359,8.25v4.375l-0.641,3.25l-0.125,7.5l-0.625,8.625v3.75v5.875l-1,4.875v3.75v3.75
		c0,0,7.375-0.25,9.25,0s1.25,3.25,1.125,4s0,7,0,7v4.25l-1,3.75v4.5l-1,43.875l-11.625,1.75H1074h-4.125c0,0-1.5-0.875-2,3.25
		s0,8,0,8l-0.222,6v5.375l-0.528,26v9.375v5.625l8.542-1.042c0,0,3.533-0.5,3.433,5.333c-0.1,5.833,0,10.833,0,10.833l0.733,15.5
		l0.333,6.333l-0.167,8.667l-0.167,2l13.333-0.833l6.167-0.667c0,0,3-0.5,3.167,4.667c0.167,5.167,0,19.667,0,19.667l0.074,22.667
		v1.333v0.667l6.759-1l20.333-2.667v13.5v5.5l-1,26.333l-17.167,1.833l0.5,28.167l-0.167,15.667l14.167-1.5l1.5,13.833l0.833,7.667
		l0.5,6.167l0.833,5.5v3.833v8.667l1,3v3.833v3.667l3.833-1.333l1.167,10v3.167v3.5l1,15.667c0,0,0.333,1.667,0,9.667
		c-0.333,8,0.148,17.667,0.148,17.667s0.852,27.833-4.815,31c-5.833,6.5-8.833,9.667-17.667,26.667
		c-8.833,17,4.833,109.167,4.833,109.167l1.833,3.167c0,0-0.167,2.333-1.333,4.667c-1.167,2.333-1.667,5.5-1.667,5.5l-2,3.667
		c0,0-1.167,1-1.5,1.667c-0.333,0.667-1.5,3.667-1.667,4.167c-0.167,0.5-1,4.333-1,4.333l-1.833,6.333l-0.833,4.5v4l-0.667,2.833
		h4.333l6.5-1.5l5.5-0.667l4.667-0.333l1.167,1.833l0.667,2.833l-0.5,3.167l0.042,3.167l-0.375,5.875l-19.125,3l-0.25,3.875
		l-1,16.25l-0.5,15.875c0,0-2.125-0.75-1.75,6.625s0.75,13.25,0.75,13.25l-0.25,5l-15.25,1.5l0.125,15.625l0.625,26.625l16.125-2
		l14.875-1.625l-0.125,10.75v18.375l0.125,10.625l-17,1.25l0.5,16.125l0.625,23.75l6.625-0.625l12.25-1.375l0.125,13.75l-0.125,6
		v19.125l0.625,0.625h4.25v2.25l-0.375,6.875v5.25l-0.375,20.75l-26.5,2.5l1.625,35.625l-10.375,0.75l-8.75,27.875l-3.5,10.875
		c0,0-3.25,9-4.125,17.75c-1,5.125-4.625,23.875-4.625,23.875l-7.75,0.75l-0.25,4.125l-0.625,10.875v16.875v15l-8,0.625h-3.875
		c0,0-2.75-0.875-3,6.5s0,12.625,0,12.625l0.75,8.5l-0.861,5.125l0.611,4.5l0.625,3.5l-0.625,5.5l3,0.625h12.5
		c0,0,0.625,6.5,0.625,13.875l-0.75,4.125l0.75,2.625l-0.875,2.5c0,0,1.5,0.125,0.875,1.5s-0.375,4.375-0.375,4.375l-0.125,4.5
		l0.125,11.75h6.875h5.125h6.125l4.25-0.5v3.875v4.5v5.5v17.75l-0.625,13h3h3.125l-0.125,16.875l-1.125,17.125l-0.125,1.875h-12.25
		c0,0-2.75,0-3.125,5.625s-2.875,21.25-2.875,21.25l-1.625,10.75c0,0-2.25,4-0.25,12.25c1.375,9.125,5,26.625,8.125,34.375
		l16.333,171.417l7.333,20.667c0,0-16.667,10.333-19,45.667c-2.333,35.333-3,47.833-3,47.833 M1124.875,903.592l-0.542-1.258v-41
		l-15.958,2.133 M1127.875,1021.342L1107,1023c0,0-3.333,0-2.667,16.333c0.667,16.333,1.167,20.258,1.167,20.258 M1068.25,1271.467
		l35.995-2.8c0,0-0.245-37.333,0-41c0.245-3.667-0.526-5.204-2.86-5.204s-5.661-1.271-5.661-1.271s-1.057-30.858-1.224-38.858
		c-0.167-8-2-7.347-2-7.347l-16.603,0.596 M1068.5,1316.717h-27.896v45.533l49.646-1.408"/>
	<path id="LV24" fill="none" stroke="#FFFFFF" stroke-linejoin="round" stroke-miterlimit="10" d="M1127.333,60.667
		c0,0,6.667,0.667,7.333,7.333c0.667,6.667,0,12.842,0,12.842l-2,9.158l-1.518,18.333v14.292V141H1142v18v37v13l-13.833,0.833
		l-10,0.667H1113l-1.5,4.667v5.333v6v5.167V239v10.333V273l16.667-1.167l4.833-0.5c0,0,2-0.833,1.167,5c-0.333,7.5-1,19.5-1,19.5
		l-0.5,25.333l-19.333,1.5h-6.833c0,0-4.074-0.733-4,6.217c0.074,6.95,0.074,44.333,0.074,44.333l27.093-3.667v16.783l-1,28.55
		l-17.167,1.833l0.283,15.951l0.102,22.998l-0.052,4.885l5.844-0.619l20.49-2.931l19-2.667l3.167-0.333v9v44.167V508l13.833-3.667
		c0,0,3.5-1.5,3,3.667l-0.667,6.5l-0.667,10.333L1175,540.5c0,0,2.5,2.833,1.167,9.5c-1.333,6.667-2.667,14-2.667,14l-4.833,27.167
		H1172l6.333-1.167l3.5-1c0,0,2.333,0.5,3.167,0.833c0.833,0.333,2.667,0.667,2.667,0.667v3.5l0.833,15.833V625v14l-10,1.833
		l-6.5,1.5l0.167,7.833l-0.667,19.667L1171.333,686l-1.667,2.833V709.5l-0.167,23.833h4.333H1178l0.667,1.667l-0.833,21.333
		l-1.667,37.5l-3.667,1.667h-7h-9.667l-0.833,14l-0.833,5l-0.167,4.667l-0.5,7.167l-0.167,6.333c0,0,0.5,23.5-0.667,24.167
		c-1.167,0.667,7-0.667,7-0.667l7.833-1.333l17.5-2.167h2.5c0,0,0.833-1.167,1,6.333s1,24,1,24l1,11.667l-7.583,0.667
		c0,0-2.417,0.583-2.5,5.167c-0.083,4.75-0.75,8.667-0.75,8.667l-0.5,3.917l-0.583,5.583l-2.333,18.083l-7.25,1.125l-1.375-0.625
		l-6.25,0.625l-12.375,2.25l-9.5,0.625v21l0.375,18.75h2.375l6.875-1.125l9.75-0.625l0.375,6.5l-0.625,18.25v14l0.125,0.875
		l11.375-0.875l8.75-0.875l2.125,0.125c0,0,2.875-0.375,2.5,4s-0.375,13.875-0.375,13.875l0.375,51.625c0,0-5,1.25-6.625,1.75
		s-11.625,2.125-11.625,2.125l-4.25,0.75c0,0-1.75-0.25-1.25,3.25l-0.5,1.75l1,1.75l0.125,3.75l0.75,3.25l0.875,1.5l-0.375,2.375
		l0.875,1.375l0.375,4.25l0.25,1.625l0.125,3.25l0.625,3l-0.75,2.25l-0.375,4l2,15.25l2.5,23.25l0.75,2.125l-46.25,4h-1.625
		c0,0-2.125,0-2.125,5.125c0,6.125,0.25,14,0.25,14s1,27.75,1,28.125s9,0,9,0l10.375-1l8.875-0.5c0,0,3.75-0.25,3.75,2.5
		s0,7.875,0,7.875l0.625,19.875l1.625,15.875v1.125l-13.5,0.625l-7,0.625c0,0-3.125,0.5-3.125,3.75s0.125,9.25,0.125,9.25l0.25,7
		l-0.625,25.375l0.125,0.625l11.125-0.625l10.875-0.75c0,0,3.625-0.75,3.5,3.875s-0.25,13.75-0.25,13.75l-0.375,26.25
		c0,0-0.625,2.5,4.5,1.875c1.625-0.125,2.375,0.75,2.375,2.875s-1.125,33.125-1.125,33.125l-10.625,0.75l-36.375,1.25l-2.25,40.5
		l1.5,35.625l-0.125,0.875l11-1.667l4.667,0.167l5.167-0.333l3.527-0.5l6.806-0.333l7.167-0.833l8-0.167c0,0,5.333-0.167,5.5,3.667
		c0.167,3.833,1,11.333,1,11.333l2.5,12.333l0.5,5.167l1.167,10.833c0,0,0.833,3.167-6.5,3.167s-8.667,3-8.667,5
		s0.167,6.667,0.167,6.667l0.667,43.167l1,34.167c0,0-0.5,4.5-0.5,5.167s1,4.667,1,4.667l-0.167,3.333l-1.333,31l-0.167,6.333h10.5
		l-2.333,39.167l-2.167,20.167l-0.5,3.167h7.167L1162,1765 M1149.75,1394.25v41.417c0,0-1.583,28.585,0,33.459 M1163.306,1470.226
		c-0.305-0.314,22.944-2.101,22.944-2.101s-2.125-19.875-2.5-23.25S1181,1434,1181,1434l-2-13.25l-2.375-18l-1.125-8.5l-0.75-0.75
		h-14.375 M1154.99,1558.752c0.615,4.002,9.135,3.373,16.385,3.123s11-0.875,11-0.875v-23.625v-11.75v-4.75v-3.625
		c0,0-0.256-2.652-0.875-2.625c-6.131,0.263-12.562-0.811-12.562-0.811 M1155.25,1315.625c0.962-3.525,1.75-4.458,1.75-4.458
		l29.25-1.167v-22.5c0,0,0.083-6.167,0-12s0-12.167,0-12.167h-0.917h-5.167H1179l-1.167-41.5l-0.333-5.667l6.167-1V1199
		c0,0-1-26.333-1-27.5s-0.833-3.667-0.833-3.667l-13.833,1.042 M1183.25,1051.833l-19.417,1.167l-5.333,0.667v5.167l-0.833,27.667
		v5.667l-8,1h-6.833l-8.667,1H1130c0,0-2.167,0.833-2.167,4c0,3.167,0,11.333,0,11.333l-2.167,19.333c0,0-2,6.833-1.833,10.667
		c-0.167,4.833-1.623,33.335-1.623,33.335 M1170.464,687.479l15.682-1.729V651.5v-12.068 M1142,141c0-14.333,4.5-12,4.5-12h19.043
		l2.124-6.375l2-36.625c0,0,0-9,3.667-22c3.667-13-0.667-12-3-14c-2.333-2-14-3.667-14-3.667"/>
</g>
</svg>
